<svg width="50" height="40" viewBox="0 0 50 40" xmlns="http://www.w3.org/2000/svg"><title>refresh</title><g fill="#FFF" fill-rule="evenodd"><path d="M48.86 23.272c-.06-.152-.158-.274-.25-.404-.054-.076-.082-.164-.146-.234-.006-.008-.018-.01-.026-.018-.118-.122-.264-.202-.408-.29-.08-.048-.146-.118-.228-.154-.092-.04-.198-.042-.296-.068-.154-.04-.306-.093-.466-.095-.012 0-.022-.006-.034-.006H35.003a2 2 0 1 0 0 4.002h6.955l-5.647 5.307c-6.242 6.24-16.392 6.246-22.636.004a16.13 16.13 0 0 1-3.775-5.98 2 2 0 0 0-3.769 1.336c.99 2.795 2.62 5.38 4.715 7.477 3.905 3.9 9.037 5.85 14.158 5.85 5.113 0 10.219-1.94 14.09-5.814l5.911-5.558v7.38a2.001 2.001 0 0 0 4.001 0V24.004c0-.108-.044-.198-.06-.302-.024-.144-.032-.292-.086-.43M2.216 17.844c-.008-.004-.016-.012-.024-.016a2.003 2.003 0 0 1-.632-.442c-.004-.006-.016-.008-.022-.016-.064-.068-.09-.154-.144-.228-.092-.132-.19-.256-.252-.408-.058-.146-.068-.298-.09-.45-.014-.098-.058-.182-.058-.282V3.999a2 2 0 1 1 4 0v7.378l5.912-5.556a20.1 20.1 0 0 1 7.43-4.673C28.74-2.529 40.192 2.934 43.871 13.333a2 2 0 1 1-3.771 1.334C37.153 6.35 27.99 1.975 19.673 4.922a16.114 16.114 0 0 0-5.982 3.773l-5.645 5.307h6.951a2 2 0 1 1 0 4.001H2.994a2.01 2.01 0 0 1-.778-.158"/></g></svg>