<svg width="40" height="40" viewBox="0 0 40 40" xmlns="http://www.w3.org/2000/svg"><title>Group 7</title><g fill="#FFF" fill-rule="evenodd"><path d="M14.586 22.586L4 33.172V26a2 2 0 1 0-4 0v12a1.999 1.999 0 0 0 2 2h12a2 2 0 1 0 0-4H6.828l10.586-10.586a1.998 1.998 0 0 0 0-2.828 1.998 1.998 0 0 0-2.828 0M39.846 1.236c.102.244.154.504.154.764v12a2 2 0 1 1-4 0V6.828L25.414 17.414c-.39.39-.902.586-1.414.586a1.998 1.998 0 0 1-1.414-3.414L33.172 4H26a2 2 0 1 1 0-4h12a1.999 1.999 0 0 1 1.846 1.236"/></g></svg>