<svg xmlns="http://www.w3.org/2000/svg" xmlns:xlink="http://www.w3.org/1999/xlink" version="1.1" x="0px" y="0px" viewBox="0 0 50 50" enable-background="new 0 0 50 50" xml:space="preserve" width="50px" height="50px" style="fill:#455A64;"><path d="M46.433,22.658c-0.33,0-0.643,0.063-0.942,0.155l-4.707-8.183c0.278-0.479,0.45-1.027,0.45-1.622  c0-1.792-1.457-3.249-3.25-3.249c-0.982,0-1.854,0.448-2.45,1.141l-7.431-2.918c0.023-0.155,0.049-0.311,0.049-0.471  c0-1.793-1.457-3.249-3.25-3.249c-1.791,0-3.248,1.458-3.248,3.249c0,0.122,0.022,0.238,0.035,0.357l-6.295,0.886  c-0.545-1.03-1.616-1.743-2.862-1.743c-1.792,0-3.249,1.457-3.249,3.248c0,0.614,0.181,1.183,0.479,1.673l-5.243,5.386  c-0.304-0.094-0.618-0.159-0.951-0.159c-1.792,0-3.249,1.458-3.249,3.249c0,1.79,1.458,3.249,3.249,3.249  c0.594,0,1.144-0.172,1.623-0.451l8.451,5.115c-0.013,0.109-0.034,0.219-0.034,0.332c0,1.793,1.458,3.25,3.249,3.25  c0.919,0,1.747-0.389,2.337-1.004l12.402,10.539c-0.113,0.332-0.188,0.682-0.188,1.051c0,1.791,1.456,3.248,3.249,3.248  c1.791,0,3.248-1.457,3.248-3.248c0-0.199-0.023-0.393-0.059-0.582l8.258-12.786c0.11,0.011,0.217,0.032,0.33,0.032  c1.793,0,3.25-1.457,3.25-3.248C49.683,24.116,48.226,22.658,46.433,22.658z M43.185,25.907c0,0.158,0.023,0.311,0.047,0.464  l-4.42,2.69c-0.578-0.899-1.584-1.502-2.73-1.502c-0.432,0-0.844,0.09-1.221,0.242l-2.76-5.061c0.613-0.592,0.998-1.418,0.998-2.334  c0-0.639-0.191-1.232-0.513-1.735l3.504-3.032c0.534,0.386,1.187,0.619,1.894,0.619c0.813,0,1.548-0.31,2.117-0.805l4.481,7.789  C43.739,23.831,43.185,24.804,43.185,25.907z M36.08,33.058c-1.24,0-2.249-1.009-2.249-2.248c0-1.24,1.009-2.248,2.249-2.248  c1.239,0,2.249,1.008,2.249,2.248C38.329,32.049,37.319,33.058,36.08,33.058z M32.886,30.265l-12.818-1.242  c0.004-0.033,0.007-0.064,0.01-0.098l7.833-5.927c0.543,0.407,1.21,0.659,1.94,0.659c0.512,0,0.991-0.131,1.424-0.344l2.732,5.015  C33.429,28.813,33.019,29.487,32.886,30.265z M18.341,16.259c1.24,0,2.249,1.009,2.249,2.248c0,1.24-1.009,2.249-2.249,2.249  c-1.239,0-2.249-1.009-2.249-2.249C16.092,17.268,17.102,16.259,18.341,16.259z M24.901,10.762c0.271,0,0.533-0.044,0.785-0.107  l2.457,7.002c-0.552,0.343-0.994,0.84-1.261,1.438l-5.337-1.009c-0.104-0.79-0.486-1.485-1.054-1.992l3.522-5.47  C24.299,10.704,24.592,10.762,24.901,10.762z M32.099,20.408c0,1.239-1.009,2.249-2.248,2.249c-1.24,0-2.25-1.01-2.25-2.249  c0-1.24,1.01-2.248,2.25-2.248C31.09,18.16,32.099,19.168,32.099,20.408z M18.759,21.714c1.396-0.182,2.518-1.242,2.771-2.615  l5.105,0.965c-0.014,0.115-0.035,0.228-0.035,0.345c0,0.696,0.226,1.341,0.602,1.87l-7.241,5.479  c-0.288-0.993-1.028-1.786-1.991-2.142L18.759,21.714z M37.983,10.762c1.24,0,2.248,1.009,2.248,2.248  c0,1.24-1.008,2.249-2.248,2.249s-2.25-1.009-2.25-2.249C35.733,11.771,36.743,10.762,37.983,10.762z M27.806,8.94l7.182,2.819  c-0.161,0.386-0.252,0.808-0.252,1.25c0,0.723,0.244,1.384,0.645,1.924l-3.459,2.992c-0.563-0.471-1.279-0.766-2.07-0.766  c-0.271,0-0.531,0.043-0.783,0.106l-2.457-7.003C27.123,9.943,27.536,9.485,27.806,8.94z M24.901,5.264  c1.24,0,2.248,1.009,2.248,2.249c0,1.239-1.008,2.249-2.248,2.249s-2.25-1.01-2.25-2.249C22.651,6.272,23.661,5.264,24.901,5.264z   M21.944,8.844c0.252,0.555,0.647,1.029,1.148,1.365l-3.436,5.334c-0.404-0.18-0.848-0.285-1.317-0.285  c-0.477,0-0.926,0.109-1.334,0.294l-2.16-3.019c0.575-0.587,0.934-1.389,0.934-2.273c0-0.186-0.025-0.364-0.055-0.542L21.944,8.844z   M12.53,8.013c1.24,0,2.249,1.009,2.249,2.249c0,1.239-1.009,2.248-2.249,2.248s-2.249-1.009-2.249-2.248  C10.281,9.021,11.29,8.013,12.53,8.013z M10.408,12.701c0.571,0.497,1.308,0.809,2.123,0.809c0.546,0,1.054-0.147,1.506-0.388  l2.135,2.984c-0.656,0.594-1.077,1.442-1.08,2.396l-8.336,1.331c-0.151-0.842-0.628-1.566-1.295-2.05L10.408,12.701z M1.316,20.409  c0-1.24,1.009-2.249,2.249-2.249s2.249,1.009,2.249,2.249s-1.009,2.249-2.249,2.249S1.316,21.649,1.316,20.409z M13.904,27.313  l-7.899-4.78c0.407-0.468,0.68-1.046,0.767-1.689l8.489-1.354c0.358,1.125,1.303,1.986,2.481,2.207l-0.753,3.727  c-0.045-0.002-0.088-0.014-0.134-0.014C15.543,25.407,14.416,26.192,13.904,27.313z M16.854,30.903c-1.24,0-2.249-1.008-2.249-2.248  c0-1.239,1.009-2.248,2.249-2.248s2.248,1.009,2.248,2.248C19.103,29.896,18.095,30.903,16.854,30.903z M19.765,30.073  c0.012-0.024,0.026-0.047,0.039-0.071l13.074,1.267c0.195,1.371,1.238,2.469,2.588,2.728l-1.219,5.286  c-0.887,0.113-1.656,0.576-2.172,1.255L19.765,30.073z M34.653,44.739c-1.239,0-2.248-1.01-2.248-2.25  c0-1.239,1.009-2.248,2.248-2.248c1.24,0,2.25,1.009,2.25,2.248C36.903,43.729,35.896,44.739,34.653,44.739z M37.396,40.763  c-0.473-0.744-1.231-1.287-2.127-1.459l1.219-5.287c1.599-0.203,2.842-1.556,2.842-3.207c0-0.285-0.049-0.557-0.118-0.82  l4.327-2.637c0.332,0.66,0.874,1.192,1.547,1.502L37.396,40.763z M46.433,28.155c-1.24,0-2.248-1.01-2.248-2.248  c0-1.24,1.008-2.25,2.248-2.25s2.25,1.01,2.25,2.25S47.673,28.155,46.433,28.155z" style="fill:#455A64;"/></svg>