<svg xmlns="http://www.w3.org/2000/svg" xmlns:xlink="http://www.w3.org/1999/xlink" version="1.1" x="0px" y="0px" viewBox="0 0 66 66" enable-background="new 0 0 66 66" xml:space="preserve" width="66px" height="66px" style="fill:#455A64;"><g><g><g><path d="M64.25,62.15h-3.607V26.014c0-0.414-0.336-0.75-0.75-0.75h-7.249c-0.414,0-0.75,0.336-0.75,0.75V62.15h-3.24V35.55     c0-0.414-0.336-0.75-0.75-0.75h-7.25c-0.414,0-0.75,0.336-0.75,0.75V62.15h-3.24v-19c0-0.414-0.336-0.75-0.75-0.75h-7.25     c-0.414,0-0.75,0.336-0.75,0.75v19h-3.24V52.114c0-1.335-1.8-0.49-7.999-0.75c-0.414,0-0.75,0.336-0.75,0.75V62.15H1.75     C1.336,62.15,1,62.486,1,62.9c0,0.414,0.336,0.75,0.75,0.75c18.687,0,43.153,0,62.5,0c0.414,0,0.75-0.336,0.75-0.75     C65,62.486,64.664,62.15,64.25,62.15z M17.425,62.15v-9.286h5.749v9.286H17.425z M29.414,62.15V43.9h5.75v18.25H29.414z      M41.404,62.15V36.3h5.75V62.15H41.404z M53.394,62.15V26.764h5.749V62.15H53.394z" style="fill:#455A64;"/></g><g><path d="M4.476,53.762c2.886,0.637,5.342-2.237,4.02-5.122c-0.038-0.083-0.09-0.157-0.135-0.236l6.256-5.643     c1.117,0.825,2.659,0.943,3.917,0.223l0.29,0.315c-0.354,0.724-0.456,1.556-0.277,2.374c0.294,1.343,1.351,2.399,2.693,2.693     c1.506,0.332,3.007-0.295,3.819-1.562c0.637-0.993,0.733-2.196,0.288-3.336l37.994-32.071l-0.384,4.32     c-0.037,0.412,0.268,0.776,0.681,0.814c0.022,0.002,0.045,0.003,0.067,0.003c0.384,0,0.712-0.294,0.746-0.683l0.544-6.119     c0.044-0.374-0.222-0.797-0.678-0.838l-6.144-0.547c-0.406-0.043-0.777,0.268-0.813,0.681c-0.037,0.412,0.268,0.776,0.681,0.814     l4.36,0.388l-37.898,31.99c-1.275-1.171-3.343-1.237-4.732-0.104l-0.124-0.134c0.041-0.057,0.087-0.111,0.125-0.171     c1.148-1.788,0.482-4.294-1.389-5.151c-1.583-0.726-3.393-0.307-4.421,0.973c-0.945,1.175-1.022,2.778-0.337,4.005L7.345,47.3     c-0.14-0.093-0.284-0.179-0.438-0.25c-2.818-1.293-5.769,1.077-5.124,4.02C2.078,52.411,3.135,53.468,4.476,53.762z      M22.042,42.788c1.875,0,2.553,1.96,1.755,3.206c-0.472,0.735-1.357,1.1-2.236,0.907c-0.76-0.167-1.383-0.789-1.549-1.55     c-0.142-0.648,0.002-1.282,0.406-1.784C20.816,43.072,21.408,42.788,22.042,42.788z M15.13,38.57     c0.597-0.742,1.615-1.014,2.628-0.55c1.043,0.478,1.4,1.969,0.751,2.978c-0.472,0.736-1.358,1.101-2.235,0.907     C14.79,41.579,14.171,39.763,15.13,38.57z M6.283,48.413c0.37,0.17,0.679,0.479,0.849,0.851c0.796,1.739-0.633,3.406-2.334,3.033     c-0.76-0.167-1.382-0.789-1.549-1.55C2.882,49.078,4.506,47.603,6.283,48.413z" style="fill:#455A64;"/></g><g><path d="M20.3,32.981c8.445,0,15.316-6.87,15.316-15.315c0-8.445-6.871-15.316-15.316-15.316     c-8.445,0-15.316,6.871-15.316,15.316C4.983,26.111,11.854,32.981,20.3,32.981z M20.3,3.85c7.618,0,13.816,6.198,13.816,13.816     c0,7.618-6.198,13.815-13.816,13.815c-7.618,0-13.816-6.197-13.816-13.815C6.483,10.048,12.682,3.85,20.3,3.85z" style="fill:#455A64;"/></g><g><path d="M15.463,21.275l-1.811,2.158c1.802,1.572,3.837,2.473,6.102,2.704v1.811h1.588v-1.786     c1.687-0.082,3.042-0.579,4.069-1.489c1.025-0.909,1.538-2.088,1.538-3.535c0-1.447-0.446-2.551-1.339-3.312     c-0.893-0.761-2.291-1.365-4.192-1.811h-0.075v-4.663c1.273,0.182,2.456,0.661,3.548,1.439l1.612-2.282     c-1.621-1.108-3.341-1.728-5.16-1.861V7.383h-1.588v1.24c-1.604,0.083-2.906,0.579-3.907,1.488     c-1.001,0.91-1.501,2.08-1.501,3.511c0,1.43,0.434,2.509,1.302,3.237c0.868,0.728,2.236,1.315,4.106,1.761v4.813     C18.282,23.202,16.852,22.482,15.463,21.275z M21.342,19.042c0.993,0.298,1.67,0.616,2.034,0.956     c0.364,0.339,0.546,0.798,0.546,1.377c0,0.579-0.232,1.059-0.694,1.439c-0.463,0.38-1.092,0.612-1.885,0.694V19.042z      M17.869,14.639c-0.331-0.322-0.496-0.761-0.496-1.315c0-0.554,0.211-1.017,0.633-1.389c0.422-0.372,1.004-0.591,1.748-0.657     v4.292C18.828,15.271,18.2,14.962,17.869,14.639z" style="fill:#455A64;"/></g></g></g></svg>