<svg xmlns="http://www.w3.org/2000/svg" xmlns:xlink="http://www.w3.org/1999/xlink" version="1.0" x="0px" y="0px" viewBox="0 0 100 100" enable-background="new 0 0 100 100" xml:space="preserve" width="100px" height="100px" style="fill:#455A64;"><g><path d="M75.9,60.5c-2.1,0-4.1,0.4-6,1.1l-15-14.8l12.5-12.5l7.6,7.6c0.2,0.2,0.5,0.3,0.8,0.3c0.3,0,0.6-0.1,0.8-0.3   c0.4-0.4,0.4-1.1,0-1.6l-2.6-2.6l18.7-18.7c3.1-3.1,3.1-8.3,0-11.4c-1.5-1.5-3.5-2.4-5.7-2.4S82.8,6,81.2,7.5L62.5,26.2l-2.6-2.6   c-0.4-0.4-1.1-0.4-1.6,0c-0.4,0.4-0.4,1.1,0,1.6l3.4,3.4c0,0,0,0,0,0l4.1,4.1L53.3,45.2L38.2,30.3c1.2-2.9,1.5-6.1,0.9-9.3   c-0.6-3.5-2.3-6.7-4.8-9.2c-3.2-3.2-7.6-5-12.2-5c-2.4,0-4.8,0.5-7,1.5c-0.3,0.1-0.6,0.5-0.6,0.8c-0.1,0.4,0.1,0.7,0.3,1l6.5,6.5   v6.9h-6.8l-6.5-6.5c-0.3-0.3-0.6-0.4-1-0.3c-0.4,0.1-0.7,0.3-0.8,0.7C3.6,23.8,5.1,31.2,10,36.1c3.2,3.2,7.6,5,12.2,5   c2.1,0,4.1-0.4,6-1.1l15.2,15L22.7,75.9L20.8,74c-0.4-0.4-1.1-0.4-1.6,0L8,85.4c-0.4,0.4-0.4,1.1,0,1.6l5.2,5.2   c0.2,0.2,0.5,0.3,0.8,0.3c0.3,0,0.6-0.1,0.8-0.3l11.3-11.3c0.4-0.4,0.4-1.1,0-1.6l-1.8-1.8L45,56.7l14.9,14.7   c-1.2,2.9-1.5,6.1-0.9,9.3c0.6,3.5,2.3,6.7,4.8,9.2c3.2,3.2,7.6,5,12.2,5c2.4,0,4.8-0.5,7-1.5c0.3-0.1,0.6-0.5,0.6-0.8   c0.1-0.4-0.1-0.7-0.3-1l-6.5-6.5v-6.9h6.8l6.5,6.5c0.3,0.3,0.6,0.4,1,0.3c0.4-0.1,0.7-0.3,0.8-0.7c2.7-6.5,1.3-13.9-3.7-18.9   C84.8,62.3,80.5,60.5,75.9,60.5z M82.8,9.1c1.1-1.1,2.6-1.7,4.1-1.7c1.6,0,3,0.6,4.1,1.7c2.3,2.3,2.3,6,0,8.3L72.4,36l-8.3-8.3   L82.8,9.1z M14,89.8l-3.7-3.7l9.8-9.8l1.8,1.8c0,0,0,0,0,0c0,0,0,0,0,0l1.8,1.8L14,89.8z M90.3,81.9l-5.5-5.5   c-0.2-0.2-0.5-0.3-0.8-0.3h-8.3c-0.6,0-1.1,0.5-1.1,1.1v8.4c0,0.3,0.1,0.6,0.3,0.8l5.6,5.6c-1.5,0.5-3,0.7-4.5,0.7   c-4,0-7.8-1.6-10.6-4.4c-2.2-2.2-3.6-4.9-4.2-8c-0.5-3-0.2-6,1.1-8.7c0.2-0.4,0.1-0.9-0.2-1.2L29.2,38c-0.2-0.2-0.5-0.3-0.8-0.3   c-0.1,0-0.3,0-0.4,0.1c-1.9,0.8-3.8,1.2-5.8,1.2c-4,0-7.8-1.6-10.6-4.4C7.7,30.6,6.3,25,7.8,19.7l5.5,5.5c0.2,0.2,0.5,0.3,0.8,0.3   h8.3c0.6,0,1.1-0.5,1.1-1.1v-8.4c0-0.3-0.1-0.6-0.3-0.8l-5.6-5.6c1.5-0.5,3-0.7,4.5-0.7c4,0,7.8,1.6,10.6,4.4   c2.2,2.2,3.6,4.9,4.2,8c0.5,3,0.2,6-1.1,8.7c-0.2,0.4-0.1,0.9,0.2,1.2l32.8,32.3c0.3,0.3,0.8,0.4,1.2,0.2c1.9-0.8,3.8-1.2,5.8-1.2   c4,0,7.8,1.6,10.6,4.4C90.4,71,91.8,76.7,90.3,81.9z" style="fill:#455A64;"/></g></svg>