<svg xmlns="http://www.w3.org/2000/svg" viewBox="0 0 1064.1 1056.45"><defs><style>.cls-1,.cls-7{fill:#7ab6e3;}.cls-12,.cls-13,.cls-2,.cls-5,.cls-6{fill:none;}.cls-10,.cls-13,.cls-2,.cls-3,.cls-4,.cls-5,.cls-7{stroke:#2f307f;}.cls-10,.cls-13,.cls-2,.cls-3,.cls-4,.cls-5,.cls-6,.cls-7{stroke-miterlimit:10;}.cls-2,.cls-3,.cls-4{stroke-width:1.06px;}.cls-3,.cls-8{fill:#fff;}.cls-4{fill:#4284c5;}.cls-5,.cls-6{stroke-width:3px;}.cls-12,.cls-6{stroke:#7ab6e3;}.cls-10,.cls-9{fill:#eaf6fd;}.cls-11{fill:#2f307f;}.cls-12{stroke-linecap:round;stroke-linejoin:round;stroke-width:2.85px;}</style></defs><title>img-events-2</title><g id="Layer_2" data-name="Layer 2"><g id="Layer_1-2" data-name="Layer 1"><path class="cls-1" d="M313.23,1049l3.48-18.37H322l-5.73,25.82h-5.36l-4.2-17.27-4.2,17.27h-5.36l-5.73-25.82h5.31l3.49,18.34,4.26-18.34H309Z"/><path class="cls-1" d="M340.42,1045.26H330.2v6.92h12v4.27H324.88v-25.82h17.28v4.31h-12v6.15h10.22Z"/><path class="cls-1" d="M345.31,1056.45v-25.82h9.05q4.69,0,7.13,1.8a6.16,6.16,0,0,1,2.43,5.28,5.83,5.83,0,0,1-1,3.34,5.64,5.64,0,0,1-2.71,2.12,5.47,5.47,0,0,1,3.13,2,6,6,0,0,1,1.14,3.69,6.81,6.81,0,0,1-2.37,5.64,10.69,10.69,0,0,1-6.78,2Zm5.32-15h3.94q4-.08,4-3.21a3,3,0,0,0-1-2.53,5.39,5.39,0,0,0-3.22-.77h-3.73Zm0,3.76v7h4.56a4.4,4.4,0,0,0,2.94-.9,3.06,3.06,0,0,0,1.05-2.47q0-3.55-3.67-3.6Z"/><rect class="cls-1" x="323.21" y="955.7" width="26.78" height="32"/><rect class="cls-2" x="323.21" y="955.7" width="26.78" height="52"/><line class="cls-3" x1="370" y1="1007.7" x2="303.21" y2="1007.7"/><rect class="cls-3" x="244.99" y="863.37" width="183.23" height="112" rx="10.26"/><line class="cls-3" x1="244.99" y1="955.7" x2="428.22" y2="955.7"/><path class="cls-1" d="M7,708.51l6.63,18.72,6.6-18.72h7v25.82H21.83v-7.06l.53-12.18-7,19.24H11.74L4.79,715.1l.53,12.17v7.06H0V708.51Z"/><path class="cls-1" d="M53,722a15.61,15.61,0,0,1-1.35,6.69,10.14,10.14,0,0,1-3.86,4.43,11.4,11.4,0,0,1-11.48,0,10.24,10.24,0,0,1-3.9-4.41,15.13,15.13,0,0,1-1.4-6.59v-1.27a15.66,15.66,0,0,1,1.37-6.72,10.27,10.27,0,0,1,3.89-4.45,11.38,11.38,0,0,1,11.47,0,10.25,10.25,0,0,1,3.88,4.45,15.45,15.45,0,0,1,1.38,6.7Zm-5.39-1.17a10.85,10.85,0,0,0-1.46-6.17,5.14,5.14,0,0,0-8.28,0,10.74,10.74,0,0,0-1.47,6.11V722a11,11,0,0,0,1.45,6.14,4.74,4.74,0,0,0,4.19,2.18,4.67,4.67,0,0,0,4.11-2.1,10.92,10.92,0,0,0,1.46-6.13Z"/><path class="cls-1" d="M56.9,734.33V708.51h9q4.69,0,7.13,1.8a6.15,6.15,0,0,1,2.43,5.27,5.87,5.87,0,0,1-1,3.35A5.57,5.57,0,0,1,71.81,721a5.48,5.48,0,0,1,3.13,2,5.92,5.92,0,0,1,1.14,3.69,6.83,6.83,0,0,1-2.37,5.64,10.73,10.73,0,0,1-6.78,2Zm5.32-15h3.93q4-.06,4-3.21a3,3,0,0,0-1-2.52,5.32,5.32,0,0,0-3.22-.77H62.22Zm0,3.76v7h4.55a4.4,4.4,0,0,0,2.94-.89,3.08,3.08,0,0,0,1.05-2.47q0-3.56-3.67-3.61Z"/><path class="cls-1" d="M85.73,734.33H80.41V708.51h5.32Z"/><path class="cls-1" d="M96,730.05h11.3v4.28H90.66V708.51H96Z"/><path class="cls-1" d="M125.87,723.14H115.65v6.91h12v4.28H110.33V708.51h17.28v4.31h-12V719h10.22Z"/><rect class="cls-2" x="27.85" y="531.35" width="79.99" height="142.11" rx="9.4"/><rect class="cls-4" x="27.85" y="531.35" width="79.99" height="142.11" rx="9.4"/><rect class="cls-3" x="27.85" y="531.35" width="79.99" height="142.11" rx="9.4"/><path class="cls-3" d="M98.44,531.35H95.27A6.28,6.28,0,0,0,89,537.63V543a5,5,0,0,1-5,5H51.68a5,5,0,0,1-5-5v-5.36a6.29,6.29,0,0,0-6.29-6.28H37.26a9.4,9.4,0,0,0-9.41,9.4v123.3a9.4,9.4,0,0,0,9.41,9.4H98.44a9.4,9.4,0,0,0,9.4-9.4V540.75A9.4,9.4,0,0,0,98.44,531.35Z"/><line class="cls-5" x1="77.14" y1="540.64" x2="59.33" y2="540.64"/><circle class="cls-1" cx="67.85" cy="659.76" r="7.01"/><path class="cls-1" d="M401,184.63l6.64,18.73,6.59-18.73h7v25.82h-5.34v-7.06l.54-12.18-7,19.24h-3.66l-7-19.22.53,12.16v7.06h-5.32V184.63Z"/><path class="cls-1" d="M447.08,198.13a15.53,15.53,0,0,1-1.35,6.68,10.15,10.15,0,0,1-3.85,4.44,11.39,11.39,0,0,1-11.49,0,10.15,10.15,0,0,1-3.9-4.4,15.17,15.17,0,0,1-1.4-6.59V197a15.58,15.58,0,0,1,1.37-6.71,10.21,10.21,0,0,1,3.89-4.45,11.32,11.32,0,0,1,11.47,0,10.21,10.21,0,0,1,3.89,4.45,15.52,15.52,0,0,1,1.37,6.69ZM441.69,197a11,11,0,0,0-1.45-6.18,5.14,5.14,0,0,0-8.29,0,10.71,10.71,0,0,0-1.47,6.11v1.26a11,11,0,0,0,1.45,6.13,5.1,5.1,0,0,0,8.31.08,11,11,0,0,0,1.45-6.12Z"/><path class="cls-1" d="M472,210.45h-5.33l-10.35-17v17H451V184.63h5.32l10.37,17v-17H472Z"/><path class="cls-1" d="M482.25,210.45h-5.32V184.63h5.32Z"/><path class="cls-1" d="M506.1,188.94h-7.91v21.51h-5.32V188.94h-7.8v-4.31h21Z"/><path class="cls-1" d="M529.85,198.13a15.53,15.53,0,0,1-1.35,6.68,10.15,10.15,0,0,1-3.85,4.44,11.39,11.39,0,0,1-11.49,0,10.15,10.15,0,0,1-3.9-4.4,15.17,15.17,0,0,1-1.4-6.59V197a15.58,15.58,0,0,1,1.37-6.71,10.21,10.21,0,0,1,3.89-4.45,11.32,11.32,0,0,1,11.47,0,10.21,10.21,0,0,1,3.89,4.45,15.52,15.52,0,0,1,1.37,6.69ZM524.46,197a10.89,10.89,0,0,0-1.46-6.18,5.13,5.13,0,0,0-8.28,0,10.71,10.71,0,0,0-1.47,6.11v1.26a11,11,0,0,0,1.46,6.13,5.08,5.08,0,0,0,8.29.08,10.88,10.88,0,0,0,1.46-6.12Z"/><path class="cls-1" d="M543.28,201H539v9.45h-5.32V184.63h9.59c3.05,0,5.41.68,7.06,2a7,7,0,0,1,2.48,5.76,8,8,0,0,1-1.14,4.41,7.78,7.78,0,0,1-3.47,2.81l5.59,10.55v.25h-5.71ZM539,196.69h4.29a4.37,4.37,0,0,0,3.1-1,3.62,3.62,0,0,0,1.1-2.81,3.88,3.88,0,0,0-1-2.87,4.33,4.33,0,0,0-3.19-1.05H539Z"/><path class="cls-1" d="M562.56,210.45h-5.33V184.63h5.33Z"/><path class="cls-1" d="M588.48,210.45h-5.32l-10.35-17v17h-5.32V184.63h5.32l10.37,17v-17h5.3Z"/><path class="cls-1" d="M613.56,207.19a9.2,9.2,0,0,1-4.06,2.67,17.08,17.08,0,0,1-5.82.95,11.51,11.51,0,0,1-5.88-1.47,9.79,9.79,0,0,1-3.9-4.24,15.16,15.16,0,0,1-1.41-6.55V196.8a15.89,15.89,0,0,1,1.31-6.7,9.68,9.68,0,0,1,3.76-4.33,12.34,12.34,0,0,1,12.93.7,9.34,9.34,0,0,1,3.07,6.37h-5.18a5.08,5.08,0,0,0-1.57-3.24,5,5,0,0,0-3.34-1,4.71,4.71,0,0,0-4.13,2,10.66,10.66,0,0,0-1.44,6.06v1.65a10.29,10.29,0,0,0,1.54,6.14,5.3,5.3,0,0,0,4.53,2.07c2,0,3.42-.42,4.27-1.27V200.8H603.4v-3.91h10.16Z"/><rect class="cls-1" x="490.37" y="109.7" width="26.78" height="32"/><rect class="cls-2" x="490.37" y="109.7" width="26.78" height="52"/><line class="cls-3" x1="537.15" y1="161.7" x2="470.37" y2="161.7"/><rect class="cls-3" x="412.15" y="17.37" width="183.23" height="112" rx="10.26"/><line class="cls-3" x1="412.15" y1="109.7" x2="595.38" y2="109.7"/><path class="cls-6" d="M412.28,109.58c14.65-27,30.64-37.41,40-37,12.74.55,16.21,15.33,29,15,16.43-.42,21-25.06,42-29,9.39-1.76,16.84,8.49,28,9,17.66.81,34-17,44-40"/><circle class="cls-7" cx="503.37" cy="18.5" r="18"/><path class="cls-8" d="M501.64,25.62a1.72,1.72,0,0,1,1.74-1.82,1.82,1.82,0,0,1,0,3.64A1.72,1.72,0,0,1,501.64,25.62Zm.74-4.2L502,7.32h2.83l-.42,14.1Z"/><path class="cls-1" d="M890.81,666.13h-9.33l-1.78,5.32H874l9.62-25.82h4.93l9.66,25.82H892.6Zm-7.9-4.31h6.46l-3.25-9.66Z"/><path class="cls-1" d="M921.67,671.45h-5.33l-10.35-17v17h-5.32V645.63H906l10.37,17v-17h5.31Z"/><path class="cls-1" d="M941.21,666.13h-9.33l-1.77,5.32h-5.66l9.61-25.82H939l9.67,25.82H943Zm-7.89-4.31h6.45l-3.24-9.66Z"/><path class="cls-1" d="M956.39,667.18h11.3v4.27H951.07V645.63h5.32Z"/><path class="cls-1" d="M974.69,657.26l5.38-11.63h5.81l-8.47,16.46v9.36H972v-9.36l-8.48-16.46h5.83Z"/><path class="cls-1" d="M1008,649.94h-7.91v21.51h-5.32V649.94H987v-4.31h21Z"/><path class="cls-1" d="M1016.67,671.45h-5.32V645.63h5.32Z"/><path class="cls-1" d="M1041.87,662.85a9.11,9.11,0,0,1-3.07,6.56,10.8,10.8,0,0,1-7.32,2.4,9.72,9.72,0,0,1-7.81-3.35q-2.85-3.33-2.85-9.17v-1.58a15.4,15.4,0,0,1,1.32-6.56,9.74,9.74,0,0,1,3.75-4.36,11.69,11.69,0,0,1,12.86.88,9.82,9.82,0,0,1,3.16,6.72h-5.32a5.4,5.4,0,0,0-1.39-3.63,5.18,5.18,0,0,0-3.65-1.12,4.52,4.52,0,0,0-4,1.9q-1.32,1.92-1.36,5.92v1.95c0,2.79.43,4.83,1.27,6.12a4.44,4.44,0,0,0,4,1.93,5.26,5.26,0,0,0,3.68-1.12,5.06,5.06,0,0,0,1.39-3.49Z"/><path class="cls-1" d="M1058.76,664.68a2.74,2.74,0,0,0-1.07-2.32,14.08,14.08,0,0,0-3.83-1.7,27.74,27.74,0,0,1-4.38-1.76c-2.93-1.59-4.4-3.72-4.4-6.41a6.27,6.27,0,0,1,1.18-3.73,7.72,7.72,0,0,1,3.39-2.56,12.67,12.67,0,0,1,5-.93,11.58,11.58,0,0,1,4.93,1,7.88,7.88,0,0,1,3.36,2.83,7.37,7.37,0,0,1,1.2,4.15h-5.32a3.48,3.48,0,0,0-1.12-2.76,4.58,4.58,0,0,0-3.14-1,4.9,4.9,0,0,0-3,.83,2.6,2.6,0,0,0-1.08,2.17,2.5,2.5,0,0,0,1.26,2.11,14.38,14.38,0,0,0,3.74,1.6,16.22,16.22,0,0,1,6.61,3.38,6.74,6.74,0,0,1,2.08,5,6.21,6.21,0,0,1-2.54,5.26,11.12,11.12,0,0,1-6.83,1.91,13.28,13.28,0,0,1-5.42-1.09,8.64,8.64,0,0,1-3.74-3,7.71,7.71,0,0,1-1.28-4.4h5.33c0,2.85,1.71,4.27,5.11,4.27a4.89,4.89,0,0,0,3-.77A2.5,2.5,0,0,0,1058.76,664.68Z"/><polyline class="cls-3" points="885.28 487.58 885.28 603.58 1053.78 603.58"/><path class="cls-3" d="M914.78,559.58h0a11.5,11.5,0,0,1,11.5,11.5v32.5a0,0,0,0,1,0,0h-23a0,0,0,0,1,0,0v-32.5A11.5,11.5,0,0,1,914.78,559.58Z"/><path class="cls-7" d="M948.28,532.58h0a11.5,11.5,0,0,1,11.5,11.5v59.5a0,0,0,0,1,0,0h-23a0,0,0,0,1,0,0v-59.5a11.5,11.5,0,0,1,11.5-11.5Z"/><path class="cls-3" d="M981.78,510.58h0a11.5,11.5,0,0,1,11.5,11.5v81.5a0,0,0,0,1,0,0h-23a0,0,0,0,1,0,0v-81.5A11.5,11.5,0,0,1,981.78,510.58Z"/><path class="cls-3" d="M1014.78,490.58h0a11.5,11.5,0,0,1,11.5,11.5v101.5a0,0,0,0,1,0,0h-23a0,0,0,0,1,0,0V502.08A11.5,11.5,0,0,1,1014.78,490.58Z"/><circle class="cls-9" cx="465.6" cy="542.31" r="117.77"/><polygon class="cls-3" points="882.56 261.47 882.56 193.71 823.88 159.83 765.19 193.71 765.19 261.47 823.88 295.35 882.56 261.47"/><path class="cls-10" d="M859.91,219.1h-11.7a1.59,1.59,0,0,1-1.12-2.71l8.27-8.27a1.58,1.58,0,0,0,0-2.24l-9.77-9.77a1.58,1.58,0,0,0-2.24,0l-8.27,8.27a1.59,1.59,0,0,1-2.71-1.12v-11.7a1.58,1.58,0,0,0-1.58-1.58H817a1.58,1.58,0,0,0-1.58,1.58v11.7a1.58,1.58,0,0,1-2.7,1.12l-8.27-8.27a1.58,1.58,0,0,0-2.24,0l-9.78,9.77a1.58,1.58,0,0,0,0,2.24l8.27,8.27a1.59,1.59,0,0,1-1.12,2.71h-11.7a1.58,1.58,0,0,0-1.58,1.58v13.83a1.58,1.58,0,0,0,1.58,1.58h11.7a1.58,1.58,0,0,1,1.12,2.7l-8.27,8.27a1.58,1.58,0,0,0,0,2.24l9.78,9.78a1.58,1.58,0,0,0,2.24,0l8.27-8.27a1.58,1.58,0,0,1,2.7,1.12v11.69a1.59,1.59,0,0,0,1.58,1.59h13.83a1.59,1.59,0,0,0,1.58-1.59V251.93a1.59,1.59,0,0,1,2.71-1.12l8.27,8.27a1.58,1.58,0,0,0,2.24,0l9.77-9.78a1.58,1.58,0,0,0,0-2.24l-8.27-8.27a1.58,1.58,0,0,1,1.12-2.7h11.7a1.58,1.58,0,0,0,1.58-1.58V220.68A1.58,1.58,0,0,0,859.91,219.1Z"/><circle class="cls-3" cx="823.88" cy="227.59" r="13.19"/><path class="cls-11" d="M523.73,550.93h-8v5.43h9.42v3.36h-13.6V539.44H525.1v3.38h-9.39v4.83h8Z"/><path class="cls-11" d="M540.78,554.69l4.6-15.25H550L543,559.72h-4.36l-7-20.28h4.64Z"/><path class="cls-11" d="M569.85,550.93h-8v5.43h9.42v3.36h-13.6V539.44h13.57v3.38h-9.39v4.83h8Z"/><path class="cls-11" d="M595.89,559.72h-4.18l-8.13-13.35v13.35H579.4V539.44h4.18l8.15,13.37V539.44h4.16Z"/><path class="cls-11" d="M620.11,542.82H613.9v16.9h-4.18v-16.9h-6.13v-3.38h16.52Z"/><path class="cls-11" d="M638.5,554.4a2.14,2.14,0,0,0-.84-1.82,11.09,11.09,0,0,0-3-1.34,21.06,21.06,0,0,1-3.44-1.39c-2.3-1.24-3.45-2.92-3.45-5a5,5,0,0,1,.92-2.94,6.06,6.06,0,0,1,2.66-2,10.11,10.11,0,0,1,3.9-.72,9.16,9.16,0,0,1,3.87.78,6.23,6.23,0,0,1,2.64,2.23,5.77,5.77,0,0,1,.94,3.26h-4.18a2.72,2.72,0,0,0-.88-2.17,3.56,3.56,0,0,0-2.46-.77,3.85,3.85,0,0,0-2.38.64,2,2,0,0,0-.85,1.71,2,2,0,0,0,1,1.66,11.49,11.49,0,0,0,2.94,1.25,12.76,12.76,0,0,1,5.19,2.66,5.29,5.29,0,0,1,1.63,4,4.88,4.88,0,0,1-2,4.13,8.72,8.72,0,0,1-5.36,1.5,10.41,10.41,0,0,1-4.27-.86,6.68,6.68,0,0,1-2.93-2.35,6,6,0,0,1-1-3.45h4.19c0,2.24,1.34,3.35,4,3.35a3.92,3.92,0,0,0,2.32-.6A2,2,0,0,0,638.5,554.4Z"/><polyline class="cls-9" points="196.07 182.41 149.41 170.65 73.84 213.55 106.37 271.09"/><polygon class="cls-3" points="196.09 182.39 149.8 195.54 105.81 270.48 162.74 304.04 207 229.26 196.09 182.39"/><line class="cls-12" x1="128.32" y1="263.43" x2="158.12" y2="281"/><line class="cls-12" x1="156.93" y1="214.89" x2="186.73" y2="232.45"/><line class="cls-12" x1="134.04" y1="253.72" x2="157.39" y2="267.48"/><line class="cls-12" x1="139.76" y1="244.01" x2="163.11" y2="257.78"/><line class="cls-12" x1="145.48" y1="234.3" x2="168.83" y2="248.07"/><line class="cls-12" x1="151.21" y1="224.6" x2="174.56" y2="238.36"/><circle class="cls-3" cx="187.85" cy="202.76" r="7.01"/><path class="cls-2" d="M185.88,201.48a4,4,0,0,0,1.61,1.94c3.84,2.26,11.39-3.42,16.86-12.69s6.78-18.64,2.94-20.9c-3.58-2.11-10.36,2.65-15.68,10.79-.41.61-.8,1.25-1.19,1.9"/><path class="cls-1" d="M64.68,335.63l6.63,18.73,6.6-18.73h7v25.82H79.56v-7.06l.53-12.18-7,19.24H69.47l-7-19.22.54,12.16v7.06H57.73V335.63Z"/><path class="cls-1" d="M105.08,350.26H94.86v6.92h12v4.27H89.54V335.63h17.28v4.31h-12v6.15h10.22Z"/><path class="cls-1" d="M123.36,354.68a2.73,2.73,0,0,0-1.06-2.32,14.38,14.38,0,0,0-3.83-1.7,27,27,0,0,1-4.38-1.76c-2.93-1.59-4.4-3.72-4.4-6.41a6.2,6.2,0,0,1,1.18-3.73,7.66,7.66,0,0,1,3.39-2.56,12.62,12.62,0,0,1,4.95-.93,11.55,11.55,0,0,1,4.93,1,7.76,7.76,0,0,1,3.36,2.83,7.37,7.37,0,0,1,1.2,4.15h-5.32a3.45,3.45,0,0,0-1.12-2.76,4.57,4.57,0,0,0-3.14-1,4.9,4.9,0,0,0-3,.83,2.6,2.6,0,0,0-1.08,2.17,2.49,2.49,0,0,0,1.27,2.11,14.29,14.29,0,0,0,3.73,1.6,16.27,16.27,0,0,1,6.62,3.38,6.76,6.76,0,0,1,2.07,5,6.21,6.21,0,0,1-2.53,5.26,11.12,11.12,0,0,1-6.83,1.91,13.3,13.3,0,0,1-5.43-1.09,8.6,8.6,0,0,1-3.73-3,7.64,7.64,0,0,1-1.29-4.4h5.34q0,4.28,5.11,4.27a4.93,4.93,0,0,0,3-.77A2.49,2.49,0,0,0,123.36,354.68Z"/><path class="cls-1" d="M145.69,354.68a2.73,2.73,0,0,0-1.06-2.32,14.38,14.38,0,0,0-3.83-1.7,27,27,0,0,1-4.38-1.76c-2.94-1.59-4.4-3.72-4.4-6.41a6.2,6.2,0,0,1,1.18-3.73,7.63,7.63,0,0,1,3.38-2.56,12.71,12.71,0,0,1,5-.93,11.55,11.55,0,0,1,4.93,1,7.76,7.76,0,0,1,3.36,2.83,7.37,7.37,0,0,1,1.2,4.15h-5.32a3.45,3.45,0,0,0-1.12-2.76,4.57,4.57,0,0,0-3.14-1,4.9,4.9,0,0,0-3,.83,2.6,2.6,0,0,0-1.08,2.17,2.49,2.49,0,0,0,1.27,2.11,14.29,14.29,0,0,0,3.73,1.6A16.27,16.27,0,0,1,149,349.6a6.76,6.76,0,0,1,2.07,5,6.23,6.23,0,0,1-2.53,5.26,11.14,11.14,0,0,1-6.83,1.91,13.3,13.3,0,0,1-5.43-1.09,8.6,8.6,0,0,1-3.73-3,7.64,7.64,0,0,1-1.29-4.4h5.34q0,4.28,5.11,4.27a4.93,4.93,0,0,0,3-.77A2.49,2.49,0,0,0,145.69,354.68Z"/><path class="cls-1" d="M169.21,356.13h-9.33l-1.77,5.32h-5.66l9.61-25.82H167l9.67,25.82H171Zm-7.89-4.31h6.45l-3.24-9.66Z"/><path class="cls-1" d="M199.13,358.19a9.2,9.2,0,0,1-4.06,2.67,17.08,17.08,0,0,1-5.82.95,11.51,11.51,0,0,1-5.88-1.47,9.79,9.79,0,0,1-3.9-4.24,14.87,14.87,0,0,1-1.41-6.55V347.8a15.89,15.89,0,0,1,1.3-6.7,9.74,9.74,0,0,1,3.76-4.33,12.35,12.35,0,0,1,12.94.7,9.34,9.34,0,0,1,3.07,6.37H194a5.13,5.13,0,0,0-1.57-3.24,5,5,0,0,0-3.34-1,4.71,4.71,0,0,0-4.13,2,10.66,10.66,0,0,0-1.44,6.06v1.65c0,2.71.51,4.75,1.54,6.14a5.29,5.29,0,0,0,4.52,2.07c2,0,3.43-.42,4.28-1.27V351.8H189v-3.91h10.16Z"/><path class="cls-1" d="M219,350.26H208.76v6.92h12v4.27H203.44V335.63h17.27v4.31h-12v6.15H219Z"/><path class="cls-1" d="M237.26,354.68a2.73,2.73,0,0,0-1.06-2.32,14.33,14.33,0,0,0-3.84-1.7A27.74,27.74,0,0,1,228,348.9c-2.93-1.59-4.39-3.72-4.39-6.41a6.26,6.26,0,0,1,1.17-3.73,7.72,7.72,0,0,1,3.39-2.56,12.67,12.67,0,0,1,5-.93,11.58,11.58,0,0,1,4.93,1,7.88,7.88,0,0,1,3.36,2.83,7.37,7.37,0,0,1,1.2,4.15h-5.32a3.45,3.45,0,0,0-1.12-2.76,4.57,4.57,0,0,0-3.14-1,4.9,4.9,0,0,0-3,.83,2.6,2.6,0,0,0-1.08,2.17,2.5,2.5,0,0,0,1.26,2.11,14.38,14.38,0,0,0,3.74,1.6,16.22,16.22,0,0,1,6.61,3.38,6.74,6.74,0,0,1,2.08,5,6.21,6.21,0,0,1-2.54,5.26,11.12,11.12,0,0,1-6.83,1.91,13.28,13.28,0,0,1-5.42-1.09,8.64,8.64,0,0,1-3.74-3,7.71,7.71,0,0,1-1.28-4.4h5.34q0,4.28,5.1,4.27a5,5,0,0,0,3-.77A2.49,2.49,0,0,0,237.26,354.68Z"/><path class="cls-1" d="M695.47,323.63l6.63,18.73,6.6-18.73h7v25.82h-5.34v-7.06l.53-12.18-7,19.24h-3.65l-7-19.22.54,12.16v7.06h-5.32V323.63Z"/><path class="cls-1" d="M726,349.45h-5.32V323.63H726Z"/><path class="cls-1" d="M751.19,340.85a9.11,9.11,0,0,1-3.07,6.56,10.81,10.81,0,0,1-7.32,2.4,9.7,9.7,0,0,1-7.81-3.35q-2.85-3.33-2.85-9.17v-1.58a15.55,15.55,0,0,1,1.31-6.56,9.87,9.87,0,0,1,3.75-4.36,11.7,11.7,0,0,1,12.87.88,9.87,9.87,0,0,1,3.16,6.72h-5.32a5.41,5.41,0,0,0-1.4-3.63,5.14,5.14,0,0,0-3.64-1.12,4.52,4.52,0,0,0-4,1.9q-1.32,1.92-1.36,5.92v2q0,4.18,1.27,6.12a4.44,4.44,0,0,0,4,1.93,5.26,5.26,0,0,0,3.68-1.12,5.11,5.11,0,0,0,1.39-3.49Z"/><path class="cls-1" d="M764.25,340H760v9.45h-5.32V323.63h9.59q4.58,0,7.06,2a7,7,0,0,1,2.48,5.76,8,8,0,0,1-1.14,4.41,7.78,7.78,0,0,1-3.47,2.81l5.59,10.55v.25h-5.71ZM760,335.69h4.29a4.39,4.39,0,0,0,3.1-1,3.62,3.62,0,0,0,1.1-2.81,3.85,3.85,0,0,0-1-2.87,4.29,4.29,0,0,0-3.18-1.05H760Z"/><path class="cls-1" d="M799.08,337.13a15.53,15.53,0,0,1-1.35,6.68,10.11,10.11,0,0,1-3.86,4.44,11.37,11.37,0,0,1-11.48,0,10.15,10.15,0,0,1-3.9-4.4,15,15,0,0,1-1.4-6.59V336a15.44,15.44,0,0,1,1.37-6.71,10.26,10.26,0,0,1,3.88-4.45,11.34,11.34,0,0,1,11.48,0,10.19,10.19,0,0,1,3.88,4.45,15.38,15.38,0,0,1,1.38,6.69ZM793.69,336a10.89,10.89,0,0,0-1.46-6.18,5.13,5.13,0,0,0-8.28,0,10.71,10.71,0,0,0-1.47,6.11v1.26a11,11,0,0,0,1.45,6.13,5.09,5.09,0,0,0,8.3.08,11,11,0,0,0,1.46-6.12Z"/><path class="cls-1" d="M816.33,342.68a2.73,2.73,0,0,0-1.06-2.32,14.38,14.38,0,0,0-3.83-1.7,27,27,0,0,1-4.38-1.76c-2.93-1.59-4.4-3.72-4.4-6.41a6.2,6.2,0,0,1,1.18-3.73,7.66,7.66,0,0,1,3.39-2.56,12.62,12.62,0,0,1,4.95-.93,11.55,11.55,0,0,1,4.93,1,7.85,7.85,0,0,1,3.37,2.83,7.44,7.44,0,0,1,1.19,4.15h-5.32a3.45,3.45,0,0,0-1.12-2.76,4.57,4.57,0,0,0-3.14-1,4.9,4.9,0,0,0-3,.83,2.6,2.6,0,0,0-1.08,2.17,2.49,2.49,0,0,0,1.27,2.11,14.29,14.29,0,0,0,3.73,1.6,16.27,16.27,0,0,1,6.62,3.38,6.76,6.76,0,0,1,2.07,5,6.21,6.21,0,0,1-2.53,5.26,11.12,11.12,0,0,1-6.83,1.91,13.3,13.3,0,0,1-5.43-1.09,8.6,8.6,0,0,1-3.73-3,7.64,7.64,0,0,1-1.29-4.4h5.34q0,4.28,5.11,4.27a4.93,4.93,0,0,0,3-.77A2.49,2.49,0,0,0,816.33,342.68Z"/><path class="cls-1" d="M840.81,338.26H830.59v6.92h12v4.27H825.27V323.63h17.28v4.31h-12v6.15h10.22Z"/><path class="cls-1" d="M855.26,340H851v9.45H845.7V323.63h9.6q4.58,0,7.06,2a7,7,0,0,1,2.48,5.76,8,8,0,0,1-1.14,4.41,7.84,7.84,0,0,1-3.47,2.81l5.59,10.55v.25H860.1ZM851,335.69h4.3a4.39,4.39,0,0,0,3.1-1,3.66,3.66,0,0,0,1.1-2.81,3.89,3.89,0,0,0-1-2.87,4.29,4.29,0,0,0-3.18-1.05H851Z"/><path class="cls-1" d="M878.09,343.05l5.85-19.42h5.92l-9,25.82h-5.55l-9-25.82h5.9Z"/><path class="cls-1" d="M898,349.45h-5.32V323.63H898Z"/><path class="cls-1" d="M923.15,340.85a9.11,9.11,0,0,1-3.07,6.56,10.8,10.8,0,0,1-7.32,2.4,9.72,9.72,0,0,1-7.81-3.35q-2.85-3.33-2.85-9.17v-1.58a15.4,15.4,0,0,1,1.32-6.56,9.74,9.74,0,0,1,3.75-4.36,11.69,11.69,0,0,1,12.86.88,9.82,9.82,0,0,1,3.16,6.72h-5.32a5.45,5.45,0,0,0-1.39-3.63,5.18,5.18,0,0,0-3.65-1.12,4.52,4.52,0,0,0-4,1.9q-1.32,1.92-1.36,5.92v2c0,2.79.43,4.83,1.27,6.12a4.44,4.44,0,0,0,4,1.93,5.24,5.24,0,0,0,3.68-1.12,5.06,5.06,0,0,0,1.39-3.49Z"/><path class="cls-1" d="M942.18,338.26H932v6.92h12v4.27H926.65V323.63h17.27v4.31H932v6.15h10.21Z"/><path class="cls-1" d="M960.47,342.68a2.76,2.76,0,0,0-1.06-2.32,14.33,14.33,0,0,0-3.84-1.7,27.74,27.74,0,0,1-4.38-1.76c-2.93-1.59-4.39-3.72-4.39-6.41a6.26,6.26,0,0,1,1.17-3.73,7.72,7.72,0,0,1,3.39-2.56,12.67,12.67,0,0,1,5-.93,11.58,11.58,0,0,1,4.93,1,7.88,7.88,0,0,1,3.36,2.83,7.37,7.37,0,0,1,1.2,4.15h-5.32a3.48,3.48,0,0,0-1.12-2.76,4.58,4.58,0,0,0-3.14-1,4.9,4.9,0,0,0-3,.83,2.6,2.6,0,0,0-1.08,2.17,2.5,2.5,0,0,0,1.26,2.11,14.38,14.38,0,0,0,3.74,1.6,16.22,16.22,0,0,1,6.61,3.38,6.74,6.74,0,0,1,2.08,5,6.21,6.21,0,0,1-2.54,5.26,11.12,11.12,0,0,1-6.83,1.91,13.28,13.28,0,0,1-5.42-1.09,8.64,8.64,0,0,1-3.74-3,7.71,7.71,0,0,1-1.28-4.4h5.33c0,2.85,1.71,4.27,5.11,4.27a5,5,0,0,0,3-.77A2.52,2.52,0,0,0,960.47,342.68Z"/><rect class="cls-9" x="697.28" y="830.58" width="116" height="116"/><polyline class="cls-13" points="807.21 858.35 807.21 838.09 704.71 838.09 704.71 940.51"/><line class="cls-13" x1="704.71" y1="940.51" x2="724.96" y2="940.51"/><rect class="cls-3" x="741.54" y="875.01" width="98.51" height="98.28"/><line class="cls-3" x1="741.54" y1="940.51" x2="840.05" y2="940.51"/><line class="cls-3" x1="741.54" y1="907.73" x2="840.05" y2="907.73"/><line class="cls-3" x1="774.38" y1="875.24" x2="774.38" y2="973.29"/><line class="cls-3" x1="807.21" y1="875.24" x2="807.21" y2="973.29"/><line class="cls-13" x1="724.96" y1="875" x2="704.71" y2="875"/><line class="cls-13" x1="724.96" y1="907.73" x2="704.71" y2="907.73"/><line class="cls-13" x1="774.27" y1="858.34" x2="774.27" y2="838.09"/><line class="cls-13" x1="741.54" y1="858.34" x2="741.54" y2="838.09"/><path class="cls-1" d="M734.2,1007.94h-7.91v21.51H721v-21.51h-7.8v-4.31h21Z"/><path class="cls-1" d="M749.69,1024.13h-9.33l-1.78,5.32h-5.65l9.61-25.82h4.93l9.67,25.82h-5.66Zm-7.9-4.31h6.46l-3.25-9.66Z"/><path class="cls-1" d="M759.55,1029.45v-25.82h9c3.14,0,5.51.6,7.13,1.8a6.16,6.16,0,0,1,2.43,5.28,5.83,5.83,0,0,1-1,3.34,5.67,5.67,0,0,1-2.72,2.12,5.44,5.44,0,0,1,3.13,2,5.9,5.9,0,0,1,1.15,3.69,6.78,6.78,0,0,1-2.38,5.64q-2.37,1.92-6.77,2Zm5.32-15h3.94q4-.08,4-3.21a3,3,0,0,0-1-2.53,5.39,5.39,0,0,0-3.22-.77h-3.72Zm0,3.76v7h4.56a4.37,4.37,0,0,0,2.93-.9,3,3,0,0,0,1.06-2.47c0-2.37-1.23-3.57-3.67-3.6Z"/><path class="cls-1" d="M788.05,1025.18h11.3v4.27H782.73v-25.82h5.32Z"/><path class="cls-1" d="M817.93,1018.26H807.72v6.92h12v4.27H802.4v-25.82h17.27v4.31H807.72v6.15h10.21Z"/><path class="cls-1" d="M836.22,1022.68a2.74,2.74,0,0,0-1.07-2.32,14.23,14.23,0,0,0-3.83-1.7,27.74,27.74,0,0,1-4.38-1.76c-2.93-1.59-4.4-3.72-4.4-6.41a6.27,6.27,0,0,1,1.18-3.73,7.72,7.72,0,0,1,3.39-2.56,12.67,12.67,0,0,1,5-.93,11.58,11.58,0,0,1,4.93,1,7.88,7.88,0,0,1,3.36,2.83,7.37,7.37,0,0,1,1.2,4.15h-5.32a3.48,3.48,0,0,0-1.12-2.76,4.58,4.58,0,0,0-3.14-1,4.9,4.9,0,0,0-3,.83,2.61,2.61,0,0,0-1.09,2.17,2.51,2.51,0,0,0,1.27,2.11,14.38,14.38,0,0,0,3.74,1.6,16.22,16.22,0,0,1,6.61,3.38,6.77,6.77,0,0,1,2.08,5,6.21,6.21,0,0,1-2.54,5.26,11.12,11.12,0,0,1-6.83,1.91,13.37,13.37,0,0,1-5.43-1.09,8.66,8.66,0,0,1-3.73-3,7.64,7.64,0,0,1-1.28-4.4h5.33c0,2.85,1.71,4.27,5.11,4.27a4.91,4.91,0,0,0,3-.77A2.5,2.5,0,0,0,836.22,1022.68Z"/></g></g></svg>