<svg xmlns="http://www.w3.org/2000/svg" data-name="Layer 2" viewBox="0 0 100 100" x="0px" y="0px" width="100px" height="100px" style="fill:#455A64;"><title>Artboard 2</title><path d="M75.981,60a5.98976,5.98976,0,0,0-4.62091,2.17749L60.84357,56.10565a11.84882,11.84882,0,0,0-.00006-10.21136l12.28778-7.09455a4.22133,4.22133,0,1,0-.98926-1.73858L59.8465,44.1601A11.99358,11.99358,0,0,0,51,39.05066v-12.141a6,6,0,1,0-2,0v12.141a11.99358,11.99358,0,0,0-8.84656,5.1095L27.858,37.06128A3.94747,3.94747,0,0,0,28.019,36a4.01238,4.01238,0,1,0-1.15045,2.79987l12.28784,7.09448a11.849,11.849,0,0,0,.00006,10.21142L28.64,62.17749a6.08408,6.08408,0,1,0,.99671,1.73431L40.1535,57.8399A11.99358,11.99358,0,0,0,49,62.94934V77.142a4,4,0,1,0,2,0V62.94934a11.99369,11.99369,0,0,0,8.84662-5.10956l10.51672,6.072A5.99572,5.99572,0,1,0,75.981,60Zm0-26a2,2,0,1,1-1.72345,2.99713l-.00067-.002-.0011-.00122A1.97689,1.97689,0,0,1,73.981,36,2.002,2.002,0,0,1,75.981,34ZM24.019,38a2,2,0,1,1,2-2A2.002,2.002,0,0,1,24.019,38Zm0,32a4,4,0,1,1,4-4A4.00458,4.00458,0,0,1,24.019,70ZM46,21a4,4,0,1,1,4,4A4.00458,4.00458,0,0,1,46,21Zm6,60a2,2,0,1,1-2-2A2.002,2.002,0,0,1,52,81ZM50,61A10,10,0,1,1,60,51,10.01114,10.01114,0,0,1,50,61Zm25.981,9a4,4,0,1,1,4-4A4.00458,4.00458,0,0,1,75.981,70Z" style="fill:#455A64;"/></svg>