<svg xmlns="http://www.w3.org/2000/svg" xmlns:xlink="http://www.w3.org/1999/xlink" version="1.0" x="0px" y="0px" viewBox="0 0 128 128" style="enable-background:new 0 0 128 128;fill:#455A64;" xml:space="preserve" width="128px" height="128px"><style type="text/css">
	.st0{display:none;}
	.st1{display:inline;}
	.st2{fill:none;stroke:#000000;stroke-width:0.1;stroke-miterlimit:10;}
</style><g class="st0"><g class="st1"><rect class="st2" width="128" height="128" style="fill:#455A64;"/><line class="st2" x1="0" y1="124" x2="128" y2="124" style="fill:#455A64;"/><line class="st2" x1="0" y1="120" x2="128" y2="120" style="fill:#455A64;"/><line class="st2" x1="0" y1="116" x2="128" y2="116" style="fill:#455A64;"/><line class="st2" x1="0" y1="112" x2="128" y2="112" style="fill:#455A64;"/><line class="st2" x1="0" y1="108" x2="128" y2="108" style="fill:#455A64;"/><line class="st2" x1="0" y1="104" x2="128" y2="104" style="fill:#455A64;"/><line class="st2" x1="0" y1="100" x2="128" y2="100" style="fill:#455A64;"/><line class="st2" x1="0" y1="96" x2="128" y2="96" style="fill:#455A64;"/><line class="st2" x1="0" y1="92" x2="128" y2="92" style="fill:#455A64;"/><line class="st2" x1="0" y1="88" x2="128" y2="88" style="fill:#455A64;"/><line class="st2" x1="0" y1="84" x2="128" y2="84" style="fill:#455A64;"/><line class="st2" x1="0" y1="80" x2="128" y2="80" style="fill:#455A64;"/><line class="st2" x1="0" y1="76" x2="128" y2="76" style="fill:#455A64;"/><line class="st2" x1="0" y1="72" x2="128" y2="72" style="fill:#455A64;"/><line class="st2" x1="0" y1="68" x2="128" y2="68" style="fill:#455A64;"/><line class="st2" x1="0" y1="64" x2="128" y2="64" style="fill:#455A64;"/><line class="st2" x1="0" y1="60" x2="128" y2="60" style="fill:#455A64;"/><line class="st2" x1="0" y1="56" x2="128" y2="56" style="fill:#455A64;"/><line class="st2" x1="0" y1="52" x2="128" y2="52" style="fill:#455A64;"/><line class="st2" x1="0" y1="48" x2="128" y2="48" style="fill:#455A64;"/><line class="st2" x1="0" y1="44" x2="128" y2="44" style="fill:#455A64;"/><line class="st2" x1="0" y1="40" x2="128" y2="40" style="fill:#455A64;"/><line class="st2" x1="0" y1="36" x2="128" y2="36" style="fill:#455A64;"/><line class="st2" x1="0" y1="32" x2="128" y2="32" style="fill:#455A64;"/><line class="st2" x1="0" y1="28" x2="128" y2="28" style="fill:#455A64;"/><line class="st2" x1="0" y1="24" x2="128" y2="24" style="fill:#455A64;"/><line class="st2" x1="0" y1="20" x2="128" y2="20" style="fill:#455A64;"/><line class="st2" x1="0" y1="16" x2="128" y2="16" style="fill:#455A64;"/><line class="st2" x1="0" y1="12" x2="128" y2="12" style="fill:#455A64;"/><line class="st2" x1="0" y1="8" x2="128" y2="8" style="fill:#455A64;"/><line class="st2" x1="0" y1="4" x2="128" y2="4" style="fill:#455A64;"/><line class="st2" x1="124" y1="0" x2="124" y2="128" style="fill:#455A64;"/><line class="st2" x1="120" y1="0" x2="120" y2="128" style="fill:#455A64;"/><line class="st2" x1="116" y1="0" x2="116" y2="128" style="fill:#455A64;"/><line class="st2" x1="112" y1="0" x2="112" y2="128" style="fill:#455A64;"/><line class="st2" x1="108" y1="0" x2="108" y2="128" style="fill:#455A64;"/><line class="st2" x1="104" y1="0" x2="104" y2="128" style="fill:#455A64;"/><line class="st2" x1="100" y1="0" x2="100" y2="128" style="fill:#455A64;"/><line class="st2" x1="96" y1="0" x2="96" y2="128" style="fill:#455A64;"/><line class="st2" x1="92" y1="0" x2="92" y2="128" style="fill:#455A64;"/><line class="st2" x1="88" y1="0" x2="88" y2="128" style="fill:#455A64;"/><line class="st2" x1="84" y1="0" x2="84" y2="128" style="fill:#455A64;"/><line class="st2" x1="80" y1="0" x2="80" y2="128" style="fill:#455A64;"/><line class="st2" x1="76" y1="0" x2="76" y2="128" style="fill:#455A64;"/><line class="st2" x1="72" y1="0" x2="72" y2="128" style="fill:#455A64;"/><line class="st2" x1="68" y1="0" x2="68" y2="128" style="fill:#455A64;"/><line class="st2" x1="64" y1="0" x2="64" y2="128" style="fill:#455A64;"/><line class="st2" x1="60" y1="0" x2="60" y2="128" style="fill:#455A64;"/><line class="st2" x1="56" y1="0" x2="56" y2="128" style="fill:#455A64;"/><line class="st2" x1="52" y1="0" x2="52" y2="128" style="fill:#455A64;"/><line class="st2" x1="48" y1="0" x2="48" y2="128" style="fill:#455A64;"/><line class="st2" x1="44" y1="0" x2="44" y2="128" style="fill:#455A64;"/><line class="st2" x1="40" y1="0" x2="40" y2="128" style="fill:#455A64;"/><line class="st2" x1="36" y1="0" x2="36" y2="128" style="fill:#455A64;"/><line class="st2" x1="32" y1="0" x2="32" y2="128" style="fill:#455A64;"/><line class="st2" x1="28" y1="0" x2="28" y2="128" style="fill:#455A64;"/><line class="st2" x1="24" y1="0" x2="24" y2="128" style="fill:#455A64;"/><line class="st2" x1="20" y1="0" x2="20" y2="128" style="fill:#455A64;"/><line class="st2" x1="16" y1="0" x2="16" y2="128" style="fill:#455A64;"/><line class="st2" x1="12" y1="0" x2="12" y2="128" style="fill:#455A64;"/><line class="st2" x1="8" y1="0" x2="8" y2="128" style="fill:#455A64;"/><line class="st2" x1="4" y1="0" x2="4" y2="128" style="fill:#455A64;"/></g></g><g><g><path d="M14.6,101.5H47v19.9l-12.7-12.7c-0.6-0.6-1.5-0.6-2.1,0s-0.6,1.5,0,2.1l14.8,14.8c0.3,0.3,0.7,0.4,1.1,0.4    s0.8-0.2,1.1-0.4l14.8-14.8c0.6-0.6,0.6-1.5,0-2.1s-1.5-0.6-2.1,0L50,120.3v-18.7h49.5c8.5,0,15.4-7.4,15.4-16.5    c0-14.6-11-26.6-24.6-26.6H84c-0.3-5-2.1-14.8-10.4-23c-2-2-7.5-6.8-15.8-9.1c-0.8-0.2-1.6,0.3-1.8,1.1c-0.2,0.8,0.3,1.6,1.1,1.8    c7.6,2.1,12.6,6.5,14.5,8.3C79.9,45.9,81,56,81.1,60c0,0.8,0.7,1.5,1.5,1.5h7.8c11.9,0,21.6,10.6,21.6,23.6    c0,7.5-5.5,13.5-12.4,13.5H50V68.3v-0.2V7.7l11.6,11.6c0.3,0.3,0.7,0.4,1.1,0.4s0.8-0.1,1.1-0.4c0.6-0.6,0.6-1.5,0-2.1L49,2.5    c-0.6-0.6-1.6-0.6-2.1,0L32.1,17.2c-0.6,0.6-0.6,1.5,0,2.1s1.5,0.6,2.1,0L47,6.6v60.2H14.6c-0.8,0-1.5,0.7-1.5,1.5V100    C13.1,100.9,13.8,101.5,14.6,101.5z M16.1,69.8H47v28.7H16.1V69.8z" style="fill:#455A64;"/><path d="M16.9,62.4c0,0,0.1,0,0.1,0c0.8-0.1,1.4-0.8,1.4-1.6c-0.3-3.8-0.3-13.6,6.9-22.1c3.9-4.7,9.1-7.8,15.3-9.5    c0.8-0.2,1.3-1,1.1-1.8c-0.2-0.8-1-1.3-1.8-1.1C33,28.1,27.4,31.6,23,36.8c-7.9,9.4-8,20.1-7.6,24.3    C15.5,61.9,16.1,62.4,16.9,62.4z" style="fill:#455A64;"/></g></g></svg>