<svg width="489" height="66" viewBox="0 0 489 66" xmlns="http://www.w3.org/2000/svg"><title>Group 11</title><g fill="none" fill-rule="evenodd"><g stroke-linecap="square" stroke-width="2" stroke="#FFF"><path d="M159.738 11.33L180.84 33l-21.102 21.67"/><path opacity=".6" d="M142.703 11.33L163.805 33l-21.102 21.67"/><path opacity=".2" d="M125.668 11.33L146.77 33l-21.102 21.67"/></g><g stroke="#FFF"><path d="M51.5 5.5h1v7h-1zm6 0h1v7h-1zm6 0h1v7h-1z"/><path d="M.5.5h71v17H.5z"/><circle cx="11" cy="9" r="3.5"/><circle cx="23" cy="9" r="3.5"/><path d="M32.5 8.5h1v1h-1zm6 0h1v1h-1zm6 0h1v1h-1z"/><g transform="translate(0 24)"><path d="M51.5 5.5h1v7h-1zm6 0h1v7h-1zm6 0h1v7h-1z"/><path d="M.5.5h71v17H.5z"/><circle cx="11" cy="9" r="3.5"/><circle cx="23" cy="9" r="3.5"/><path d="M32.5 8.5h1v1h-1zm6 0h1v1h-1zm6 0h1v1h-1z"/></g><g transform="translate(0 48)"><path d="M51.5 5.5h1v7h-1zm6 0h1v7h-1zm6 0h1v7h-1z"/><path d="M.5.5h71v17H.5z"/><circle cx="11" cy="9" r="3.5"/><circle cx="23" cy="9" r="3.5"/><path d="M32.5 8.5h1v1h-1zm6 0h1v1h-1zm6 0h1v1h-1z"/></g></g><path d="M246.4 28.904c-5.794 0-10.553 4.654-10.65 10.367 0 5.768 4.807 10.469 10.65 10.469h51.198c5.874 0 10.65-4.73 10.65-10.469 0-5.092-3.728-9.41-8.806-10.276l-.618-.105-.006-.626c-.1-9.694-8.169-17.514-18.113-17.514-6.55 0-12.425 3.426-15.732 8.918l-.397.659-.649-.413c-1.75-1.115-3.69-1.719-5.712-1.719-5.6 0-10.132 4.46-10.132 9.96v.75H246.4z" stroke="#FFF" stroke-width="1.5"/><path fill="#000" d="M255.282 34.434h34.169v30.654h-34.169z"/><path fill="#000" fill-rule="nonzero" d="M258.561 37.051h27.75v24.894h-27.75z"/><path stroke="#FFF" stroke-width="1.5" d="M258.561 37.051h27.75v24.894h-27.75z"/><path d="M281.305 50.099h-11.658m12.391-5.92h-19.275m3.631 11.84h-3.63m19.274 0h-11.456" stroke="#FFF" stroke-width="1.5" fill="#FFF" fill-rule="nonzero"/><path d="M336.4 28.904c-5.794 0-10.553 4.654-10.65 10.367 0 5.768 4.807 10.469 10.65 10.469h51.198c5.874 0 10.65-4.73 10.65-10.469 0-5.092-3.728-9.41-8.806-10.276l-.618-.105-.006-.626c-.1-9.694-8.169-17.514-18.113-17.514-6.55 0-12.425 3.426-15.732 8.918l-.397.659-.649-.413c-1.75-1.115-3.69-1.719-5.712-1.719-5.6 0-10.132 4.46-10.132 9.96v.75H336.4z" stroke="#FFF" stroke-width="1.5"/><path fill="#000" d="M345.282 34.434h34.169v30.654h-34.169z"/><path fill="#000" fill-rule="nonzero" d="M348.561 37.051h27.75v24.894h-27.75z"/><path stroke="#FFF" stroke-width="1.5" d="M348.561 37.051h27.75v24.894h-27.75z"/><path d="M371.563 44.207h-4.342m-4.007 0h-10.29m10.29 11.868h-10.29m3.63-6.283h-3.63m19.135 0h-11.456" stroke="#FFF" stroke-width="1.5" fill="#FFF" fill-rule="nonzero"/><g><path d="M426.4 28.905c-5.793 0-10.553 4.654-10.65 10.367 0 5.769 4.807 10.47 10.65 10.47h51.2c5.875 0 10.651-4.731 10.651-10.47 0-5.093-3.728-9.41-8.807-10.276l-.618-.105-.006-.627c-.1-9.694-8.169-17.514-18.113-17.514-6.551 0-12.426 3.426-15.733 8.918l-.397.659-.649-.413c-1.75-1.115-3.69-1.719-5.712-1.719-5.6 0-10.132 4.461-10.132 9.96v.75H426.4z" stroke="#FFF" stroke-width="1.5"/><path fill="#000" d="M435.283 35.132h34.171v30.655h-34.171z"/><path fill="#000" fill-rule="nonzero" d="M438.562 37.75h27.75v24.895h-27.75z"/><path stroke="#FFF" stroke-width="1.5" d="M438.562 37.75h27.75v24.895h-27.75z"/><path d="M462.263 50.491h-14.106m13.883-5.613h-7.605m-2.776.028h-8.734m2.468 5.585h-2.468m19.115 6.228h-3.431" stroke="#FFF" stroke-width="1.5" fill="#FFF" fill-rule="nonzero"/></g></g></svg>