<svg id="Artwork" xmlns="http://www.w3.org/2000/svg" xmlns:xlink="http://www.w3.org/1999/xlink" viewBox="0 0 526 314">
    <defs>
        <style>.cls-1,.cls-18{fill:#fff;}.cls-12,.cls-13,.cls-14,.cls-15,.cls-16,.cls-2,.cls-20,.cls-23,.cls-4,.cls-6{fill:none;}.cls-17,.cls-2,.cls-4{stroke:#cfd1d9;}.cls-16,.cls-2,.cls-20,.cls-6{stroke-linejoin:round;}.cls-3{opacity:0.3;}.cls-12,.cls-13,.cls-14,.cls-15,.cls-17,.cls-18,.cls-23,.cls-4{stroke-miterlimit:10;}.cls-5{fill:#ddd;}.cls-12,.cls-13,.cls-14,.cls-15,.cls-18,.cls-6{stroke:#b5b8c4;}.cls-7,.cls-9{opacity:0.05;}.cls-10,.cls-8,.cls-9{fill:#252937;}.cls-10,.cls-11,.cls-21{opacity:0.1;}.cls-12,.cls-13,.cls-14,.cls-23{stroke-linecap:round;}.cls-13,.cls-23{stroke-dasharray:1 3;}.cls-14{stroke-dasharray:1 3;}.cls-16{stroke:#5c6070;}.cls-17{fill:url(#linear-gradient);}.cls-19{font-size:11.56px;fill:#5c6070;font-family:KlavikaBasic-Medium, Klavika Basic;font-weight:500;}.cls-20,.cls-23{stroke:#e80134;}.cls-21,.cls-22,.cls-24{fill:#e80134;}.cls-22{opacity:0.25;}</style>
        <linearGradient id="linear-gradient" x1="240.47" y1="140.55" x2="276.93" y2="140.55" gradientUnits="userSpaceOnUse">
            <stop offset="0" stop-color="#ddd" />
            <stop offset="0.82" stop-color="#fff" />
        </linearGradient>
    </defs>
    <title>Static Infrastructure</title>
    <g id="bottom-border">
        <polygon class="cls-1" points="258.9 233.1 120.33 153.1 258.9 73.1 397.46 153.1 258.9 233.1" />
        <polygon class="cls-2" points="258.9 233.1 120.33 153.1 258.9 73.1 397.46 153.1 258.9 233.1" />
    </g>
    <g id="main-box">
        <g id="bottom-border-2" data-name="bottom-border">
            <polygon class="cls-1" points="258.9 233.1 120.33 153.1 258.9 73.1 397.46 153.1 258.9 233.1" />
            <polygon class="cls-2" points="258.9 233.1 120.33 153.1 258.9 73.1 397.46 153.1 258.9 233.1" />
        </g>
        <g id="grid-lines" class="cls-3">
            <line class="cls-4" x1="286.61" y1="89.1" x2="148.05" y2="169.1" />
            <line class="cls-4" x1="290.08" y1="91.1" x2="151.51" y2="171.1" />
            <line class="cls-4" x1="293.54" y1="93.1" x2="154.98" y2="173.1" />
            <line class="cls-4" x1="297" y1="95.1" x2="158.44" y2="175.1" />
            <line class="cls-4" x1="300.47" y1="97.1" x2="161.9" y2="177.1" />
            <line class="cls-4" x1="303.93" y1="99.1" x2="165.37" y2="179.1" />
            <line class="cls-4" x1="307.4" y1="101.1" x2="168.83" y2="181.1" />
            <line class="cls-4" x1="310.86" y1="103.1" x2="172.3" y2="183.1" />
            <line class="cls-4" x1="314.32" y1="105.1" x2="175.76" y2="185.1" />
            <line class="cls-4" x1="317.79" y1="107.1" x2="179.22" y2="187.1" />
            <line class="cls-4" x1="321.25" y1="109.1" x2="182.69" y2="189.1" />
            <line class="cls-4" x1="324.72" y1="111.1" x2="186.15" y2="191.1" />
            <line class="cls-4" x1="328.18" y1="113.1" x2="189.62" y2="193.1" />
            <line class="cls-4" x1="331.64" y1="115.1" x2="193.08" y2="195.1" />
            <line class="cls-4" x1="335.11" y1="117.1" x2="196.55" y2="197.1" />
            <line class="cls-4" x1="338.57" y1="119.1" x2="200.01" y2="199.1" />
            <line class="cls-4" x1="342.04" y1="121.1" x2="203.47" y2="201.1" />
            <line class="cls-4" x1="345.5" y1="123.1" x2="206.94" y2="203.1" />
            <line class="cls-4" x1="348.96" y1="125.1" x2="210.4" y2="205.1" />
            <line class="cls-4" x1="352.43" y1="127.1" x2="213.87" y2="207.1" />
            <line class="cls-4" x1="355.89" y1="129.1" x2="217.33" y2="209.1" />
            <line class="cls-4" x1="359.36" y1="131.1" x2="220.79" y2="211.1" />
            <line class="cls-4" x1="362.82" y1="133.1" x2="224.26" y2="213.1" />
            <line class="cls-4" x1="366.29" y1="135.1" x2="227.72" y2="215.1" />
            <line class="cls-4" x1="369.75" y1="137.1" x2="231.19" y2="217.1" />
            <line class="cls-4" x1="373.21" y1="139.1" x2="234.65" y2="219.1" />
            <line class="cls-4" x1="376.68" y1="141.1" x2="238.11" y2="221.1" />
            <line class="cls-4" x1="380.14" y1="143.1" x2="241.58" y2="223.1" />
            <line class="cls-4" x1="383.61" y1="145.1" x2="245.04" y2="225.1" />
            <line class="cls-4" x1="387.07" y1="147.1" x2="248.51" y2="227.1" />
            <line class="cls-4" x1="390.53" y1="149.1" x2="251.97" y2="229.1" />
            <line class="cls-4" x1="394" y1="151.1" x2="255.43" y2="231.1" />
            <line class="cls-4" x1="283.15" y1="87.1" x2="144.58" y2="167.1" />
            <line class="cls-4" x1="279.68" y1="85.1" x2="141.12" y2="165.1" />
            <line class="cls-4" x1="276.22" y1="83.1" x2="137.66" y2="163.1" />
            <line class="cls-4" x1="272.75" y1="81.1" x2="134.19" y2="161.1" />
            <line class="cls-4" x1="269.29" y1="79.1" x2="130.73" y2="159.1" />
            <line class="cls-4" x1="265.83" y1="77.1" x2="127.26" y2="157.1" />
            <line class="cls-4" x1="262.36" y1="75.1" x2="123.8" y2="155.1" />
            <line class="cls-4" x1="369.75" y1="169.1" x2="231.19" y2="89.1" />
            <line class="cls-4" x1="366.29" y1="171.1" x2="227.72" y2="91.1" />
            <line class="cls-4" x1="362.82" y1="173.1" x2="224.26" y2="93.1" />
            <line class="cls-4" x1="359.36" y1="175.1" x2="220.79" y2="95.1" />
            <line class="cls-4" x1="355.89" y1="177.1" x2="217.33" y2="97.1" />
            <line class="cls-4" x1="352.43" y1="179.1" x2="213.87" y2="99.1" />
            <line class="cls-4" x1="348.97" y1="181.1" x2="210.4" y2="101.1" />
            <line class="cls-4" x1="345.5" y1="183.1" x2="206.94" y2="103.1" />
            <line class="cls-4" x1="373.21" y1="167.1" x2="234.65" y2="87.1" />
            <line class="cls-4" x1="376.68" y1="165.1" x2="238.11" y2="85.1" />
            <line class="cls-4" x1="380.14" y1="163.1" x2="241.58" y2="83.1" />
            <line class="cls-4" x1="383.61" y1="161.1" x2="245.04" y2="81.1" />
            <line class="cls-4" x1="387.07" y1="159.1" x2="248.51" y2="79.1" />
            <line class="cls-4" x1="390.53" y1="157.1" x2="251.97" y2="77.1" />
            <line class="cls-4" x1="394" y1="155.1" x2="255.43" y2="75.1" />
            <line class="cls-4" x1="321.25" y1="197.1" x2="182.69" y2="117.1" />
            <line class="cls-4" x1="317.79" y1="199.1" x2="179.22" y2="119.1" />
            <line class="cls-4" x1="314.32" y1="201.1" x2="175.76" y2="121.1" />
            <line class="cls-4" x1="310.86" y1="203.1" x2="172.3" y2="123.1" />
            <line class="cls-4" x1="307.4" y1="205.1" x2="168.83" y2="125.1" />
            <line class="cls-4" x1="303.93" y1="207.1" x2="165.37" y2="127.1" />
            <line class="cls-4" x1="300.47" y1="209.1" x2="161.9" y2="129.1" />
            <line class="cls-4" x1="297" y1="211.1" x2="158.44" y2="131.1" />
            <line class="cls-4" x1="324.72" y1="195.1" x2="186.15" y2="115.1" />
            <line class="cls-4" x1="328.18" y1="193.1" x2="189.62" y2="113.1" />
            <line class="cls-4" x1="331.64" y1="191.1" x2="193.08" y2="111.1" />
            <line class="cls-4" x1="335.11" y1="189.1" x2="196.54" y2="109.1" />
            <line class="cls-4" x1="338.57" y1="187.1" x2="200.01" y2="107.1" />
            <line class="cls-4" x1="342.04" y1="185.1" x2="203.47" y2="105.1" />
            <line class="cls-4" x1="272.76" y1="225.1" x2="134.19" y2="145.1" />
            <line class="cls-4" x1="269.29" y1="227.1" x2="130.73" y2="147.1" />
            <line class="cls-4" x1="265.83" y1="229.1" x2="127.26" y2="149.1" />
            <line class="cls-4" x1="262.36" y1="231.1" x2="123.8" y2="151.1" />
            <line class="cls-4" x1="276.22" y1="223.1" x2="137.66" y2="143.1" />
            <line class="cls-4" x1="279.68" y1="221.1" x2="141.12" y2="141.1" />
            <line class="cls-4" x1="283.15" y1="219.1" x2="144.58" y2="139.1" />
            <line class="cls-4" x1="286.61" y1="217.1" x2="148.05" y2="137.1" />
            <line class="cls-4" x1="290.08" y1="215.1" x2="151.51" y2="135.1" />
            <line class="cls-4" x1="293.54" y1="213.1" x2="154.98" y2="133.1" />
        </g>
        <g id="solid-border">
            <polygon class="cls-1" points="120.33 153.1 120.33 145.1 258.9 65.1 258.9 73.1 120.33 153.1" />
            <polygon class="cls-2" points="120.33 153.1 120.33 145.1 258.9 65.1 258.9 73.1 120.33 153.1" />
            <polygon class="cls-5" points="258.9 65.1 258.9 73.1 397.46 153.1 397.46 145.1 258.9 65.1" />
            <polygon class="cls-6" points="258.9 65.1 258.9 73.1 397.46 153.1 397.46 145.1 258.9 65.1" />
        </g>
        <g id="under-shadow">
            <g class="cls-7">
                <path class="cls-8" d="M245.05,233.1h0l-138.54-80h13.85l138.55,80s0,0,0,0Z" />
            </g>
            <polygon class="cls-9" points="106.48 153.1 120.33 153.1 120.33 145.1 106.48 153.1" />
        </g>
        <g id="side-shadow">
            <polygon class="cls-10" points="258.9 65.1 251.97 77.1 258.9 73.1 258.9 65.1" />
            <g class="cls-11">
                <path class="cls-8" d="M383.62,153.1h0L252,77.1s0,0,0,0l6.91-4h0l138.54,80s0,0,0,0Z" />
            </g>
        </g>
        <g id="dotted-border">
            <line class="cls-12" x1="258.9" y1="233.1" x2="258.9" y2="232.6" />
            <line class="cls-13" x1="258.9" y1="229.6" x2="258.9" y2="227.1" />
            <line class="cls-12" x1="258.9" y1="225.6" x2="258.9" y2="225.1" />
            <line class="cls-12" x1="397.46" y1="145.1" x2="397.03" y2="145.35" />
            <line class="cls-14" x1="394.43" y1="146.85" x2="260.63" y2="224.1" />
            <polyline class="cls-12" points="259.33 224.85 258.9 225.1 258.47 224.85" />
            <line class="cls-13" x1="255.87" y1="223.35" x2="122.07" y2="146.1" />
            <line class="cls-12" x1="120.77" y1="145.35" x2="120.33" y2="145.1" />
        </g>
    </g>
    <g class="cls-11">
        <path class="cls-8" d="M162.11,169.09h0l-27.7-16h13.86l27.69,16H162.11Z" />
    </g>
    <g class="cls-11">
        <path class="cls-8" d="M162.11,137.09h0l-27.7,16h13.86l27.69-16s0,0,0,0Z" />
    </g>
    <path class="cls-5" d="M176,169.08h0l-27.69-16s0,0,0,0v-8h0l27.69,16h0Z" />
    <path class="cls-15" d="M176,169.08h0l-27.69-16s0,0,0,0v-8h0l27.69,16h0Z" />
    <path class="cls-1" d="M203.67,145.1h0l-27.7,16h0v8h0l27.7-16v-8Z" />
    <path class="cls-6" d="M203.67,145.1h0l-27.7,16h0v8h0l27.7-16v-8Z" />
    <path class="cls-1" d="M176,161.09h0l-27.69-16s0,0,0,0l27.69-16h0l27.7,16h0Z" />
    <path class="cls-16" d="M176,161.09h0l-27.69-16s0,0,0,0l27.69-16h0l27.7,16h0Z" />
    <g class="cls-11">
        <path class="cls-8" d="M203.48,145.1h0l-27.69-16h13.86l27.69,16s0,0,0,0Z" />
    </g>
    <g class="cls-11">
        <path class="cls-8" d="M203.48,113.1h0l-27.69,16s0,0,0,0h13.86l27.69-16H203.48Z" />
    </g>
    <path class="cls-5" d="M217.33,145.09h0l-27.69-16h0v-8s0,0,0,0l27.69,16s0,0,0,0Z" />
    <path class="cls-15" d="M217.33,145.09h0l-27.69-16h0v-8s0,0,0,0l27.69,16s0,0,0,0Z" />
    <path class="cls-1" d="M245,121.11s0,0,0,0l-27.69,16s0,0,0,0v8h0l27.69-16h0Z" />
    <path class="cls-6" d="M245,121.11s0,0,0,0l-27.69,16s0,0,0,0v8h0l27.69-16h0Z" />
    <path class="cls-1" d="M217.34,137.09h0l-27.69-16s0,0,0,0l27.69-16h0l27.69,16s0,0,0,0Z" />
    <path class="cls-16" d="M217.34,137.09h0l-27.69-16s0,0,0,0l27.69-16h0l27.69,16s0,0,0,0Z" />
    <g class="cls-11">
        <path class="cls-8" d="M244.85,121.1h0l-27.69-16H231l27.7,16H244.85Z" />
    </g>
    <g class="cls-11">
        <path class="cls-8" d="M244.85,89.1h0l-27.69,16s0,0,0,0H231l27.7-16H244.85Z" />
    </g>
    <path class="cls-5" d="M258.7,121.09h0l-27.7-16h0v-8h0l27.7,16a0,0,0,0,1,0,0Z" />
    <path class="cls-15" d="M258.7,121.09h0l-27.7-16h0v-8h0l27.7,16a0,0,0,0,1,0,0Z" />
    <path class="cls-1" d="M286.41,97.11s0,0,0,0l-27.69,16s0,0,0,0v8h0l27.69-16h0Z" />
    <path class="cls-6" d="M286.41,97.11s0,0,0,0l-27.69,16s0,0,0,0v8h0l27.69-16h0Z" />
    <path class="cls-1" d="M258.71,113.09h0L231,97.1h0l27.7-16h0l27.69,16s0,0,0,0Z" />
    <path class="cls-16" d="M258.71,113.09h0L231,97.1h0l27.7-16h0l27.69,16s0,0,0,0Z" />
    <g class="cls-11">
        <path class="cls-8" d="M286.62,145.1h0l-27.69-16h13.85l27.7,16H286.62Z" />
    </g>
    <g class="cls-11">
        <path class="cls-8" d="M286.62,113.1h0l-27.69,16s0,0,0,0h13.85l27.7-16H286.62Z" />
    </g>
    <path class="cls-5" d="M300.47,145.09h0l-27.7-16h0v-8a0,0,0,0,1,0,0l27.7,16a0,0,0,0,1,0,0Z" />
    <path class="cls-15" d="M300.47,145.09h0l-27.7-16h0v-8a0,0,0,0,1,0,0l27.7,16a0,0,0,0,1,0,0Z" />
    <path class="cls-1" d="M328.18,121.11s0,0,0,0l-27.69,16s0,0,0,0v8h0l27.69-16h0Z" />
    <path class="cls-6" d="M328.18,121.11s0,0,0,0l-27.69,16s0,0,0,0v8h0l27.69-16h0Z" />
    <path class="cls-1" d="M300.48,137.09h0l-27.7-16h0l27.7-16h0l27.69,16s0,0,0,0Z" />
    <path class="cls-16" d="M300.48,137.09h0l-27.7-16h0l27.7-16h0l27.69,16s0,0,0,0Z" />
    <g class="cls-11">
        <path class="cls-8" d="M328.39,169.09h0l-27.69-16s0,0,0,0h13.85l27.7,16H328.39Z" />
    </g>
    <g class="cls-11">
        <path class="cls-8" d="M328.39,137.09h0l-27.69,16h13.85l27.7-16H328.39Z" />
    </g>
    <path class="cls-5" d="M342.24,169.08h0l-27.7-16v-8h0l27.7,16h0Z" />
    <path class="cls-15" d="M342.24,169.08h0l-27.7-16v-8h0l27.7,16h0Z" />
    <path class="cls-1" d="M370,145.1h0l-27.69,16h0v8h0l27.69-16s0,0,0,0Z" />
    <path class="cls-6" d="M370,145.1h0l-27.69,16h0v8h0l27.69-16s0,0,0,0Z" />
    <path class="cls-1" d="M342.25,161.09h0l-27.7-16h0l27.7-16h0l27.69,16s0,0,0,0Z" />
    <path class="cls-16" d="M342.25,161.09h0l-27.7-16h0l27.7-16h0l27.69,16s0,0,0,0Z" />
    <g class="cls-11">
        <path class="cls-8" d="M286.82,193.09h0l-27.69-16s0,0,0,0H273l27.7,16H286.82Z" />
    </g>
    <g class="cls-11">
        <path class="cls-8" d="M286.82,161.09h0l-27.69,16H273l27.7-16H286.82Z" />
    </g>
    <path class="cls-5" d="M300.67,193.08h0l-27.7-16v-8h0l27.7,16h0Z" />
    <path class="cls-15" d="M300.67,193.08h0l-27.7-16v-8h0l27.7,16h0Z" />
    <path class="cls-1" d="M328.38,169.1h0l-27.69,16h0v8h0l27.69-16s0,0,0,0Z" />
    <path class="cls-6" d="M328.38,169.1h0l-27.69,16h0v8h0l27.69-16s0,0,0,0Z" />
    <path class="cls-1" d="M300.68,185.09h0l-27.7-16h0l27.7-16h0l27.69,16s0,0,0,0Z" />
    <path class="cls-16" d="M300.68,185.09h0l-27.7-16h0l27.7-16h0l27.69,16s0,0,0,0Z" />
    <g class="cls-11">
        <path class="cls-8" d="M203.48,193.09h0l-27.69-16s0,0,0,0h13.86l27.69,16H203.48Z" />
    </g>
    <g class="cls-11">
        <path class="cls-8" d="M203.48,161.09h0l-27.69,16h13.86l27.69-16s0,0,0,0Z" />
    </g>
    <path class="cls-5" d="M217.33,193.08h0l-27.69-16s0,0,0,0v-8h0l27.69,16h0Z" />
    <path class="cls-15" d="M217.33,193.08h0l-27.69-16s0,0,0,0v-8h0l27.69,16h0Z" />
    <path class="cls-1" d="M245,169.1h0l-27.69,16h0v8h0l27.69-16s0,0,0,0Z" />
    <path class="cls-6" d="M245,169.1h0l-27.69,16h0v8h0l27.69-16s0,0,0,0Z" />
    <path class="cls-1" d="M217.34,185.09h0l-27.69-16s0,0,0,0l27.69-16h0l27.69,16s0,0,0,0Z" />
    <path class="cls-16" d="M217.34,185.09h0l-27.69-16s0,0,0,0l27.69-16h0l27.69,16s0,0,0,0Z" />
    <g class="cls-11">
        <path class="cls-8" d="M245.25,217.09h0l-27.69-16s0,0,0,0H231.4l27.69,16H245.25Z" />
    </g>
    <g class="cls-11">
        <path class="cls-8" d="M245.25,185.09h0l-27.69,16H231.4l27.69-16s0,0,0,0Z" />
    </g>
    <path class="cls-5" d="M259.1,217.08h0l-27.69-16s0,0,0,0v-8h0l27.69,16h0Z" />
    <path class="cls-15" d="M259.1,217.08h0l-27.69-16s0,0,0,0v-8h0l27.69,16h0Z" />
    <path class="cls-1" d="M286.81,193.1h0l-27.69,16h0v8h0l27.69-16s0,0,0,0Z" />
    <path class="cls-6" d="M286.81,193.1h0l-27.69,16h0v8h0l27.69-16s0,0,0,0Z" />
    <path class="cls-1" d="M259.11,209.09h0l-27.69-16s0,0,0,0l27.69-16h0l27.69,16s0,0,0,0Z" />
    <path class="cls-16" d="M259.11,209.09h0l-27.69-16s0,0,0,0l27.69-16h0l27.69,16s0,0,0,0Z" />
    <path class="cls-17" d="M271.59,128c-7.12,4.11-18.66,4.11-25.78,0-3.16-1.82-4.91-4.15-5.27-6.53v27.69a6.3,6.3,0,0,0,0,1.84v0h0c.37,2.37,2.12,4.68,5.27,6.49,7.12,4.11,18.66,4.11,25.78,0,3.14-1.81,4.89-4.12,5.26-6.49h.08V120.52C276.93,123.22,275.15,125.91,271.59,128Z" />
    <ellipse class="cls-18" cx="258.7" cy="120.52" rx="18.23" ry="10.53" />
    <text class="cls-19" transform="matrix(0.87, -0.5, 0.87, 0.5, 255.42, 124.94)">DB</text>
    <polygon class="cls-20" points="78.33 153.1 258.9 48.85 439.46 153.1 258.9 257.35 78.33 153.1" />
    <g id="solid-border-2" data-name="solid-border">
        <polygon class="cls-21" points="78.33 153.1 78.33 145.1 258.9 40.85 258.9 48.85 78.33 153.1" />
        <polygon class="cls-20" points="78.33 153.1 78.33 145.1 258.9 40.85 258.9 48.85 78.33 153.1" />
        <polygon class="cls-22" points="258.9 40.85 258.9 48.85 439.46 153.1 439.46 145.1 258.9 40.85" />
        <polygon class="cls-20" points="258.9 40.85 258.9 48.85 439.46 153.1 439.46 145.1 258.9 40.85" />
        <polygon class="cls-10" points="258.9 40.85 251.97 52.85 258.9 48.85 258.9 40.85" />
        <g class="cls-11">
            <path class="cls-8" d="M425.62,153.1h0L252,52.85s0,0,0,0l6.91-4h0L439.45,153.09s0,0,0,0Z" />
        </g>
    </g>
    <polyline class="cls-23" points="439.46 145.1 258.9 249.35 78.33 145.1" />
    <line class="cls-23" x1="258.9" y1="257.35" x2="258.9" y2="249.35" />
    <g class="cls-7">
        <path class="cls-8" d="M245.05,257.35h0L64.49,153.1H78.34L258.89,257.34H245.05Z" />
    </g>
    <polygon class="cls-9" points="64.48 153.1 78.33 153.1 78.33 145.1 64.48 153.1" />
    <polygon class="cls-20" points="258.9 257.35 314.32 225.35 341.82 241.22 286.39 273.22 258.9 257.35" />
    <path class="cls-24" d="M288.19,250.46,297.8,256a4.16,4.16,0,0,0,3.78,0l9.67-5.58a1.16,1.16,0,0,0,0-2.19l-9.61-5.55a4.19,4.19,0,0,0-3.78,0l-9.67,5.58A1.16,1.16,0,0,0,288.19,250.46Zm1-1.59,6.39-3.69,3.09,1.78-7.26,4.19-2.23-1.29A.52.52,0,0,1,289.23,248.87Zm10.49,2.26-3.09-1.78,7.25-4.18L307,247Zm-1,.6-3.11,1.8-3.09-1.79,3.11-1.79Zm1.94-8.45,2.23,1.29-3.11,1.8-3.09-1.79,2.25-1.29A1.9,1.9,0,0,1,300.62,243.28Zm9.6,6.54-2.24,1.3-3.09-1.78,3.11-1.8,2.23,1.29A.52.52,0,0,1,310.22,249.82Zm-11.39,5.59-2.23-1.29,7.25-4.19,3.09,1.79-6.39,3.69A1.93,1.93,0,0,1,298.83,255.41Z" />
</svg>