<?xml version="1.0" encoding="utf-8"?>
<!-- Generator: Adobe Illustrator 16.0.0, SVG Export Plug-In . SVG Version: 6.00 Build 0)  -->
<!DOCTYPE svg PUBLIC "-//W3C//DTD SVG 1.1//EN" "http://www.w3.org/Graphics/SVG/1.1/DTD/svg11.dtd">
<svg version="1.1" id="Layer_1" xmlns="http://www.w3.org/2000/svg" xmlns:xlink="http://www.w3.org/1999/xlink" x="0px" y="0px"
	 width="1000px" height="1000px" viewBox="0 0 1000 1000" enable-background="new 0 0 1000 1000" xml:space="preserve">
<g>
	<g>
		<g>
			
				<line fill="none" stroke="#255AA8" stroke-width="35" stroke-miterlimit="10" x1="416.991" y1="357.021" x2="411.45" y2="366.244"/>
			
				<line fill="none" stroke="#255AA8" stroke-width="35" stroke-miterlimit="10" stroke-dasharray="22.5228,22.5228" x1="399.852" y1="385.55" x2="266.469" y2="607.578"/>
			
				<line fill="none" stroke="#255AA8" stroke-width="35" stroke-miterlimit="10" x1="260.67" y1="617.231" x2="255.129" y2="626.454"/>
		</g>
	</g>
	<g>
		<g>
			
				<line fill="none" stroke="#255AA8" stroke-width="35" stroke-miterlimit="10" x1="637.388" y1="760.493" x2="626.629" y2="760.508"/>
			
				<line fill="none" stroke="#255AA8" stroke-width="35" stroke-miterlimit="10" stroke-dasharray="22.5228,22.5228" x1="604.106" y1="760.539" x2="345.094" y2="760.9"/>
			
				<line fill="none" stroke="#255AA8" stroke-width="35" stroke-miterlimit="10" x1="333.833" y1="760.916" x2="323.074" y2="760.931"/>
		</g>
	</g>
	<g>
		<g>
			
				<line fill="none" stroke="#255AA8" stroke-width="35" stroke-miterlimit="10" x1="590.809" y1="357.021" x2="596.349" y2="366.244"/>
			
				<line fill="none" stroke="#255AA8" stroke-width="35" stroke-miterlimit="10" stroke-dasharray="22.5228,22.5228" x1="607.947" y1="385.55" x2="741.33" y2="607.578"/>
			
				<line fill="none" stroke="#255AA8" stroke-width="35" stroke-miterlimit="10" x1="747.13" y1="617.231" x2="752.67" y2="626.454"/>
		</g>
	</g>
	<g>
		<g enable-background="new    ">
			<g>
				<polygon fill="#8B8B8B" points="686.403,374.474 501.448,282.711 499.126,63.107 684.082,154.87 				"/>
			</g>
			<g>
				<polygon fill="#D0D0D0" points="502.585,460.19 317.629,368.428 501.448,282.711 686.403,374.474 				"/>
			</g>
			<g>
				<polygon fill="#1E4989" points="500.263,240.587 315.308,148.824 499.126,63.107 684.082,154.87 				"/>
			</g>
			<g>
				<polygon fill="#14315C" points="502.585,460.19 317.629,368.428 315.308,148.824 500.263,240.587 				"/>
			</g>
			<g>
				<polygon fill="#255AA8" stroke="#FFFFFF" stroke-width="20" stroke-miterlimit="10" points="684.082,154.87 686.403,374.474 
					502.585,460.19 500.263,240.587 				"/>
			</g>
			<g>
				<polygon fill="#255AA8" stroke="#FFFFFF" stroke-width="20" stroke-miterlimit="10" points="500.063,464.471 315.112,372.709 
					312.725,146.923 497.681,238.685 				"/>
			</g>
			<g>
				<polygon fill="#255AA8" stroke="#FFFFFF" stroke-width="20" stroke-miterlimit="10" points="497.681,238.685 312.725,146.923 
					501.648,58.827 686.604,150.59 				"/>
			</g>
		</g>
	</g>
	<g>
		<g enable-background="new    ">
			<g>
				<polygon fill="#8B8B8B" points="376.546,852.171 191.591,760.407 189.269,540.805 374.224,632.566 				"/>
			</g>
			<g>
				<polygon fill="#D0D0D0" points="192.728,937.888 7.771,846.126 191.591,760.407 376.546,852.171 				"/>
			</g>
			<g>
				<polygon fill="#1E4989" points="190.405,718.283 5.45,626.521 189.269,540.805 374.224,632.566 				"/>
			</g>
			<g>
				<polygon fill="#14315C" points="192.728,937.888 7.771,846.126 5.45,626.521 190.405,718.283 				"/>
			</g>
			<g>
				<polygon fill="#255AA8" stroke="#FFFFFF" stroke-width="20" stroke-miterlimit="10" points="374.224,632.566 376.546,852.171 
					192.728,937.888 190.405,718.283 				"/>
			</g>
			<g>
				<polygon fill="#255AA8" stroke="#FFFFFF" stroke-width="20" stroke-miterlimit="10" points="190.206,942.168 5.254,850.406 
					2.867,624.621 187.823,716.384 				"/>
			</g>
			<g>
				<polygon fill="#255AA8" stroke="#FFFFFF" stroke-width="20" stroke-miterlimit="10" points="187.823,716.384 2.867,624.621 
					191.791,536.524 376.746,628.286 				"/>
			</g>
		</g>
	</g>
	<g>
		<g enable-background="new    ">
			<g>
				<polygon fill="#8B8B8B" points="996.262,852.171 811.307,760.407 808.984,540.805 993.939,632.566 				"/>
			</g>
			<g>
				<polygon fill="#D0D0D0" points="812.443,937.888 627.485,846.126 811.307,760.407 996.262,852.171 				"/>
			</g>
			<g>
				<polygon fill="#1E4989" points="810.121,718.283 625.166,626.521 808.984,540.805 993.939,632.566 				"/>
			</g>
			<g>
				<polygon fill="#14315C" points="812.443,937.888 627.485,846.126 625.166,626.521 810.121,718.283 				"/>
			</g>
			<g>
				<polygon fill="#255AA8" stroke="#FFFFFF" stroke-width="20" stroke-miterlimit="10" points="993.939,632.566 996.262,852.171 
					812.443,937.888 810.121,718.283 				"/>
			</g>
			<g>
				<polygon fill="#255AA8" stroke="#FFFFFF" stroke-width="20" stroke-miterlimit="10" points="809.922,942.168 624.969,850.406 
					622.581,624.621 807.538,716.384 				"/>
			</g>
			<g>
				<polygon fill="#255AA8" stroke="#FFFFFF" stroke-width="20" stroke-miterlimit="10" points="807.538,716.384 622.581,624.621 
					811.506,536.524 996.461,628.286 				"/>
			</g>
		</g>
	</g>
</g>
</svg>
