<svg width="580" height="432" viewBox="0 0 580 432" fill="none" xmlns="http://www.w3.org/2000/svg">
<g clip-path="url(#clip0)">
<rect x="1" y="1" width="476" height="385.55" transform="translate(51 52.4502)" stroke="url(#paint0_linear)" stroke-width="2"/>
<rect width="446.656" height="76.4693" rx="3" transform="translate(66.6724 66.1948)" fill="white"/>
<rect width="446.656" height="76.4693" rx="3" transform="translate(66.6724 155.107)" fill="white"/>
<rect width="446.656" height="76.4693" rx="3" transform="translate(66.6724 244.02)" fill="white"/>
<rect width="446.656" height="76.4693" rx="3" transform="translate(66.6724 331.951)" fill="white"/>
<path d="M45.8835 9.45998C49.6853 13.9901 51.9139 19.9859 51.9139 26.3814C51.9139 40.9044 40.3775 52.7627 25.957 52.7627C11.6675 52.7627 0 41.0377 0 26.3814C0 11.725 11.5364 -1.58833e-08 25.957 -1.58833e-08C29.4966 -1.58833e-08 32.905 0.799435 36.0513 2.13183" transform="translate(80.3857 257)" fill="white"/>
<path d="M45.8835 9.45998C49.6853 13.9901 51.9139 19.9859 51.9139 26.3814C51.9139 40.9044 40.3775 52.7627 25.957 52.7627C11.6675 52.7627 0 41.0377 0 26.3814C0 11.725 11.5364 -1.58833e-08 25.957 -1.58833e-08C29.4966 -1.58833e-08 32.905 0.799435 36.0513 2.13183" transform="translate(80.3857 257)" stroke="#007699" stroke-width="1.25" stroke-miterlimit="10" stroke-linecap="round"/>
<path d="M4.00073e-06 0C0.393291 0.399718 0.786571 0.799435 1.17986 1.19915L4.00073e-06 0Z" transform="translate(124.04 264.062)" fill="white"/>
<path d="M4.00073e-06 0C0.393291 0.399718 0.786571 0.799435 1.17986 1.19915" transform="translate(124.04 264.062)" stroke="#007699" stroke-width="1.25" stroke-miterlimit="10" stroke-linecap="round"/>
<path d="M8.00145e-06 0C1.31097 0.666196 2.49081 1.46563 3.67067 2.39831L8.00145e-06 0Z" transform="translate(118.535 260.066)" fill="white"/>
<path d="M8.00145e-06 0C1.31097 0.666196 2.49081 1.46563 3.67067 2.39831" transform="translate(118.535 260.066)" stroke="#007699" stroke-width="1.25" stroke-miterlimit="10" stroke-linecap="round"/>
<path d="M6.9069 1.72678C9.13553 3.99185 8.48005 8.65522 8.48005 8.65522C8.48005 8.65522 4.02279 9.45465 1.66307 7.05635C-0.56556 4.79128 0.0899228 0.127911 0.0899228 0.127911C0.0899228 0.127911 4.67827 -0.671526 6.9069 1.72678Z" transform="translate(115.166 278.191)" fill="white"/>
<path d="M6.9069 1.72678C9.13553 3.99185 8.48005 8.65522 8.48005 8.65522C8.48005 8.65522 4.02279 9.45465 1.66307 7.05635C-0.56556 4.79128 0.0899228 0.127911 0.0899228 0.127911C0.0899228 0.127911 4.67827 -0.671526 6.9069 1.72678Z" transform="translate(115.166 278.191)" fill="#BDD8E4" stroke="#007699" stroke-width="1.25" stroke-miterlimit="10" stroke-linecap="round"/>
<path d="M1.66306 1.72678C-0.565572 3.99185 0.0899108 8.65522 0.0899108 8.65522C0.0899108 8.65522 4.54716 9.45465 6.90689 7.05635C9.13552 4.79128 8.48005 0.127911 8.48005 0.127911C8.48005 0.127911 3.89169 -0.671526 1.66306 1.72678Z" transform="translate(89.0781 278.191)" fill="white"/>
<path d="M1.66306 1.72678C-0.565572 3.99185 0.0899108 8.65522 0.0899108 8.65522C0.0899108 8.65522 4.54716 9.45465 6.90689 7.05635C9.13552 4.79128 8.48005 0.127911 8.48005 0.127911C8.48005 0.127911 3.89169 -0.671526 1.66306 1.72678Z" transform="translate(89.0781 278.191)" fill="#BDD8E4" stroke="#007699" stroke-width="1.25" stroke-miterlimit="10" stroke-linecap="round"/>
<path d="M2.35973 2.3983C2.35973 3.0645 1.83533 3.59746 1.17985 3.59746C0.524375 3.59746 0 3.0645 0 2.3983V1.19915C0 0.532957 0.524375 1.01653e-06 1.17985 1.01653e-06C1.83533 1.01653e-06 2.35973 0.532957 2.35973 1.19915V2.3983Z" transform="translate(115.125 278.319)" fill="white"/>
<path d="M2.35973 2.3983C2.35973 3.0645 1.83533 3.59746 1.17985 3.59746C0.524375 3.59746 0 3.0645 0 2.3983V1.19915C0 0.532957 0.524375 1.01653e-06 1.17985 1.01653e-06C1.83533 1.01653e-06 2.35973 0.532957 2.35973 1.19915V2.3983Z" transform="translate(115.125 278.319)" fill="white" stroke="#007699" stroke-width="1.25" stroke-miterlimit="10" stroke-linecap="round"/>
<path d="M2.35972 2.3983C2.35972 3.0645 1.83535 3.59746 1.17987 3.59746C0.524387 3.59746 -8.00145e-06 3.0645 -8.00145e-06 2.3983V1.19915C-8.00145e-06 0.532957 0.524387 1.01653e-06 1.17987 1.01653e-06C1.83535 1.01653e-06 2.35972 0.532957 2.35972 1.19915V2.3983Z" transform="translate(95.3301 278.319)" fill="white"/>
<path d="M2.35972 2.3983C2.35972 3.0645 1.83535 3.59746 1.17987 3.59746C0.524387 3.59746 -8.00145e-06 3.0645 -8.00145e-06 2.3983V1.19915C-8.00145e-06 0.532957 0.524387 1.01653e-06 1.17987 1.01653e-06C1.83535 1.01653e-06 2.35972 0.532957 2.35972 1.19915V2.3983Z" transform="translate(95.3301 278.319)" fill="white" stroke="#007699" stroke-width="1.25" stroke-miterlimit="10" stroke-linecap="round"/>
<path d="M20.7131 13.3239V10.5259C20.7131 4.79661 16.1248 -2.54134e-07 10.3566 -2.54134e-07C4.71944 -2.54134e-07 4.00073e-06 4.66337 4.00073e-06 10.5259V13.3239C4.00073e-06 13.7236 0.393279 14.1234 0.786567 14.1234H19.9266C20.4509 14.1234 20.7131 13.7236 20.7131 13.3239Z" transform="translate(95.8535 263.664)" fill="white"/>
<path d="M20.7131 13.3239V10.5259C20.7131 4.79661 16.1248 -2.54134e-07 10.3566 -2.54134e-07C4.71944 -2.54134e-07 4.00073e-06 4.66337 4.00073e-06 10.5259V13.3239C4.00073e-06 13.7236 0.393279 14.1234 0.786567 14.1234H19.9266C20.4509 14.1234 20.7131 13.7236 20.7131 13.3239Z" transform="translate(95.8535 263.664)" fill="#BDD8E4" stroke="#007699" stroke-width="1.25" stroke-miterlimit="10" stroke-linecap="round"/>
<path d="M21.7619 12.9242V11.0589C21.7619 4.92985 16.9114 1.01653e-06 10.881 1.01653e-06C4.85054 1.01653e-06 -4.00073e-06 4.92985 -4.00073e-06 11.0589V12.9242H21.7619Z" transform="translate(95.7222 291.642)" fill="white"/>
<path d="M3.01521 9.45998V7.59463C3.01521 4.66337 1.83534 1.99859 0 -1.01653e-06C0 1.99859 0 5.06309 0 8.39406V9.45998H3.01521Z" transform="translate(114.47 295.107)" fill="white"/>
<path d="M2.75301 7.99435C2.75301 4.79661 2.75301 1.99859 2.75301 0C1.04876 1.99859 8.00145e-06 4.53013 8.00145e-06 7.32815V9.1935H2.75301V7.99435Z" transform="translate(95.5913 295.374)" fill="white"/>
<path d="M3.56628 9.45998H8.54793C10.9077 9.45998 12.2186 7.72787 12.0875 4.92985V1.99859C10.7766 0.932675 9.07231 0.13324 7.23697 1.01653e-06C6.05711 1.01653e-06 5.00834 1.01653e-06 4.87724 1.01653e-06C4.87724 1.01653e-06 4.74615 1.01653e-06 4.61505 1.01653e-06C2.91081 0.266479 1.33766 1.06591 0.026701 2.13183V5.06309C-0.235491 7.46139 1.46875 9.45998 3.56628 9.45998Z" transform="translate(100.285 291.642)" fill="white"/>
<path d="M3.59625 9.45998H8.5779C10.9376 9.45998 12.2486 7.72787 12.1175 4.92985V1.99859C10.8065 0.932675 9.10228 0.13324 7.26694 1.01653e-06C6.08708 1.01653e-06 5.03831 1.01653e-06 4.90721 1.01653e-06C4.90721 1.01653e-06 4.77612 1.01653e-06 4.64502 1.01653e-06C2.94078 0.266479 1.36763 1.06591 0.0566719 2.13183V5.06309C-0.336616 7.46139 1.36763 9.45998 3.59625 9.45998Z" transform="translate(100.254 291.642)" fill="white" stroke="#007699" stroke-width="1.25" stroke-miterlimit="10" stroke-linecap="round"/>
<path d="M0 2.66478C1.96644 0.932675 4.45725 1.01653e-06 7.07916 1.01653e-06C13.1096 1.01653e-06 17.9601 4.92985 17.9601 11.0589V12.9242" transform="translate(99.3936 291.642)" fill="white"/>
<path d="M0 2.66478C1.96644 0.932675 4.45725 1.01653e-06 7.07916 1.01653e-06C13.1096 1.01653e-06 17.9601 4.92985 17.9601 11.0589V12.9242" transform="translate(99.3936 291.642)" stroke="#007699" stroke-width="1.25" stroke-miterlimit="10" stroke-linecap="round"/>
<path d="M8.00145e-06 1.73211C0.2622 1.06591 0.655479 0.532956 1.17986 -1.01653e-06L8.00145e-06 1.73211Z" transform="translate(96.9023 295.773)" fill="white"/>
<path d="M8.00145e-06 1.73211C0.2622 1.06591 0.655479 0.532956 1.17986 -1.01653e-06" transform="translate(96.9023 295.773)" stroke="#007699" stroke-width="1.25" stroke-miterlimit="10" stroke-linecap="round"/>
<path d="M8.00145e-06 4.39689V2.53154C8.00145e-06 1.59887 0.1311 0.799433 0.262196 -2.03307e-06" transform="translate(95.5913 300.171)" fill="white"/>
<path d="M8.00145e-06 4.39689V2.53154C8.00145e-06 1.59887 0.1311 0.799433 0.262196 -2.03307e-06" transform="translate(95.5913 300.171)" stroke="#007699" stroke-width="1.25" stroke-miterlimit="10" stroke-linecap="round"/>
<path d="M2.35973 9.8597C1.04877 9.8597 0 8.79378 0 7.46139V2.3983C0 1.06591 1.04877 1.01653e-06 2.35973 1.01653e-06C3.67069 1.01653e-06 4.71946 1.06591 4.71946 2.3983V7.46139C4.71946 8.66054 3.67069 9.8597 2.35973 9.8597Z" transform="translate(103.982 286.313)" fill="white"/>
<path d="M0 8.39407V2.3983C0 1.06591 1.04877 5.08267e-07 2.35973 5.08267e-07C3.67069 5.08267e-07 4.71946 1.06591 4.71946 2.3983V8.39407" transform="translate(103.982 286.181)" fill="white"/>
<path d="M0 8.39407V2.3983C0 1.06591 1.04877 5.08267e-07 2.35973 5.08267e-07C3.67069 5.08267e-07 4.71946 1.06591 4.71946 2.3983V8.39407" transform="translate(103.982 286.181)" stroke="#007699" stroke-width="1.25" stroke-miterlimit="10" stroke-linecap="round"/>
<path d="M12.7163 18.2538L11.1432 18.7867H6.42369L4.85055 18.2538C1.96644 17.1878 0.131092 14.9228 0.131092 12.258L8.00145e-06 5.4628H0.393279C3.40848 5.4628 6.29259 3.0645 7.99684 1.06591L8.91451 -2.54133e-07L9.70109 0.932673C11.4053 3.0645 14.1583 5.4628 17.3046 5.4628L17.4357 12.258C17.4357 14.9228 15.6004 17.1878 12.7163 18.2538Z" transform="translate(97.5581 272.323)" fill="white"/>
<path d="M17.3046 -1.01653e-06V5.32957C17.3046 8.5273 15.4693 11.3253 12.5852 12.6577L11.0121 13.3239H6.2926L4.71945 12.6577C1.83534 11.4586 -4.00073e-06 8.5273 -4.00073e-06 5.32957V-1.01653e-06" transform="translate(97.689 277.786)" fill="white"/>
<path d="M17.3046 -1.01653e-06V5.32957C17.3046 8.52731 15.4693 11.3253 12.5852 12.6577L11.0121 13.3239H6.2926L4.71945 12.6577C1.83534 11.4586 -4.00073e-06 8.52731 -4.00073e-06 5.32957V-1.01653e-06" transform="translate(97.689 277.786)" stroke="#007699" stroke-width="1.25" stroke-miterlimit="10" stroke-linecap="round"/>
<path d="M17.5668 5.19633C14.5516 5.19633 11.6675 3.7307 9.96328 1.19915L9.1767 -5.08267e-07L8.25903 1.33239C6.55479 3.86394 3.67068 5.19633 0.786575 5.19633H-8.00145e-06" transform="translate(97.2959 272.59)" fill="white"/>
<path d="M17.5668 5.19633C14.5516 5.19633 11.6675 3.7307 9.96328 1.19915L9.1767 -5.08267e-07L8.25903 1.33239C6.55479 3.86394 3.67068 5.19633 0.786575 5.19633H-8.00145e-06" transform="translate(97.2959 272.59)" stroke="#007699" stroke-width="1.25" stroke-miterlimit="10" stroke-linecap="round"/>
<path d="M2.35973 0C2.09754 0.266478 1.70424 0.532956 1.17986 0.532956C0.786571 0.532956 0.262196 0.399718 4.00073e-06 0" transform="translate(101.098 278.718)" fill="white"/>
<path d="M2.35973 0C2.09754 0.266478 1.70424 0.532956 1.17986 0.532956C0.786571 0.532956 0.262196 0.399718 4.00073e-06 0" transform="translate(101.098 278.718)" stroke="#007699" stroke-width="1.25" stroke-miterlimit="10" stroke-linecap="round"/>
<path d="M2.35972 0C2.09753 0.266478 1.70425 0.532956 1.17987 0.532956C0.786579 0.532956 0.262184 0.399718 -8.00145e-06 0" transform="translate(109.094 278.718)" fill="white"/>
<path d="M2.35972 0C2.09753 0.266478 1.70425 0.532956 1.17987 0.532956C0.786579 0.532956 0.262184 0.399718 -8.00145e-06 0" transform="translate(109.094 278.718)" stroke="#007699" stroke-width="1.25" stroke-miterlimit="10" stroke-linecap="round"/>
<path d="M3.05176e-06 0V4.13041" transform="translate(106.342 299.483)" stroke="#007699" stroke-width="1.25" stroke-miterlimit="10" stroke-linecap="round"/>
<path d="M7.35318 -5.08267e-07L0.274017 2.79802C0.0118249 2.93126 -0.119279 3.33098 0.142913 3.59746L3.28922 6.7952C3.55142 7.06168 3.94469 6.92844 4.07579 6.66196L7.35318 -5.08267e-07Z" transform="translate(92.3042 267.926)" fill="white"/>
<path d="M-4.00073e-06 7.64711L2.75302 0.318958C2.88411 -0.0807591 3.27739 -0.0807596 3.53958 0.185719L6.68589 3.38346C6.94808 3.64994 6.81698 4.04965 6.55479 4.18289L-4.00073e-06 7.64711Z" transform="translate(97.6914 262.145)" fill="white"/>
<path d="M6.69771 0.0354403L0.274009 2.56698C0.0118169 2.70022 -0.119267 3.09994 0.142925 3.36642L3.28922 6.56416C3.55141 6.83064 3.9447 6.6974 4.0758 6.43092L7.09099 0.435157C7.22208 0.168678 6.95991 -0.0977989 6.69771 0.0354403Z" transform="translate(92.1729 268.157)" fill="white" stroke="#007699" stroke-width="1.25" stroke-miterlimit="10" stroke-linecap="round"/>
<path d="M0.026377 6.84768L2.38611 0.318958C2.5172 -0.0807591 2.9105 -0.0807596 3.17269 0.185719L6.31898 3.38346C6.58117 3.64994 6.45009 4.04965 6.1879 4.18289L0.419668 7.24739C0.288573 7.51387 -0.104719 7.24739 0.026377 6.84768Z" transform="translate(97.9263 262.145)" fill="white" stroke="#007699" stroke-width="1.25" stroke-miterlimit="10" stroke-linecap="round"/>
<path d="M1.31095 2.66478C2.03497 2.66478 2.62191 2.06825 2.62191 1.33239C2.62191 0.596532 2.03497 0 1.31095 0C0.586928 0 -8.00145e-06 0.596532 -8.00145e-06 1.33239C-8.00145e-06 2.06825 0.586928 2.66478 1.31095 2.66478Z" transform="translate(97.2969 267.526)" fill="white"/>
<path d="M1.31095 2.66478C2.03497 2.66478 2.62191 2.06825 2.62191 1.33239C2.62191 0.596532 2.03497 0 1.31095 0C0.586928 0 -8.00145e-06 0.596532 -8.00145e-06 1.33239C-8.00145e-06 2.06825 0.586928 2.66478 1.31095 2.66478Z" transform="translate(97.2969 267.526)" fill="white" stroke="#007699" stroke-width="1.25" stroke-miterlimit="10" stroke-linecap="round"/>
<path d="M8.00145e-06 1.01653e-06V2.13183H2.22863" transform="translate(105.424 281.65)" fill="white"/>
<path d="M8.00145e-06 1.01653e-06V2.13183H2.22863" transform="translate(105.424 281.65)" stroke="#007699" stroke-width="1.25" stroke-miterlimit="10" stroke-linecap="round"/>
<path d="M10.4877 -5.08267e-07L10.0944 0.399719C9.17671 1.33239 7.86574 1.86535 6.55478 1.86535H3.93287C2.49081 1.86535 1.17987 1.33239 0.2622 0.266479L-8.00145e-06 -5.08267e-07" transform="translate(101.229 285.914)" fill="white"/>
<path d="M10.4877 -5.08267e-07L10.0944 0.399719C9.17671 1.33239 7.86574 1.86535 6.55478 1.86535H3.93287C2.49081 1.86535 1.17987 1.33239 0.2622 0.266479L-8.00145e-06 -5.08267e-07" transform="translate(101.229 285.914)" stroke="#007699" stroke-width="1.25" stroke-miterlimit="10" stroke-linecap="round"/>
<rect width="86.1967" height="29.4113" rx="3" transform="translate(411.459 89.7236)" fill="#007699"/>
<path d="M9.73775 14.827C10.1297 14.827 10.4751 14.7803 10.7737 14.687C11.0771 14.589 11.3291 14.4537 11.5297 14.281C11.7351 14.1037 11.8891 13.8937 11.9917 13.651C12.0944 13.4083 12.1457 13.14 12.1457 12.846C12.1457 12.2487 11.9497 11.7983 11.5577 11.495C11.1657 11.1917 10.5777 11.04 9.79375 11.04H8.30975V14.827H9.73775ZM14.3717 20H13.1678C12.9204 20 12.7384 19.9043 12.6217 19.713L10.0177 16.129C9.93842 16.017 9.85208 15.9377 9.75875 15.891C9.67008 15.8397 9.53008 15.814 9.33875 15.814H8.30975V20H6.95875V9.969H9.79375C10.4284 9.969 10.9767 10.0343 11.4387 10.165C11.9007 10.291 12.2811 10.4753 12.5797 10.718C12.8831 10.9607 13.1071 11.2547 13.2517 11.6C13.3964 11.9407 13.4687 12.3233 13.4687 12.748C13.4687 13.1027 13.4127 13.434 13.3007 13.742C13.1887 14.05 13.0254 14.3277 12.8108 14.575C12.6007 14.8177 12.3417 15.0253 12.0337 15.198C11.7304 15.3707 11.3851 15.5013 10.9977 15.59C11.1704 15.688 11.3197 15.8303 11.4457 16.017L14.3717 20ZM20.986 12.909V20H20.244C20.0667 20 19.9547 19.9137 19.908 19.741L19.81 18.978C19.502 19.3187 19.1567 19.594 18.774 19.804C18.3913 20.0093 17.9527 20.112 17.458 20.112C17.0707 20.112 16.7277 20.049 16.429 19.923C16.135 19.7923 15.8877 19.6103 15.687 19.377C15.4863 19.1437 15.3347 18.8613 15.232 18.53C15.134 18.1987 15.085 17.8323 15.085 17.431V12.909H16.331V17.431C16.331 17.9677 16.4523 18.383 16.695 18.677C16.9423 18.971 17.318 19.118 17.822 19.118C18.1907 19.118 18.5337 19.0317 18.851 18.859C19.173 18.6817 19.4693 18.439 19.74 18.131V12.909H20.986ZM24.1376 13.938C24.2916 13.7653 24.455 13.609 24.6276 13.469C24.8003 13.329 24.9823 13.21 25.1736 13.112C25.3696 13.0093 25.575 12.9323 25.7896 12.881C26.009 12.825 26.2446 12.797 26.4966 12.797C26.884 12.797 27.2246 12.8623 27.5186 12.993C27.8173 13.119 28.0646 13.301 28.2606 13.539C28.4613 13.7723 28.613 14.0547 28.7156 14.386C28.8183 14.7173 28.8696 15.0837 28.8696 15.485V20H27.6166V15.485C27.6166 14.9483 27.493 14.533 27.2456 14.239C27.003 13.9403 26.632 13.791 26.1326 13.791C25.764 13.791 25.4186 13.8797 25.0966 14.057C24.7793 14.2343 24.4853 14.4747 24.2146 14.778V20H22.9616V12.909H23.7106C23.888 12.909 23.9976 12.9953 24.0396 13.168L24.1376 13.938ZM31.9443 13.938C32.0983 13.7653 32.2616 13.609 32.4343 13.469C32.6069 13.329 32.7889 13.21 32.9803 13.112C33.1763 13.0093 33.3816 12.9323 33.5963 12.881C33.8156 12.825 34.0513 12.797 34.3033 12.797C34.6906 12.797 35.0313 12.8623 35.3253 12.993C35.6239 13.119 35.8713 13.301 36.0673 13.539C36.2679 13.7723 36.4196 14.0547 36.5223 14.386C36.6249 14.7173 36.6763 15.0837 36.6763 15.485V20H35.4233V15.485C35.4233 14.9483 35.2996 14.533 35.0523 14.239C34.8096 13.9403 34.4386 13.791 33.9393 13.791C33.5706 13.791 33.2253 13.8797 32.9033 14.057C32.5859 14.2343 32.2919 14.4747 32.0213 14.778V20H30.7683V12.909H31.5173C31.6946 12.909 31.8043 12.9953 31.8463 13.168L31.9443 13.938ZM39.8909 12.909V20H38.6449V12.909H39.8909ZM40.1569 10.683C40.1569 10.8043 40.1312 10.9187 40.0799 11.026C40.0332 11.1287 39.9679 11.222 39.8839 11.306C39.8046 11.3853 39.7089 11.4483 39.5969 11.495C39.4896 11.5417 39.3752 11.565 39.2539 11.565C39.1326 11.565 39.0182 11.5417 38.9109 11.495C38.8082 11.4483 38.7172 11.3853 38.6379 11.306C38.5586 11.222 38.4956 11.1287 38.4489 11.026C38.4022 10.9187 38.3789 10.8043 38.3789 10.683C38.3789 10.5617 38.4022 10.4473 38.4489 10.34C38.4956 10.228 38.5586 10.1323 38.6379 10.053C38.7172 9.969 38.8082 9.90367 38.9109 9.857C39.0182 9.81033 39.1326 9.787 39.2539 9.787C39.3752 9.787 39.4896 9.81033 39.5969 9.857C39.7089 9.90367 39.8046 9.969 39.8839 10.053C39.9679 10.1323 40.0332 10.228 40.0799 10.34C40.1312 10.4473 40.1569 10.5617 40.1569 10.683ZM43.1142 13.938C43.2682 13.7653 43.4315 13.609 43.6042 13.469C43.7769 13.329 43.9589 13.21 44.1502 13.112C44.3462 13.0093 44.5515 12.9323 44.7662 12.881C44.9855 12.825 45.2212 12.797 45.4732 12.797C45.8605 12.797 46.2012 12.8623 46.4952 12.993C46.7939 13.119 47.0412 13.301 47.2372 13.539C47.4379 13.7723 47.5895 14.0547 47.6922 14.386C47.7949 14.7173 47.8462 15.0837 47.8462 15.485V20H46.5932V15.485C46.5932 14.9483 46.4695 14.533 46.2222 14.239C45.9795 13.9403 45.6085 13.791 45.1092 13.791C44.7405 13.791 44.3952 13.8797 44.0732 14.057C43.7559 14.2343 43.4619 14.4747 43.1912 14.778V20H41.9382V12.909H42.6872C42.8645 12.909 42.9742 12.9953 43.0162 13.168L43.1142 13.938ZM52.2158 16.535C52.4678 16.535 52.6895 16.5 52.8808 16.43C53.0722 16.36 53.2332 16.262 53.3638 16.136C53.4945 16.01 53.5925 15.8607 53.6578 15.688C53.7232 15.5107 53.7558 15.317 53.7558 15.107C53.7558 14.673 53.6228 14.3277 53.3568 14.071C53.0955 13.8143 52.7152 13.686 52.2158 13.686C51.7118 13.686 51.3268 13.8143 51.0608 14.071C50.7995 14.3277 50.6688 14.673 50.6688 15.107C50.6688 15.317 50.7015 15.5107 50.7668 15.688C50.8368 15.8607 50.9372 16.01 51.0678 16.136C51.1985 16.262 51.3595 16.36 51.5508 16.43C51.7422 16.5 51.9638 16.535 52.2158 16.535ZM54.4628 20.385C54.4628 20.2123 54.4138 20.0723 54.3158 19.965C54.2178 19.8577 54.0848 19.7737 53.9168 19.713C53.7535 19.6523 53.5622 19.6103 53.3428 19.587C53.1235 19.559 52.8902 19.538 52.6428 19.524C52.4002 19.51 52.1528 19.496 51.9008 19.482C51.6488 19.468 51.4062 19.4447 51.1728 19.412C50.9115 19.5333 50.6968 19.6873 50.5288 19.874C50.3655 20.056 50.2838 20.2707 50.2838 20.518C50.2838 20.6767 50.3235 20.8237 50.4028 20.959C50.4868 21.099 50.6128 21.218 50.7808 21.316C50.9488 21.4187 51.1588 21.498 51.4108 21.554C51.6675 21.6147 51.9685 21.645 52.3138 21.645C52.6498 21.645 52.9508 21.6147 53.2168 21.554C53.4828 21.4933 53.7068 21.407 53.8888 21.295C54.0755 21.183 54.2178 21.05 54.3158 20.896C54.4138 20.742 54.4628 20.5717 54.4628 20.385ZM55.7298 13.189V13.651C55.7298 13.805 55.6318 13.903 55.4358 13.945L54.6308 14.05C54.7895 14.358 54.8688 14.6987 54.8688 15.072C54.8688 15.4173 54.8012 15.7323 54.6658 16.017C54.5352 16.297 54.3532 16.5373 54.1198 16.738C53.8865 16.9387 53.6065 17.0927 53.2798 17.2C52.9532 17.3073 52.5985 17.361 52.2158 17.361C51.8845 17.361 51.5718 17.3213 51.2778 17.242C51.1285 17.3353 51.0142 17.4357 50.9348 17.543C50.8555 17.6457 50.8158 17.7507 50.8158 17.858C50.8158 18.026 50.8835 18.1543 51.0188 18.243C51.1588 18.327 51.3408 18.3877 51.5648 18.425C51.7888 18.4623 52.0432 18.4857 52.3278 18.495C52.6172 18.5043 52.9112 18.5207 53.2098 18.544C53.5132 18.5627 53.8072 18.5977 54.0918 18.649C54.3812 18.7003 54.6378 18.7843 54.8618 18.901C55.0858 19.0177 55.2655 19.1787 55.4008 19.384C55.5408 19.5893 55.6108 19.8553 55.6108 20.182C55.6108 20.4853 55.5338 20.7793 55.3798 21.064C55.2305 21.3487 55.0135 21.6007 54.7288 21.82C54.4442 22.044 54.0942 22.2213 53.6788 22.352C53.2682 22.4873 52.8038 22.555 52.2858 22.555C51.7678 22.555 51.3152 22.5037 50.9278 22.401C50.5405 22.2983 50.2185 22.1607 49.9618 21.988C49.7052 21.8153 49.5115 21.6147 49.3808 21.386C49.2548 21.162 49.1918 20.9263 49.1918 20.679C49.1918 20.329 49.3015 20.0327 49.5208 19.79C49.7402 19.5473 50.0412 19.3537 50.4238 19.209C50.2138 19.1157 50.0458 18.992 49.9198 18.838C49.7985 18.6793 49.7378 18.467 49.7378 18.201C49.7378 18.0983 49.7565 17.9933 49.7938 17.886C49.8312 17.774 49.8872 17.6643 49.9618 17.557C50.0412 17.445 50.1368 17.34 50.2488 17.242C50.3608 17.144 50.4915 17.0577 50.6408 16.983C50.2908 16.787 50.0178 16.528 49.8218 16.206C49.6258 15.8793 49.5278 15.5013 49.5278 15.072C49.5278 14.7267 49.5932 14.414 49.7238 14.134C49.8592 13.8493 50.0458 13.609 50.2838 13.413C50.5218 13.2123 50.8042 13.0583 51.1308 12.951C51.4622 12.8437 51.8238 12.79 52.2158 12.79C52.5238 12.79 52.8108 12.825 53.0768 12.895C53.3428 12.9603 53.5855 13.0583 53.8048 13.189H55.7298Z" transform="translate(424.193 89.7241)" fill="white"/>
<rect width="86.1967" height="29.4113" rx="3" transform="translate(411.459 179.617)" fill="#D43C3C"/>
<path d="M15.6039 11.075V14.582H19.7269V15.688H15.6039V20H14.2459V9.969H20.4269V11.075H15.6039ZM24.7128 16.808C24.1388 16.8267 23.6488 16.8733 23.2428 16.948C22.8415 17.018 22.5125 17.1113 22.2558 17.228C22.0038 17.3447 21.8195 17.4823 21.7028 17.641C21.5908 17.7997 21.5348 17.977 21.5348 18.173C21.5348 18.3597 21.5652 18.5207 21.6258 18.656C21.6865 18.7913 21.7682 18.9033 21.8708 18.992C21.9782 19.076 22.1018 19.139 22.2418 19.181C22.3865 19.2183 22.5405 19.237 22.7038 19.237C22.9232 19.237 23.1238 19.216 23.3058 19.174C23.4878 19.1273 23.6582 19.062 23.8168 18.978C23.9802 18.894 24.1342 18.7937 24.2788 18.677C24.4282 18.5603 24.5728 18.4273 24.7128 18.278V16.808ZM20.6878 13.91C21.0798 13.532 21.5022 13.2497 21.9548 13.063C22.4075 12.8763 22.9092 12.783 23.4598 12.783C23.8565 12.783 24.2088 12.8483 24.5168 12.979C24.8248 13.1097 25.0838 13.2917 25.2938 13.525C25.5038 13.7583 25.6625 14.0407 25.7698 14.372C25.8772 14.7033 25.9308 15.0673 25.9308 15.464V20H25.3778C25.2565 20 25.1632 19.9813 25.0978 19.944C25.0325 19.902 24.9812 19.8227 24.9438 19.706L24.8038 19.034C24.6172 19.2067 24.4352 19.3607 24.2578 19.496C24.0805 19.6267 23.8938 19.7387 23.6978 19.832C23.5018 19.9207 23.2918 19.9883 23.0678 20.035C22.8485 20.0863 22.6035 20.112 22.3328 20.112C22.0575 20.112 21.7985 20.0747 21.5558 20C21.3132 19.9207 21.1008 19.804 20.9188 19.65C20.7415 19.496 20.5992 19.3023 20.4918 19.069C20.3892 18.831 20.3378 18.551 20.3378 18.229C20.3378 17.949 20.4148 17.6807 20.5688 17.424C20.7228 17.1627 20.9725 16.9317 21.3178 16.731C21.6632 16.5303 22.1135 16.367 22.6688 16.241C23.2242 16.1103 23.9055 16.0357 24.7128 16.017V15.464C24.7128 14.9133 24.5938 14.498 24.3558 14.218C24.1178 13.9333 23.7702 13.791 23.3128 13.791C23.0048 13.791 22.7458 13.8307 22.5358 13.91C22.3305 13.9847 22.1508 14.071 21.9968 14.169C21.8475 14.2623 21.7168 14.3487 21.6048 14.428C21.4975 14.5027 21.3902 14.54 21.2828 14.54C21.1988 14.54 21.1265 14.519 21.0658 14.477C21.0052 14.4303 20.9538 14.3743 20.9118 14.309L20.6878 13.91ZM29.1448 12.909V20H27.8988V12.909H29.1448ZM29.4108 10.683C29.4108 10.8043 29.3851 10.9187 29.3338 11.026C29.2871 11.1287 29.2218 11.222 29.1378 11.306C29.0585 11.3853 28.9628 11.4483 28.8508 11.495C28.7435 11.5417 28.6291 11.565 28.5078 11.565C28.3865 11.565 28.2721 11.5417 28.1648 11.495C28.0621 11.4483 27.9711 11.3853 27.8918 11.306C27.8125 11.222 27.7495 11.1287 27.7028 11.026C27.6561 10.9187 27.6328 10.8043 27.6328 10.683C27.6328 10.5617 27.6561 10.4473 27.7028 10.34C27.7495 10.228 27.8125 10.1323 27.8918 10.053C27.9711 9.969 28.0621 9.90367 28.1648 9.857C28.2721 9.81033 28.3865 9.787 28.5078 9.787C28.6291 9.787 28.7435 9.81033 28.8508 9.857C28.9628 9.90367 29.0585 9.969 29.1378 10.053C29.2218 10.1323 29.2871 10.228 29.3338 10.34C29.3851 10.4473 29.4108 10.5617 29.4108 10.683ZM32.4801 9.689V20H31.2341V9.689H32.4801ZM39.2467 15.681C39.2467 15.3917 39.2047 15.128 39.1207 14.89C39.0414 14.6473 38.9224 14.4397 38.7637 14.267C38.6097 14.0897 38.4207 13.9543 38.1967 13.861C37.9727 13.763 37.7184 13.714 37.4337 13.714C36.8364 13.714 36.3627 13.889 36.0127 14.239C35.6674 14.5843 35.4527 15.065 35.3687 15.681H39.2467ZM40.2547 19.006C40.1007 19.1927 39.9164 19.356 39.7017 19.496C39.487 19.6313 39.256 19.7433 39.0087 19.832C38.766 19.9207 38.514 19.986 38.2527 20.028C37.9914 20.0747 37.7324 20.098 37.4757 20.098C36.9857 20.098 36.533 20.0163 36.1177 19.853C35.707 19.685 35.35 19.4423 35.0467 19.125C34.748 18.803 34.5147 18.4063 34.3467 17.935C34.1787 17.4637 34.0947 16.9223 34.0947 16.311C34.0947 15.8163 34.1694 15.3543 34.3187 14.925C34.4727 14.4957 34.692 14.1247 34.9767 13.812C35.2614 13.4947 35.609 13.2473 36.0197 13.07C36.4304 12.888 36.8924 12.797 37.4057 12.797C37.8304 12.797 38.2224 12.8693 38.5817 13.014C38.9457 13.154 39.2584 13.3593 39.5197 13.63C39.7857 13.896 39.9934 14.2273 40.1427 14.624C40.292 15.016 40.3667 15.464 40.3667 15.968C40.3667 16.164 40.3457 16.2947 40.3037 16.36C40.2617 16.4253 40.1824 16.458 40.0657 16.458H35.3267C35.3407 16.906 35.4014 17.2957 35.5087 17.627C35.6207 17.9583 35.7747 18.236 35.9707 18.46C36.1667 18.6793 36.4 18.845 36.6707 18.957C36.9414 19.0643 37.2447 19.118 37.5807 19.118C37.8934 19.118 38.1617 19.083 38.3857 19.013C38.6144 18.9383 38.8104 18.859 38.9737 18.775C39.137 18.691 39.2724 18.614 39.3797 18.544C39.4917 18.4693 39.5874 18.432 39.6667 18.432C39.7694 18.432 39.8487 18.4717 39.9047 18.551L40.2547 19.006ZM46.5172 14.596C46.2838 14.2833 46.0318 14.0663 45.7612 13.945C45.4905 13.819 45.1872 13.756 44.8512 13.756C44.1932 13.756 43.6868 13.9917 43.3322 14.463C42.9775 14.9343 42.8002 15.6063 42.8002 16.479C42.8002 16.941 42.8398 17.3377 42.9192 17.669C42.9985 17.9957 43.1152 18.2663 43.2692 18.481C43.4232 18.691 43.6122 18.845 43.8362 18.943C44.0602 19.041 44.3145 19.09 44.5992 19.09C45.0098 19.09 45.3668 18.9967 45.6702 18.81C45.9782 18.6233 46.2605 18.3597 46.5172 18.019V14.596ZM47.7632 9.689V20H47.0212C46.8438 20 46.7318 19.9137 46.6852 19.741L46.5732 18.88C46.2698 19.244 45.9245 19.538 45.5372 19.762C45.1498 19.986 44.7018 20.098 44.1932 20.098C43.7872 20.098 43.4185 20.021 43.0872 19.867C42.7558 19.7083 42.4735 19.4773 42.2402 19.174C42.0068 18.8707 41.8272 18.4927 41.7012 18.04C41.5752 17.5873 41.5122 17.067 41.5122 16.479C41.5122 15.9563 41.5822 15.471 41.7222 15.023C41.8622 14.5703 42.0628 14.1783 42.3242 13.847C42.5855 13.5157 42.9052 13.2567 43.2832 13.07C43.6658 12.8787 44.0952 12.783 44.5712 12.783C45.0052 12.783 45.3762 12.8577 45.6842 13.007C45.9968 13.1517 46.2745 13.3547 46.5172 13.616V9.689H47.7632Z" transform="translate(424.193 179.617)" fill="white"/>
<rect width="86.1967" height="29.4113" rx="3" transform="translate(411.459 267)" fill="#53B756"/>
<path d="M13.3134 11.537C13.2714 11.607 13.2247 11.6607 13.1734 11.698C13.1267 11.7307 13.0684 11.747 12.9984 11.747C12.919 11.747 12.8257 11.7073 12.7184 11.628C12.611 11.5487 12.4757 11.4623 12.3124 11.369C12.1537 11.271 11.96 11.1823 11.7314 11.103C11.5074 11.0237 11.2344 10.984 10.9124 10.984C10.609 10.984 10.3407 11.026 10.1074 11.11C9.87872 11.1893 9.68505 11.299 9.52638 11.439C9.37238 11.579 9.25572 11.7447 9.17638 11.936C9.09705 12.1227 9.05738 12.3257 9.05738 12.545C9.05738 12.825 9.12505 13.0583 9.26038 13.245C9.40038 13.427 9.58238 13.5833 9.80638 13.714C10.035 13.8447 10.2917 13.959 10.5764 14.057C10.8657 14.1503 11.1597 14.2483 11.4584 14.351C11.7617 14.4537 12.0557 14.5703 12.3404 14.701C12.6297 14.827 12.8864 14.988 13.1104 15.184C13.339 15.38 13.521 15.6203 13.6564 15.905C13.7964 16.1897 13.8664 16.5397 13.8664 16.955C13.8664 17.3937 13.7917 17.8067 13.6424 18.194C13.493 18.5767 13.2737 18.9103 12.9844 19.195C12.6997 19.4797 12.3474 19.7037 11.9274 19.867C11.512 20.0303 11.0384 20.112 10.5064 20.112C9.85305 20.112 9.26038 19.9953 8.72838 19.762C8.19638 19.524 7.74138 19.2043 7.36338 18.803L7.75538 18.159C7.79272 18.1077 7.83705 18.0657 7.88838 18.033C7.94438 17.9957 8.00505 17.977 8.07038 17.977C8.13105 17.977 8.19872 18.0027 8.27338 18.054C8.35272 18.1007 8.44138 18.1613 8.53938 18.236C8.63738 18.3107 8.74938 18.3923 8.87538 18.481C9.00138 18.5697 9.14372 18.6513 9.30238 18.726C9.46572 18.8007 9.65005 18.8637 9.85538 18.915C10.0607 18.9617 10.2917 18.985 10.5484 18.985C10.8704 18.985 11.1574 18.9407 11.4094 18.852C11.6614 18.7633 11.8737 18.6397 12.0464 18.481C12.2237 18.3177 12.359 18.124 12.4524 17.9C12.5457 17.676 12.5924 17.4263 12.5924 17.151C12.5924 16.8477 12.5224 16.6003 12.3824 16.409C12.247 16.213 12.0674 16.0497 11.8434 15.919C11.6194 15.7883 11.3627 15.6787 11.0734 15.59C10.784 15.4967 10.49 15.4033 10.1914 15.31C9.89272 15.212 9.59872 15.1 9.30938 14.974C9.02005 14.848 8.76338 14.6847 8.53938 14.484C8.31538 14.2833 8.13338 14.0337 7.99338 13.735C7.85805 13.4317 7.79038 13.0583 7.79038 12.615C7.79038 12.2603 7.85805 11.9173 7.99338 11.586C8.13338 11.2547 8.33405 10.9607 8.59538 10.704C8.86138 10.4473 9.18572 10.242 9.56838 10.088C9.95572 9.934 10.399 9.857 10.8984 9.857C11.4584 9.857 11.967 9.94567 12.4244 10.123C12.8864 10.3003 13.2924 10.557 13.6424 10.893L13.3134 11.537ZM21.1842 12.909V20H20.4422C20.2649 20 20.1529 19.9137 20.1062 19.741L20.0082 18.978C19.7002 19.3187 19.3549 19.594 18.9722 19.804C18.5896 20.0093 18.1509 20.112 17.6562 20.112C17.2689 20.112 16.9259 20.049 16.6272 19.923C16.3332 19.7923 16.0859 19.6103 15.8852 19.377C15.6846 19.1437 15.5329 18.8613 15.4302 18.53C15.3322 18.1987 15.2832 17.8323 15.2832 17.431V12.909H16.5292V17.431C16.5292 17.9677 16.6506 18.383 16.8932 18.677C17.1406 18.971 17.5162 19.118 18.0202 19.118C18.3889 19.118 18.7319 19.0317 19.0492 18.859C19.3712 18.6817 19.6676 18.439 19.9382 18.131V12.909H21.1842ZM28.0949 14.169C28.0575 14.2203 28.0202 14.26 27.9829 14.288C27.9455 14.316 27.8942 14.33 27.8289 14.33C27.7589 14.33 27.6819 14.302 27.5979 14.246C27.5139 14.1853 27.4089 14.12 27.2829 14.05C27.1615 13.98 27.0099 13.917 26.8279 13.861C26.6505 13.8003 26.4312 13.77 26.1699 13.77C25.8199 13.77 25.5119 13.833 25.2459 13.959C24.9799 14.0803 24.7559 14.2577 24.5739 14.491C24.3965 14.7243 24.2612 15.0067 24.1679 15.338C24.0792 15.6693 24.0349 16.0403 24.0349 16.451C24.0349 16.8803 24.0839 17.263 24.1819 17.599C24.2799 17.9303 24.4175 18.2103 24.5949 18.439C24.7769 18.663 24.9939 18.8357 25.2459 18.957C25.5025 19.0737 25.7895 19.132 26.1069 19.132C26.4102 19.132 26.6599 19.097 26.8559 19.027C27.0519 18.9523 27.2129 18.8707 27.3389 18.782C27.4695 18.6933 27.5769 18.614 27.6609 18.544C27.7495 18.4693 27.8359 18.432 27.9199 18.432C28.0225 18.432 28.1019 18.4717 28.1579 18.551L28.5079 19.006C28.3539 19.1973 28.1789 19.3607 27.9829 19.496C27.7869 19.6313 27.5745 19.7457 27.3459 19.839C27.1219 19.9277 26.8862 19.993 26.6389 20.035C26.3915 20.077 26.1395 20.098 25.8829 20.098C25.4395 20.098 25.0265 20.0163 24.6439 19.853C24.2659 19.6897 23.9369 19.454 23.6569 19.146C23.3769 18.8333 23.1575 18.4507 22.9989 17.998C22.8402 17.5453 22.7609 17.0297 22.7609 16.451C22.7609 15.9237 22.8332 15.436 22.9779 14.988C23.1272 14.54 23.3419 14.155 23.6219 13.833C23.9065 13.5063 24.2542 13.252 24.6649 13.07C25.0802 12.888 25.5562 12.797 26.0929 12.797C26.5922 12.797 27.0309 12.8787 27.4089 13.042C27.7915 13.2007 28.1299 13.427 28.4239 13.721L28.0949 14.169ZM34.6574 14.169C34.62 14.2203 34.5827 14.26 34.5454 14.288C34.508 14.316 34.4567 14.33 34.3914 14.33C34.3214 14.33 34.2444 14.302 34.1604 14.246C34.0764 14.1853 33.9714 14.12 33.8454 14.05C33.724 13.98 33.5724 13.917 33.3904 13.861C33.213 13.8003 32.9937 13.77 32.7324 13.77C32.3824 13.77 32.0744 13.833 31.8084 13.959C31.5424 14.0803 31.3184 14.2577 31.1364 14.491C30.959 14.7243 30.8237 15.0067 30.7304 15.338C30.6417 15.6693 30.5974 16.0403 30.5974 16.451C30.5974 16.8803 30.6464 17.263 30.7444 17.599C30.8424 17.9303 30.98 18.2103 31.1574 18.439C31.3394 18.663 31.5564 18.8357 31.8084 18.957C32.065 19.0737 32.352 19.132 32.6694 19.132C32.9727 19.132 33.2224 19.097 33.4184 19.027C33.6144 18.9523 33.7754 18.8707 33.9014 18.782C34.032 18.6933 34.1394 18.614 34.2234 18.544C34.312 18.4693 34.3984 18.432 34.4824 18.432C34.585 18.432 34.6644 18.4717 34.7204 18.551L35.0704 19.006C34.9164 19.1973 34.7414 19.3607 34.5454 19.496C34.3494 19.6313 34.137 19.7457 33.9084 19.839C33.6844 19.9277 33.4487 19.993 33.2014 20.035C32.954 20.077 32.702 20.098 32.4454 20.098C32.002 20.098 31.589 20.0163 31.2064 19.853C30.8284 19.6897 30.4994 19.454 30.2194 19.146C29.9394 18.8333 29.72 18.4507 29.5614 17.998C29.4027 17.5453 29.3234 17.0297 29.3234 16.451C29.3234 15.9237 29.3957 15.436 29.5404 14.988C29.6897 14.54 29.9044 14.155 30.1844 13.833C30.469 13.5063 30.8167 13.252 31.2274 13.07C31.6427 12.888 32.1187 12.797 32.6554 12.797C33.1547 12.797 33.5934 12.8787 33.9714 13.042C34.354 13.2007 34.6924 13.427 34.9864 13.721L34.6574 14.169ZM41.0309 15.681C41.0309 15.3917 40.9889 15.128 40.9049 14.89C40.8255 14.6473 40.7065 14.4397 40.5479 14.267C40.3939 14.0897 40.2049 13.9543 39.9809 13.861C39.7569 13.763 39.5025 13.714 39.2179 13.714C38.6205 13.714 38.1469 13.889 37.7969 14.239C37.4515 14.5843 37.2369 15.065 37.1529 15.681H41.0309ZM42.0389 19.006C41.8849 19.1927 41.7005 19.356 41.4859 19.496C41.2712 19.6313 41.0402 19.7433 40.7929 19.832C40.5502 19.9207 40.2982 19.986 40.0369 20.028C39.7755 20.0747 39.5165 20.098 39.2599 20.098C38.7699 20.098 38.3172 20.0163 37.9019 19.853C37.4912 19.685 37.1342 19.4423 36.8309 19.125C36.5322 18.803 36.2989 18.4063 36.1309 17.935C35.9629 17.4637 35.8789 16.9223 35.8789 16.311C35.8789 15.8163 35.9535 15.3543 36.1029 14.925C36.2569 14.4957 36.4762 14.1247 36.7609 13.812C37.0455 13.4947 37.3932 13.2473 37.8039 13.07C38.2145 12.888 38.6765 12.797 39.1899 12.797C39.6145 12.797 40.0065 12.8693 40.3659 13.014C40.7299 13.154 41.0425 13.3593 41.3039 13.63C41.5699 13.896 41.7775 14.2273 41.9269 14.624C42.0762 15.016 42.1509 15.464 42.1509 15.968C42.1509 16.164 42.1299 16.2947 42.0879 16.36C42.0459 16.4253 41.9665 16.458 41.8499 16.458H37.1109C37.1249 16.906 37.1855 17.2957 37.2929 17.627C37.4049 17.9583 37.5589 18.236 37.7549 18.46C37.9509 18.6793 38.1842 18.845 38.4549 18.957C38.7255 19.0643 39.0289 19.118 39.3649 19.118C39.6775 19.118 39.9459 19.083 40.1699 19.013C40.3985 18.9383 40.5945 18.859 40.7579 18.775C40.9212 18.691 41.0565 18.614 41.1639 18.544C41.2759 18.4693 41.3715 18.432 41.4509 18.432C41.5535 18.432 41.6329 18.4717 41.6889 18.551L42.0389 19.006ZM47.8114 14.078C47.7554 14.1807 47.669 14.232 47.5524 14.232C47.4824 14.232 47.403 14.2063 47.3144 14.155C47.2257 14.1037 47.116 14.0477 46.9854 13.987C46.8594 13.9217 46.7077 13.8633 46.5304 13.812C46.353 13.756 46.143 13.728 45.9004 13.728C45.6904 13.728 45.5014 13.756 45.3334 13.812C45.1654 13.8633 45.0207 13.9357 44.8994 14.029C44.7827 14.1223 44.6917 14.232 44.6264 14.358C44.5657 14.4793 44.5354 14.6123 44.5354 14.757C44.5354 14.939 44.5867 15.0907 44.6894 15.212C44.7967 15.3333 44.9367 15.4383 45.1094 15.527C45.282 15.6157 45.478 15.695 45.6974 15.765C45.9167 15.8303 46.1407 15.9027 46.3694 15.982C46.6027 16.0567 46.829 16.1407 47.0484 16.234C47.2677 16.3273 47.4637 16.444 47.6364 16.584C47.809 16.724 47.9467 16.8967 48.0494 17.102C48.1567 17.3027 48.2104 17.5453 48.2104 17.83C48.2104 18.1567 48.152 18.46 48.0354 18.74C47.9187 19.0153 47.746 19.2557 47.5174 19.461C47.2887 19.6617 47.0087 19.8203 46.6774 19.937C46.346 20.0537 45.9634 20.112 45.5294 20.112C45.0347 20.112 44.5867 20.0327 44.1854 19.874C43.784 19.7107 43.4434 19.503 43.1634 19.251L43.4574 18.775C43.4947 18.7143 43.539 18.6677 43.5904 18.635C43.6417 18.6023 43.707 18.586 43.7864 18.586C43.8704 18.586 43.959 18.6187 44.0524 18.684C44.1457 18.7493 44.2577 18.8217 44.3884 18.901C44.5237 18.9803 44.687 19.0527 44.8784 19.118C45.0697 19.1833 45.3077 19.216 45.5924 19.216C45.835 19.216 46.0474 19.1857 46.2294 19.125C46.4114 19.0597 46.563 18.9733 46.6844 18.866C46.8057 18.7587 46.8944 18.635 46.9504 18.495C47.011 18.355 47.0414 18.2057 47.0414 18.047C47.0414 17.851 46.9877 17.69 46.8804 17.564C46.7777 17.4333 46.64 17.3237 46.4674 17.235C46.2947 17.1417 46.0964 17.0623 45.8724 16.997C45.653 16.927 45.4267 16.8547 45.1934 16.78C44.9647 16.7053 44.7384 16.6213 44.5144 16.528C44.295 16.43 44.099 16.3087 43.9264 16.164C43.7537 16.0193 43.6137 15.842 43.5064 15.632C43.4037 15.4173 43.3524 15.1583 43.3524 14.855C43.3524 14.5843 43.4084 14.3253 43.5204 14.078C43.6324 13.826 43.7957 13.6067 44.0104 13.42C44.225 13.2287 44.4887 13.077 44.8014 12.965C45.114 12.853 45.471 12.797 45.8724 12.797C46.339 12.797 46.7567 12.8717 47.1254 13.021C47.4987 13.1657 47.8207 13.3663 48.0914 13.623L47.8114 14.078ZM53.868 14.078C53.812 14.1807 53.7257 14.232 53.609 14.232C53.539 14.232 53.4597 14.2063 53.371 14.155C53.2823 14.1037 53.1727 14.0477 53.042 13.987C52.916 13.9217 52.7643 13.8633 52.587 13.812C52.4097 13.756 52.1997 13.728 51.957 13.728C51.747 13.728 51.558 13.756 51.39 13.812C51.222 13.8633 51.0773 13.9357 50.956 14.029C50.8393 14.1223 50.7483 14.232 50.683 14.358C50.6223 14.4793 50.592 14.6123 50.592 14.757C50.592 14.939 50.6433 15.0907 50.746 15.212C50.8533 15.3333 50.9933 15.4383 51.166 15.527C51.3387 15.6157 51.5347 15.695 51.754 15.765C51.9733 15.8303 52.1973 15.9027 52.426 15.982C52.6593 16.0567 52.8857 16.1407 53.105 16.234C53.3243 16.3273 53.5203 16.444 53.693 16.584C53.8657 16.724 54.0033 16.8967 54.106 17.102C54.2133 17.3027 54.267 17.5453 54.267 17.83C54.267 18.1567 54.2087 18.46 54.092 18.74C53.9753 19.0153 53.8027 19.2557 53.574 19.461C53.3453 19.6617 53.0653 19.8203 52.734 19.937C52.4027 20.0537 52.02 20.112 51.586 20.112C51.0913 20.112 50.6433 20.0327 50.242 19.874C49.8407 19.7107 49.5 19.503 49.22 19.251L49.514 18.775C49.5513 18.7143 49.5957 18.6677 49.647 18.635C49.6983 18.6023 49.7637 18.586 49.843 18.586C49.927 18.586 50.0157 18.6187 50.109 18.684C50.2023 18.7493 50.3143 18.8217 50.445 18.901C50.5803 18.9803 50.7437 19.0527 50.935 19.118C51.1263 19.1833 51.3643 19.216 51.649 19.216C51.8917 19.216 52.104 19.1857 52.286 19.125C52.468 19.0597 52.6197 18.9733 52.741 18.866C52.8623 18.7587 52.951 18.635 53.007 18.495C53.0677 18.355 53.098 18.2057 53.098 18.047C53.098 17.851 53.0443 17.69 52.937 17.564C52.8343 17.4333 52.6967 17.3237 52.524 17.235C52.3513 17.1417 52.153 17.0623 51.929 16.997C51.7097 16.927 51.4833 16.8547 51.25 16.78C51.0213 16.7053 50.795 16.6213 50.571 16.528C50.3517 16.43 50.1557 16.3087 49.983 16.164C49.8103 16.0193 49.6703 15.842 49.563 15.632C49.4603 15.4173 49.409 15.1583 49.409 14.855C49.409 14.5843 49.465 14.3253 49.577 14.078C49.689 13.826 49.8523 13.6067 50.067 13.42C50.2817 13.2287 50.5453 13.077 50.858 12.965C51.1707 12.853 51.5277 12.797 51.929 12.797C52.3957 12.797 52.8133 12.8717 53.182 13.021C53.5553 13.1657 53.8773 13.3663 54.148 13.623L53.868 14.078Z" transform="translate(424.193 267)" fill="white"/>
<rect width="86.1967" height="29.4113" rx="3" transform="translate(411.459 357.441)" fill="#53B756"/>
<path d="M13.3134 11.537C13.2714 11.607 13.2247 11.6607 13.1734 11.698C13.1267 11.7307 13.0684 11.747 12.9984 11.747C12.919 11.747 12.8257 11.7073 12.7184 11.628C12.611 11.5487 12.4757 11.4623 12.3124 11.369C12.1537 11.271 11.96 11.1823 11.7314 11.103C11.5074 11.0237 11.2344 10.984 10.9124 10.984C10.609 10.984 10.3407 11.026 10.1074 11.11C9.87872 11.1893 9.68505 11.299 9.52638 11.439C9.37238 11.579 9.25572 11.7447 9.17638 11.936C9.09705 12.1227 9.05738 12.3257 9.05738 12.545C9.05738 12.825 9.12505 13.0583 9.26038 13.245C9.40038 13.427 9.58238 13.5833 9.80638 13.714C10.035 13.8447 10.2917 13.959 10.5764 14.057C10.8657 14.1503 11.1597 14.2483 11.4584 14.351C11.7617 14.4537 12.0557 14.5703 12.3404 14.701C12.6297 14.827 12.8864 14.988 13.1104 15.184C13.339 15.38 13.521 15.6203 13.6564 15.905C13.7964 16.1897 13.8664 16.5397 13.8664 16.955C13.8664 17.3937 13.7917 17.8067 13.6424 18.194C13.493 18.5767 13.2737 18.9103 12.9844 19.195C12.6997 19.4797 12.3474 19.7037 11.9274 19.867C11.512 20.0303 11.0384 20.112 10.5064 20.112C9.85305 20.112 9.26038 19.9953 8.72838 19.762C8.19638 19.524 7.74138 19.2043 7.36338 18.803L7.75538 18.159C7.79272 18.1077 7.83705 18.0657 7.88838 18.033C7.94438 17.9957 8.00505 17.977 8.07038 17.977C8.13105 17.977 8.19872 18.0027 8.27338 18.054C8.35272 18.1007 8.44138 18.1613 8.53938 18.236C8.63738 18.3107 8.74938 18.3923 8.87538 18.481C9.00138 18.5697 9.14372 18.6513 9.30238 18.726C9.46572 18.8007 9.65005 18.8637 9.85538 18.915C10.0607 18.9617 10.2917 18.985 10.5484 18.985C10.8704 18.985 11.1574 18.9407 11.4094 18.852C11.6614 18.7633 11.8737 18.6397 12.0464 18.481C12.2237 18.3177 12.359 18.124 12.4524 17.9C12.5457 17.676 12.5924 17.4263 12.5924 17.151C12.5924 16.8477 12.5224 16.6003 12.3824 16.409C12.247 16.213 12.0674 16.0497 11.8434 15.919C11.6194 15.7883 11.3627 15.6787 11.0734 15.59C10.784 15.4967 10.49 15.4033 10.1914 15.31C9.89272 15.212 9.59872 15.1 9.30938 14.974C9.02005 14.848 8.76338 14.6847 8.53938 14.484C8.31538 14.2833 8.13338 14.0337 7.99338 13.735C7.85805 13.4317 7.79038 13.0583 7.79038 12.615C7.79038 12.2603 7.85805 11.9173 7.99338 11.586C8.13338 11.2547 8.33405 10.9607 8.59538 10.704C8.86138 10.4473 9.18572 10.242 9.56838 10.088C9.95572 9.934 10.399 9.857 10.8984 9.857C11.4584 9.857 11.967 9.94567 12.4244 10.123C12.8864 10.3003 13.2924 10.557 13.6424 10.893L13.3134 11.537ZM21.1842 12.909V20H20.4422C20.2649 20 20.1529 19.9137 20.1062 19.741L20.0082 18.978C19.7002 19.3187 19.3549 19.594 18.9722 19.804C18.5896 20.0093 18.1509 20.112 17.6562 20.112C17.2689 20.112 16.9259 20.049 16.6272 19.923C16.3332 19.7923 16.0859 19.6103 15.8852 19.377C15.6846 19.1437 15.5329 18.8613 15.4302 18.53C15.3322 18.1987 15.2832 17.8323 15.2832 17.431V12.909H16.5292V17.431C16.5292 17.9677 16.6506 18.383 16.8932 18.677C17.1406 18.971 17.5162 19.118 18.0202 19.118C18.3889 19.118 18.7319 19.0317 19.0492 18.859C19.3712 18.6817 19.6676 18.439 19.9382 18.131V12.909H21.1842ZM28.0949 14.169C28.0575 14.2203 28.0202 14.26 27.9829 14.288C27.9455 14.316 27.8942 14.33 27.8289 14.33C27.7589 14.33 27.6819 14.302 27.5979 14.246C27.5139 14.1853 27.4089 14.12 27.2829 14.05C27.1615 13.98 27.0099 13.917 26.8279 13.861C26.6505 13.8003 26.4312 13.77 26.1699 13.77C25.8199 13.77 25.5119 13.833 25.2459 13.959C24.9799 14.0803 24.7559 14.2577 24.5739 14.491C24.3965 14.7243 24.2612 15.0067 24.1679 15.338C24.0792 15.6693 24.0349 16.0403 24.0349 16.451C24.0349 16.8803 24.0839 17.263 24.1819 17.599C24.2799 17.9303 24.4175 18.2103 24.5949 18.439C24.7769 18.663 24.9939 18.8357 25.2459 18.957C25.5025 19.0737 25.7895 19.132 26.1069 19.132C26.4102 19.132 26.6599 19.097 26.8559 19.027C27.0519 18.9523 27.2129 18.8707 27.3389 18.782C27.4695 18.6933 27.5769 18.614 27.6609 18.544C27.7495 18.4693 27.8359 18.432 27.9199 18.432C28.0225 18.432 28.1019 18.4717 28.1579 18.551L28.5079 19.006C28.3539 19.1973 28.1789 19.3607 27.9829 19.496C27.7869 19.6313 27.5745 19.7457 27.3459 19.839C27.1219 19.9277 26.8862 19.993 26.6389 20.035C26.3915 20.077 26.1395 20.098 25.8829 20.098C25.4395 20.098 25.0265 20.0163 24.6439 19.853C24.2659 19.6897 23.9369 19.454 23.6569 19.146C23.3769 18.8333 23.1575 18.4507 22.9989 17.998C22.8402 17.5453 22.7609 17.0297 22.7609 16.451C22.7609 15.9237 22.8332 15.436 22.9779 14.988C23.1272 14.54 23.3419 14.155 23.6219 13.833C23.9065 13.5063 24.2542 13.252 24.6649 13.07C25.0802 12.888 25.5562 12.797 26.0929 12.797C26.5922 12.797 27.0309 12.8787 27.4089 13.042C27.7915 13.2007 28.1299 13.427 28.4239 13.721L28.0949 14.169ZM34.6574 14.169C34.62 14.2203 34.5827 14.26 34.5454 14.288C34.508 14.316 34.4567 14.33 34.3914 14.33C34.3214 14.33 34.2444 14.302 34.1604 14.246C34.0764 14.1853 33.9714 14.12 33.8454 14.05C33.724 13.98 33.5724 13.917 33.3904 13.861C33.213 13.8003 32.9937 13.77 32.7324 13.77C32.3824 13.77 32.0744 13.833 31.8084 13.959C31.5424 14.0803 31.3184 14.2577 31.1364 14.491C30.959 14.7243 30.8237 15.0067 30.7304 15.338C30.6417 15.6693 30.5974 16.0403 30.5974 16.451C30.5974 16.8803 30.6464 17.263 30.7444 17.599C30.8424 17.9303 30.98 18.2103 31.1574 18.439C31.3394 18.663 31.5564 18.8357 31.8084 18.957C32.065 19.0737 32.352 19.132 32.6694 19.132C32.9727 19.132 33.2224 19.097 33.4184 19.027C33.6144 18.9523 33.7754 18.8707 33.9014 18.782C34.032 18.6933 34.1394 18.614 34.2234 18.544C34.312 18.4693 34.3984 18.432 34.4824 18.432C34.585 18.432 34.6644 18.4717 34.7204 18.551L35.0704 19.006C34.9164 19.1973 34.7414 19.3607 34.5454 19.496C34.3494 19.6313 34.137 19.7457 33.9084 19.839C33.6844 19.9277 33.4487 19.993 33.2014 20.035C32.954 20.077 32.702 20.098 32.4454 20.098C32.002 20.098 31.589 20.0163 31.2064 19.853C30.8284 19.6897 30.4994 19.454 30.2194 19.146C29.9394 18.8333 29.72 18.4507 29.5614 17.998C29.4027 17.5453 29.3234 17.0297 29.3234 16.451C29.3234 15.9237 29.3957 15.436 29.5404 14.988C29.6897 14.54 29.9044 14.155 30.1844 13.833C30.469 13.5063 30.8167 13.252 31.2274 13.07C31.6427 12.888 32.1187 12.797 32.6554 12.797C33.1547 12.797 33.5934 12.8787 33.9714 13.042C34.354 13.2007 34.6924 13.427 34.9864 13.721L34.6574 14.169ZM41.0309 15.681C41.0309 15.3917 40.9889 15.128 40.9049 14.89C40.8255 14.6473 40.7065 14.4397 40.5479 14.267C40.3939 14.0897 40.2049 13.9543 39.9809 13.861C39.7569 13.763 39.5025 13.714 39.2179 13.714C38.6205 13.714 38.1469 13.889 37.7969 14.239C37.4515 14.5843 37.2369 15.065 37.1529 15.681H41.0309ZM42.0389 19.006C41.8849 19.1927 41.7005 19.356 41.4859 19.496C41.2712 19.6313 41.0402 19.7433 40.7929 19.832C40.5502 19.9207 40.2982 19.986 40.0369 20.028C39.7755 20.0747 39.5165 20.098 39.2599 20.098C38.7699 20.098 38.3172 20.0163 37.9019 19.853C37.4912 19.685 37.1342 19.4423 36.8309 19.125C36.5322 18.803 36.2989 18.4063 36.1309 17.935C35.9629 17.4637 35.8789 16.9223 35.8789 16.311C35.8789 15.8163 35.9535 15.3543 36.1029 14.925C36.2569 14.4957 36.4762 14.1247 36.7609 13.812C37.0455 13.4947 37.3932 13.2473 37.8039 13.07C38.2145 12.888 38.6765 12.797 39.1899 12.797C39.6145 12.797 40.0065 12.8693 40.3659 13.014C40.7299 13.154 41.0425 13.3593 41.3039 13.63C41.5699 13.896 41.7775 14.2273 41.9269 14.624C42.0762 15.016 42.1509 15.464 42.1509 15.968C42.1509 16.164 42.1299 16.2947 42.0879 16.36C42.0459 16.4253 41.9665 16.458 41.8499 16.458H37.1109C37.1249 16.906 37.1855 17.2957 37.2929 17.627C37.4049 17.9583 37.5589 18.236 37.7549 18.46C37.9509 18.6793 38.1842 18.845 38.4549 18.957C38.7255 19.0643 39.0289 19.118 39.3649 19.118C39.6775 19.118 39.9459 19.083 40.1699 19.013C40.3985 18.9383 40.5945 18.859 40.7579 18.775C40.9212 18.691 41.0565 18.614 41.1639 18.544C41.2759 18.4693 41.3715 18.432 41.4509 18.432C41.5535 18.432 41.6329 18.4717 41.6889 18.551L42.0389 19.006ZM47.8114 14.078C47.7554 14.1807 47.669 14.232 47.5524 14.232C47.4824 14.232 47.403 14.2063 47.3144 14.155C47.2257 14.1037 47.116 14.0477 46.9854 13.987C46.8594 13.9217 46.7077 13.8633 46.5304 13.812C46.353 13.756 46.143 13.728 45.9004 13.728C45.6904 13.728 45.5014 13.756 45.3334 13.812C45.1654 13.8633 45.0207 13.9357 44.8994 14.029C44.7827 14.1223 44.6917 14.232 44.6264 14.358C44.5657 14.4793 44.5354 14.6123 44.5354 14.757C44.5354 14.939 44.5867 15.0907 44.6894 15.212C44.7967 15.3333 44.9367 15.4383 45.1094 15.527C45.282 15.6157 45.478 15.695 45.6974 15.765C45.9167 15.8303 46.1407 15.9027 46.3694 15.982C46.6027 16.0567 46.829 16.1407 47.0484 16.234C47.2677 16.3273 47.4637 16.444 47.6364 16.584C47.809 16.724 47.9467 16.8967 48.0494 17.102C48.1567 17.3027 48.2104 17.5453 48.2104 17.83C48.2104 18.1567 48.152 18.46 48.0354 18.74C47.9187 19.0153 47.746 19.2557 47.5174 19.461C47.2887 19.6617 47.0087 19.8203 46.6774 19.937C46.346 20.0537 45.9634 20.112 45.5294 20.112C45.0347 20.112 44.5867 20.0327 44.1854 19.874C43.784 19.7107 43.4434 19.503 43.1634 19.251L43.4574 18.775C43.4947 18.7143 43.539 18.6677 43.5904 18.635C43.6417 18.6023 43.707 18.586 43.7864 18.586C43.8704 18.586 43.959 18.6187 44.0524 18.684C44.1457 18.7493 44.2577 18.8217 44.3884 18.901C44.5237 18.9803 44.687 19.0527 44.8784 19.118C45.0697 19.1833 45.3077 19.216 45.5924 19.216C45.835 19.216 46.0474 19.1857 46.2294 19.125C46.4114 19.0597 46.563 18.9733 46.6844 18.866C46.8057 18.7587 46.8944 18.635 46.9504 18.495C47.011 18.355 47.0414 18.2057 47.0414 18.047C47.0414 17.851 46.9877 17.69 46.8804 17.564C46.7777 17.4333 46.64 17.3237 46.4674 17.235C46.2947 17.1417 46.0964 17.0623 45.8724 16.997C45.653 16.927 45.4267 16.8547 45.1934 16.78C44.9647 16.7053 44.7384 16.6213 44.5144 16.528C44.295 16.43 44.099 16.3087 43.9264 16.164C43.7537 16.0193 43.6137 15.842 43.5064 15.632C43.4037 15.4173 43.3524 15.1583 43.3524 14.855C43.3524 14.5843 43.4084 14.3253 43.5204 14.078C43.6324 13.826 43.7957 13.6067 44.0104 13.42C44.225 13.2287 44.4887 13.077 44.8014 12.965C45.114 12.853 45.471 12.797 45.8724 12.797C46.339 12.797 46.7567 12.8717 47.1254 13.021C47.4987 13.1657 47.8207 13.3663 48.0914 13.623L47.8114 14.078ZM53.868 14.078C53.812 14.1807 53.7257 14.232 53.609 14.232C53.539 14.232 53.4597 14.2063 53.371 14.155C53.2823 14.1037 53.1727 14.0477 53.042 13.987C52.916 13.9217 52.7643 13.8633 52.587 13.812C52.4097 13.756 52.1997 13.728 51.957 13.728C51.747 13.728 51.558 13.756 51.39 13.812C51.222 13.8633 51.0773 13.9357 50.956 14.029C50.8393 14.1223 50.7483 14.232 50.683 14.358C50.6223 14.4793 50.592 14.6123 50.592 14.757C50.592 14.939 50.6433 15.0907 50.746 15.212C50.8533 15.3333 50.9933 15.4383 51.166 15.527C51.3387 15.6157 51.5347 15.695 51.754 15.765C51.9733 15.8303 52.1973 15.9027 52.426 15.982C52.6593 16.0567 52.8857 16.1407 53.105 16.234C53.3243 16.3273 53.5203 16.444 53.693 16.584C53.8657 16.724 54.0033 16.8967 54.106 17.102C54.2133 17.3027 54.267 17.5453 54.267 17.83C54.267 18.1567 54.2087 18.46 54.092 18.74C53.9753 19.0153 53.8027 19.2557 53.574 19.461C53.3453 19.6617 53.0653 19.8203 52.734 19.937C52.4027 20.0537 52.02 20.112 51.586 20.112C51.0913 20.112 50.6433 20.0327 50.242 19.874C49.8407 19.7107 49.5 19.503 49.22 19.251L49.514 18.775C49.5513 18.7143 49.5957 18.6677 49.647 18.635C49.6983 18.6023 49.7637 18.586 49.843 18.586C49.927 18.586 50.0157 18.6187 50.109 18.684C50.2023 18.7493 50.3143 18.8217 50.445 18.901C50.5803 18.9803 50.7437 19.0527 50.935 19.118C51.1263 19.1833 51.3643 19.216 51.649 19.216C51.8917 19.216 52.104 19.1857 52.286 19.125C52.468 19.0597 52.6197 18.9733 52.741 18.866C52.8623 18.7587 52.951 18.635 53.007 18.495C53.0677 18.355 53.098 18.2057 53.098 18.047C53.098 17.851 53.0443 17.69 52.937 17.564C52.8343 17.4333 52.6967 17.3237 52.524 17.235C52.3513 17.1417 52.153 17.0623 51.929 16.997C51.7097 16.927 51.4833 16.8547 51.25 16.78C51.0213 16.7053 50.795 16.6213 50.571 16.528C50.3517 16.43 50.1557 16.3087 49.983 16.164C49.8103 16.0193 49.6703 15.842 49.563 15.632C49.4603 15.4173 49.409 15.1583 49.409 14.855C49.409 14.5843 49.465 14.3253 49.577 14.078C49.689 13.826 49.8523 13.6067 50.067 13.42C50.2817 13.2287 50.5453 13.077 50.858 12.965C51.1707 12.853 51.5277 12.797 51.929 12.797C52.3957 12.797 52.8133 12.8717 53.182 13.021C53.5553 13.1657 53.8773 13.3663 54.148 13.623L53.868 14.078Z" transform="translate(424.193 357.441)" fill="white"/>
<path d="M0 8C0 3.58172 3.58172 0 8 0H470C474.418 0 478 3.58172 478 8V26.4701H0V8Z" transform="translate(51 26)" fill="#007699"/>
<ellipse cx="5.3873" cy="5.39206" rx="5.3873" ry="5.39206" transform="translate(66.54 34.9932)" fill="white"/>
<ellipse cx="5.3873" cy="5.39206" rx="5.3873" ry="5.39206" transform="translate(81.2329 34.9932)" fill="white"/>
<ellipse cx="5.3873" cy="5.39206" rx="5.3873" ry="5.39206" transform="translate(95.9258 34.9932)" fill="white"/>
<path d="M45.8618 9.43167C49.6276 14.0792 51.9139 19.9569 51.9139 26.3814C51.9139 41.0073 40.2131 52.7627 25.957 52.7627C11.5663 52.7627 -1.02609e-06 40.8706 -1.02609e-06 26.3814C-1.02609e-06 11.7554 11.7008 -2.08574e-06 25.957 -2.08574e-06C29.5883 -2.08574e-06 32.9506 0.683453 36.0439 2.05036" transform="translate(80.3857 345.678)" fill="white"/>
<path d="M45.8618 9.43168C49.6276 14.0792 51.9139 19.9569 51.9139 26.3814C51.9139 41.0073 40.2131 52.7627 25.957 52.7627C11.5663 52.7627 -1.02609e-06 40.8706 -1.02609e-06 26.3814C-1.02609e-06 11.7554 11.7008 -2.08574e-06 25.957 -2.08574e-06C29.5883 -2.08574e-06 32.9506 0.683453 36.0439 2.05036" transform="translate(80.3857 345.678)" stroke="#007699" stroke-width="1.25" stroke-miterlimit="10" stroke-linecap="round"/>
<path d="M1.02609e-06 -1.04287e-06C0.403477 0.410072 0.80695 0.820147 1.21043 1.23022L1.02609e-06 -1.04287e-06Z" transform="translate(123.961 352.784)" fill="white"/>
<path d="M1.02609e-06 -1.04287e-06C0.403477 0.410072 0.80695 0.820147 1.21043 1.23022" transform="translate(123.961 352.784)" stroke="#007699" stroke-width="1.25" stroke-miterlimit="10" stroke-linecap="round"/>
<path d="M-2.05219e-06 2.08574e-06C1.21043 0.683457 2.55535 1.5036 3.63128 2.32374L-2.05219e-06 2.08574e-06Z" transform="translate(118.447 348.82)" fill="white"/>
<path d="M-2.05219e-06 2.08574e-06C1.21043 0.683457 2.55535 1.5036 3.63128 2.32374" transform="translate(118.447 348.82)" stroke="#007699" stroke-width="1.25" stroke-miterlimit="10" stroke-linecap="round"/>
<path d="M20.3083 4.17148e-06H0V25.8346H20.3083V4.17148e-06Z" transform="translate(96.3901 361.669)" fill="white" stroke="#007699" stroke-width="1.25" stroke-linecap="round"/>
<path d="M20.3083 4.17148e-06H0V25.8346H20.3083V4.17148e-06Z" transform="translate(96.3901 361.669)" fill="#BDD8E4" stroke="#007699" stroke-width="1.25" stroke-miterlimit="10" stroke-linecap="round"/>
<path d="M2.42086 2.32374C2.42086 3.0072 1.88289 3.55396 1.21043 3.55396C0.537969 3.55396 -1.02609e-06 3.0072 -1.02609e-06 2.32374V1.23022C-1.02609e-06 0.546766 0.537969 0 1.21043 0C1.88289 0 2.42086 0.546766 2.42086 1.23022V2.32374Z" transform="translate(114.681 366.044)" fill="white" stroke="#007699" stroke-width="1.25" stroke-linecap="round"/>
<path d="M2.42086 2.32374C2.42086 3.0072 1.88289 3.55396 1.21043 3.55396C0.537969 3.55396 -1.02609e-06 3.0072 -1.02609e-06 2.32374V1.23022C-1.02609e-06 0.546766 0.537969 0 1.21043 0C1.88289 0 2.42086 0.546766 2.42086 1.23022V2.32374Z" transform="translate(114.681 366.044)" fill="white" stroke="#007699" stroke-width="1.25" stroke-miterlimit="10" stroke-linecap="round"/>
<path d="M2.42086 2.32374C2.42086 3.0072 1.88289 3.55396 1.21043 3.55396C0.53797 3.55396 0 3.0072 0 2.32374V1.23022C0 0.546766 0.53797 0 1.21043 0C1.88289 0 2.42086 0.546766 2.42086 1.23022V2.32374Z" transform="translate(95.4487 366.044)" fill="white" stroke="#007699" stroke-width="1.25" stroke-linecap="round"/>
<path d="M2.42086 2.32374C2.42086 3.0072 1.88289 3.55396 1.21043 3.55396C0.53797 3.55396 0 3.0072 0 2.32374V1.23022C0 0.546766 0.53797 0 1.21043 0C1.88289 0 2.42086 0.546766 2.42086 1.23022V2.32374Z" transform="translate(95.4487 366.044)" fill="white" stroke="#007699" stroke-width="1.25" stroke-miterlimit="10" stroke-linecap="round"/>
<path d="M21.5187 12.7123V10.9353C21.5187 4.92088 16.677 2.08574e-06 10.7594 2.08574e-06C4.84171 2.08574e-06 1.02609e-06 4.92088 1.02609e-06 10.9353V12.7123H21.5187Z" transform="translate(95.7173 379.575)" fill="#BDD8E4" stroke="#007699" stroke-width="1.25" stroke-linecap="round"/>
<path d="M2.05219e-06 2.59713C1.88289 0.956839 4.30374 0 6.99359 0C12.9112 0 17.753 4.92087 17.753 10.9353V12.7123" transform="translate(99.3486 379.712)" fill="#BDD8E4"/>
<path d="M2.05219e-06 2.59713C1.88289 0.956839 4.30374 0 6.99359 0C12.9112 0 17.753 4.92087 17.753 10.9353V12.7123" transform="translate(99.3486 379.712)" stroke="#007699" stroke-width="1.25" stroke-miterlimit="10" stroke-linecap="round"/>
<path d="M-2.05219e-06 1.77698C0.268982 1.23021 0.672462 0.546766 1.07594 2.08574e-06L-2.05219e-06 1.77698Z" transform="translate(96.9287 383.678)" fill="white"/>
<path d="M-2.05219e-06 1.77698C0.268982 1.23021 0.672462 0.546766 1.07594 2.08574e-06" transform="translate(96.9287 383.678)" stroke="#007699" stroke-width="1.25" stroke-miterlimit="10" stroke-linecap="round"/>
<path d="M1.02609e-06 4.23741V2.46044C1.02609e-06 1.64029 0.134494 0.820144 0.268986 -2.08574e-06" transform="translate(95.7173 388.051)" fill="white"/>
<path d="M1.02609e-06 4.23741V2.46044C1.02609e-06 1.64029 0.134494 0.820144 0.268986 -2.08574e-06" transform="translate(95.7173 388.051)" stroke="#007699" stroke-width="1.25" stroke-miterlimit="10" stroke-linecap="round"/>
<path d="M2.28637 9.70505C0.941444 9.70505 -1.02609e-06 8.61153 -1.02609e-06 7.38131V2.32374C-1.02609e-06 0.956832 1.07594 0 2.28637 0C3.63129 0 4.57273 1.09352 4.57273 2.32374V7.38131C4.70722 8.74822 3.63129 9.70505 2.28637 9.70505Z" transform="translate(103.922 374.246)" fill="white" stroke="#007699" stroke-width="1.25" stroke-linecap="round"/>
<path d="M2.28637 9.70505C0.941444 9.70505 -1.02609e-06 8.61153 -1.02609e-06 7.38131V2.32374C-1.02609e-06 0.956832 1.07594 0 2.28637 0C3.63129 0 4.57273 1.09352 4.57273 2.32374V7.38131C4.70722 8.74822 3.63129 9.70505 2.28637 9.70505Z" transform="translate(103.922 374.246)" fill="white" stroke="#007699" stroke-width="1.25" stroke-miterlimit="10" stroke-linecap="round"/>
<path d="M18.0219 -4.17148e-06V9.29498C18.0219 13.9425 13.9872 17.7698 9.01097 17.7698C4.03476 17.7698 2.05219e-06 13.9425 2.05219e-06 9.29498V-4.17148e-06H18.0219Z" transform="translate(97.332 360.85)" fill="white" stroke="#007699" stroke-width="1.25" stroke-linecap="round"/>
<path d="M18.0219 -4.17148e-06V9.29498C18.0219 13.9425 13.9872 17.7698 9.01097 17.7698C4.03476 17.7698 2.05219e-06 13.9425 2.05219e-06 9.29498V-4.17148e-06H18.0219Z" transform="translate(97.332 360.85)" fill="white" stroke="#007699" stroke-width="1.25" stroke-miterlimit="10" stroke-linecap="round"/>
<path d="M5.37968 2.73382C5.37968 4.23742 4.16925 5.46764 2.68984 5.46764C1.21043 5.46764 1.02609e-06 4.23742 1.02609e-06 2.73382C1.02609e-06 1.23022 1.21043 0 2.68984 0C4.16925 0 5.37968 1.09353 5.37968 2.73382Z" transform="translate(99.0801 363.31)" fill="white" stroke="#007699" stroke-width="1.25" stroke-miterlimit="10" stroke-linecap="round"/>
<path d="M0 0.546755C0.403476 0.136683 0.806955 0 1.47942 0C2.01738 0 2.55535 0.273374 2.95883 0.546755" transform="translate(100.29 365.77)" fill="white"/>
<path d="M0 0.546755C0.403476 0.136683 0.806955 0 1.47942 0C2.01738 0 2.55535 0.273374 2.95883 0.546755" transform="translate(100.29 365.77)" stroke="#007699" stroke-width="1.25" stroke-miterlimit="10" stroke-linecap="round"/>
<path d="M1.02609e-06 0.54676C0.403477 0.136687 0.806951 4.17148e-06 1.47941 4.17148e-06C2.01738 4.17148e-06 2.55535 0.273378 2.95883 0.54676" transform="translate(109.167 365.77)" fill="white"/>
<path d="M1.02609e-06 0.54676C0.403477 0.136687 0.806951 4.17148e-06 1.47941 4.17148e-06C2.01738 4.17148e-06 2.55535 0.273378 2.95883 0.54676" transform="translate(109.167 365.77)" stroke="#007699" stroke-width="1.25" stroke-miterlimit="10" stroke-linecap="round"/>
<path d="M5.37968 2.74419C5.37968 4.24779 4.16925 5.47801 2.68984 5.47801C1.21043 5.47801 -1.02609e-06 4.24779 -1.02609e-06 2.74419C-1.02609e-06 1.24059 1.21043 0.0103747 2.68984 0.0103747C4.16925 -0.126316 5.37968 1.1039 5.37968 2.74419Z" transform="translate(107.957 363.3)" fill="white" stroke="#007699" stroke-width="1.25" stroke-miterlimit="10" stroke-linecap="round"/>
<path d="M1.02609e-06 -1.52588e-06H3.3623" transform="translate(104.46 364.813)" stroke="#007699" stroke-width="1.25" stroke-miterlimit="10" stroke-linecap="round"/>
<path d="M0 0V5.46764H1.61391" transform="translate(105.535 366.044)" fill="white"/>
<path d="M0 0V5.46764H1.61391" transform="translate(105.535 366.044)" stroke="#007699" stroke-width="1.25" stroke-miterlimit="10" stroke-linecap="round"/>
<path d="M-1.02609e-06 2.08574e-06L1.07593 1.64029H8.33851L9.54894 0.27338" transform="translate(101.232 373.426)" fill="white"/>
<path d="M-1.02609e-06 2.08574e-06L1.07593 1.64029H8.33851L9.54894 0.27338" transform="translate(101.232 373.426)" stroke="#007699" stroke-width="1.25" stroke-miterlimit="10" stroke-linecap="round"/>
<path d="M1.02609e-06 -3.05176e-06H18.8289" transform="translate(97.0625 360.85)" stroke="#007699" stroke-width="1.25" stroke-miterlimit="10" stroke-linecap="round"/>
<path d="M0 0.546755C0.403476 0.136683 0.806955 0 1.47942 0C2.01738 0 2.55535 0.273374 2.95883 0.546755" transform="translate(109.226 365.77)" fill="white"/>
<path d="M0 0.546755C0.403476 0.136683 0.806955 0 1.47942 0C2.01738 0 2.55535 0.273374 2.95883 0.546755" transform="translate(109.226 365.77)" stroke="#007699" stroke-width="1.25" stroke-miterlimit="10" stroke-linecap="round"/>
<path d="M20.4428 11.3454V10.3885C20.4428 4.64749 15.8701 0 10.2214 0C4.57273 0 -2.05219e-06 4.64749 -2.05219e-06 10.3885V11.3454H20.4428Z" transform="translate(96.2559 350.324)" fill="white" stroke="#007699" stroke-width="1.25" stroke-linecap="round"/>
<path d="M20.4428 11.3454V10.3885C20.4428 4.64749 15.8701 0 10.2214 0C4.57273 0 -2.05219e-06 4.64749 -2.05219e-06 10.3885V11.3454H20.4428Z" transform="translate(96.2559 350.324)" fill="#BDD8E4" stroke="#007699" stroke-width="1.25" stroke-miterlimit="10" stroke-linecap="round"/>
<path d="M7.62939e-07 4.17148e-06V2.73382" transform="translate(100.425 358.936)" stroke="#007699" stroke-width="1.25" stroke-miterlimit="10" stroke-linecap="round"/>
<path d="M0 4.17148e-06V2.73382" transform="translate(102.846 358.936)" stroke="#007699" stroke-width="1.25" stroke-miterlimit="10" stroke-linecap="round"/>
<path d="M-7.62939e-07 4.17148e-06V2.73382" transform="translate(105.266 358.936)" stroke="#007699" stroke-width="1.25" stroke-miterlimit="10" stroke-linecap="round"/>
<path d="M7.62939e-07 4.17148e-06V2.73382" transform="translate(107.822 358.936)" stroke="#007699" stroke-width="1.25" stroke-miterlimit="10" stroke-linecap="round"/>
<path d="M0 4.17148e-06V2.73382" transform="translate(110.243 358.936)" stroke="#007699" stroke-width="1.25" stroke-miterlimit="10" stroke-linecap="round"/>
<path d="M-7.62939e-07 4.17148e-06V2.73382" transform="translate(112.664 358.936)" stroke="#007699" stroke-width="1.25" stroke-miterlimit="10" stroke-linecap="round"/>
<path d="M45.9123 9.45459C49.6633 14.0294 51.9139 19.9766 51.9139 26.3814C51.9139 40.8682 40.3608 52.7627 25.957 52.7627C11.7032 52.7627 -1.83155e-05 41.0207 -1.83155e-05 26.3814C-1.83155e-05 11.8945 11.5531 -2.32686e-06 25.957 -2.32686e-06C29.5579 -2.32686e-06 33.0088 0.762467 36.0097 2.13491" transform="translate(80.3857 169)" fill="white"/>
<path d="M45.9123 9.45459C49.6633 14.0294 51.9139 19.9766 51.9139 26.3814C51.9139 40.8682 40.3608 52.7627 25.957 52.7627C11.7032 52.7627 -1.83155e-05 41.0207 -1.83155e-05 26.3814C-1.83155e-05 11.8945 11.5531 -2.32686e-06 25.957 -2.32686e-06C29.5579 -2.32686e-06 33.0088 0.762467 36.0097 2.13491" transform="translate(80.3857 169)" stroke="#007699" stroke-width="1.25" stroke-miterlimit="10" stroke-linecap="round"/>
<path d="M-9.15773e-06 1.16343e-06C0.450112 0.457481 0.75022 0.762467 1.20034 1.21995L-9.15773e-06 1.16343e-06Z" transform="translate(124.047 176.015)" fill="white"/>
<path d="M-9.15773e-06 1.16343e-06C0.450112 0.457481 0.75022 0.762467 1.20034 1.21995" transform="translate(124.047 176.015)" stroke="#007699" stroke-width="1.25" stroke-miterlimit="10" stroke-linecap="round"/>
<path d="M1.83155e-05 -2.32686e-06C1.20034 0.609971 2.55069 1.52493 3.60098 2.2874L1.83155e-05 -2.32686e-06Z" transform="translate(118.496 172.051)" fill="white"/>
<path d="M1.83155e-05 -2.32686e-06C1.20034 0.609971 2.55069 1.52493 3.60098 2.2874" transform="translate(118.496 172.051)" stroke="#007699" stroke-width="1.25" stroke-miterlimit="10" stroke-linecap="round"/>
<path d="M2.40065 2.2874C2.40065 2.89738 1.95051 3.50734 1.2003 3.50734C0.600143 3.50734 0 3.04987 0 2.2874V1.21995C0 0.609975 0.450102 2.32686e-06 1.2003 2.32686e-06C1.80046 2.32686e-06 2.40065 0.457481 2.40065 1.21995V2.2874Z" transform="translate(113.694 189.283)" fill="white"/>
<path d="M2.40065 2.2874C2.40065 2.89738 1.95051 3.50734 1.2003 3.50734C0.600143 3.50734 0 3.04987 0 2.2874V1.21995C0 0.609975 0.450102 2.32686e-06 1.2003 2.32686e-06C1.80046 2.32686e-06 2.40065 0.457481 2.40065 1.21995V2.2874Z" transform="translate(113.694 189.283)" stroke="#007699" stroke-width="1.25" stroke-miterlimit="10" stroke-linecap="round"/>
<path d="M2.40066 2.2874C2.40066 2.89738 1.95051 3.50734 1.20031 3.50734C0.600152 3.50734 9.15773e-06 3.04987 9.15773e-06 2.2874V1.21995C9.15773e-06 0.609975 0.450112 2.32686e-06 1.20031 2.32686e-06C1.80047 2.32686e-06 2.40066 0.457481 2.40066 1.21995V2.2874Z" transform="translate(95.8394 189.283)" fill="white"/>
<path d="M2.40066 2.2874C2.40066 2.89738 1.95051 3.50734 1.20031 3.50734C0.600152 3.50734 9.15773e-06 3.04987 9.15773e-06 2.2874V1.21995C9.15773e-06 0.609975 0.450112 2.32686e-06 1.20031 2.32686e-06C1.80047 2.32686e-06 2.40066 0.457481 2.40066 1.21995V2.2874Z" transform="translate(95.8394 189.283)" stroke="#007699" stroke-width="1.25" stroke-miterlimit="10" stroke-linecap="round"/>
<path d="M9.30249 10.3695V2.32686e-06H7.95214C3.30089 1.37244 1.83155e-05 5.33727 1.83155e-05 9.75958V13.1144H9.30249V10.3695Z" transform="translate(94.4893 202.245)" fill="#BDD8E4"/>
<path d="M9.75263 13.1144V9.75958C9.75263 5.33727 6.45171 1.52494 1.80046 2.32686e-06H9.15773e-06V10.3695V13.1144H9.75263Z" transform="translate(108.594 202.245)" fill="#BDD8E4"/>
<path d="M0.300071 -4.65373e-06C0.150031 0.762462 1.83155e-05 1.67743 1.83155e-05 2.4399V5.79475" transform="translate(94.4893 209.564)" stroke="#007699" stroke-width="1.25" stroke-miterlimit="10" stroke-linecap="round"/>
<path d="M2.2506 0C1.35036 0.762467 0.600161 1.67743 0 2.74489" transform="translate(95.689 204.686)" stroke="#007699" stroke-width="1.25" stroke-miterlimit="10" stroke-linecap="round"/>
<path d="M18.605 13.7244V10.3696C18.605 4.7273 13.2036 0 6.75183 0C4.20115 0 1.95054 0.609969 1.83155e-05 1.82992" transform="translate(99.7407 201.636)" stroke="#007699" stroke-width="1.25" stroke-miterlimit="10" stroke-linecap="round"/>
<path d="M4.65125 6.55722L2.40064 8.08215L-9.15773e-06 6.55722V-4.65373e-06H4.65125V6.55722Z" transform="translate(103.792 196.604)" fill="white"/>
<path d="M4.65125 6.55722L2.2506 8.08215L-9.15773e-06 6.55722V-4.65373e-06H4.65125V6.55722Z" transform="translate(103.792 196.604)" stroke="#007699" stroke-width="1.25" stroke-miterlimit="10" stroke-linecap="round"/>
<path d="M12.1533 22.1115L9.45255 23.3315C8.85239 23.6365 8.25221 23.6365 7.65205 23.3315L4.65125 22.1115C2.85076 21.3491 1.35034 19.8241 0.600143 17.8417C0.300062 16.9268 -9.15773e-06 15.8593 -9.15773e-06 14.9443V8.38714C-9.15773e-06 3.81234 3.751 2.32686e-06 8.2522 2.32686e-06C12.7534 2.32686e-06 16.5044 3.81234 16.5044 8.38714V14.9443C16.5044 16.0118 16.3544 16.9268 15.9043 17.8417V17.9942C15.3041 19.8241 13.9537 21.3491 12.1533 22.1115Z" transform="translate(97.7905 177.847)" fill="white"/>
<path d="M12.1533 22.1115L9.45255 23.3315C8.85239 23.6365 8.25221 23.6365 7.65205 23.3315L4.65125 22.1115C2.85076 21.3491 1.35034 19.8241 0.600143 17.8417C0.300062 16.9268 -9.15773e-06 15.8593 -9.15773e-06 14.9443V8.38714C-9.15773e-06 3.81234 3.751 2.32686e-06 8.25221 2.32686e-06C12.7534 2.32686e-06 16.5044 3.81234 16.5044 8.38714V14.9443C16.5044 16.0118 16.3544 16.9268 15.9043 17.8417V17.9942C15.3041 19.8241 13.9537 21.3491 12.1533 22.1115Z" transform="translate(97.7905 177.847)" stroke="#007699" stroke-width="1.25" stroke-miterlimit="10" stroke-linecap="round"/>
<path d="M-9.15773e-06 5.33727V3.20236C-9.15773e-06 1.82992 0.900233 0.609972 2.25059 0.152492L2.70074 1.16343e-06" transform="translate(100.791 175.254)" stroke="#007699" stroke-width="1.25" stroke-miterlimit="10" stroke-linecap="round"/>
<path d="M1.83155e-05 6.09973V3.20236C1.83155e-05 1.82992 0.90026 0.609976 2.25062 0.152496L2.70072 -1.16343e-06" transform="translate(103.491 175.406)" stroke="#007699" stroke-width="1.25" stroke-miterlimit="10" stroke-linecap="round"/>
<path d="M-9.15773e-06 7.0147V3.20236C-9.15773e-06 1.82992 0.900233 0.609976 2.25059 0.152496L2.70074 -1.16343e-06" transform="translate(106.042 175.406)" stroke="#007699" stroke-width="1.25" stroke-miterlimit="10" stroke-linecap="round"/>
<path d="M9.15773e-06 6.09973V3.20236C9.15773e-06 1.82992 0.900251 0.609976 2.25061 0.152496L2.70072 -1.16343e-06" transform="translate(108.594 175.406)" stroke="#007699" stroke-width="1.25" stroke-miterlimit="10" stroke-linecap="round"/>
<path d="M-9.15773e-06 5.33727V3.20236C-9.15773e-06 1.82992 0.900233 0.609972 2.25059 0.152492L2.70074 1.16343e-06" transform="translate(111.294 175.254)" stroke="#007699" stroke-width="1.25" stroke-miterlimit="10" stroke-linecap="round"/>
<path d="M3.751 2.32686e-06V6.70971H-9.15773e-06" transform="translate(103.792 186.232)" stroke="#007699" stroke-width="1.25" stroke-miterlimit="10" stroke-linecap="round"/>
<path d="M0 1.37244H4.50121C5.85157 1.37244 7.20194 0.914965 8.40226 0.152498L8.55231 -4.65373e-06" transform="translate(102.441 195.841)" stroke="#007699" stroke-width="1.25" stroke-miterlimit="10" stroke-linecap="round"/>
<path d="M1.83155e-05 2.2874C1.83155e-05 1.67742 0.30009 1.06745 0.60017 0.609973C0.900251 0.152493 1.65046 -2.32686e-06 2.25062 -2.32686e-06C2.85078 -2.32686e-06 3.45091 0.304987 3.90103 0.609973" transform="translate(100.491 185.014)" stroke="#007699" stroke-width="1.25" stroke-miterlimit="10" stroke-linecap="round"/>
<path d="M-9.15773e-06 0H1.05029" transform="translate(102.291 187.148)" stroke="#007699" stroke-width="1.25" stroke-miterlimit="10" stroke-linecap="round"/>
<path d="M3.90105 2.2874C3.90105 1.67742 3.60098 1.06745 3.3009 0.609973C2.85077 0.152493 2.2506 -2.32686e-06 1.65044 -2.32686e-06C1.05028 -2.32686e-06 0.450112 0.304987 -9.15773e-06 0.609973" transform="translate(108.293 185.014)" stroke="#007699" stroke-width="1.25" stroke-miterlimit="10" stroke-linecap="round"/>
<path d="M1.05026 0H9.15773e-06" transform="translate(109.343 187.148)" stroke="#007699" stroke-width="1.25" stroke-miterlimit="10" stroke-linecap="round"/>
<path d="M45.8529 9.37409C49.674 13.9272 51.9139 19.8195 51.9139 26.3813C51.9139 40.9781 40.3189 52.7627 25.957 52.7627C11.595 52.7627 1.60841e-05 40.9781 1.60841e-05 26.3813C1.60841e-05 11.7846 11.595 -2.55424e-07 25.957 -2.55424e-07C29.5145 -2.55424e-07 32.9403 0.803493 36.1026 2.00873" transform="translate(80.3857 79.9209)" fill="white"/>
<path d="M45.8529 9.37409C49.674 13.9272 51.9139 19.8195 51.9139 26.3813C51.9139 40.9781 40.3189 52.7627 25.957 52.7627C11.595 52.7627 1.60841e-05 40.9781 1.60841e-05 26.3813C1.60841e-05 11.7846 11.595 -2.55424e-07 25.957 -2.55424e-07C29.5145 -2.55424e-07 32.9403 0.803493 36.1026 2.00873" transform="translate(80.3857 79.9209)" stroke="#007699" stroke-width="1.25" stroke-miterlimit="10" stroke-linecap="round"/>
<path d="M-1.60841e-05 -5.10847e-07C0.395268 0.401746 0.790584 0.803492 1.18587 1.20524L-1.60841e-05 -5.10847e-07Z" transform="translate(123.997 86.8848)" fill="white"/>
<path d="M-1.60841e-05 -5.10847e-07C0.395268 0.401746 0.790584 0.803492 1.18587 1.20524" transform="translate(123.997 86.8848)" stroke="#007699" stroke-width="1.25" stroke-miterlimit="10" stroke-linecap="round"/>
<path d="M8.04207e-06 -5.10847e-07C1.31762 0.669577 2.50345 1.47307 3.55754 2.41048L8.04207e-06 -5.10847e-07Z" transform="translate(118.463 82.8677)" fill="white"/>
<path d="M8.04207e-06 -5.10847e-07C1.31762 0.669577 2.50345 1.47307 3.55754 2.41048" transform="translate(118.463 82.8677)" stroke="#007699" stroke-width="1.25" stroke-miterlimit="10" stroke-linecap="round"/>
<path d="M23.717 13.6594V10.3115C23.717 4.68704 18.4466 2.04339e-06 11.8585 2.04339e-06C5.4022 2.04339e-06 -8.04207e-06 4.68704 -8.04207e-06 10.3115V13.6594H23.717Z" transform="translate(94.4839 112.997)" fill="white"/>
<path d="M23.4535 0H8.04207e-06V2.14265H23.4535V0Z" transform="translate(94.7471 123.174)" fill="white"/>
<path d="M0.3953 1.02169e-06C0.131777 0.803494 -8.04207e-06 1.60699 -8.04207e-06 2.41048V5.75837" transform="translate(94.4839 120.765)" fill="white"/>
<path d="M0.3953 1.02169e-06C0.131777 0.803494 -8.04207e-06 1.60699 -8.04207e-06 2.41048V5.75837" transform="translate(94.4839 120.765)" stroke="#007699" stroke-width="1.25" stroke-miterlimit="10" stroke-linecap="round"/>
<path d="M2.23994 1.02169e-06C1.31761 0.803494 0.65879 1.7409 -1.60841e-05 2.67831L2.23994 1.02169e-06Z" transform="translate(95.6699 116.077)" fill="white"/>
<path d="M2.23994 1.02169e-06C1.31761 0.803494 0.65879 1.7409 -1.60841e-05 2.67831" transform="translate(95.6699 116.077)" stroke="#007699" stroke-width="1.25" stroke-miterlimit="10" stroke-linecap="round"/>
<path d="M18.5783 13.6594V10.3115C18.5783 4.68704 13.3079 2.04339e-06 6.71981 2.04339e-06C4.21635 2.04339e-06 1.9764 0.669576 -1.60841e-05 1.87482" transform="translate(99.6226 112.997)" fill="white"/>
<path d="M18.5783 13.6594V10.3115C18.5783 4.68704 13.3079 2.04339e-06 6.71981 2.04339e-06C4.21635 2.04339e-06 1.9764 0.669576 -1.60841e-05 1.87482" transform="translate(99.6226 112.997)" stroke="#007699" stroke-width="1.25" stroke-miterlimit="10" stroke-linecap="round"/>
<path d="M1.7129 20.4891H1.44937C0.79056 20.4891 0.395292 19.9534 0.395292 19.4177L-1.60841e-05 7.63318C-1.60841e-05 6.42794 0.527045 6.0262 1.58114 5.2227L2.89875 4.15138C-0.658806 1.87482 0.263523 0 0.263523 0C1.84466 2.41048 10.6726 0.669578 15.8113 1.47307C16.9972 1.60699 17.9195 2.67831 18.1831 3.88355L18.3148 4.82096C19.3689 4.82096 20.1595 4.68704 20.1595 5.75837L19.7642 19.2838C19.7642 19.9534 19.2371 20.3552 18.7101 20.3552H1.7129V20.4891Z" transform="translate(96.3281 85.6787)" fill="white"/>
<path d="M1.84467 20.3552H1.44936C0.922313 20.3552 0.395284 19.8195 0.395284 19.2838L1.60841e-05 7.49927C1.60841e-05 6.29403 0.790584 5.08879 1.97643 4.55313L2.89874 4.01747C-0.395292 1.87482 0.263514 0.267832 0.263514 5.10847e-07C1.97641 2.41048 10.8044 0.535663 15.9431 1.47307C17.1289 1.60699 18.0513 2.67831 18.1831 3.88355L18.3148 4.82096C19.3689 4.82096 20.1595 4.68704 20.1595 5.75837L19.7642 19.2838C19.7642 19.8195 19.2371 20.3552 18.7101 20.3552H1.84467Z" transform="translate(96.1973 85.8125)" fill="white" stroke="#007699" stroke-width="1.25" stroke-miterlimit="10" stroke-linecap="round"/>
<path d="M2.37172 9.77583C1.05411 9.77583 -8.04207e-06 8.7045 -8.04207e-06 7.36535V2.41048C-8.04207e-06 1.07133 1.05411 -2.04339e-06 2.37172 -2.04339e-06C3.68933 -2.04339e-06 4.74341 1.07133 4.74341 2.41048V7.36535C4.74341 8.7045 3.68933 9.77583 2.37172 9.77583Z" transform="translate(103.707 107.909)" fill="white"/>
<path d="M2.37172 9.77583C1.05411 9.77583 -8.04207e-06 8.7045 -8.04207e-06 7.36535V2.41048C-8.04207e-06 1.07133 1.05411 -2.04339e-06 2.37172 -2.04339e-06C3.68933 -2.04339e-06 4.74341 1.07133 4.74341 2.41048V7.36535C4.74341 8.7045 3.68933 9.77583 2.37172 9.77583Z" transform="translate(103.707 107.909)" fill="white" stroke="#007699" stroke-width="1.25" stroke-miterlimit="10" stroke-linecap="round"/>
<path d="M8.828 23.0335C3.95283 23.0335 1.60841e-05 19.016 1.60841e-05 14.0611V8.03493C1.60841e-05 3.08006 3.95283 1.02169e-06 8.828 1.02169e-06C13.7032 1.02169e-06 17.656 3.08006 17.656 8.03493V14.0611C17.656 19.016 13.7032 23.0335 8.828 23.0335Z" transform="translate(97.5142 89.9629)" fill="white"/>
<path d="M8.828 23.0335C3.95283 23.0335 1.60841e-05 19.016 1.60841e-05 14.0611V8.03493C1.60841e-05 3.08006 3.95283 1.02169e-06 8.828 1.02169e-06C13.7032 1.02169e-06 17.656 3.08006 17.656 8.03493V14.0611C17.656 19.016 13.7032 23.0335 8.828 23.0335Z" transform="translate(97.5142 89.9629)" fill="white" stroke="#007699" stroke-width="1.25" stroke-miterlimit="10" stroke-linecap="round"/>
<path d="M18.9736 3.68428L16.7337 2.74687C16.9972 2.47904 16.6019 2.21121 16.7337 1.80946C17.5242 -0.333187 13.3079 0.470306 13.3079 0.470306C13.3079 0.470306 8.43273 -1.53843 2.76699 2.74687L0 6.89825C0 6.89825 8.1692 9.17481 14.4937 3.41645C14.6255 5.15735 15.0208 7.83566 18.9736 8.63915V5.42518V3.68428Z" transform="translate(96.7241 88.2886)" fill="#BDD8E4"/>
<path d="M-1.60841e-05 3.21397C-1.60841e-05 3.21397 8.1692 5.62445 14.7573 5.10847e-07H14.889C15.0208 1.7409 15.8113 4.41921 19.7642 5.2227" transform="translate(96.3281 91.8389)" fill="white"/>
<path d="M-1.60841e-05 3.21397C-1.60841e-05 3.21397 8.1692 5.62445 14.7573 5.10847e-07H14.889C15.0208 1.7409 15.8113 4.41921 19.7642 5.2227" transform="translate(96.3281 91.8389)" stroke="#007699" stroke-width="1.25" stroke-miterlimit="10" stroke-linecap="round"/>
<path d="M5.1387 5.49053H2.63524C1.18587 5.49053 1.60841e-05 4.2853 1.60841e-05 2.81222V2.67831C1.60841e-05 1.20524 1.18587 -5.10847e-07 2.63524 -5.10847e-07H5.1387C6.58807 -5.10847e-07 7.77392 1.20524 7.77392 2.67831V2.81222C7.77392 4.2853 6.58807 5.49053 5.1387 5.49053Z" transform="translate(97.5142 97.5977)" fill="white" stroke="#007699" stroke-width="1.25" stroke-miterlimit="10" stroke-linecap="round"/>
<path d="M5.13869 5.49053H2.63523C1.18586 5.49053 8.04207e-06 4.2853 8.04207e-06 2.81222V2.67831C8.04207e-06 1.20524 1.18586 -5.10847e-07 2.63523 -5.10847e-07H5.13869C6.58806 -5.10847e-07 7.77391 1.20524 7.77391 2.67831V2.81222C7.77391 4.2853 6.58806 5.49053 5.13869 5.49053Z" transform="translate(107.264 97.5977)" fill="white" stroke="#007699" stroke-width="1.25" stroke-miterlimit="10" stroke-linecap="round"/>
<path d="M8.04207e-06 0H1.84466" transform="translate(105.288 100.41)" stroke="#007699" stroke-width="1.25" stroke-miterlimit="10" stroke-linecap="round"/>
<path d="M0 0H1.84465" transform="translate(100.544 100.41)" stroke="#007699" stroke-width="1.25" stroke-miterlimit="10" stroke-linecap="round"/>
<path d="M-8.04207e-06 0H1.71291" transform="translate(110.295 100.41)" stroke="#007699" stroke-width="1.25" stroke-miterlimit="10" stroke-linecap="round"/>
<path d="M0 0V5.49053H1.97642" transform="translate(106.474 101.078)" fill="white"/>
<path d="M0 0V5.49053H1.97642" transform="translate(106.474 101.078)" stroke="#007699" stroke-width="1.25" stroke-miterlimit="10" stroke-linecap="round"/>
<path d="M0 1.20524H5.00691L6.45629 2.04339e-06" transform="translate(103.839 108.311)" fill="white"/>
<path d="M0 1.20524H5.00691L6.45629 2.04339e-06" transform="translate(103.839 108.311)" stroke="#007699" stroke-width="1.25" stroke-miterlimit="10" stroke-linecap="round"/>
<rect width="226.266" height="11.7645" transform="translate(150.91 86.7837)" fill="#007699"/>
<rect width="87.1762" height="11.7645" transform="translate(150.91 112.272)" fill="#BDD8E4"/>
<rect width="61.709" height="11.7645" transform="translate(249.84 112.272)" fill="#BDD8E4"/>
<rect width="195.902" height="11.7645" transform="translate(150.91 175.695)" fill="#007699"/>
<rect width="61.709" height="11.7645" transform="translate(150.91 201.186)" fill="#BDD8E4"/>
<rect width="24.4877" height="11.7645" transform="translate(225.352 201.186)" fill="#BDD8E4"/>
<rect width="239.98" height="11.7645" transform="translate(150.91 265.589)" fill="#007699"/>
<rect width="61.709" height="11.7645" transform="translate(150.91 291.077)" fill="#BDD8E4"/>
<rect width="226.266" height="11.7645" transform="translate(150.91 353.52)" fill="#007699"/>
<rect width="61.709" height="11.7645" transform="translate(150.91 379.01)" fill="#BDD8E4"/>
<rect width="61.709" height="11.7645" transform="translate(225.352 379.01)" fill="#BDD8E4"/>
</g>
<defs>
<linearGradient id="paint0_linear" x2="1" gradientUnits="userSpaceOnUse" gradientTransform="translate(478) scale(478 387.55) rotate(90)">
<stop stop-color="#007699"/>
<stop offset="0.883978" stop-color="#007699" stop-opacity="0"/>
</linearGradient>
<clipPath id="clip0">
<rect width="580" height="432" fill="white"/>
</clipPath>
</defs>
</svg>
