<svg width="380" height="315" viewBox="0 0 380 315" fill="none" xmlns="http://www.w3.org/2000/svg">
<g clip-path="url(#clip0)">
<path d="M4.28658 3.53889e-06L128.713 1.82496e-05L257.713 3.53889e-06C260.099 17.1825 264.553 11.8319 260.099 17.1825C229.175 54.3388 232.186 70.3367 225.758 94.9551H36.3429C30.0477 70.4983 32.7693 54.2716 1.90058 17.1825C-2.55229 11.8319 1.90048 14.8328 4.28658 3.53889e-06Z" transform="translate(60 211.547)" fill="#F5F7F8"/>
<path d="M41.4284 0C41.4284 7.17917 32.1544 12.999 20.7142 12.999C9.27407 12.999 0 7.17917 0 0" transform="translate(45.8208 282.501)" stroke="#007699" stroke-width="2" stroke-linecap="round"/>
<path d="M41.4284 0C41.4284 7.17917 32.1544 12.999 20.7142 12.999C9.27407 12.999 0 7.17917 0 0" transform="translate(87.249 282.501)" stroke="#007699" stroke-width="2" stroke-linecap="round"/>
<path d="M41.4284 0C41.4284 7.17917 32.1544 12.999 20.7142 12.999C9.27407 12.999 0 7.17917 0 0" transform="translate(128.679 282.501)" stroke="#007699" stroke-width="2" stroke-linecap="round"/>
<path d="M41.4284 0C41.4284 7.17917 32.1544 12.999 20.7142 12.999C9.27407 12.999 0 7.17917 0 0" transform="translate(170.105 282.501)" stroke="#007699" stroke-width="2" stroke-linecap="round"/>
<path d="M41.4284 0C41.4284 7.17917 32.1544 12.999 20.7142 12.999C9.27407 12.999 0 7.17917 0 0" transform="translate(211.535 282.501)" stroke="#007699" stroke-width="2" stroke-linecap="round"/>
<path d="M41.4284 0C41.4284 7.17917 32.1544 12.999 20.7142 12.999C9.27407 12.999 0 7.17917 0 0" transform="translate(252.963 282.501)" stroke="#007699" stroke-width="2" stroke-linecap="round"/>
<path d="M41.4284 0C41.4284 7.17917 32.1544 12.999 20.7142 12.999C9.27407 12.999 0 7.17917 0 0" transform="translate(294.393 282.501)" stroke="#007699" stroke-width="2" stroke-linecap="round"/>
<rect width="24.283" height="62.4912" rx="4" transform="translate(178.429 63.502)" fill="#BDD8E4" stroke="#007699" stroke-width="2"/>
<path d="M128.744 93.5135H1.29261C0.517043 93.5135 0 92.9969 0 92.2219V1.29162C0 0.516649 0.517043 0 1.29261 0H128.744C129.519 0 130.036 0.516649 130.036 1.29162V92.0927C130.036 92.8677 129.519 93.5135 128.744 93.5135Z" transform="translate(126.429 91.8418)" fill="#BDD8E4"/>
<path d="M0 7.62939e-07H8.91899" transform="translate(227.469 91.8418)" stroke="#007699" stroke-width="2" stroke-miterlimit="10" stroke-linecap="round"/>
<path d="M114.267 9.8543e-07H126.934C128.744 9.8543e-07 130.166 1.42079 130.166 3.22906V90.1553C130.166 91.9636 128.744 93.3843 126.934 93.3843H3.23152C1.42187 93.3843 0 91.9636 0 90.1553V3.22906C0 1.42079 1.42187 9.8543e-07 3.23152 9.8543e-07H95.653" transform="translate(126 91.8418)" stroke="#007699" stroke-width="2" stroke-miterlimit="10" stroke-linecap="round"/>
<path d="M116.722 1.97086e-06H1.97236e-06V75.8183H116.722V1.97086e-06Z" transform="translate(132.335 99.2065)" fill="white"/>
<g opacity="0.6">
<path d="M11.6987 0H0.839565C0.37589 0 7.88945e-06 0.375882 7.88945e-06 0.839557C7.88945e-06 1.30323 0.37589 1.67911 0.839564 1.67911H11.6987C12.1624 1.67911 12.5383 1.30323 12.5383 0.839557C12.5383 0.375882 12.1624 0 11.6987 0Z" transform="translate(149.395 107.729)" fill="#007699"/>
<path d="M7.82093 3.94172e-06H0.839544C0.375872 3.94172e-06 -7.88945e-06 0.375884 -7.88945e-06 0.839556C-7.88945e-06 1.30323 0.375872 1.67911 0.839544 1.67911H7.82093C8.2846 1.67911 8.66048 1.30323 8.66048 0.839556C8.66048 0.375884 8.2846 3.94172e-06 7.82093 3.94172e-06Z" transform="translate(155.603 113.286)" fill="#007699"/>
<path d="M59.1375 3.94172e-06H0.839556C0.375884 3.94172e-06 3.94473e-06 0.375884 3.94473e-06 0.839556C3.94473e-06 1.30323 0.375884 1.67911 0.839555 1.67911H59.1375C59.6011 1.67911 59.977 1.30323 59.977 0.839556C59.977 0.375884 59.6011 3.94172e-06 59.1375 3.94172e-06Z" transform="translate(183.264 113.286)" fill="#007699"/>
<path d="M8.85501 3.94172e-06H0.83956C0.375888 3.94172e-06 7.88945e-06 0.375884 7.88945e-06 0.839556C7.88945e-06 1.30323 0.375888 1.67911 0.83956 1.67911H8.85501C9.31869 1.67911 9.69457 1.30323 9.69457 0.839556C9.69457 0.375884 9.31869 3.94172e-06 8.85501 3.94172e-06Z" transform="translate(179.831 114.857) rotate(-180)" fill="#007699"/>
<path d="M16.3521 1.97086e-06H0.839548C0.375876 1.97086e-06 -3.94473e-06 0.375882 -3.94473e-06 0.839554C-3.94473e-06 1.30323 0.375876 1.67911 0.839548 1.67911H16.3521C16.8158 1.67911 17.1917 1.30323 17.1917 0.839554C17.1917 0.375882 16.8158 1.97086e-06 16.3521 1.97086e-06Z" transform="translate(158.574 117.937)" fill="#007699"/>
<path d="M20.8763 0H0.839557C0.375882 0 0 0.375882 0 0.839557C0 1.30323 0.375882 1.67911 0.839557 1.67911H20.8763C21.3399 1.67911 21.7158 1.30323 21.7158 0.839557C21.7158 0.375882 21.3399 0 20.8763 0Z" transform="translate(165.421 124.523)" fill="#007699"/>
<path d="M22.9444 3.94172e-06H0.83956C0.375888 3.94172e-06 7.88945e-06 0.375884 7.88945e-06 0.839556C7.88945e-06 1.30323 0.375888 1.67911 0.839559 1.67911H22.9444C23.4081 1.67911 23.784 1.30323 23.784 0.839556C23.784 0.375884 23.4081 3.94172e-06 22.9444 3.94172e-06Z" transform="translate(149.395 130.726)" fill="#007699"/>
<path d="M16.3521 3.94172e-06H0.839544C0.375872 3.94172e-06 -7.88945e-06 0.375884 -7.88945e-06 0.839556C-7.88945e-06 1.30323 0.375873 1.67911 0.839545 1.67911H16.3521C16.8158 1.67911 17.1917 1.30323 17.1917 0.839556C17.1917 0.375884 16.8158 3.94172e-06 16.3521 3.94172e-06Z" transform="translate(192.858 132.271) rotate(-180)" fill="#007699"/>
<path d="M31.0879 -1.97086e-06H0.839549C0.375875 -1.97086e-06 -7.88945e-06 0.37588 -7.88945e-06 0.839555C-7.88945e-06 1.30323 0.375875 1.67911 0.839549 1.67911H31.0879C31.5515 1.67911 31.9274 1.30323 31.9274 0.839555C31.9274 0.37588 31.5515 -1.97086e-06 31.0879 -1.97086e-06Z" transform="translate(155.603 136.923)" fill="#007699"/>
<path d="M20.3592 -1.97086e-06H0.839565C0.37589 -1.97086e-06 7.88945e-06 0.37588 7.88945e-06 0.839555C7.88945e-06 1.30323 0.37589 1.67911 0.839564 1.67911H20.3592C20.8229 1.67911 21.1988 1.30323 21.1988 0.839555C21.1988 0.37588 20.8229 -1.97086e-06 20.3592 -1.97086e-06Z" transform="translate(221.703 138.45) rotate(-180)" fill="#007699"/>
<path d="M9.11353 -1.97086e-06H0.839565C0.37589 -1.97086e-06 7.88945e-06 0.37588 7.88945e-06 0.839555C7.88945e-06 1.30323 0.37589 1.67911 0.839565 1.67911H9.11353C9.5772 1.67911 9.95308 1.30323 9.95308 0.839555C9.95308 0.37588 9.5772 -1.97086e-06 9.11353 -1.97086e-06Z" transform="translate(188.822 136.923)" fill="#007699"/>
<path d="M27.0808 1.97086e-06H0.83956C0.375888 1.97086e-06 7.88945e-06 0.375882 7.88945e-06 0.839554C7.88945e-06 1.30323 0.375889 1.67911 0.839561 1.67911H27.0808C27.5444 1.67911 27.9203 1.30323 27.9203 0.839554C27.9203 0.375882 27.5444 1.97086e-06 27.0808 1.97086e-06Z" transform="translate(166.198 143.123)" fill="#007699"/>
<path d="M4.97718 1.97086e-06H0.839548C0.375876 1.97086e-06 -3.94473e-06 0.375882 -3.94473e-06 0.839554C-3.94473e-06 1.30323 0.375876 1.67911 0.839548 1.67911H4.97718C5.44085 1.67911 5.81673 1.30323 5.81673 0.839554C5.81673 0.375882 5.44085 1.97086e-06 4.97718 1.97086e-06Z" transform="translate(164.311 144.63) rotate(-180)" fill="#007699"/>
<path d="M18.1618 1.97086e-06H0.83956C0.375888 1.97086e-06 7.88945e-06 0.375882 7.88945e-06 0.839554C7.88945e-06 1.30323 0.375887 1.67911 0.839559 1.67911H18.1618C18.6255 1.67911 19.0013 1.30323 19.0013 0.839554C19.0013 0.375882 18.6255 1.97086e-06 18.1618 1.97086e-06Z" transform="translate(149.395 147.644)" fill="#007699"/>
<path d="M5.75275 1.97086e-06H0.839544C0.375872 1.97086e-06 -7.88945e-06 0.375882 -7.88945e-06 0.839554C-7.88945e-06 1.30323 0.375872 1.67911 0.839544 1.67911H5.75275C6.21642 1.67911 6.5923 1.30323 6.5923 0.839554C6.5923 0.375882 6.21642 1.97086e-06 5.75275 1.97086e-06Z" transform="translate(169.819 147.644)" fill="#007699"/>
<path d="M30.3123 1.97086e-06H0.839544C0.375872 1.97086e-06 -7.88945e-06 0.375882 -7.88945e-06 0.839554C-7.88945e-06 1.30323 0.375872 1.67911 0.839544 1.67911H30.3123C30.776 1.67911 31.1518 1.30323 31.1518 0.839554C31.1518 0.375882 30.776 1.97086e-06 30.3123 1.97086e-06Z" transform="translate(178.22 147.644)" fill="#007699"/>
<path d="M27.3393 1.97086e-06H0.839544C0.375872 1.97086e-06 -7.88945e-06 0.375882 -7.88945e-06 0.839554C-7.88945e-06 1.30323 0.375873 1.67911 0.839545 1.67911H27.3393C27.803 1.67911 28.1788 1.30323 28.1788 0.839554C28.1788 0.375882 27.803 1.97086e-06 27.3393 1.97086e-06Z" transform="translate(240.037 149.202) rotate(-180)" fill="#007699"/>
<path d="M8.98426 -3.94172e-06H0.839549C0.375875 -3.94172e-06 -7.88945e-06 0.375878 -7.88945e-06 0.839553C-7.88945e-06 1.30323 0.375875 1.67911 0.839549 1.67911H8.98426C9.44794 1.67911 9.82382 1.30323 9.82382 0.839553C9.82382 0.375878 9.44794 -3.94172e-06 8.98426 -3.94172e-06Z" transform="translate(155.603 153.842)" fill="#007699"/>
<path d="M22.5566 -3.94172e-06H0.839561C0.375886 -3.94172e-06 3.94473e-06 0.375878 3.94473e-06 0.839553C3.94473e-06 1.30323 0.375887 1.67911 0.839561 1.67911H22.5566C23.0203 1.67911 23.3962 1.30323 23.3962 0.839553C23.3962 0.375878 23.0203 -3.94172e-06 22.5566 -3.94172e-06Z" transform="translate(191.782 155.38) rotate(-180)" fill="#007699"/>
<path d="M18.1618 0H0.839557C0.375882 0 0 0.375882 0 0.839557C0 1.30323 0.375883 1.67911 0.839557 1.67911H18.1618C18.6254 1.67911 19.0013 1.30323 19.0013 0.839557C19.0013 0.375882 18.6254 0 18.1618 0Z" transform="translate(160.9 160.043)" fill="#007699"/>
<path d="M18.1618 0H0.839561C0.375886 0 3.94473e-06 0.375882 3.94473e-06 0.839557C3.94473e-06 1.30323 0.375886 1.67911 0.83956 1.67911H18.1618C18.6254 1.67911 19.0013 1.30323 19.0013 0.839557C19.0013 0.375882 18.6255 0 18.1618 0Z" transform="translate(183.908 160.043)" fill="#007699"/>
<path d="M17.1277 0H0.839561C0.375886 0 3.94473e-06 0.375882 3.94473e-06 0.839557C3.94473e-06 1.30323 0.375886 1.67911 0.839561 1.67911H17.1277C17.5914 1.67911 17.9672 1.30323 17.9672 0.839557C17.9672 0.375882 17.5914 0 17.1277 0Z" transform="translate(205.882 160.043)" fill="#007699"/>
<path d="M4.58939 0H0.839553C0.375878 0 -3.94473e-06 0.375882 -3.94473e-06 0.839557C-3.94473e-06 1.30323 0.375879 1.67911 0.839553 1.67911H4.58939C5.05306 1.67911 5.42895 1.30323 5.42895 0.839557C5.42895 0.375882 5.05306 0 4.58939 0Z" transform="translate(241.387 126.092) rotate(-180)" fill="#007699"/>
<path d="M43.7554 0H0.839561C0.375886 0 3.94473e-06 0.375882 3.94473e-06 0.839557C3.94473e-06 1.30323 0.375886 1.67911 0.839561 1.67911H43.7554C44.2191 1.67911 44.595 1.30323 44.595 0.839557C44.595 0.375882 44.2191 0 43.7554 0Z" transform="translate(189.081 124.523)" fill="#007699"/>
<path d="M49.8307 0H0.839557C0.375882 0 0 0.375882 0 0.839557C0 1.30323 0.375881 1.67911 0.839556 1.67911H49.8307C50.2943 1.67911 50.6702 1.30323 50.6702 0.839557C50.6702 0.375882 50.2943 0 49.8307 0Z" transform="translate(165.421 107.729)" fill="#007699"/>
<path d="M2.58522 -1.97086e-06H0V2.58324H2.58522V-1.97086e-06Z" transform="translate(140.871 105.277)" fill="#D7DFE4"/>
<path d="M2.58522 1.97086e-06H0V2.58325H2.58522V1.97086e-06Z" transform="translate(140.865 112.124)" fill="#D7DFE4"/>
<path d="M2.58522 3.94172e-06H0V2.58325H2.58522V3.94172e-06Z" transform="translate(140.865 119.099)" fill="#D7DFE4"/>
<path d="M2.58522 -3.94172e-06H0V2.58324H2.58522V-3.94172e-06Z" transform="translate(140.865 126.074)" fill="#D7DFE4"/>
<path d="M2.58522 0H0V2.58325H2.58522V0Z" transform="translate(140.865 132.918)" fill="#D7DFE4"/>
<path d="M2.58522 1.97086e-06H0V2.58325H2.58522V1.97086e-06Z" transform="translate(140.865 139.894)" fill="#D7DFE4"/>
<path d="M2.58522 -3.94172e-06H0V2.58324H2.58522V-3.94172e-06Z" transform="translate(140.865 146.738)" fill="#D7DFE4"/>
<path d="M2.58522 -1.97086e-06H0V2.58324H2.58522V-1.97086e-06Z" transform="translate(140.865 153.716)" fill="#D7DFE4"/>
<path d="M2.58522 0H0V2.58325H2.58522V0Z" transform="translate(140.865 160.689)" fill="#D7DFE4"/>
<path d="M2.58522 3.94172e-06H0V2.58325H2.58522V3.94172e-06Z" transform="translate(140.865 167.534)" fill="#D7DFE4"/>
</g>
<path d="M0 4C0 1.79086 1.79086 0 4 0H56.0764C58.2856 0 60.0764 1.79086 60.0764 4V33.569H0V4Z" transform="translate(101.871 177.977)" fill="#BDD8E4" stroke="#007699" stroke-width="2"/>
<path d="M0 4C0 1.79086 1.79086 0 4 0H56.0764C58.2856 0 60.0764 1.79086 60.0764 4V33.569H0V4Z" transform="translate(161.947 177.977)" fill="#BDD8E4" stroke="#007699" stroke-width="2"/>
<path d="M0 4C0 1.79086 1.79086 0 4 0H56.0764C58.2856 0 60.0764 1.79086 60.0764 4V33.569H0V4Z" transform="translate(222.024 177.977)" fill="#BDD8E4" stroke="#007699" stroke-width="2"/>
<rect width="60.0764" height="60.4241" rx="4" transform="translate(101.871 117.554)" fill="#BDD8E4" stroke="#007699" stroke-width="2"/>
<path d="M28.6256 12.5221H26.2566C26.0592 11.3295 25.4669 9.93818 24.8747 8.94436L26.6514 7.1555C27.2437 6.55921 27.2437 5.56538 26.6514 4.96909L25.2695 3.57775C24.6772 2.98146 23.6902 2.98146 23.0979 3.57775L21.3211 5.36661C20.3341 4.77032 18.9521 4.17403 17.7676 3.97527V1.59011C17.7676 0.79506 16.9779 0 16.1883 0H14.2141C13.4244 0 12.6348 0.79506 12.6348 1.59011V3.97527C11.4502 4.17403 10.2657 4.77032 9.08123 5.36661L7.30447 3.57775C6.71221 2.98146 5.72512 2.98146 5.13287 3.57775L3.75094 4.96909C3.15869 5.56538 3.15869 6.55921 3.75094 7.1555L5.5277 8.94436C4.93545 9.93818 4.3432 11.1308 3.94836 12.5221H1.57934C0.789672 12.5221 2.35341e-08 13.3172 2.35341e-08 14.1122V15.9011C2.35341e-08 16.6961 0.789672 17.4912 1.57934 17.4912H3.94836C4.14578 18.8825 4.73803 20.0751 5.33029 21.0689L3.75094 22.8578C3.15869 23.4541 3.15869 24.4479 3.75094 25.0442L5.13287 26.4356C5.72512 27.0318 6.71221 27.0318 7.30447 26.4356L9.08123 24.6467C10.0683 25.243 11.2528 25.8393 12.6348 26.2368V28.6219C12.6348 29.417 13.4244 30.212 14.2141 30.212H15.9909C16.7805 30.212 17.5702 29.417 17.5702 28.6219V26.2368C18.7547 26.038 20.1366 25.4417 21.1237 24.8454L22.9005 26.6343C23.4927 27.2306 24.4798 27.2306 25.0721 26.6343L26.454 25.243C27.0463 24.6467 27.0463 23.6529 26.454 23.0566L24.6772 21.2677C25.2695 20.2739 25.8618 19.0813 26.0592 17.6899H28.4282C29.2179 17.6899 30.0075 16.8949 30.0075 16.0999V14.311C30.205 13.3172 29.4153 12.5221 28.6256 12.5221ZM15.0038 20.0751C12.2399 20.0751 9.8709 17.8887 9.8709 14.9073C9.8709 12.1246 12.0425 9.7394 15.0038 9.7394C17.7676 9.7394 20.1366 11.9258 20.1366 14.9073C20.1366 17.8887 17.7676 20.0751 15.0038 20.0751Z" transform="translate(116.89 132.657)" fill="#007699"/>
<path d="M51.7361 36.4415V25.8837C51.7361 11.5795 40.1636 0 25.868 0C11.5725 0 0 11.5795 0 25.8837V45.9776H41.8654C47.3114 46.3181 51.7361 41.8907 51.7361 36.4415Z" transform="translate(212.682 39)" fill="#BDD8E4"/>
<path d="M48.3326 28.2677V24.1808C48.3326 10.8984 37.4407 0 24.1663 0C10.8919 0 0 10.8984 0 24.1808V28.2677H48.3326Z" transform="translate(215.065 98.6006)" fill="#BDD8E4"/>
<path d="M-4.1549e-05 5.78978C4.42477 2.04346 9.87072 -5.19676e-06 15.9974 -5.19676e-06C29.2718 -5.19676e-06 40.1637 10.8984 40.1637 24.1808V28.2677" transform="translate(223.232 98.6006)" stroke="#007699" stroke-width="2" stroke-miterlimit="10" stroke-linecap="round"/>
<path d="M4.1549e-05 3.74633C0.680781 2.38403 1.70183 1.02173 2.38257 1.03935e-05" transform="translate(217.788 107.796)" stroke="#007699" stroke-width="2" stroke-miterlimit="10" stroke-linecap="round"/>
<path d="M-4.1549e-05 9.5361V5.44918C-4.1549e-05 3.40574 0.34037 1.70287 0.68074 -5.19676e-06" transform="translate(214.723 117.332)" stroke="#007699" stroke-width="2" stroke-miterlimit="10" stroke-linecap="round"/>
<path d="M5.44587 22.1374C2.38255 22.1374 4.1549e-05 19.7533 4.1549e-05 16.6882V5.44919C4.1549e-05 2.38402 2.38255 0 5.44587 0C8.5092 0 10.8918 2.38402 10.8918 5.44919V16.6882C10.8918 19.7533 8.5092 22.1374 5.44587 22.1374Z" transform="translate(233.104 86.3398)" fill="white"/>
<path d="M5.44583 22.1374C2.38251 22.1374 0 19.7533 0 16.6882V5.44919C0 2.38402 2.38251 0 5.44583 0C8.50916 0 10.8918 2.38402 10.8918 5.44919V16.6882C10.8918 19.7533 8.50916 22.1374 5.44583 22.1374Z" transform="translate(233.104 86.3398)" stroke="#007699" stroke-width="2" stroke-miterlimit="10" stroke-linecap="round"/>
<path d="M40.8443 5.19676e-06V22.4779C40.8443 33.7169 31.6543 42.9124 20.4221 42.9124C9.18994 42.9124 -4.1549e-05 33.7169 -4.1549e-05 22.4779V5.19676e-06H40.8443Z" transform="translate(218.126 53.6445)" fill="white"/>
<path d="M40.8444 0V16.6882C40.8444 27.9271 31.6544 37.1226 20.4222 37.1226C9.18998 37.1226 0 27.9271 0 16.6882V4.42748" transform="translate(218.126 59.4346)" stroke="#007699" stroke-width="2" stroke-miterlimit="10" stroke-linecap="round"/>
<path d="M49.3536 14.3041H41.8655C35.0581 14.6447 26.2084 6.81149 26.2084 2.38402V6.13035V15.6664C26.2084 29.9706 14.6359 41.8907 2.07745e-05 41.8907L1.02109 13.9636L5.10557 1.02173L47.6518 -5.19676e-06L49.0132 6.13035V14.3041H49.3536Z" transform="translate(212.339 50.9199)" fill="#BDD8E4"/>
<path d="M0 43.253C14.2955 43.253 26.2084 31.6734 26.2084 17.0287V0C26.2084 8.51437 33.3562 15.6664 41.8654 15.6664H49.3536" transform="translate(212.682 49.5576)" stroke="#007699" stroke-width="2" stroke-miterlimit="10" stroke-linecap="round"/>
<path d="M44.5885 45.637C48.6729 44.6153 51.7361 40.869 51.7361 36.4415V25.8837C51.7361 11.5795 40.1637 0 25.8681 0C11.5726 0 0 11.5795 0 25.8837V55.1731" transform="translate(212.339 39.3403)" stroke="#007699" stroke-width="2" stroke-miterlimit="10" stroke-linecap="round"/>
<path d="M0 -1.52588e-06H8.50924" transform="translate(242.634 71.3545)" stroke="#007699" stroke-width="2" stroke-miterlimit="10" stroke-linecap="round"/>
<path d="M3.06337 -5.19676e-06V5.78978H-4.1549e-05" transform="translate(238.549 74.7603)" stroke="#007699" stroke-width="2" stroke-miterlimit="10" stroke-linecap="round"/>
<path d="M9.18994 1.03935e-05C8.16883 1.02173 6.80742 1.70288 5.10557 1.70288H4.0844C2.72292 1.70288 1.36152 1.3623 0.340411 0.34058L2.07745e-05 1.03935e-05" transform="translate(234.463 87.3618)" stroke="#007699" stroke-width="2" stroke-miterlimit="10" stroke-linecap="round"/>
<path d="M4.1549e-05 24.1808C9.19003 20.0939 15.9974 10.8984 15.9974 0" transform="translate(212.682 62.4995)" stroke="#007699" stroke-width="2" stroke-miterlimit="10" stroke-linecap="round"/>
<path d="M0 21.1156C6.46703 16.3476 10.5515 8.85494 10.5515 -2.59838e-06" transform="translate(212 58.4126)" stroke="#007699" stroke-width="2" stroke-miterlimit="10" stroke-linecap="round"/>
<rect width="60.0764" height="60.4241" rx="4" transform="translate(161.947 117.554)" fill="#BDD8E4" stroke="#007699" stroke-width="2"/>
<path d="M14.0562 0L13.38 14.056H0" transform="translate(192.294 147.97) scale(0.99711 1.00288) rotate(-45)" stroke="#007699" stroke-width="2" stroke-miterlimit="10" stroke-linecap="round"/>
<path d="M14.0562 0L13.38 14.056H0" transform="translate(190.113 147.97) scale(0.99711 1.00288) rotate(135)" stroke="#007699" stroke-width="2" stroke-miterlimit="10" stroke-linecap="round"/>
<line x1="1" y1="-1" x2="22.4645" y2="-1" transform="matrix(0.497838 -0.86727 0.864771 0.502166 186.146 158.04)" stroke="#007699" stroke-width="2" stroke-linecap="round"/>
<rect width="60.0764" height="60.4241" rx="4" transform="translate(222.024 117.554)" fill="#BDD8E4" stroke="#007699" stroke-width="2"/>
<path d="M35.5532 23.6623L28.3683 15.8574L21.1833 7.92873L14.1222 0L3.71637 2.22995L0 34.3165L32.2085 33.821L35.5532 23.6623Z" transform="matrix(0.665597 -0.746312 0.742481 0.669867 228.705 145.762)" fill="#BDD8E4"/>
<path d="M6.93723 10.1587L10.1581 0L0 2.7255L6.93723 10.1587Z" transform="matrix(0.665597 -0.746312 0.742481 0.669867 231.338 142.804)" fill="#84BFD1"/>
<path d="M6.9372 9.78702L10.0342 3.78071e-06L1.51219e-05 2.22995L6.9372 9.78702Z" transform="matrix(0.665597 -0.746312 0.742481 0.669867 242.009 142.754)" fill="white"/>
<path d="M6.93722 10.0348L9.9103 3.78071e-06L-7.56097e-06 2.47773L6.93722 10.0348Z" transform="matrix(0.665597 -0.746312 0.742481 0.669867 252.688 142.876)" fill="white"/>
<path d="M16.7237 0L1.51219e-05 15.1141L23.6609 7.68095L16.7237 0Z" transform="matrix(0.665597 -0.746312 0.742481 0.669867 242.955 156.954)" fill="#84BFD1"/>
<path d="M3.4686 0L3.34472 0.123884L7.56097e-06 30.5999L10.0342 7.18541L3.4686 0Z" transform="matrix(0.665597 -0.746312 0.742481 0.669867 230.963 147.136)" fill="white"/>
<path d="M30.8458 7.1854L30.5981 7.3093L-7.56097e-06 7.68096L24.2803 1.89036e-06L30.8458 7.1854Z" transform="matrix(0.665597 -0.746312 0.742481 0.669867 248.598 162.542)" fill="white"/>
<path d="M29.8548 17.468L21.1833 7.92873L14.1222 1.89036e-06L3.71638 2.22995L1.51219e-05 34.3165L32.2085 33.821L35.5532 23.6623L33.4473 21.4323" transform="matrix(0.665597 -0.746312 0.742481 0.669867 228.705 145.762)" stroke="#007699" stroke-width="2" stroke-miterlimit="10" stroke-linecap="round"/>
<path d="M2.22983 2.60161L-1.51219e-05 0" transform="matrix(0.665597 -0.746312 0.742481 0.669867 262.414 135.135)" stroke="#007699" stroke-width="2" stroke-miterlimit="10" stroke-linecap="round"/>
<path d="M1.51219e-05 -3.78071e-06L28.4922 31.591" transform="matrix(0.665597 -0.746312 0.742481 0.669867 232.832 144.481)" stroke="#007699" stroke-width="2" stroke-miterlimit="10" stroke-linecap="round"/>
<path d="M1.51219e-05 24.1578L10.9013 -1.89036e-06" transform="matrix(0.665597 -0.746312 0.742481 0.669867 236.243 152.568)" stroke="#007699" stroke-width="2" stroke-miterlimit="10" stroke-linecap="round"/>
<path d="M7.56097e-06 8.30039L25.0235 -1.89036e-06" transform="matrix(0.665597 -0.746312 0.742481 0.669867 248.072 162.569)" stroke="#007699" stroke-width="2" stroke-miterlimit="10" stroke-linecap="round"/>
<path d="M17.4669 0L7.56097e-06 15.8575" transform="matrix(0.665597 -0.746312 0.742481 0.669867 242.462 157.508)" stroke="#007699" stroke-width="2" stroke-miterlimit="10" stroke-linecap="round"/>
<path d="M3.22086 1.89036e-06L0 10.1587" transform="matrix(0.665597 -0.746312 0.742481 0.669867 235.957 137.625)" stroke="#007699" stroke-width="2" stroke-miterlimit="10" stroke-linecap="round"/>
<path d="M3.22084 3.78071e-06L1.51219e-05 10.1587" transform="matrix(0.665597 -0.746312 0.742481 0.669867 246.546 137.668)" stroke="#007699" stroke-width="2" stroke-miterlimit="10" stroke-linecap="round"/>
<path d="M3.22086 -3.78071e-06L0 10.1587" transform="matrix(0.665597 -0.746312 0.742481 0.669867 257.21 137.617)" stroke="#007699" stroke-width="2" stroke-miterlimit="10" stroke-linecap="round"/>
<path d="M10.4058 0L0 2.35384" transform="matrix(0.665597 -0.746312 0.742481 0.669867 263.01 142.846)" stroke="#007699" stroke-width="2" stroke-miterlimit="10" stroke-linecap="round"/>
<path d="M10.4058 -3.78071e-06L1.51219e-05 2.22995" transform="matrix(0.665597 -0.746312 0.742481 0.669867 252.431 142.979)" stroke="#007699" stroke-width="2" stroke-miterlimit="10" stroke-linecap="round"/>
<path d="M10.4058 3.78071e-06L0 2.22995" transform="matrix(0.665597 -0.746312 0.742481 0.669867 241.847 142.937)" stroke="#007699" stroke-width="2" stroke-miterlimit="10" stroke-linecap="round"/>
<path d="M4.19787 0L3.52158 14.056H0" transform="translate(260.991 201.403) scale(0.99711 1.00288) rotate(-45)" stroke="#007699" stroke-width="2" stroke-miterlimit="10" stroke-linecap="round"/>
<path d="M0 4.1272H13.38L13.5785 0" transform="translate(244.86 201.354) scale(0.99711 1.00288) rotate(135)" stroke="#007699" stroke-width="2" stroke-miterlimit="10" stroke-linecap="round"/>
<path d="M14.7741 0H0" transform="matrix(0.497838 -0.86727 0.864771 0.502166 249.939 211.542)" stroke="#007699" stroke-width="2" stroke-linecap="round"/>
<path d="M4.19787 0L3.52158 14.056H0" transform="translate(140.5 201.404) scale(0.99711 1.00288) rotate(-45)" stroke="#007699" stroke-width="2" stroke-miterlimit="10" stroke-linecap="round"/>
<path d="M0 4.1272H13.38L13.5785 0" transform="translate(124.369 201.355) scale(0.99711 1.00288) rotate(135)" stroke="#007699" stroke-width="2" stroke-miterlimit="10" stroke-linecap="round"/>
<path d="M14.7741 0H0" transform="matrix(0.497838 -0.86727 0.864771 0.502166 129.452 211.542)" stroke="#007699" stroke-width="2" stroke-linecap="round"/>
<path d="M36.3429 94.9551C30.0477 70.4983 32.7693 54.2716 1.90058 17.1825C-2.55229 11.8319 1.90048 14.8328 4.28658 3.53889e-06C32.9288 3.60289e-05 89.7846 -2.98054e-05 128.713 1.82496e-05C166.617 6.50409e-05 228.083 1.82496e-05 257.713 3.53889e-06C260.099 17.1825 264.553 11.8319 260.099 17.1825C229.175 54.3388 232.186 70.3367 225.758 94.9551" transform="translate(60 211.547)" stroke="#007699" stroke-width="2" stroke-linecap="round" stroke-linejoin="round"/>
<line x1="1" y1="-1" x2="72.8517" y2="-1" transform="translate(189.5 211.547) rotate(90)" stroke="#007699" stroke-width="2" stroke-linecap="round"/>
<line x1="1" y1="-1" x2="14.106" y2="-1" transform="translate(189.5 290.436) rotate(90)" stroke="#007699" stroke-width="2" stroke-linecap="round"/>
<path d="M18.3567 0C18.3567 5.32864 14.2474 9.64835 9.17834 9.64835C4.10928 9.64835 0 5.32864 0 0" transform="translate(260.256 263.819) scale(-1 1)" stroke="#007699" stroke-width="2" stroke-linecap="round"/>
<line x1="1" y1="-1" x2="25.8552" y2="-1" transform="translate(252.287 246.793) scale(-1 1) rotate(90)" stroke="#007699" stroke-width="2" stroke-linecap="round"/>
<line x1="1" y1="-1" x2="11.5342" y2="-1" transform="translate(257.313 254.271) scale(-1 1)" stroke="#007699" stroke-width="2" stroke-linecap="round"/>
<path d="M0 45.4893L2.38297 33.0679C1.02127 30.2143 0.340395 26.8571 0.340395 23.5C0.340395 10.575 11.0638 0 24.1702 0C37.2766 0 48 10.575 48 23.5C48 36.425 37.2766 47 24.1702 47C19.5744 47 15.1489 45.6571 11.5745 43.475L0 45.4893Z" transform="translate(270 7)" fill="#BDD8E4"/>
<path d="M14.4681 2.01429C17.3617 0.839291 20.5958 -2.5613e-06 24 -2.5613e-06C37.1064 -2.5613e-06 47.8298 10.575 47.8298 23.5C47.8298 36.425 37.1064 47 24 47C19.4043 47 14.9787 45.6571 11.4042 43.475L1.0389e-05 45.4893L2.38298 33.0679C1.02128 30.2143 0.340405 26.8571 0.340405 23.5C0.340405 17.9607 2.38297 12.7571 5.61701 8.72858" transform="translate(270 7)" stroke="#007699" stroke-width="2" stroke-miterlimit="10" stroke-linecap="round"/>
<path d="M-2.07779e-05 3.86072C1.5319 2.35001 3.23407 1.175 4.93619 0" transform="translate(277.149 10.1895)" stroke="#007699" stroke-width="2" stroke-miterlimit="10" stroke-linecap="round"/>
<path d="M18.383 35.25C28.5356 35.25 36.766 27.359 36.766 17.625C36.766 7.89098 28.5356 -2.5613e-06 18.383 -2.5613e-06C8.23036 -2.5613e-06 -2.07779e-05 7.89098 -2.07779e-05 17.625C-2.07779e-05 27.359 8.23036 35.25 18.383 35.25Z" transform="translate(275.447 12.875)" fill="white"/>
<path d="M2.07779e-05 5.12259e-06C2.07779e-05 3.02143 1.1915 5.875 3.23406 7.88929C5.27661 9.90357 7.99999 11.0786 11.234 11.0786C14.2979 11.0786 17.1915 9.90357 19.2341 7.88929C21.2766 5.875 22.4681 3.18929 22.4681 5.12259e-06" transform="translate(282.086 32.5142)" stroke="#007699" stroke-width="2" stroke-miterlimit="10" stroke-linecap="round"/>
<path d="M0 -2.5613e-06C0 0.839283 0.340426 1.51072 0.851064 2.01429C1.3617 2.51786 2.21279 2.85358 2.89364 2.85358C3.7447 2.85358 4.42552 2.51786 4.93616 2.01429C5.4468 1.51072 5.78723 0.671426 5.78723 -2.5613e-06" transform="translate(296.213 23.7861)" stroke="#007699" stroke-width="2" stroke-miterlimit="10" stroke-linecap="round"/>
<path d="M1.0389e-05 -2.5613e-06C1.0389e-05 0.839283 0.340436 1.51072 0.851075 2.01429C1.36171 2.51786 2.21275 2.85358 2.8936 2.85358C3.74466 2.85358 4.42554 2.51786 4.93617 2.01429C5.44681 1.51072 5.78724 0.671426 5.78724 -2.5613e-06" transform="translate(284.468 23.7861)" stroke="#007699" stroke-width="2" stroke-miterlimit="10" stroke-linecap="round"/>
</g>
<defs>
<clipPath id="clip0">
<rect width="380" height="315" fill="white"/>
</clipPath>
</defs>
</svg>
