<?xml version="1.0" encoding="utf-8"?>
<!-- Generator: Adobe Illustrator 23.0.0, SVG Export Plug-In . SVG Version: 6.00 Build 0)  -->
<svg version="1.1" id="iconmonstr" xmlns="http://www.w3.org/2000/svg" xmlns:xlink="http://www.w3.org/1999/xlink" x="0px" y="0px"
	 viewBox="0 0 24 24" style="enable-background:new 0 0 24 24;" xml:space="preserve">
<style type="text/css">
	.st0{fill:#2559A7;}
</style>
<path id="cloud-2" class="st0" d="M12,5c3.45,0,5.89,2.8,5.57,6.78C19.31,11.73,22,12.53,22,15.5c0,1.93-1.57,3.5-3.5,3.5h-13
	C3.57,19,2,17.43,2,15.5c0-2.8,2.48-3.83,4.43-3.72C6.27,7.56,8.64,5,12,5z M12,3c-4.01,0-7.27,3.14-7.48,7.09
	C1.95,10.55,0,12.8,0,15.5C0,18.54,2.46,21,5.5,21h13c3.04,0,5.5-2.46,5.5-5.5c0-2.7-1.95-4.95-4.52-5.41C19.27,6.14,16.01,3,12,3z"
	/>
</svg>
