<?xml version="1.0" standalone="no"?>
<!-- Generator: Adobe Fireworks 10, Export SVG Extension by Aaron Beall (http://fireworks.abeall.com) . Version: 0.6.1  -->
<!DOCTYPE svg PUBLIC "-//W3C//DTD SVG 1.1//EN" "http://www.w3.org/Graphics/SVG/1.1/DTD/svg11.dtd">
<svg id="Untitled-Page%201" viewBox="0 0 700 583" style="background-color:#ffffff00" version="1.1"
	xmlns="http://www.w3.org/2000/svg" xmlns:xlink="http://www.w3.org/1999/xlink" xml:space="preserve"
	x="0px" y="0px" width="700px" height="583px"
>
	<defs>
		<clipPath id="mask1">
			<path d="M 0 582.9578 L 699.8336 582.9578 L 699.8336 0 L 0 0 L 0 582.9578 Z" fill="none"/>
		</clipPath>
				<clipPath id="mask2">
					<path d="M 0 -0.0005 L 699.8336 -0.0005 L 699.8336 582.9578 L 0 582.9578 L 0 -0.0005 Z" fill="none"/>
				</clipPath>
						<clipPath id="mask3">
							<path d="M 530.9463 557.9723 L 671.2869 557.9723 L 671.2869 506.8842 L 530.9463 506.8842 L 530.9463 557.9723 Z" fill="none"/>
						</clipPath>
						<clipPath id="mask4">
							<path d="M 0 575.7772 L 654.2851 575.7772 L 654.2851 197.9988 L 0 197.9988 L 0 575.7772 Z" fill="none"/>
						</clipPath>
				<clipPath id="mask5">
					<path d="M 0 -0.0005 L 699.8336 -0.0005 L 699.8336 582.9578 L 0 582.9578 L 0 -0.0005 Z" fill="none"/>
				</clipPath>
	</defs>
	<g id="Layer%201">
			<path d="M 0 582.9578 L 699.8336 582.9578 L 699.8336 0 L 0 0 L 0 582.9578 Z" fill="none"/>
		<g clip-path="url(#mask1)">
			<g>
					<path d="M 0 -0.0005 L 699.8336 -0.0005 L 699.8336 582.9578 L 0 582.9578 L 0 -0.0005 Z" fill="none"/>
				<g clip-path="url(#mask2)">
					<g>
							<path d="M 530.9463 557.9723 L 671.2869 557.9723 L 671.2869 506.8842 L 530.9463 506.8842 L 530.9463 557.9723 Z" fill="none"/>
						<g opacity="0.2471" clip-path="url(#mask3)">
							<g>
								<path d="M 530.9456 532.4283 C 530.9456 518.3207 562.3618 506.8844 601.116 506.8844 C 639.8697 506.8844 671.2861 518.3207 671.2861 532.4283 C 671.2861 546.5361 639.8697 557.972 601.116 557.972 C 562.3618 557.972 530.9456 546.5361 530.9456 532.4283 L 530.9456 532.4283 Z" fill="#122934"/>
							</g>
						</g>
							<path d="M 0 575.7772 L 654.2851 575.7772 L 654.2851 197.9988 L 0 197.9988 L 0 575.7772 Z" fill="none"/>
						<g opacity="0.2471" clip-path="url(#mask4)">
							<g>
								<path d="M 654.2861 334.2912 L 236.0484 575.777 L 0 439.4856 L 418.238 197.9993 L 654.2861 334.2912 Z" fill="#122934"/>
							</g>
						</g>
					</g>
				</g>
				<path d="M 271.8372 548.6127 L 265.0808 379.3233 L 286.7294 378.496 L 279.283 548.8195 L 271.8372 548.6127 Z" fill="#f700be"/>
				<path d="M 283.9846 457.0979 L 284.8806 431.4489 L 266.7407 431.4489 L 267.5567 457.0979 L 283.9846 457.0979 Z" fill="#ffffff"/>
				<path d="M 98.5071 436.139 L 91.7507 266.8496 L 113.3993 266.0225 L 105.9531 436.346 L 98.5071 436.139 Z" fill="#f700be"/>
				<path d="M 110.6546 344.6242 L 111.5506 318.9752 L 93.4105 318.9752 L 94.2269 344.6242 L 110.6546 344.6242 Z" fill="#ffffff"/>
				<path d="M 655.1046 319.9377 L 648.348 150.6486 L 669.9966 149.821 L 662.5506 320.1444 L 655.1046 319.9377 Z" fill="#f700be"/>
				<path d="M 667.2521 228.4227 L 668.1479 202.7738 L 650.0081 202.7738 L 650.8242 228.4227 L 667.2521 228.4227 Z" fill="#ffffff"/>
				<path d="M 697.9946 141.2827 L 698.0436 158.66 L 273.3495 403.8737 L 273.3006 386.4966 L 697.9946 141.2827 Z" fill="#cfcfcf"/>
				<path d="M 273.3005 386.4966 L 273.3496 403.874 L 70.5294 285.9998 L 70.4802 268.6224 L 273.3005 386.4966 Z" fill="#cfcfcf"/>
				<path d="M 495.1743 23.4084 L 697.9946 141.2828 L 273.3006 386.4963 L 70.4803 268.6223 L 495.1743 23.4084 Z" fill="#ffffff"/>
					<path d="M 0 -0.0005 L 699.8336 -0.0005 L 699.8336 582.9578 L 0 582.9578 L 0 -0.0005 Z" fill="none"/>
				<g clip-path="url(#mask5)">
					<g>
						<path d="M 338.9256 218.6984 L 338.722 146.886 L 335.2151 144.8481 L 335.4189 216.6605 C 335.42 217.0791 335.5693 217.3749 335.8091 217.5142 L 339.3157 219.5523 C 339.0757 219.4131 338.9268 219.1176 338.9256 218.6984 L 338.9256 218.6984 Z" fill="#0c2029"/>
						<path d="M 426.9204 90.3624 L 336.5451 142.5441 C 336.5023 142.569 336.4601 142.5961 336.4184 142.625 C 336.4051 142.6342 336.3921 142.6441 336.3784 142.6537 C 336.3506 142.6741 336.3223 142.695 336.2946 142.7169 C 336.2795 142.7293 336.2646 142.7419 336.2495 142.7544 C 336.224 142.776 336.1988 142.7979 336.1742 142.8208 C 336.159 142.8342 336.1438 142.8481 336.1296 142.8621 C 336.1204 142.8707 336.1113 142.8787 336.1021 142.8873 C 336.0924 142.897 336.0832 142.9082 336.0732 142.9181 C 336.0432 142.9489 336.0136 142.9805 335.9845 143.0131 C 335.9755 143.0231 335.9656 143.0322 335.957 143.0424 C 335.9485 143.0518 335.9413 143.0616 335.9333 143.071 C 335.9157 143.0919 335.8984 143.1132 335.8811 143.1346 C 335.8702 143.1483 335.8588 143.1612 335.8481 143.1749 C 335.8389 143.1868 335.8302 143.1995 335.8211 143.2117 C 335.8083 143.2283 335.796 143.2455 335.7836 143.2626 C 335.7753 143.2738 335.7666 143.2847 335.7586 143.2962 C 335.7445 143.3163 335.731 143.3371 335.7173 143.3575 C 335.7087 143.3707 335.6997 143.3833 335.6914 143.3968 C 335.6878 143.402 335.6843 143.407 335.6809 143.4122 C 335.657 143.4497 335.6339 143.4875 335.6115 143.526 C 335.6101 143.5282 335.6086 143.531 335.607 143.5334 C 335.6028 143.5415 335.5984 143.5493 335.5939 143.5576 C 335.5785 143.5847 335.5631 143.6115 335.5484 143.6391 C 335.542 143.6518 335.5356 143.6644 335.529 143.6771 C 335.5223 143.6906 335.5154 143.7039 335.5086 143.7177 C 335.5024 143.7295 335.4962 143.7412 335.4906 143.7534 C 335.4761 143.7835 335.4624 143.8139 335.4491 143.8441 C 335.446 143.8508 335.4426 143.8576 335.4396 143.8642 C 335.4391 143.8663 335.4381 143.868 335.437 143.8697 C 335.4197 143.9097 335.4033 143.9498 335.3879 143.9901 C 335.3854 143.997 335.3832 144.0039 335.3805 144.0107 C 335.3752 144.0253 335.3701 144.0399 335.3647 144.0546 C 335.3573 144.0755 335.3497 144.0959 335.3427 144.1165 C 335.3374 144.1314 335.3337 144.1463 335.3291 144.1611 C 335.3232 144.1798 335.3173 144.1983 335.3121 144.2171 C 335.3084 144.2289 335.3044 144.2408 335.3011 144.2524 C 335.2954 144.2725 335.2917 144.292 335.2866 144.3116 C 335.2808 144.3347 335.2748 144.3575 335.2699 144.3804 C 335.2679 144.3885 335.2654 144.397 335.2637 144.4053 C 335.2601 144.4217 335.2585 144.4378 335.2552 144.4539 C 335.2485 144.4893 335.2423 144.524 335.2373 144.559 C 335.2359 144.569 335.2333 144.5792 335.2321 144.5891 C 335.2311 144.5983 335.2316 144.607 335.2303 144.6162 C 335.2214 144.6946 335.215 144.7722 335.2152 144.8478 L 338.7219 146.8861 C 338.7217 146.8103 338.7281 146.7327 338.7371 146.6545 C 338.7393 146.6353 338.7413 146.6163 338.744 146.5968 C 338.7492 146.5623 338.7553 146.5276 338.7622 146.4925 C 338.7669 146.4679 338.7711 146.443 338.7766 146.4181 C 338.7817 146.3955 338.7876 146.373 338.7935 146.35 C 338.8014 146.3182 338.8096 146.2867 338.8188 146.2549 C 338.8243 146.2365 338.83 146.2181 338.8355 146.1997 C 338.8469 146.1637 338.8591 146.1279 338.8718 146.0922 C 338.877 146.0777 338.882 146.0636 338.8872 146.0489 C 338.906 145.9997 338.9254 145.9507 338.9467 145.9023 C 338.9493 145.8959 338.9526 145.8893 338.9555 145.8831 C 338.9744 145.8404 338.9946 145.7976 339.0154 145.7556 C 339.0221 145.7422 339.029 145.7285 339.0358 145.7154 C 339.0567 145.6749 339.0785 145.6346 339.1011 145.5949 C 339.1053 145.5874 339.1096 145.5794 339.1141 145.572 C 339.1409 145.5253 339.1689 145.4795 339.198 145.4345 C 339.2068 145.4216 339.2156 145.4088 339.2241 145.396 C 339.2457 145.3638 339.2675 145.3319 339.2903 145.3006 C 339.3026 145.2834 339.3151 145.2666 339.3277 145.2497 C 339.3476 145.2236 339.3675 145.198 339.3882 145.1727 C 339.405 145.1513 339.4224 145.1299 339.4401 145.1093 C 339.4567 145.0894 339.4743 145.0702 339.4915 145.0508 C 339.5203 145.0186 339.5499 144.9872 339.5802 144.9564 C 339.5988 144.9373 339.6172 144.9184 339.6364 144.9002 C 339.651 144.886 339.6659 144.8725 339.6808 144.8587 C 339.7054 144.8359 339.7308 144.814 339.7564 144.7924 C 339.7713 144.78 339.7864 144.7674 339.8017 144.7549 C 339.8292 144.7333 339.857 144.7124 339.8851 144.692 C 339.8985 144.6823 339.912 144.6721 339.9254 144.663 C 339.9672 144.6341 340.0092 144.607 340.0518 144.5822 L 430.4272 92.4007 L 426.9204 90.3624 Z" fill="#0c2029"/>
						<path d="M 431.7648 93.1641 C 431.7624 92.3209 431.1601 91.9775 430.4272 92.4007 L 340.0518 144.5822 C 339.318 145.0062 338.7197 146.0429 338.7219 146.8861 L 338.8897 206.0961 L 431.9327 152.3742 L 431.7648 93.1641 Z" fill="#1989bb"/>
						<path d="M 340.2642 219.4612 L 430.6396 167.2797 C 431.3722 166.8564 431.9708 165.8197 431.9682 164.9765 L 431.9327 152.3742 L 338.8897 206.0962 L 338.9255 218.6985 C 338.9281 219.5417 339.5304 219.8849 340.2642 219.4612 L 340.2642 219.4612 Z" fill="#1989bb"/>
						<path d="M 429.1163 164.8916 L 428.9532 96.5091 L 341.5678 146.9646 C 341.5594 146.9779 341.5504 146.9925 341.5433 147.0066 L 341.706 215.3616 L 429.1163 164.8916 Z" fill="#ffffff"/>
						<path d="M 404.5934 256.526 C 404.5353 256.5596 404.4735 256.5894 404.4099 256.6177 C 404.3924 256.6252 404.3749 256.6327 404.3572 256.6401 C 404.3041 256.662 404.2497 256.682 404.1939 256.7003 C 404.1796 256.7052 404.1655 256.7104 404.151 256.7149 C 404.1238 256.7233 404.0961 256.7306 404.0685 256.7382 C 404.0406 256.7458 404.0131 256.7536 403.9847 256.7603 C 403.9566 256.7671 403.9282 256.7726 403.8996 256.7785 C 403.8716 256.7842 403.8435 256.7904 403.8154 256.7954 C 403.7459 256.8079 403.6753 256.8178 403.6047 256.8252 C 403.5836 256.8274 403.5625 256.8288 403.5414 256.8307 C 403.498 256.8342 403.4543 256.8376 403.4103 256.8397 C 403.3831 256.8409 403.3562 256.8414 403.3288 256.8419 C 403.2941 256.8423 403.2599 256.8431 403.2257 256.8423 C 403.1968 256.8421 403.1679 256.8414 403.1388 256.8404 C 403.1072 256.8392 403.0755 256.8376 403.0437 256.8357 C 403.0146 256.8336 402.9854 256.8312 402.9568 256.8285 C 402.9253 256.8255 402.894 256.8222 402.8629 256.8183 C 402.835 256.8148 402.8071 256.8108 402.7794 256.8065 C 402.7457 256.8013 402.7127 256.7959 402.6797 256.7897 C 402.654 256.7847 402.628 256.7797 402.6023 256.774 C 402.5639 256.7659 402.5258 256.7567 402.4882 256.7467 C 402.4656 256.7407 402.4435 256.7353 402.422 256.7288 C 402.3526 256.7089 402.2853 256.687 402.2203 256.662 C 402.187 256.6493 402.1555 256.6349 402.1235 256.621 C 402.1067 256.6135 402.0893 256.6066 402.0725 256.5991 C 402.0247 256.576 401.9784 256.5518 401.9335 256.526 L 340.5106 220.8288 C 340.1487 220.6178 339.9674 220.341 339.9664 220.0634 L 339.9742 222.7676 C 339.9749 223.045 340.1563 223.3224 340.5186 223.5325 L 401.9412 259.2301 C 401.9859 259.2558 402.0325 259.2805 402.0805 259.3034 C 402.0968 259.3108 402.1138 259.3172 402.1305 259.325 C 402.1611 259.3381 402.1914 259.3523 402.223 259.3648 C 402.2247 259.3653 402.2264 259.3655 402.2278 259.3662 C 402.2931 259.3912 402.3606 259.4132 402.4295 259.4331 C 402.4365 259.4351 402.4428 259.4381 402.4499 259.4398 C 402.4649 259.444 402.4807 259.4469 402.4957 259.451 C 402.5336 259.4607 402.5714 259.4701 402.61 259.4782 C 402.6219 259.481 402.6338 259.4844 402.6462 259.487 C 402.6595 259.4898 402.6739 259.4912 402.6874 259.4937 C 402.7204 259.5002 402.7534 259.5057 402.7869 259.5109 C 402.8022 259.5131 402.8173 259.5161 402.8326 259.5183 C 402.8452 259.5204 402.858 259.5211 402.8704 259.5226 C 402.9015 259.5266 402.933 259.5294 402.9643 259.5327 C 402.9813 259.5339 402.9983 259.5364 403.015 259.538 C 403.0274 259.5389 403.0396 259.5389 403.0514 259.5396 C 403.0832 259.542 403.1148 259.5434 403.1466 259.5444 C 403.1645 259.5449 403.1825 259.5466 403.2004 259.5472 C 403.2111 259.5474 403.2223 259.5466 403.2329 259.5466 C 403.2676 259.5472 403.3019 259.5466 403.3363 259.5458 C 403.355 259.5453 403.3737 259.5461 403.3924 259.5453 C 403.4011 259.5451 403.4096 259.5441 403.4183 259.5439 C 403.462 259.542 403.5057 259.5384 403.5491 259.5344 C 403.5661 259.5332 403.5834 259.533 403.6003 259.531 C 403.6042 259.5308 403.6081 259.5299 403.612 259.5294 C 403.6831 259.5221 403.7537 259.5121 403.8231 259.4997 C 403.8272 259.4989 403.8316 259.4986 403.836 259.4977 C 403.8598 259.4934 403.8831 259.4877 403.9068 259.4827 C 403.9355 259.4768 403.9641 259.4716 403.9925 259.4644 C 404.0209 259.4577 404.0486 259.45 404.0767 259.442 C 404.1041 259.4346 404.1316 259.4276 404.1587 259.4194 C 404.1633 259.4179 404.1682 259.417 404.1728 259.4154 C 404.1827 259.4119 404.192 259.4077 404.2019 259.4045 C 404.2575 259.3864 404.3119 259.3662 404.3645 259.3444 C 404.3822 259.3369 404.4002 259.3294 404.4177 259.3217 C 404.4812 259.2937 404.5429 259.2636 404.6011 259.2301 L 404.5934 256.526 Z" fill="#0c2029"/>
						<path d="M 403.2395 254.022 L 344.8132 220.0661 L 431.5323 169.9952 C 431.5406 169.9947 431.5498 169.9945 431.5595 169.9945 C 431.5673 169.9945 431.5746 169.9947 431.5816 169.9949 L 490.0079 203.9511 L 403.2883 254.022 C 403.2805 254.0222 403.2713 254.0227 403.2616 254.0227 C 403.2536 254.0227 403.2463 254.0222 403.2395 254.022 L 403.2395 254.022 Z" fill="#ffffff"/>
						<path d="M 494.8544 203.9534 C 494.8544 203.9716 494.8515 203.9897 494.85 204.0082 C 494.8484 204.0276 494.8476 204.0471 494.844 204.0665 C 494.8411 204.0829 494.836 204.0995 494.8318 204.1159 C 494.8272 204.1346 494.8231 204.1533 494.8166 204.1718 C 494.8115 204.1875 494.8037 204.2029 494.7971 204.2183 C 494.7889 204.238 494.7811 204.2574 494.7709 204.2768 C 494.7636 204.2902 494.7549 204.3036 494.7467 204.3173 C 494.7331 204.3397 494.7192 204.362 494.7032 204.3838 C 494.6938 204.3966 494.6833 204.4087 494.6734 204.4212 C 494.6516 204.4477 494.628 204.4743 494.6023 204.5002 C 494.5892 204.5135 494.5763 204.5268 494.562 204.5396 C 494.5467 204.5538 494.5302 204.5678 494.5135 204.5814 C 494.4945 204.5974 494.4754 204.6124 494.4545 204.628 C 494.4368 204.6413 494.4176 204.6542 494.3984 204.6674 C 494.3674 204.6883 494.3358 204.7094 494.3011 204.7293 L 404.5934 256.5261 L 404.6011 259.2301 L 494.2824 207.4487 L 494.2827 207.4487 L 494.3091 207.4335 L 494.3091 207.4333 L 494.3091 207.4335 C 494.313 207.4311 494.3169 207.4285 494.321 207.4264 L 494.3504 207.4086 L 494.3506 207.4082 C 494.3577 207.404 494.365 207.3998 494.3717 207.3955 C 494.3841 207.3875 494.3943 207.3794 494.4062 207.3714 C 494.4254 207.3585 494.4443 207.3451 494.4625 207.332 C 494.4829 207.3168 494.5023 207.3014 494.521 207.2857 C 494.5377 207.272 494.5542 207.2582 494.5695 207.244 C 494.5763 207.238 494.5843 207.232 494.5904 207.2258 C 494.5981 207.2191 494.6032 207.2111 494.6103 207.2042 C 494.6358 207.1783 494.6595 207.152 494.6809 207.1254 C 494.6872 207.1177 494.6952 207.1107 494.7008 207.1033 C 494.7049 207.098 494.7071 207.0932 494.7108 207.0881 C 494.7268 207.066 494.7406 207.0439 494.7542 207.0216 C 494.7603 207.0111 494.7685 207.0014 494.7741 206.9912 C 494.7758 206.9877 494.7768 206.9839 494.7787 206.9808 C 494.7887 206.9614 494.7967 206.942 494.8049 206.9227 C 494.8102 206.9097 494.8175 206.8973 494.8221 206.8843 C 494.8231 206.8817 494.8234 206.8786 494.8243 206.876 C 494.8306 206.8575 494.8347 206.8386 494.8394 206.8203 C 494.843 206.8061 494.8484 206.7925 494.851 206.7783 C 494.8515 206.7757 494.8513 206.7733 494.8517 206.7708 C 494.8551 206.7512 494.8561 206.7318 494.8576 206.7121 C 494.859 206.698 494.8617 206.6842 494.8619 206.6704 L 494.8619 206.6578 L 494.8544 203.9534 Z" fill="#1989bb"/>
						<path d="M 344.1478 148.7231 L 428.962 99.7521 L 428.9532 96.613 L 341.5678 147.0685 C 341.5593 147.0817 341.5506 147.0966 341.5434 147.1106 L 341.7061 215.5072 L 344.2773 214.0226 L 344.1232 148.7651 C 344.1306 148.7513 344.1393 148.7363 344.1478 148.7231 L 344.1478 148.7231 Z" fill="#d4d4d4"/>
						<path d="M 435.489 175.64 L 440.6712 178.652 L 435.455 181.6635 L 430.2729 178.6517 L 435.489 175.64 Z" fill="#d4d4d4"/>
						<path d="M 428.7817 179.5128 L 433.9639 182.5247 L 428.7477 185.5363 L 423.5656 182.5247 L 428.7817 179.5128 Z" fill="#d4d4d4"/>
						<path d="M 422.0756 183.3848 L 427.258 186.3967 L 422.0416 189.4083 L 416.8592 186.3965 L 422.0756 183.3848 Z" fill="#d4d4d4"/>
						<path d="M 415.3695 187.2568 L 420.5516 190.2688 L 415.3355 193.2807 L 410.1531 190.2688 L 415.3695 187.2568 Z" fill="#d4d4d4"/>
						<path d="M 408.6621 191.1295 L 413.8443 194.1415 L 408.6282 197.1531 L 403.4458 194.1415 L 408.6621 191.1295 Z" fill="#d4d4d4"/>
						<path d="M 401.9558 195.0018 L 407.1384 198.0135 L 401.9218 201.0251 L 396.7397 198.0135 L 401.9558 195.0018 Z" fill="#d4d4d4"/>
						<path d="M 395.2497 198.8738 L 400.4321 201.8855 L 395.2157 204.8974 L 390.0333 201.8855 L 395.2497 198.8738 Z" fill="#d4d4d4"/>
						<path d="M 388.5424 202.7466 L 393.7248 205.7583 L 388.5086 208.7701 L 383.3262 205.7583 L 388.5424 202.7466 Z" fill="#d4d4d4"/>
						<path d="M 381.8362 206.6186 L 387.0184 209.6305 L 381.8025 212.6421 L 376.6199 209.6303 L 381.8362 206.6186 Z" fill="#d4d4d4"/>
						<path d="M 375.1299 210.4906 L 380.3125 213.5025 L 375.0962 216.5141 L 369.9138 213.5023 L 375.1299 210.4906 Z" fill="#d4d4d4"/>
						<path d="M 368.4228 214.3634 L 373.6052 217.3751 L 368.3889 220.3869 L 363.2065 217.3751 L 368.4228 214.3634 Z" fill="#d4d4d4"/>
						<path d="M 361.7167 218.2354 L 366.8986 221.2473 L 361.6827 224.2589 L 356.5003 221.2473 L 361.7167 218.2354 Z" fill="#d4d4d4"/>
						<path d="M 442.6198 179.7843 L 447.8017 182.7963 L 442.5861 185.8079 L 437.4037 182.796 L 442.6198 179.7843 Z" fill="#d4d4d4"/>
						<path d="M 435.9125 183.6568 L 441.0949 186.6688 L 435.8788 189.6807 L 430.6961 186.6688 L 435.9125 183.6568 Z" fill="#d4d4d4"/>
						<path d="M 429.2064 187.5291 L 434.3885 190.5408 L 429.1724 193.5526 L 423.99 190.5408 L 429.2064 187.5291 Z" fill="#d4d4d4"/>
						<path d="M 422.5 191.4011 L 427.6826 194.4131 L 422.4663 197.425 L 417.2839 194.4128 L 422.5 191.4011 Z" fill="#d4d4d4"/>
						<path d="M 415.7929 195.2738 L 420.9753 198.2858 L 415.7589 201.2974 L 410.5765 198.2856 L 415.7929 195.2738 Z" fill="#d4d4d4"/>
						<path d="M 409.0868 199.1459 L 414.2687 202.1578 L 409.0529 205.1694 L 403.8705 202.1578 L 409.0868 199.1459 Z" fill="#d4d4d4"/>
						<path d="M 402.3805 203.0179 L 407.5626 206.0298 L 402.3465 209.0414 L 397.1641 206.0298 L 402.3805 203.0179 Z" fill="#d4d4d4"/>
						<path d="M 395.6731 206.8909 L 400.8553 209.9026 L 395.6394 212.9142 L 390.457 209.9026 L 395.6731 206.8909 Z" fill="#d4d4d4"/>
						<path d="M 388.967 210.7626 L 394.1494 213.7746 L 388.933 216.7865 L 383.7509 213.7746 L 388.967 210.7626 Z" fill="#d4d4d4"/>
						<path d="M 382.2609 214.6349 L 387.4428 217.6469 L 382.2269 220.6584 L 377.0446 217.6466 L 382.2609 214.6349 Z" fill="#d4d4d4"/>
						<path d="M 375.5536 218.5077 L 380.7357 221.5194 L 375.5196 224.5309 L 370.3372 221.5194 L 375.5536 218.5077 Z" fill="#d4d4d4"/>
						<path d="M 368.8475 222.3797 L 374.0294 225.3914 L 368.8135 228.4032 L 363.6311 225.3914 L 368.8475 222.3797 Z" fill="#d4d4d4"/>
						<path d="M 449.7506 183.9284 L 454.9327 186.9403 L 449.7166 189.9523 L 444.5342 186.9403 L 449.7506 183.9284 Z" fill="#d4d4d4"/>
						<path d="M 443.0432 187.8011 L 448.2254 190.8131 L 443.0093 193.825 L 437.8269 190.8131 L 443.0432 187.8011 Z" fill="#d4d4d4"/>
						<path d="M 436.3371 191.6734 L 441.5195 194.6851 L 436.3032 197.6969 L 431.1208 194.6851 L 436.3371 191.6734 Z" fill="#d4d4d4"/>
						<path d="M 429.6308 195.5454 L 434.8132 198.5571 L 429.597 201.569 L 424.4146 198.5571 L 429.6308 195.5454 Z" fill="#d4d4d4"/>
						<path d="M 422.9237 199.4179 L 428.1056 202.4299 L 422.8897 205.4418 L 417.7073 202.4299 L 422.9237 199.4179 Z" fill="#d4d4d4"/>
						<path d="M 416.2173 203.2902 L 421.4 206.3019 L 416.1834 209.3137 L 411.0012 206.3019 L 416.2173 203.2902 Z" fill="#d4d4d4"/>
						<path d="M 409.5112 207.1622 L 414.6936 210.1741 L 409.4775 213.1857 L 404.2949 210.1741 L 409.5112 207.1622 Z" fill="#d4d4d4"/>
						<path d="M 402.8039 211.0349 L 407.9863 214.0469 L 402.7702 217.0585 L 397.5878 214.0469 L 402.8039 211.0349 Z" fill="#d4d4d4"/>
						<path d="M 396.0978 214.907 L 401.28 217.9189 L 396.0641 220.9309 L 390.8814 217.9187 L 396.0978 214.907 Z" fill="#d4d4d4"/>
						<path d="M 389.3914 218.779 L 394.5741 221.7912 L 389.3577 224.8025 L 384.1753 221.7909 L 389.3914 218.779 Z" fill="#d4d4d4"/>
						<path d="M 382.6844 222.6517 L 387.8668 225.6637 L 382.6504 228.6753 L 377.468 225.6637 L 382.6844 222.6517 Z" fill="#d4d4d4"/>
						<path d="M 375.9783 226.524 L 381.1602 229.5357 L 375.9443 232.5473 L 370.7619 229.5357 L 375.9783 226.524 Z" fill="#d4d4d4"/>
						<path d="M 456.8813 188.0727 L 462.0638 191.0846 L 456.8474 194.0966 L 451.665 191.0844 L 456.8813 188.0727 Z" fill="#d4d4d4"/>
						<path d="M 450.174 191.9454 L 455.3564 194.9572 L 450.14 197.969 L 444.9576 194.9572 L 450.174 191.9454 Z" fill="#d4d4d4"/>
						<path d="M 443.4677 195.8175 L 448.6501 198.8294 L 443.4339 201.841 L 438.2518 198.8294 L 443.4677 195.8175 Z" fill="#d4d4d4"/>
						<path d="M 436.7618 199.6897 L 441.9437 202.7014 L 436.7278 205.7133 L 431.5452 202.7014 L 436.7618 199.6897 Z" fill="#d4d4d4"/>
						<path d="M 430.0545 203.5622 L 435.2369 206.5742 L 430.0205 209.5858 L 424.8381 206.5742 L 430.0545 203.5622 Z" fill="#d4d4d4"/>
						<path d="M 423.3484 207.4342 L 428.5303 210.4462 L 423.3144 213.4581 L 418.132 210.4462 L 423.3484 207.4342 Z" fill="#d4d4d4"/>
						<path d="M 416.642 211.3065 L 421.8242 214.3182 L 416.608 217.33 L 411.4256 214.3182 L 416.642 211.3065 Z" fill="#d4d4d4"/>
						<path d="M 409.9347 215.1793 L 415.1169 218.191 L 409.9007 221.2028 L 404.7186 218.191 L 409.9347 215.1793 Z" fill="#d4d4d4"/>
						<path d="M 403.2286 219.051 L 408.411 222.0632 L 403.1946 225.0749 L 398.0122 222.063 L 403.2286 219.051 Z" fill="#d4d4d4"/>
						<path d="M 396.5225 222.9233 L 401.7046 225.9352 L 396.4885 228.9472 L 391.3061 225.9352 L 396.5225 222.9233 Z" fill="#d4d4d4"/>
						<path d="M 389.8152 226.796 L 394.9973 229.8077 L 389.7814 232.8196 L 384.5988 229.8077 L 389.8152 226.796 Z" fill="#d4d4d4"/>
						<path d="M 383.109 230.6681 L 388.2914 233.68 L 383.0751 236.6916 L 377.8927 233.68 L 383.109 230.6681 Z" fill="#d4d4d4"/>
						<path d="M 458.2301 218.3771 L 428.35 235.6296 C 428.2112 235.7098 427.9991 235.7186 427.8787 235.6491 L 409.1608 224.8416 C 409.0405 224.7719 409.0555 224.6497 409.1948 224.5694 L 439.0747 207.317 C 439.2137 207.2367 439.4258 207.2281 439.5462 207.2974 L 458.2638 218.1049 C 458.3842 218.1746 458.3691 218.2969 458.2301 218.3771 L 458.2301 218.3771 Z" fill="#d4d4d4"/>
						<path d="M 172.0231 212.0583 L 159.8659 254.1767 L 181.8852 241.4643 L 172.0231 212.0583 Z" fill="#122934"/>
						<path d="M 252.5372 228.7489 L 184.1814 268.2172 L 159.8658 254.1767 L 228.2211 214.7087 L 252.5372 228.7489 Z" fill="#00aa4b"/>
						<path d="M 252.4589 228.7489 L 184.1027 268.2172 L 172.023 212.0583 L 240.3793 172.5906 L 252.4589 228.7489 Z" fill="#00c748"/>
						<path d="M 204.8305 202.4025 L 205.4465 202.056 L 206.2787 205.7489 L 205.7986 206.02 L 205.3038 203.8261 C 205.2641 203.6485 205.2174 203.3716 205.1684 202.9984 L 205.1518 203.0073 C 205.1603 203.2437 205.1478 203.492 205.1179 203.7516 L 204.881 206.5386 L 204.5199 206.7409 L 203.2048 204.8279 C 203.0804 204.6293 202.9767 204.4464 202.8942 204.2769 L 202.8803 204.2861 C 202.9608 204.5501 203.0322 204.811 203.091 205.0729 L 203.5878 207.2675 L 203.1204 207.5312 L 202.2842 203.8346 L 202.9024 203.4872 L 204.3106 205.5135 C 204.3345 205.5669 204.3864 205.6512 204.4694 205.7647 C 204.4916 205.8194 204.5122 205.8545 204.5275 205.8719 C 204.5403 205.6793 204.5534 205.5104 204.5663 205.3687 L 204.8305 202.4025 Z" fill="#ffffff"/>
						<path d="M 207.5634 200.7865 C 208.5293 200.3235 209.1814 200.6737 209.5186 201.8337 C 209.7671 203.0862 209.3894 204.0122 208.3896 204.6175 C 207.3974 205.111 206.7454 204.7701 206.435 203.5915 C 206.2104 202.338 206.5856 201.4026 207.5634 200.7865 L 207.5634 200.7865 ZM 208.2624 204.1279 C 208.9227 203.7152 209.1637 203.0568 208.9851 202.1548 C 208.743 201.3287 208.3044 201.0522 207.6682 201.3292 C 207.0418 201.7502 206.8065 202.4048 206.9616 203.2949 C 207.1857 204.1466 207.6205 204.4224 208.2624 204.1279 L 208.2624 204.1279 Z" fill="#ffffff"/>
						<path d="M 212.4001 201.4725 L 212.3966 201.4556 C 212.3233 201.2285 212.265 201.015 212.219 200.8142 L 211.7106 198.5337 L 212.2043 198.2566 L 213.0245 201.9405 L 212.5187 202.226 C 211.6895 201.5192 211.0773 200.9966 210.688 200.6539 C 210.527 200.4912 210.3847 200.3298 210.2598 200.1728 L 210.2455 200.181 C 210.3222 200.3779 210.3928 200.6145 210.4537 200.887 L 210.9512 203.1112 L 210.4577 203.3892 L 209.6329 199.7028 L 210.1562 199.4088 C 210.9748 200.1119 211.5743 200.6361 211.9548 200.9819 C 212.1077 201.1104 212.255 201.2742 212.4001 201.4725 L 212.4001 201.4725 Z" fill="#ffffff"/>
						<path d="M 215.3333 197.0974 L 214.306 197.6764 L 215.0063 200.8228 L 214.4988 201.1083 L 213.8003 197.9607 L 212.7571 198.5479 L 212.6366 198.0139 L 215.2164 196.5641 L 215.3333 197.0974 Z" fill="#ffffff"/>
						<path d="M 217.6523 195.1923 L 218.1732 194.9001 L 218.9849 198.5773 L 218.4653 198.8687 L 218.1048 197.2358 L 216.6057 198.0817 L 216.9672 199.7159 L 216.4618 200.0002 L 215.6459 196.3215 L 216.1533 196.0365 L 216.4871 197.5479 L 217.9866 196.7038 L 217.6523 195.1923 Z" fill="#ffffff"/>
						<path d="M 233.092 194.141 L 188.5419 219.3717 L 188.3566 218.5683 L 232.921 193.3488 L 233.092 194.141 Z" fill="#ffffff"/>
						<path d="M 195.4446 223.3725 L 191.9871 225.3452 L 191.051 221.2831 L 194.5132 219.3159 L 195.4446 223.3725 Z" fill="#ffffff"/>
						<path d="M 201.8923 219.6944 L 198.4574 221.6532 L 197.5313 217.601 L 200.9713 215.6464 L 201.8923 219.6944 Z" fill="#ffffff"/>
						<path d="M 208.2963 216.0401 L 204.885 217.9861 L 203.9702 213.9429 L 207.3876 212.0016 L 208.2963 216.0401 Z" fill="#ffffff"/>
						<path d="M 214.66 212.4102 L 211.2705 214.3447 L 210.3666 210.3093 L 213.7611 208.3822 L 214.66 212.4102 Z" fill="#ffffff"/>
						<path d="M 220.9805 208.8052 L 217.6137 210.7247 L 216.7203 206.6995 L 220.0913 204.7847 L 220.9805 208.8052 Z" fill="#ffffff"/>
						<path d="M 227.2589 205.2232 L 223.9157 207.1298 L 223.031 203.1144 L 226.3809 201.2122 L 227.2589 205.2232 Z" fill="#ffffff"/>
						<path d="M 233.4963 201.6647 L 230.175 203.5593 L 229.3013 199.5531 L 232.6291 197.6627 L 233.4963 201.6647 Z" fill="#ffffff"/>
						<path d="M 197.1291 230.7224 L 193.6822 232.7028 L 192.7489 228.6575 L 196.2025 226.6814 L 197.1291 230.7224 Z" fill="#ffffff"/>
						<path d="M 203.5587 227.0261 L 200.1352 228.994 L 199.2131 224.9583 L 202.6413 222.995 L 203.5587 227.0261 Z" fill="#ffffff"/>
						<path d="M 209.9435 223.3567 L 206.5424 225.3105 L 205.6324 221.2842 L 209.0375 219.3339 L 209.9435 223.3567 Z" fill="#ffffff"/>
						<path d="M 216.2883 219.7099 L 212.9097 221.6515 L 212.0092 217.6329 L 215.3929 215.6975 L 216.2883 219.7099 Z" fill="#ffffff"/>
						<path d="M 222.5898 216.0869 L 219.2332 218.0166 L 218.3426 214.0082 L 221.7042 212.0842 L 222.5898 216.0869 Z" fill="#ffffff"/>
						<path d="M 228.8501 212.4889 L 225.5153 214.4059 L 224.6359 210.4069 L 227.9749 208.4942 L 228.8501 212.4889 Z" fill="#ffffff"/>
						<path d="M 235.069 208.9153 L 231.7566 210.8185 L 230.8869 206.8281 L 234.2057 204.9293 L 235.069 208.9153 Z" fill="#ffffff"/>
						<path d="M 198.8083 238.0381 L 195.3705 240.0272 L 194.4424 236.0002 L 197.8852 234.0153 L 198.8083 238.0381 Z" fill="#ffffff"/>
						<path d="M 205.2173 234.327 L 201.8033 236.3029 L 200.8863 232.2853 L 204.304 230.3129 L 205.2173 234.327 Z" fill="#ffffff"/>
						<path d="M 211.5838 230.6394 L 208.1936 232.6036 L 207.2871 228.5937 L 210.683 226.6353 L 211.5838 230.6394 Z" fill="#ffffff"/>
						<path d="M 217.9084 226.9773 L 214.5406 228.9277 L 213.6436 224.9274 L 217.0178 222.9819 L 217.9084 226.9773 Z" fill="#ffffff"/>
						<path d="M 224.1922 223.3392 L 220.8449 225.2761 L 219.9591 221.2848 L 223.3106 219.3524 L 224.1922 223.3392 Z" fill="#ffffff"/>
						<path d="M 230.4344 219.7245 L 227.1099 221.6499 L 226.2331 217.6674 L 229.5625 215.7469 L 230.4344 219.7245 Z" fill="#ffffff"/>
						<path d="M 236.6365 216.1332 L 233.3321 218.046 L 232.466 214.0714 L 235.7743 212.1643 L 236.6365 216.1332 Z" fill="#ffffff"/>
						<path d="M 200.4787 245.3235 L 197.0532 247.322 L 196.1281 243.311 L 199.5598 241.3193 L 200.4787 245.3235 Z" fill="#ffffff"/>
						<path d="M 206.8689 241.5968 L 203.4661 243.5811 L 202.5521 239.58 L 205.9601 237.5996 L 206.8689 241.5968 Z" fill="#ffffff"/>
						<path d="M 213.2178 237.8937 L 209.8359 239.8649 L 208.9328 235.8718 L 212.32 233.9055 L 213.2178 237.8937 Z" fill="#ffffff"/>
						<path d="M 219.5234 234.2144 L 216.1652 236.173 L 215.2709 232.19 L 218.6352 230.2355 L 219.5234 234.2144 Z" fill="#ffffff"/>
						<path d="M 225.7887 230.5596 L 222.4512 232.5064 L 221.5679 228.5307 L 224.9107 226.5896 L 225.7887 230.5596 Z" fill="#ffffff"/>
						<path d="M 232.0118 226.9293 L 228.6977 228.8632 L 227.8254 224.8964 L 231.1452 222.9686 L 232.0118 226.9293 Z" fill="#ffffff"/>
						<path d="M 238.1953 223.322 L 234.9016 225.243 L 234.0397 221.287 L 237.3375 219.3705 L 238.1953 223.322 Z" fill="#ffffff"/>
						<path d="M 202.1426 252.5775 L 198.7273 254.5843 L 197.8068 250.5915 L 201.2274 248.5895 L 202.1426 252.5775 Z" fill="#ffffff"/>
						<path d="M 208.5136 248.8346 L 205.1217 250.8272 L 204.211 246.8441 L 207.6101 244.855 L 208.5136 248.8346 Z" fill="#ffffff"/>
						<path d="M 214.8425 245.1153 L 211.4722 247.095 L 210.5724 243.1208 L 213.9498 241.1443 L 214.8425 245.1153 Z" fill="#ffffff"/>
						<path d="M 221.1304 241.4209 L 217.7832 243.3878 L 216.8926 239.4217 L 220.2475 237.4585 L 221.1304 241.4209 Z" fill="#ffffff"/>
						<path d="M 227.3768 237.75 L 224.0502 239.7046 L 223.1714 235.7475 L 226.5031 233.7958 L 227.3768 237.75 Z" fill="#ffffff"/>
						<path d="M 233.5824 234.1032 L 230.2785 236.0453 L 229.4084 232.0973 L 232.7179 230.1591 L 233.5824 234.1032 Z" fill="#ffffff"/>
						<path d="M 239.7484 230.4812 L 236.464 232.4102 L 235.6047 228.4695 L 238.8943 226.5449 L 239.7484 230.4812 Z" fill="#ffffff"/>
						<path d="M 394.2715 278.8333 C 394.2715 278.8333 382.0813 271.1422 377.2993 268.2735 C 372.5173 265.4046 367.8108 261.4325 367.8108 261.4325 C 367.8108 261.4325 371.4576 252.9492 379.3562 257.5287 C 387.255 262.1081 387.1436 261.1002 387.1436 261.1002 C 387.1436 261.1002 383.8409 259.6412 382.316 258.8932 C 382.316 258.8932 384.055 255.9059 386.2972 256.7208 C 388.5395 257.5357 391.2163 257.6034 392.7825 262.0433 C 394.3484 266.4829 399.7963 272.2229 400.3957 273.9091 L 394.2715 278.8333 Z" fill="#ffb187"/>
						<path d="M 507.3991 212.6723 C 507.3991 212.6723 495.209 204.9813 490.4269 202.1123 C 485.645 199.2434 480.9384 195.2715 480.9384 195.2715 C 480.9384 195.2715 484.5852 186.7883 492.484 191.3677 C 500.3826 195.9469 500.2712 194.9391 500.2712 194.9391 C 500.2712 194.9391 496.9685 193.4803 495.4438 192.7323 C 495.4438 192.7323 497.1826 189.7447 499.4248 190.5598 C 501.6671 191.3748 504.3441 191.4425 505.9101 195.8824 C 507.476 200.322 512.9239 206.0618 513.5233 207.7479 L 507.3991 212.6723 Z" fill="#ffb187"/>
						<path d="M 471.329 347.7068 L 530.2324 362.3976 L 529.3156 355.9604 L 471.329 347.7068 Z" fill="#122934"/>
						<path d="M 554.6673 114.3437 L 543.7228 107.9826 L 543.4529 6.5076 L 554.3979 12.8682 L 554.6673 114.3437 Z" fill="#cd00bc"/>
						<path d="M 554.3979 12.8682 L 543.4529 6.5076 L 554.7238 -0.0002 L 565.6691 6.3605 L 554.3979 12.8682 Z" fill="#f700be"/>
						<path d="M 565.6693 6.3606 L 565.9387 107.8359 L 554.6673 114.3436 L 554.3979 12.8683 L 565.6693 6.3606 Z" fill="#b200bd"/>
						<path d="M 538.9686 123.4081 L 528.0236 117.0473 L 527.7921 35.5352 L 538.7369 41.8959 L 538.9686 123.4081 Z" fill="#00c748"/>
						<path d="M 538.7372 41.8959 L 527.7924 35.5352 L 539.0635 29.0272 L 550.0083 35.3884 L 538.7372 41.8959 Z" fill="#00aa4b"/>
						<path d="M 550.0083 35.3881 L 550.2396 116.9 L 538.9686 123.4079 L 538.7372 41.8958 L 550.0083 35.3881 Z" fill="#00914c"/>
						<path d="M 523.2671 132.4739 L 512.3226 126.1128 L 512.1313 58.9135 L 523.0766 65.2741 L 523.2671 132.4739 Z" fill="#00c748"/>
						<path d="M 523.0766 65.2741 L 512.1316 58.9134 L 523.4047 52.4044 L 534.3497 58.7655 L 523.0766 65.2741 Z" fill="#00aa4b"/>
						<path d="M 534.3497 58.7654 L 534.5405 125.9652 L 523.2668 132.4739 L 523.0766 65.2741 L 534.3497 58.7654 Z" fill="#00914c"/>
						<path d="M 507.5682 141.5381 L 496.6232 135.177 L 496.4565 44.8831 L 507.401 51.2434 L 507.5682 141.5381 Z" fill="#00c748"/>
						<path d="M 507.401 51.2435 L 496.4565 44.8829 L 507.7296 38.3741 L 518.6744 44.7349 L 507.401 51.2435 Z" fill="#00aa4b"/>
						<path d="M 518.6744 44.7347 L 518.8414 135.0294 L 507.5682 141.5381 L 507.401 51.2434 L 518.6744 44.7347 Z" fill="#00914c"/>
						<path d="M 491.8691 150.6028 L 480.9241 144.242 L 480.7984 99.8 L 491.7432 106.1609 L 491.8691 150.6028 Z" fill="#00c748"/>
						<path d="M 491.7432 106.1609 L 480.7984 99.8 L 492.0695 93.2922 L 503.0143 99.653 L 491.7432 106.1609 Z" fill="#00aa4b"/>
						<path d="M 503.0143 99.653 L 503.14 144.0949 L 491.8691 150.6028 L 491.7432 106.1609 L 503.0143 99.653 Z" fill="#00914c"/>
						<path d="M 476.1698 159.6673 L 465.225 153.3064 L 465.1393 123.0539 L 476.0844 129.415 L 476.1698 159.6673 Z" fill="#00c748"/>
						<path d="M 476.0844 129.415 L 465.1393 123.054 L 476.4102 116.5462 L 487.355 122.907 L 476.0844 129.415 Z" fill="#00aa4b"/>
						<path d="M 487.3553 122.9069 L 487.4409 153.1594 L 476.1698 159.6672 L 476.0844 129.4148 L 487.3553 122.9069 Z" fill="#00914c"/>
						<path d="M 586.0015 220.8826 C 586.0015 220.8826 524.6549 210.2668 513.7684 207.2633 L 508.1453 212.3908 C 508.1453 212.3908 558.1207 247.2377 576.4532 249.9113 C 594.786 252.5847 586.0015 220.8826 586.0015 220.8826 L 586.0015 220.8826 Z" fill="#f700be"/>
						<path d="M 548.959 197.2779 L 552.8898 225.127 L 581.921 216.4598 L 571.9758 186.6215 L 548.959 197.2779 Z" fill="#ffb187"/>
						<path d="M 555.5496 324.7603 C 555.5496 324.7603 502.6288 318.3898 492.8286 318.3898 C 483.0283 318.3898 473.2284 326.231 469.7983 335.0513 C 466.3677 343.8719 508.5088 485.4943 508.5088 485.4943 L 524.6792 481.084 C 524.6792 481.084 514.3887 383.0755 513.409 372.7845 C 512.4289 362.494 588.8703 408.5575 588.8703 408.5575 L 555.5496 324.7603 Z" fill="#122934"/>
						<path d="M 543.7895 217.9315 C 543.7895 217.9315 526.639 230.6728 523.2091 233.6129 C 519.779 236.5533 514.8788 267.9158 517.819 286.0474 C 520.7587 304.179 531.5392 363.9641 532.0294 379.1552 C 532.0294 379.1552 589.8504 405.6176 626.111 374.2549 C 626.111 374.2549 625.621 266.9355 618.7608 240.9635 C 611.9006 214.9912 604.0605 207.1506 597.2003 205.6804 C 590.3403 204.2102 566.8198 208.1306 543.7895 217.9315 L 543.7895 217.9315 Z" fill="#f700be"/>
						<path d="M 524.4365 232.4872 C 524.4365 232.4872 512.5922 241.1269 500.5054 247.0073 C 488.4184 252.8881 458.9173 282.4053 450.4237 286.3257 C 435.3968 281.4255 399.9793 273.3002 399.9793 273.3002 C 399.9793 273.3002 395.0798 277.2947 393.4462 279.2547 C 393.4462 279.2547 437.2049 306.4449 450.9251 309.3851 C 464.6452 312.3257 510.8549 290.9068 524.3798 282.1044 C 542.2813 270.453 544.3634 260.5831 524.4365 232.4872 L 524.4365 232.4872 Z" fill="#f700be"/>
						<path d="M 626.1107 374.2551 L 548.2029 368.2456 C 518.9852 357.1484 462.0931 346.304 443.8278 340.932 C 418.8374 333.5811 402.6673 358.0837 402.6673 364.4539 C 402.6673 370.8241 458.0379 523.2275 458.0379 523.2275 L 475.6783 516.3666 C 475.6783 516.3666 457.5023 408.5444 454.0717 401.1935 L 565.2636 440.4566 C 601.9275 454.8771 621.3743 421.7889 626.2745 409.0477 C 631.1747 396.3063 626.1107 374.2551 626.1107 374.2551 L 626.1107 374.2551 Z" fill="#122934"/>
						<path d="M 541.4019 166.8056 C 541.4019 166.8056 538.4921 179.9002 538.2275 183.339 C 537.9631 186.7785 545.105 200.7988 548.0146 202.1215 C 550.7924 202.1215 562.299 198.815 566.0023 195.3759 C 569.7056 191.9367 564.944 160.8537 564.944 160.8537 L 553.5699 157.8114 L 541.4019 166.8056 Z" fill="#ffb187"/>
						<path d="M 539.2858 169.4511 C 539.2858 169.4511 545.502 168.5249 547.618 167.467 C 547.618 167.467 544.973 179.1066 546.8245 181.752 C 546.8245 181.752 549.0728 176.5935 551.5859 179.9005 C 554.0987 183.207 551.1891 186.9109 551.1891 186.9109 C 551.1891 186.9109 555.4215 196.037 559.9184 196.4339 C 564.415 196.831 576.1863 196.831 576.1863 196.831 C 576.1863 196.831 575.525 190.3497 576.7156 187.5718 C 577.9058 184.7943 584.9155 167.467 577.6411 159.2665 C 570.3669 151.0658 562.5634 149.7426 553.3052 152.5205 C 544.0469 155.2984 534.7887 161.6472 539.2858 169.4511 L 539.2858 169.4511 Z" fill="#122934"/>
						<path d="M 475.4646 518.0989 C 475.4646 518.0989 452.8742 531.4554 450.6006 532.5917 C 450.6006 532.5917 450.6327 535.4311 455.6035 534.1099 C 460.0918 532.9164 466.7645 530.3192 466.7645 530.3192 L 471.7777 527.2905 L 472.6829 528.7898 C 474.2464 528.1023 477.3465 525.9888 477.3465 524.8287 C 477.3465 523.3314 475.4646 518.0989 475.4646 518.0989 L 475.4646 518.0989 Z" fill="#122934"/>
						<path d="M 525.6416 485.5654 C 525.6416 485.5654 499.8842 490.7598 497.36 491.0874 C 497.36 491.0874 496.4584 493.773 501.5957 494.1542 C 506.2336 494.4979 513.3995 494.2333 513.3995 494.2333 L 519.1367 493.0202 L 519.5012 494.7287 C 521.2061 494.592 524.8331 493.6147 525.2136 492.5217 C 525.7052 491.1107 525.6416 485.5654 525.6416 485.5654 L 525.6416 485.5654 Z" fill="#122934"/>
						<path d="M 604.1251 574.6563 C 604.1251 570.0715 607.8415 566.3548 612.4257 566.3548 C 617.0102 566.3548 620.7272 570.0715 620.7272 574.6563 C 620.7272 579.2408 617.0102 582.9575 612.4257 582.9575 C 607.8415 582.9575 604.1251 579.2408 604.1251 574.6563 L 604.1251 574.6563 Z" fill="#122934"/>
						<path d="M 518.5627 517.6708 C 518.5627 513.086 522.2792 509.3693 526.8637 509.3693 C 531.4482 509.3693 535.1653 513.086 535.1653 517.6708 C 535.1653 522.2556 531.4482 525.9722 526.8637 525.9722 C 522.2792 525.9722 518.5627 522.2556 518.5627 517.6708 L 518.5627 517.6708 Z" fill="#122934"/>
						<path d="M 673.6893 521.9852 C 673.6893 517.4004 677.4058 513.6837 681.9902 513.6837 C 686.5746 513.6837 690.2914 517.4004 690.2914 521.9852 C 690.2914 526.5699 686.5746 530.2867 681.9902 530.2867 C 677.4058 530.2867 673.6893 526.5699 673.6893 521.9852 L 673.6893 521.9852 Z" fill="#122934"/>
						<path d="M 690.7005 265.6761 L 592.2722 322.5077 L 601.4048 327.7805 L 699.8336 270.9491 L 690.7005 265.6761 Z" fill="#00a1e3"/>
						<path d="M 527.2318 519.0587 C 526.7882 519.0587 526.3371 518.9636 525.9086 518.7628 C 524.3465 518.0304 523.6741 516.171 524.4059 514.6088 C 524.5324 514.3399 527.5795 507.9651 534.9319 503.3949 C 541.7231 499.1727 591.1489 483.6152 596.7623 481.855 C 598.4088 481.3388 600.1608 482.255 600.6768 483.9006 C 601.1932 485.547 600.2771 487.2996 598.6313 487.8158 C 576.8895 494.6331 542.8622 505.8203 538.2297 508.7002 C 532.5248 512.2468 530.0848 517.2109 530.062 517.2601 C 529.5306 518.3935 528.4058 519.0587 527.2318 519.0587 L 527.2318 519.0587 Z" fill="#122934"/>
						<path d="M 612.2566 573.8263 C 610.539 573.8263 609.1425 572.4384 609.1337 570.719 C 608.8978 525.3039 601.3564 485.4011 601.2803 485.0031 C 600.9558 483.3092 602.0663 481.6728 603.7603 481.3478 C 605.4522 481.0255 607.0907 482.1334 607.4152 483.828 C 607.4923 484.2309 615.1417 524.6712 615.38 570.6865 C 615.3887 572.4117 613.9977 573.8176 612.2729 573.8263 L 612.2566 573.8263 Z" fill="#122934"/>
						<path d="M 685.6023 519.015 L 679.3582 518.8463 L 679.3572 518.9089 C 679.3529 518.6194 679.116 511.7527 667.4222 505.905 C 653.8738 499.1305 608.8369 483.9331 608.3836 483.7805 C 606.749 483.2298 605.8701 481.458 606.421 479.8233 C 606.9716 478.1888 608.743 477.3103 610.3776 477.8604 C 612.2452 478.4895 656.2808 493.35 670.2158 500.3177 C 685.7173 508.0688 685.6144 518.5718 685.6023 519.015 L 685.6023 519.015 Z" fill="#122934"/>
						<path d="M 610.432 475.8459 L 495.8588 409.6925 L 511.737 400.5244 L 626.3102 466.6778 L 610.432 475.8459 Z" fill="#00a1e3"/>
						<path d="M 495.8588 409.6925 L 495.8588 431.8044 L 598.2828 493.2417 L 598.2828 468.2533 L 495.8588 409.6925 Z" fill="#00a1e3"/>
						<path d="M 592.272 322.5077 L 572.4716 402.4431 L 585.4139 488.7303 L 597.3353 495.4072 L 583.9759 402.4431 L 601.405 327.7807 L 592.272 322.5077 Z" fill="#00a1e3"/>
						<path d="M 699.8336 270.9489 L 682.2404 355.9439 L 696.6206 438.8752 L 597.3353 495.4074 L 583.9759 402.4433 L 601.4053 327.7805 L 699.8336 270.9489 Z" fill="#1989bb"/>
					</g>
				</g>
			</g>
		</g>
	</g>
</svg>