<svg width="793" height="499" viewBox="0 0 793 499" fill="none" xmlns="http://www.w3.org/2000/svg">
<path d="M194.65 1.01427V1.03177e-05H0L96.9869 56.7992L194.65 1.01427Z" transform="translate(90.5127 206.526)" fill="white" stroke="#007699" stroke-width="2" stroke-linecap="round"/>
<path d="M194.65 55.7849V56.7992H5.15646e-06L96.9869 0L194.65 55.7849Z" transform="translate(90.1724 149.728)" fill="#007699" stroke="#007699" stroke-width="2" stroke-linecap="round"/>
<path d="M114.559 -5.15885e-06H1.03129e-05V136.927H114.559V-5.15885e-06Z" transform="translate(130.388 138.232)" fill="white" stroke="#007699" stroke-width="2" stroke-linecap="round"/>
<path d="M114.559 -5.15885e-06H1.03129e-05V136.927H114.559V-5.15885e-06Z" transform="translate(130.388 138.232)" stroke="#007699" stroke-width="2" stroke-miterlimit="10" stroke-linecap="round"/>
<path d="M0.675867 1.03177e-05H1.03129e-05V112.584L97.6628 56.7992L0.675867 1.03177e-05Z" transform="translate(89.8359 206.526)" fill="#BDD8E4" stroke="#007699" stroke-width="2" stroke-linecap="round"/>
<path d="M97.6628 -5.15885e-06L-1.03129e-05 55.785L96.9869 112.584H97.6628V-5.15885e-06Z" transform="translate(187.5 207.541)" fill="#BDD8E4" stroke="#007699" stroke-width="2" stroke-linecap="round"/>
<path d="M1.03129e-05 55.785V56.7992H194.65L97.6628 2.06354e-05L42.2417 31.7805L1.03129e-05 55.785Z" transform="translate(89.8359 263.325)" fill="#BDD8E4" stroke="#007699" stroke-width="2" stroke-linecap="round"/>
<path d="M0 0L40.2141 23.3282" transform="translate(244.272 296.797)" stroke="#007699" stroke-width="2" stroke-miterlimit="10" stroke-linecap="round"/>
<path d="M5.15646e-06 1.03177e-05L78.7385 46.3184" transform="translate(90.1724 206.526)" stroke="#007699" stroke-width="2" stroke-miterlimit="10" stroke-linecap="round"/>
<path d="M-1.03129e-05 22.6521L40.552 0" transform="translate(204.397 230.869)" stroke="#007699" stroke-width="2" stroke-miterlimit="10" stroke-linecap="round"/>
<path d="M5.15646e-06 25.0187L42.5796 0" transform="translate(90.1724 295.106)" stroke="#007699" stroke-width="2" stroke-miterlimit="10" stroke-linecap="round"/>
<path d="M11.8277 132.87H32.4416L32.7795 19.2712L1.03129e-05 -5.15885e-06" transform="translate(252.044 187.255)" stroke="#007699" stroke-width="2" stroke-miterlimit="10" stroke-linecap="round"/>
<path d="M31.7657 1.03177e-05L0.337939 18.595L1.03129e-05 131.179L20.6139 131.517" transform="translate(89.8359 187.932)" stroke="#007699" stroke-width="2" stroke-miterlimit="10" stroke-linecap="round"/>
<path d="M5.15646e-06 1.52588e-06H68.2626" transform="translate(154.38 173.056)" stroke="#007699" stroke-width="2" stroke-miterlimit="10" stroke-linecap="round"/>
<path d="M5.15646e-06 -3.05176e-06H68.2626" transform="translate(154.38 197.736)" stroke="#007699" stroke-width="2" stroke-miterlimit="10" stroke-linecap="round"/>
<path d="M5.15646e-06 1.52588e-06H68.2626" transform="translate(154.38 222.079)" stroke="#007699" stroke-width="2" stroke-miterlimit="10" stroke-linecap="round"/>
<path d="M136.525 67.9562V63.8991C136.525 59.842 133.484 56.7992 129.429 56.7992H118.277C116.925 51.0517 114.559 45.6422 111.518 40.909L119.291 33.1329C121.994 30.4281 121.994 25.6949 119.291 22.9901L113.546 17.2426C110.842 14.5379 106.111 14.5379 103.408 17.2426L95.6352 25.0187C90.9041 21.9759 85.4972 19.6093 79.7523 18.2569V7.0999C79.7523 3.04281 76.373 -2.06354e-05 72.6557 -2.06354e-05H64.2074C60.1521 -2.06354e-05 57.1108 3.3809 57.1108 7.0999V18.2569C51.3659 19.6093 46.2969 21.6378 41.2279 24.6806L33.4554 16.9045C30.752 14.1998 26.0209 14.1998 23.3174 16.9045L17.2346 22.6521C14.5311 25.3568 14.5311 30.0901 17.2346 32.7948L25.0071 40.5708C21.9657 45.3041 19.6002 50.7136 18.2484 56.4611H7.0966C3.0414 56.4611 5.15646e-06 59.5039 5.15646e-06 63.561V67.9562H45.621C45.621 55.4468 55.7591 45.3041 68.2626 45.3041C80.7661 45.3041 90.9041 55.4468 90.9041 67.9562H136.525Z" transform="translate(118.897 255.889)" fill="white" stroke="#007699" stroke-width="2" stroke-linecap="round"/>
<path d="M45.2831 67.9562C45.2831 55.4468 55.4211 45.3041 67.9246 45.3041C80.4282 45.3041 90.5662 55.4468 90.5662 67.9562M136.525 67.9562V63.8991C136.525 59.842 133.484 56.7992 129.429 56.7992H118.277C116.925 51.0517 114.559 45.6422 111.518 40.909L119.291 33.1329C121.994 30.4281 121.994 25.6949 119.291 22.9901L113.546 17.2426C110.842 14.5379 106.111 14.5379 103.408 17.2426L95.6352 25.0187C90.9041 21.9759 85.4972 19.6093 79.7523 18.2569V7.0999C79.7523 3.04281 76.373 -2.06354e-05 72.6557 -2.06354e-05H64.2073C60.1521 -2.06354e-05 57.1108 3.3809 57.1108 7.0999V18.2569C51.3659 19.6093 46.2969 21.6378 41.2279 24.6806L33.4554 16.9045C30.752 14.1998 26.0209 14.1998 23.3174 16.9045L17.2346 22.6521C14.5311 25.3568 14.5311 30.0901 17.2346 32.7948L25.0071 40.5708C21.9657 45.3041 19.6002 50.7136 18.2484 56.4611H7.0966C3.0414 56.4611 5.15646e-06 59.5039 5.15646e-06 63.561V67.9562H136.525Z" transform="translate(118.897 255.889)" stroke="#007699" stroke-width="2" stroke-miterlimit="10" stroke-linecap="round"/>
<path d="M8.78628 108.865H122.67C127.401 108.865 131.456 105.146 131.456 100.075V8.79036C131.456 4.05709 127.739 1.03177e-05 122.67 1.03177e-05H8.78628C4.05521 1.03177e-05 -1.03129e-05 3.719 -1.03129e-05 8.79036V100.075C-1.03129e-05 105.146 3.71728 108.865 8.78628 108.865Z" transform="translate(52.0278 323.305)" fill="white" stroke="#007699" stroke-width="2" stroke-linecap="round"/>
<path d="M-1.03129e-05 37.5281L45.2831 9.8046L77.0488 28.3996L103.746 0L131.118 31.1043V46.9946H-1.03129e-05V37.5281Z" transform="translate(52.0269 359.48)" fill="#BDD8E4" stroke="#007699" stroke-width="2" stroke-linecap="round"/>
<path d="M104.084 -6.10352e-06H-1.03129e-05" transform="translate(52.0269 406.475)" stroke="#007699" stroke-width="2" stroke-miterlimit="10" stroke-linecap="round"/>
<path d="M131.118 31.1043L103.746 0L77.0488 28.3996L45.2831 9.8046L-1.03129e-05 37.5281" transform="translate(52.0269 359.48)" stroke="#007699" stroke-width="2" stroke-miterlimit="10" stroke-linecap="round"/>
<path d="M5.15646e-06 5.40944C5.15646e-06 8.45225 2.36553 10.8189 5.40694 10.8189C8.44834 10.8189 10.8139 8.45225 10.8139 5.40944C10.8139 2.36662 8.44834 2.06354e-05 5.40694 2.06354e-05C2.36553 2.06354e-05 5.15646e-06 2.36662 5.15646e-06 5.40944Z" transform="translate(108.462 339.533)" fill="white" stroke="#007699" stroke-width="2" stroke-linecap="round"/>
<path d="M5.15646e-06 5.40944C5.15646e-06 8.45225 2.36553 10.8189 5.40694 10.8189C8.44834 10.8189 10.8139 8.45225 10.8139 5.40944C10.8139 2.36662 8.44834 2.06354e-05 5.40694 2.06354e-05C2.36553 2.06354e-05 5.15646e-06 2.36662 5.15646e-06 5.40944Z" transform="translate(108.462 339.533)" fill="#007699" stroke="#007699" stroke-width="2" stroke-miterlimit="10" stroke-linecap="round"/>
<path d="M30.0761 6.10352e-06H0" transform="translate(134.144 339.533)" stroke="#007699" stroke-width="2" stroke-miterlimit="10" stroke-linecap="round"/>
<path d="M30.0761 -3.05176e-06H0" transform="translate(145.972 348.323)" stroke="#007699" stroke-width="2" stroke-miterlimit="10" stroke-linecap="round"/>
<path d="M56.4349 1.52588e-06H-1.03129e-05" transform="translate(102.717 323.643)" stroke="#007699" stroke-width="2" stroke-miterlimit="10" stroke-linecap="round"/>
<path d="M-1.03129e-05 -1.03177e-05V49.6993C-1.03129e-05 55.4468 4.73107 60.5182 10.8139 60.5182H120.642C126.387 60.5182 131.456 55.7849 131.456 49.6993" transform="translate(52.0269 371.99)" stroke="#007699" stroke-width="2" stroke-miterlimit="10" stroke-linecap="round"/>
<path d="M95.9731 92.2987L91.242 67.28C93.9455 61.1944 95.2973 54.7707 95.2973 47.6708C95.2973 21.2997 74.0074 5.15885e-06 47.6486 5.15885e-06C21.2898 5.15885e-06 -5.15646e-06 21.2997 -5.15646e-06 47.6708C-5.15646e-06 74.0418 21.2898 95.3415 47.6486 95.3415C57.1108 95.3415 65.5591 92.6368 72.9936 87.9035L95.9731 92.2987Z" transform="translate(1 267.857)" fill="#BDD8E4" stroke="#007699" stroke-width="2" stroke-linecap="round"/>
<path d="M66.5729 4.05708C60.828 1.35236 54.4073 5.15885e-06 47.6486 5.15885e-06C21.2898 5.15885e-06 2.57823e-06 21.2997 2.57823e-06 47.6708C2.57823e-06 74.0418 21.2898 95.3415 47.6486 95.3415C57.1108 95.3415 65.5591 92.6368 72.9936 87.9035L95.9731 91.9606L91.242 66.9419C93.9455 60.8563 95.2973 54.4326 95.2973 47.3327C95.2973 35.8376 91.2421 25.3568 84.8213 17.2426" transform="translate(1.33691 267.857)" stroke="#007699" stroke-width="2" stroke-miterlimit="10" stroke-linecap="round"/>
<path d="M10.138 7.77608C7.09661 4.73326 3.71728 2.02855 1.03129e-05 1.03177e-05" transform="translate(72.6426 274.281)" stroke="#007699" stroke-width="2" stroke-miterlimit="10" stroke-linecap="round"/>
<path d="M36.8348 71.6752C57.178 71.6752 73.6695 55.6302 73.6695 35.8376C73.6695 16.045 57.178 5.15885e-06 36.8348 5.15885e-06C16.4915 5.15885e-06 0 16.045 0 35.8376C0 55.6302 16.4915 71.6752 36.8348 71.6752Z" transform="translate(12.4912 279.69)" fill="white" stroke="#007699" stroke-width="2" stroke-linecap="round"/>
<path d="M45.2831 1.03177e-05C45.2831 6.08564 42.9176 11.8332 38.5244 15.8903C34.4692 19.9473 28.7243 22.6521 22.6415 22.6521C16.5587 22.6521 10.8139 20.2854 6.75867 15.8903C2.70347 11.8332 5.15646e-06 6.08564 5.15646e-06 1.03177e-05" transform="translate(27.3584 319.923)" stroke="#007699" stroke-width="2" stroke-miterlimit="10" stroke-linecap="round"/>
<path d="M12.1656 0C12.1656 1.69045 11.4897 3.04282 10.4759 4.39519C9.46214 5.40946 7.77247 6.08564 6.0828 6.08564C4.39313 6.08564 3.04141 5.40946 1.68968 4.39519C0.675877 3.38092 1.03129e-05 1.69045 1.03129e-05 0" transform="translate(32.0908 302.004)" stroke="#007699" stroke-width="2" stroke-miterlimit="10" stroke-linecap="round"/>
<path d="M12.1656 0C12.1656 1.69045 11.4897 3.04282 10.4759 4.39519C9.46214 5.40946 7.77247 6.08564 6.0828 6.08564C4.39313 6.08564 3.04141 5.40946 1.68968 4.39519C0.675877 3.38092 1.03129e-05 1.69045 1.03129e-05 0" transform="translate(55.7466 302.004)" stroke="#007699" stroke-width="2" stroke-miterlimit="10" stroke-linecap="round"/>
<path opacity="0.3" d="M28.0485 100.413H25.6829V85.5369V69.6467L27.7105 67.9562L25.6829 65.9276V11.4951C25.6829 6.76183 21.9657 2.70472 16.8967 2.70472H1.35174V-1.03177e-05H0.337928L0 109.203H3.71726L4.05519 109.879L5.069 109.203H22.9795V107.513H25.6829C27.3726 105.146 28.0485 102.779 28.0485 100.413Z" transform="translate(157.803 322.177)" fill="#E8ECF0"/>
<path d="M202.084 324.229V12.1713C202.084 5.40945 196.677 5.15885e-06 189.919 5.15885e-06H12.1656C5.40692 5.15885e-06 -4.12516e-05 5.40945 -4.12516e-05 12.1713V324.229H202.084Z" transform="translate(545.12 97.4932)" fill="#BDD8E4" stroke="#007699" stroke-width="2" stroke-linecap="round"/>
<path d="M171.332 324.229V12.1713C171.332 5.40945 166.601 5.15885e-06 161.194 5.15885e-06H10.138C4.39314 5.15885e-06 0 5.40945 0 12.1713V324.229H171.332Z" transform="translate(559.314 97.4932)" fill="white" stroke="#007699" stroke-width="2" stroke-linecap="round"/>
<path d="M-4.12516e-05 31.1043V10.1427C-4.12516e-05 4.39518 4.39309 0 10.138 0H191.946C197.691 0 202.084 4.39518 202.084 10.1427V31.1043H-4.12516e-05Z" transform="translate(545.12 97.8311)" fill="#BDD8E4" stroke="#007699" stroke-width="2" stroke-linecap="round"/>
<path d="M-4.12516e-05 230.916V10.1427C-4.12516e-05 4.39518 4.39309 0 10.138 0H31.4278H37.1726" transform="translate(545.12 97.8311)" stroke="#007699" stroke-width="2" stroke-miterlimit="10" stroke-linecap="round"/>
<path d="M2.06258e-05 0H119.628C125.373 0 129.766 4.39518 129.766 10.1427V234.635" transform="translate(617.099 97.8311)" stroke="#007699" stroke-width="2" stroke-miterlimit="10" stroke-linecap="round"/>
<path d="M2.06258e-05 0H13.8553" transform="translate(591.754 97.8311)" stroke="#007699" stroke-width="2" stroke-miterlimit="10" stroke-linecap="round"/>
<path d="M-4.12516e-05 3.05176e-06H202.084" transform="translate(545.12 129.273)" stroke="#007699" stroke-width="2" stroke-miterlimit="10" stroke-linecap="round"/>
<path d="M4.12517e-05 -1.52588e-06H4.73109" transform="translate(568.439 115.074)" stroke="#007699" stroke-width="2" stroke-miterlimit="10" stroke-linecap="round"/>
<path d="M4.12517e-05 -1.52588e-06H4.73109" transform="translate(581.956 115.074)" stroke="#007699" stroke-width="2" stroke-miterlimit="10" stroke-linecap="round"/>
<path d="M4.12517e-05 -1.52588e-06H4.73109" transform="translate(595.474 115.074)" stroke="#007699" stroke-width="2" stroke-miterlimit="10" stroke-linecap="round"/>
<path d="M147.677 -1.03177e-05H-4.12516e-05V58.4897H147.677V-1.03177e-05Z" transform="translate(572.155 152.602)" fill="#BDD8E4" stroke="#007699" stroke-width="2" stroke-linecap="round"/>
<path d="M44.9452 0H-4.12516e-05V58.4897H44.9452V0Z" transform="translate(572.155 248.281)" fill="#D7DFE4" stroke="#007699" stroke-width="2" stroke-linecap="round"/>
<path d="M44.9451 0H0V58.4897H44.9451V0Z" transform="translate(623.521 248.281)" fill="#BDD8E4" stroke="#007699" stroke-width="2" stroke-linecap="round"/>
<path d="M44.9452 0H-4.12516e-05V58.4897H44.9452V0Z" transform="translate(675.225 248.281)" fill="#BDD8E4" stroke="#007699" stroke-width="2" stroke-linecap="round"/>
<path d="M-2.06258e-05 0H62.8556" transform="translate(614.733 229.687)" stroke="#007699" stroke-width="2" stroke-miterlimit="10" stroke-linecap="round"/>
<path d="M342.665 203.531H2.06258e-05V17.2426C2.06258e-05 7.77609 7.77246 1.03177e-05 17.2346 1.03177e-05H325.092C334.554 1.03177e-05 342.327 7.77609 342.327 17.2426V203.531H342.665Z" transform="translate(224.229 125.757)" fill="#BDD8E4" stroke="#007699" stroke-width="2" stroke-linecap="round"/>
<path d="M2.06258e-05 111.232V16.5664C2.06258e-05 7.43799 7.43454 -1.03177e-05 16.5587 -1.03177e-05H88.8765" transform="translate(224.229 125.419)" stroke="#007699" stroke-width="2" stroke-miterlimit="10" stroke-linecap="round"/>
<path d="M0 -1.03177e-05H72.9937C82.1179 -1.03177e-05 89.5524 7.43799 89.5524 16.5664V115.965" transform="translate(477.342 125.419)" stroke="#007699" stroke-width="2" stroke-miterlimit="10" stroke-linecap="round"/>
<path d="M305.492 -5.15885e-06H2.06258e-05V160.931H305.492V-5.15885e-06Z" transform="translate(242.815 145.367)" fill="white" stroke="#007699" stroke-width="2" stroke-linecap="round"/>
<path d="M103.07 2.06354e-05H0V61.1944H103.07V2.06354e-05Z" transform="translate(343.858 360.054)" fill="#BDD8E4" stroke="#007699" stroke-width="2" stroke-linecap="round"/>
<path d="M103.07 2.06354e-05H0V30.4282H103.07V2.06354e-05Z" transform="translate(343.858 360.054)" fill="#007699"/>
<path d="M103.07 2.06354e-05H0V61.1944H103.07V2.06354e-05Z" transform="translate(343.858 360.054)" stroke="#007699" stroke-width="2" stroke-miterlimit="10" stroke-linecap="round"/>
<path d="M342.665 1.03177e-05H2.06258e-05V39.5566C2.06258e-05 43.2756 3.04142 46.3184 6.75869 46.3184H335.568C339.285 46.3184 342.327 43.2756 342.327 39.5566V1.03177e-05H342.665Z" transform="translate(224.229 321.85)" fill="white" stroke="#007699" stroke-width="2" stroke-linecap="round"/>
<path d="M2.06258e-05 0H217.629" transform="translate(288.436 368.168)" stroke="#007699" stroke-width="2" stroke-miterlimit="10" stroke-linecap="round"/>
<path d="M217.629 3.05176e-06H2.06258e-05" transform="translate(288.436 321.85)" stroke="#007699" stroke-width="2" stroke-miterlimit="10" stroke-linecap="round"/>
<path d="M2.06258e-05 0H144.636" transform="translate(323.919 422.264)" stroke="#007699" stroke-width="2" stroke-miterlimit="10" stroke-linecap="round"/>
<path d="M15.5449 15.2141C15.5449 19.6092 12.1656 22.9902 7.77246 22.9902C3.37932 22.9902 -2.06258e-05 19.6092 -2.06258e-05 15.2141V7.77608C-2.06258e-05 3.38091 3.37932 2.57943e-06 7.77246 2.57943e-06C12.1656 2.57943e-06 15.5449 3.38091 15.5449 7.77608V15.2141Z" transform="translate(321.556 100.062)" fill="white" stroke="#007699" stroke-width="2" stroke-linecap="round"/>
<path d="M15.5449 15.2141C15.5449 19.6092 12.1656 22.9902 7.77246 22.9902C3.37932 22.9902 -2.06258e-05 19.6092 -2.06258e-05 15.2141V7.77608C-2.06258e-05 3.38091 3.37932 2.57943e-06 7.77246 2.57943e-06C12.1656 2.57943e-06 15.5449 3.38091 15.5449 7.77608V15.2141Z" transform="translate(321.556 100.062)" stroke="#007699" stroke-width="2" stroke-miterlimit="10" stroke-linecap="round"/>
<path d="M15.545 15.2141C15.545 19.6092 12.1656 22.9902 7.77247 22.9902C3.37933 22.9902 -1.03129e-05 19.6092 -1.03129e-05 15.2141V7.77608C-1.03129e-05 3.38091 3.37933 2.57943e-06 7.77247 2.57943e-06C12.1656 2.57943e-06 15.545 3.38091 15.545 7.77608V15.2141Z" transform="translate(456.052 100.062)" fill="white" stroke="#007699" stroke-width="2" stroke-linecap="round"/>
<path d="M15.545 15.2141C15.545 19.6092 12.1656 22.9902 7.77247 22.9902C3.37933 22.9902 -1.03129e-05 19.6092 -1.03129e-05 15.2141V7.77608C-1.03129e-05 3.38091 3.37933 2.57943e-06 7.77247 2.57943e-06C12.1656 2.57943e-06 15.545 3.38091 15.545 7.77608V15.2141Z" transform="translate(456.052 100.062)" stroke="#007699" stroke-width="2" stroke-miterlimit="10" stroke-linecap="round"/>
<path d="M164.236 131.517V70.6609C164.236 31.7805 127.401 0 82.1179 0C36.8348 0 0 31.7805 0 70.6609V131.517H164.236Z" transform="translate(313.444 175.457)" fill="white" stroke="#007699" stroke-width="2" stroke-linecap="round"/>
<path d="M2.36552 5.15885e-06C0.675857 5.40945 0 10.8189 0 16.5664V77.4227" transform="translate(313.444 229.213)" stroke="#007699" stroke-width="2" stroke-miterlimit="10" stroke-linecap="round"/>
<path d="M15.207 1.03177e-05C9.12418 5.40946 3.71725 11.8332 -2.06258e-05 18.595" transform="translate(321.556 196.756)" stroke="#007699" stroke-width="2" stroke-miterlimit="10" stroke-linecap="round"/>
<path d="M128.753 131.517V70.6609C128.753 31.7805 91.9179 0 46.6348 0C29.4002 0 13.5173 4.73326 0 12.5093" transform="translate(348.927 175.457)" stroke="#007699" stroke-width="2" stroke-miterlimit="10" stroke-linecap="round"/>
<path d="M62.5177 197.107C28.0485 197.107 0 169.045 0 134.56V62.5468C0 28.0615 28.0485 5.15885e-06 62.5177 5.15885e-06C96.9869 5.15885e-06 125.035 28.0615 125.035 62.5468V134.56C125.035 168.707 96.9869 197.107 62.5177 197.107Z" transform="translate(333.72 11.1445)" fill="#BDD8E4" stroke="#007699" stroke-width="2" stroke-linecap="round"/>
<path d="M62.5177 197.107C28.0485 197.107 0 169.045 0 134.56V62.5468C0 28.0615 28.0485 5.15885e-06 62.5177 5.15885e-06C96.9869 5.15885e-06 125.035 28.0615 125.035 62.5468V134.56C125.035 168.707 96.9869 197.107 62.5177 197.107Z" transform="translate(333.72 11.1445)" stroke="#007699" stroke-width="2" stroke-miterlimit="10" stroke-linecap="round"/>
<path d="M58.1911 101.765C29.1288 101.765 -0.947269 125.094 0.0665316 102.103V58.1516C0.0665316 29.0758 -2.63693 2.57943e-06 26.4254 2.57943e-06H84.5499C113.612 2.57943e-06 115.978 29.0758 115.978 64.5753V101.765C116.316 123.741 98.4052 103.794 58.1911 101.765Z" transform="translate(338.046 25.6826)" fill="white" stroke="#007699" stroke-width="2" stroke-linecap="round"/>
<path d="M36.4968 -1.03177e-05C36.4968 10.1427 28.3864 18.2569 18.2484 18.2569C8.1104 18.2569 2.06258e-05 10.1427 2.06258e-05 -1.03177e-05H36.4968Z" transform="translate(377.988 145.704)" fill="white" stroke="#007699" stroke-width="2" stroke-linecap="round"/>
<path d="M36.4968 -1.03177e-05C36.4968 10.1427 28.3864 18.2569 18.2484 18.2569C8.1104 18.2569 2.06258e-05 10.1427 2.06258e-05 -1.03177e-05H36.4968Z" transform="translate(377.988 145.704)" stroke="#007699" stroke-width="2" stroke-miterlimit="10" stroke-linecap="round"/>
<path d="M15.207 92.9749C6.75868 92.9749 1.03129e-05 86.2131 1.03129e-05 77.7608V41.247C1.03129e-05 28.7377 10.138 18.595 22.6415 18.595C22.6415 8.11418 31.0899 2.57943e-06 41.2279 2.57943e-06H133.484C145.987 2.57943e-06 156.125 10.1427 156.125 22.6521V77.0846C156.125 85.1988 149.367 91.6225 141.256 91.2844V55.1088C141.256 55.1088 130.78 72.0133 98.0007 72.0133C58.4625 72.0133 32.4416 52.404 32.4416 52.404C32.4416 52.404 30.0761 57.8135 24.6692 62.5467C19.9381 66.9419 14.8691 65.2515 14.8691 65.2515V92.9749H15.207Z" transform="translate(317.836 5.39648)" fill="#BDD8E4" stroke="#007699" stroke-width="2" stroke-linecap="round"/>
<path d="M141.256 55.4468V91.6225C149.367 91.9606 156.125 85.5369 156.125 77.4227V22.6521C156.125 10.1427 145.987 -5.15885e-06 133.484 -5.15885e-06H41.2279C30.7519 -5.15885e-06 22.6415 8.45226 22.6415 18.595C10.138 18.595 1.03129e-05 28.7377 1.03129e-05 41.247V77.7608C1.03129e-05 86.2131 6.75868 92.9749 15.207 92.9749V65.2515C15.207 65.2515 20.276 66.9419 25.0071 62.5467C30.414 57.8135 32.7795 52.404 32.7795 52.404" transform="translate(317.836 5.05859)" stroke="#007699" stroke-width="2" stroke-miterlimit="10" stroke-linecap="round"/>
<path d="M-2.06258e-05 5.15885e-06C-2.06258e-05 5.15885e-06 34.8071 25.6949 74.3454 25.6949C107.125 25.6949 121.994 3.04281 121.994 3.04281" transform="translate(341.832 51.7148)" stroke="#007699" stroke-width="2" stroke-miterlimit="10" stroke-linecap="round"/>
<path d="M16.2208 2.57943e-06C14.1932 2.02855 11.4898 3.38091 8.11043 3.38091C5.06902 3.38091 2.02759 2.02855 -1.03129e-05 2.57943e-06" transform="translate(361.431 93.3008)" stroke="#007699" stroke-width="2" stroke-miterlimit="10" stroke-linecap="round"/>
<path d="M-2.06258e-05 7.62939e-07H12.5036" transform="translate(416.177 94.9912)" stroke="#007699" stroke-width="2" stroke-miterlimit="10" stroke-linecap="round"/>
<path d="M0 -5.15885e-06V28.0615H25.683" transform="translate(387.789 89.5811)" stroke="#007699" stroke-width="2" stroke-miterlimit="10" stroke-linecap="round"/>
<path d="M-1.03129e-05 -1.52588e-06H33.1175" transform="translate(344.534 253.555)" stroke="#007699" stroke-width="2" stroke-miterlimit="10" stroke-linecap="round"/>
<path d="M10.8139 5.40945C10.8139 8.45226 8.44836 10.8189 5.40696 10.8189C2.36556 10.8189 0 8.45226 0 5.40945C0 2.36663 2.36556 5.15885e-06 5.40696 5.15885e-06C8.44836 5.15885e-06 10.8139 2.36663 10.8139 5.40945Z" transform="translate(391.168 252.879)" stroke="#007699" stroke-width="2" stroke-miterlimit="10" stroke-linecap="round"/>
<path d="M10.8139 5.40945C10.8139 8.45227 8.44836 10.8189 5.40696 10.8189C2.36556 10.8189 0 8.45227 0 5.40945C0 2.36664 2.36556 1.03177e-05 5.40696 1.03177e-05C8.44836 1.03177e-05 10.8139 2.36664 10.8139 5.40945Z" transform="translate(391.168 279.588)" stroke="#007699" stroke-width="2" stroke-miterlimit="10" stroke-linecap="round"/>
<path d="M1.03129e-05 53.7564V36.1757L42.2417 0" transform="translate(395.561 192.361)" stroke="#007699" stroke-width="2" stroke-miterlimit="10" stroke-linecap="round"/>
<path d="M-1.03129e-05 0L45.959 31.7805" transform="translate(354.672 192.361)" stroke="#007699" stroke-width="2" stroke-miterlimit="10" stroke-linecap="round"/>
<path d="M-1.03129e-05 5.40945V60.1801C-1.03129e-05 63.2229 2.36554 65.5896 5.40695 65.5896H8.44833V76.7466V97.7082C8.44833 98.7224 9.80008 99.3986 10.4759 98.3843L37.8485 65.5896H114.897C117.939 65.5896 120.304 63.2229 120.304 60.1801V5.40945C120.304 2.36663 117.939 5.15885e-06 114.897 5.15885e-06H5.40695C2.36554 5.15885e-06 -1.03129e-05 2.36663 -1.03129e-05 5.40945Z" transform="translate(498.295 1)" fill="white" stroke="#007699" stroke-width="2" stroke-linecap="round"/>
<path d="M-1.03129e-05 5.40945V60.1801C-1.03129e-05 63.2229 2.36554 65.5896 5.40695 65.5896H8.44833V76.7465V97.7082C8.44833 98.7224 9.80008 99.3986 10.4759 98.3843L37.8485 65.5896H114.897C117.939 65.5896 120.304 63.2229 120.304 60.1801V5.40945C120.304 2.36663 117.939 5.15885e-06 114.897 5.15885e-06H5.40695C2.36554 5.15885e-06 -1.03129e-05 2.36663 -1.03129e-05 5.40945Z" transform="translate(498.295 1)" stroke="#007699" stroke-width="2" stroke-miterlimit="10" stroke-linecap="round"/>
<path d="M2.06258e-05 -1.52588e-06H66.9108" transform="translate(524.993 18.5811)" stroke="#007699" stroke-width="2" stroke-miterlimit="10" stroke-linecap="round"/>
<path d="M2.06258e-05 1.52588e-06H66.9108" transform="translate(524.993 33.1182)" stroke="#007699" stroke-width="2" stroke-miterlimit="10" stroke-linecap="round"/>
<path d="M2.06258e-05 7.62939e-07H36.1588" transform="translate(524.993 47.6562)" stroke="#007699" stroke-width="2" stroke-miterlimit="10" stroke-linecap="round"/>
<path d="M121.994 84.1845H2.36549C1.01376 84.1845 2.06258e-05 83.1703 2.06258e-05 81.8179V2.36664C2.06258e-05 1.01428 1.01376 2.06354e-05 2.36549 2.06354e-05H121.994C123.346 2.06354e-05 124.36 1.01428 124.36 2.36664V81.8179C124.36 83.1703 123.346 84.1845 121.994 84.1845Z" transform="translate(638.197 338.077)" fill="white" stroke="#007699" stroke-width="2" stroke-linecap="round"/>
<path d="M2.06258e-05 -3.05176e-06H60.828" transform="translate(661.853 338.414)" stroke="#007699" stroke-width="2" stroke-miterlimit="10" stroke-linecap="round"/>
<path d="M124.022 2.06354e-05V40.5709C124.022 42.2613 122.67 43.6137 120.98 43.6137H3.04142C1.35175 43.6137 4.12516e-05 42.2613 4.12516e-05 40.5709" transform="translate(638.534 378.647)" stroke="#007699" stroke-width="2" stroke-miterlimit="10" stroke-linecap="round"/>
<path d="M22.6415 15.0912L2.70345 26.5863C1.35171 27.2624 2.06258e-05 26.2482 2.06258e-05 24.8958V1.9057C2.06258e-05 0.553339 1.68965 -0.460932 2.70345 0.215249L22.6415 11.7103C23.6553 12.3865 23.6553 14.415 22.6415 15.0912Z" transform="translate(688.887 358.147)" fill="#BDD8E4" stroke="#007699" stroke-width="2" stroke-linecap="round"/>
<path d="M22.6415 15.0912L2.70345 26.5863C1.35171 27.2624 2.06258e-05 26.2482 2.06258e-05 24.8958V1.9057C2.06258e-05 0.553339 1.68965 -0.460932 2.70345 0.215249L22.6415 11.7103C23.6553 12.3865 23.6553 14.415 22.6415 15.0912Z" transform="translate(688.887 358.147)" fill="#007699" stroke="#0A576E" stroke-width="2" stroke-miterlimit="10" stroke-linecap="round"/>
<path d="M-4.12517e-05 0H95.2973" transform="translate(652.391 407.047)" stroke="#007699" stroke-width="2" stroke-miterlimit="10" stroke-linecap="round"/>
<path d="M6.10352e-06 15.2141V-1.03177e-05" transform="translate(673.68 399.271)" stroke="#007699" stroke-width="2" stroke-miterlimit="10" stroke-linecap="round"/>
<path d="M-2.06258e-05 97.3701L4.73103 70.999C2.02756 64.9134 0.337934 57.8135 0.337934 50.3755C0.337934 22.6521 22.6415 5.15885e-06 50.69 5.15885e-06C78.4006 5.15885e-06 101.042 22.314 101.042 50.3755C101.042 78.0989 78.7385 100.751 50.69 100.751C40.8899 100.751 31.7657 98.0462 23.9933 92.9749L-2.06258e-05 97.3701Z" transform="translate(733.832 271.473)" fill="#BDD8E4" stroke="#007699" stroke-width="2" stroke-linecap="round"/>
<path d="M30.7519 4.05708C36.8348 1.35235 43.5934 0 50.69 0C78.4006 0 101.042 22.314 101.042 50.3755C101.042 78.0989 78.7385 100.751 50.69 100.751C40.8899 100.751 31.7657 98.0463 23.9933 92.9749L-2.06258e-05 97.3701L4.73103 70.999C2.02756 64.9134 0.337934 57.8135 0.337934 50.3755C0.337934 38.5423 4.39309 27.3853 11.4897 18.9331" transform="translate(733.832 271.811)" stroke="#007699" stroke-width="2" stroke-miterlimit="10" stroke-linecap="round"/>
<path d="M-2.06258e-05 8.11418C3.04138 5.07137 6.75867 2.36664 10.4759 5.15885e-06" transform="translate(749.039 278.234)" stroke="#007699" stroke-width="2" stroke-miterlimit="10" stroke-linecap="round"/>
<path d="M38.8623 75.7323C60.3254 75.7323 77.7247 58.779 77.7247 37.8661C77.7247 16.9533 60.3254 -5.15885e-06 38.8623 -5.15885e-06C17.3992 -5.15885e-06 -2.06258e-05 16.9533 -2.06258e-05 37.8661C-2.06258e-05 58.779 17.3992 75.7323 38.8623 75.7323Z" transform="translate(745.659 283.981)" fill="white" stroke="#007699" stroke-width="2" stroke-linecap="round"/>
<path d="M4.12516e-05 17.5807L27.0347 -5.15885e-06" transform="translate(770.332 302.576)" stroke="#007699" stroke-width="2" stroke-miterlimit="10" stroke-linecap="round"/>
<path d="M27.3727 18.9331L2.06258e-05 2.06354e-05" transform="translate(769.992 322.861)" stroke="#007699" stroke-width="2" stroke-miterlimit="10" stroke-linecap="round"/>
<path d="M7.11992 -5.15885e-06C11.1751 -5.15885e-06 14.2165 3.3809 14.2165 7.09989C14.2165 11.157 10.8372 14.1998 7.11992 14.1998C3.06472 14.1998 0.0232936 10.8189 0.0232936 7.09989C-0.31464 3.0428 3.06472 -5.15885e-06 7.11992 -5.15885e-06Z" transform="translate(760.507 314.409)" fill="#D7DFE4" stroke="#007699" stroke-width="2" stroke-linecap="round"/>
<path d="M7.11992 -5.15885e-06C11.1751 -5.15885e-06 14.2165 3.3809 14.2165 7.09989C14.2165 11.157 10.8372 14.1998 7.11992 14.1998C3.06472 14.1998 0.0232936 10.8189 0.0232936 7.09989C-0.31464 3.0428 3.06472 -5.15885e-06 7.11992 -5.15885e-06Z" transform="translate(760.507 314.409)" stroke="#007699" stroke-width="2" stroke-miterlimit="10" stroke-linecap="round"/>
<path d="M7.09664 0C11.1518 0 14.1932 3.3809 14.1932 7.0999C14.1932 11.157 10.8139 14.1998 7.09664 14.1998C3.04144 14.1998 2.06258e-05 10.8189 2.06258e-05 7.0999C2.06258e-05 3.04281 3.04144 0 7.09664 0Z" transform="translate(790.268 295.477)" fill="#D7DFE4" stroke="#007699" stroke-width="2" stroke-linecap="round"/>
<path d="M7.09664 0C11.1518 0 14.1932 3.3809 14.1932 7.0999C14.1932 11.157 10.8139 14.1998 7.09664 14.1998C3.04144 14.1998 2.06258e-05 10.8189 2.06258e-05 7.0999C2.06258e-05 3.04281 3.04144 0 7.09664 0Z" transform="translate(790.268 295.477)" stroke="#007699" stroke-width="2" stroke-miterlimit="10" stroke-linecap="round"/>
<path d="M7.09664 1.03177e-05C11.1518 1.03177e-05 14.1932 3.38088 14.1932 7.09988C14.1932 11.157 10.8139 14.1998 7.09664 14.1998C3.04144 14.1998 2.06258e-05 10.8189 2.06258e-05 7.09988C2.06258e-05 3.38088 3.04144 1.03177e-05 7.09664 1.03177e-05Z" transform="translate(790.268 333.681)" fill="#D7DFE4" stroke="#007699" stroke-width="2" stroke-linecap="round"/>
<path d="M7.09664 1.03177e-05C11.1518 1.03177e-05 14.1932 3.38088 14.1932 7.09988C14.1932 11.157 10.8139 14.1998 7.09664 14.1998C3.04144 14.1998 2.06258e-05 10.8189 2.06258e-05 7.09988C2.06258e-05 3.38088 3.04144 1.03177e-05 7.09664 1.03177e-05Z" transform="translate(790.268 333.681)" stroke="#007699" stroke-width="2" stroke-miterlimit="10" stroke-linecap="round"/>
<path d="M104.421 177.159H6.75869C3.04142 177.159 2.06258e-05 174.117 2.06258e-05 170.398V6.76181C2.06258e-05 3.04281 3.04142 -5.15885e-06 6.75869 -5.15885e-06H104.421C108.139 -5.15885e-06 111.18 3.04281 111.18 6.76181V170.398C111.18 174.117 108.139 177.159 104.421 177.159Z" transform="translate(166.779 320.841)" fill="white" stroke="#007699" stroke-width="2" stroke-linecap="round"/>
<path d="M38.1865 -5.15885e-06H101.042C106.449 -5.15885e-06 110.842 4.39518 110.842 9.80463V167.017C110.842 172.426 106.449 176.821 101.042 176.821H9.80007C4.39314 176.821 2.06258e-05 172.426 2.06258e-05 167.017V9.80463C2.06258e-05 4.39518 4.39314 -5.15885e-06 9.80007 -5.15885e-06H15.8829" transform="translate(166.779 320.841)" stroke="#007699" stroke-width="2" stroke-miterlimit="10" stroke-linecap="round"/>
<path d="M0 -1.52588e-06H12.5035" transform="translate(188.409 320.84)" stroke="#007699" stroke-width="2" stroke-miterlimit="10" stroke-linecap="round"/>
<path d="M-1.03129e-05 -1.52588e-06H32.7795" transform="translate(205.979 334.363)" stroke="#007699" stroke-width="2" stroke-miterlimit="10" stroke-linecap="round"/>
<path d="M10.8139 5.40944C10.8139 8.45225 8.44834 10.8189 5.40694 10.8189C2.36553 10.8189 -2.06258e-05 8.45225 -2.06258e-05 5.40944C-2.06258e-05 2.36662 2.36553 2.06354e-05 5.40694 2.06354e-05C8.44834 0.338111 10.8139 2.70471 10.8139 5.40944Z" transform="translate(216.793 478.053)" stroke="#007699" stroke-width="2" stroke-miterlimit="10" stroke-linecap="round"/>
<path d="M88.8765 -1.03177e-05H-2.06258e-05V125.432H88.8765V-1.03177e-05Z" transform="translate(177.931 346.534)" fill="#BDD8E4" stroke="#007699" stroke-width="2" stroke-linecap="round"/>
<path opacity="0.3" d="M53.7314 123.065C57.4487 123.065 60.4901 120.022 60.4901 116.303V84.1845V76.7466V-5.15885e-06H12.5035C5.74483 -5.15885e-06 2.06258e-05 5.40946 2.06258e-05 12.5094V123.065H53.7314Z" transform="translate(506.403 245.102)" fill="#E8ECF0"/>
<path opacity="0.3" d="M28.0484 76.7466V-2.06354e-05H25.683V2.36665H4.73105C3.37931 2.36665 2.36558 3.38092 2.36558 4.73328V83.1703H0C0 86.2131 2.70351 88.9178 5.74491 88.9178H16.2208C22.6415 89.2559 28.0484 83.5084 28.0484 76.7466Z" transform="translate(636.171 335.71)" fill="#B2C0CE"/>
<path d="M132.808 174.793H6.75863C3.04136 174.793 -4.12516e-05 171.75 -4.12516e-05 168.031V6.76182C-4.12516e-05 3.04282 3.04136 1.03177e-05 6.75863 1.03177e-05H132.808C136.525 1.03177e-05 139.567 3.04282 139.567 6.76182V168.031C139.567 171.75 136.525 174.793 132.808 174.793Z" transform="translate(515.527 247.47)" fill="white" stroke="#007699" stroke-width="2" stroke-linecap="round"/>
<path d="M116.587 5.15885e-06H129.429C134.835 5.15885e-06 139.229 4.39519 139.229 9.80464V164.988C139.229 170.398 134.835 174.793 129.429 174.793H9.80011C4.39318 174.793 -4.12516e-05 170.398 -4.12516e-05 164.988V9.80464C-4.12516e-05 4.39519 4.39318 5.15885e-06 9.80011 5.15885e-06H93.6076" transform="translate(515.528 247.807)" stroke="#007699" stroke-width="2" stroke-miterlimit="10" stroke-linecap="round"/>
<path d="M2.06258e-05 1.52588e-06H11.8277" transform="translate(616.231 247.807)" stroke="#007699" stroke-width="2" stroke-miterlimit="10" stroke-linecap="round"/>
<path d="M2.06258e-05 -3.05176e-06H32.4417" transform="translate(568.92 260.655)" stroke="#007699" stroke-width="2" stroke-miterlimit="10" stroke-linecap="round"/>
<path d="M10.8139 5.40946C10.8139 8.45227 8.44832 10.8189 5.40692 10.8189C2.36551 10.8189 -4.12516e-05 8.45227 -4.12516e-05 5.40946C-4.12516e-05 2.36664 2.36551 -1.03177e-05 5.40692 -1.03177e-05C8.44832 -1.03177e-05 10.8139 2.36664 10.8139 5.40946Z" transform="translate(579.735 402.653)" stroke="#007699" stroke-width="2" stroke-miterlimit="10" stroke-linecap="round"/>
<path d="M117.263 1.03177e-05H2.06258e-05V123.741H117.263V1.03177e-05Z" transform="translate(526.679 272.827)" fill="#BDD8E4" stroke="#007699" stroke-width="2" stroke-linecap="round"/>
<path d="M4.12516e-05 13.8617H1.35175C2.36556 10.8189 3.71731 6.76182 3.37938 4.39518C3.37938 3.38091 3.37938 1.35236 3.37938 -5.15885e-06C3.37938 0.338085 3.37938 0.676186 3.37938 1.01428C3.37938 5.07136 4.12516e-05 13.8617 4.12516e-05 13.8617Z" transform="translate(594.606 304.268)" fill="#F1F2F2" stroke="#007699" stroke-width="2" stroke-linecap="round"/>
<path d="M2.06258e-05 8.11416H7.09664C9.46218 8.11416 11.1518 6.08563 11.1518 4.05709C11.1518 1.69045 9.12425 1.03177e-05 7.09664 1.03177e-05H2.06258e-05" transform="translate(614.542 330.301)" stroke="#007699" stroke-width="2" stroke-miterlimit="10" stroke-linecap="round"/>
<path d="M0 8.11416H10.138C12.5035 8.11416 14.1932 6.08563 14.1932 4.05709C14.1932 1.69045 12.1656 1.03177e-05 10.138 1.03177e-05H0" transform="translate(607.447 338.753)" stroke="#007699" stroke-width="2" stroke-miterlimit="10" stroke-linecap="round"/>
<path d="M30.414 -1.03177e-05H34.4693C36.8348 -1.03177e-05 38.5244 2.02852 38.5244 4.05707C38.5244 6.4237 36.4969 8.11419 34.4693 8.11419H10.476C9.46216 8.11419 8.4483 7.77607 7.77243 6.7618L3.37934 2.70472C2.70347 2.02854 2.02756 1.69044 1.01376 1.69044H0" transform="translate(578.723 346.867)" stroke="#007699" stroke-width="2" stroke-miterlimit="10" stroke-linecap="round"/>
<path d="M30.414 28.9067H43.2554C45.621 28.9067 47.3107 26.8782 47.3107 24.8497C47.3107 22.483 45.283 20.7926 43.2554 20.7926H27.3726H17.2346C17.2346 20.7926 20.614 12.0022 20.614 7.94513C20.614 5.91658 20.9519 2.1976 19.9381 0.507146C19.6001 -0.169035 16.2208 -0.169035 15.545 0.507146C15.545 0.507146 12.5035 10.3118 10.138 13.3546C8.78627 15.045 4.39309 20.7926 4.39309 20.7926H0" transform="translate(577.033 301.056)" stroke="#007699" stroke-width="2" stroke-miterlimit="10" stroke-linecap="round"/>
<path d="M-4.12517e-05 1.52588e-06H4.73111" transform="translate(554.391 317.115)" stroke="#007699" stroke-width="2" stroke-miterlimit="10" stroke-linecap="round"/>
<path d="M14.8691 5.15885e-06H19.9381C21.9657 5.15885e-06 23.3175 1.69046 23.3175 3.38091V32.1186C23.3175 34.1471 21.6278 35.4995 19.9381 35.4995H-4.12516e-05" transform="translate(554.391 317.115)" stroke="#007699" stroke-width="2" stroke-miterlimit="10" stroke-linecap="round"/>
<path d="M2.06258e-05 1.52588e-06H5.40698" transform="translate(560.473 317.115)" stroke="#007699" stroke-width="2" stroke-miterlimit="10" stroke-linecap="round"/>
<path d="M10.8139 14.876H-4.12516e-05V-2.06354e-05H10.138L14.1932 9.46652C15.207 12.1712 13.5173 14.876 10.8139 14.876Z" transform="translate(458.367 430.857)" fill="white" stroke="#007699" stroke-width="2" stroke-linecap="round"/>
<path d="M10.8139 14.876H-4.12516e-05V-2.06354e-05H10.138L14.1932 9.46652C15.207 12.1712 13.5173 14.876 10.8139 14.876Z" transform="translate(458.367 430.857)" stroke="#007699" stroke-width="2" stroke-miterlimit="10" stroke-linecap="round"/>
<path d="M26.0209 40.2328H13.1794C11.4898 40.2328 10.138 39.2185 9.80011 37.528L-4.12516e-05 2.06354e-05H19.9381L29.4002 35.8376C30.0761 38.2042 28.3864 40.2328 26.0209 40.2328Z" transform="translate(441.47 433.225)" fill="#BDD8E4" stroke="#007699" stroke-width="2" stroke-linecap="round"/>
<path d="M26.0209 40.2328H13.1794C11.4898 40.2328 10.138 39.2185 9.80011 37.528L-4.12517e-05 2.06354e-05H19.9381L29.4002 35.8376C30.0761 38.2042 28.3864 40.2328 26.0209 40.2328Z" transform="translate(441.47 433.225)" stroke="#007699" stroke-width="2" stroke-miterlimit="10" stroke-linecap="round"/>
<path d="M60.4901 74.1721L0 58.6199V15.6824L60.4901 0.130316C63.1935 -0.545865 65.897 1.48264 65.897 4.52545V70.115C66.235 72.8198 63.5315 74.8483 60.4901 74.1721Z" transform="translate(475.94 375.619)" fill="white" stroke="#007699" stroke-width="2" stroke-linecap="round"/>
<path d="M0 6.08561L66.235 22.9901V16.9045L0 2.06354e-05V6.08561Z" transform="translate(475.94 416.319)" fill="#BDD8E4" stroke="#007699" stroke-width="2" stroke-linecap="round"/>
<path d="M27.7106 13.8617C27.7106 21.2997 21.6278 27.7234 13.8553 27.7234C6.42076 27.7234 0 21.6378 0 13.8617C0 6.42374 6.08282 0 13.8553 0C21.6278 0 27.7106 6.08565 27.7106 13.8617Z" transform="translate(416.802 399.077)" fill="white" stroke="#007699" stroke-width="2" stroke-linecap="round"/>
<path d="M27.7106 13.8617C27.7106 21.2997 21.6278 27.7234 13.8553 27.7234C6.42076 27.7234 0 21.6378 0 13.8617C0 6.42374 6.08282 0 13.8553 0C21.6278 0 27.7106 6.08565 27.7106 13.8617Z" transform="translate(416.802 399.077)" stroke="#007699" stroke-width="2" stroke-miterlimit="10" stroke-linecap="round"/>
<path d="M49.3383 3.19304L61.5039 0.150245C63.8695 -0.525936 65.897 1.16452 65.897 3.53115V71.1493C65.897 73.5159 63.5315 75.2063 61.5039 74.5302L0 58.6399V15.7024L27.0347 8.60251" transform="translate(475.94 375.261)" stroke="#007699" stroke-width="2" stroke-miterlimit="10" stroke-linecap="round"/>
<path d="M-4.12516e-05 2.36662L8.4483 0" transform="translate(509.057 380.482)" stroke="#007699" stroke-width="2" stroke-miterlimit="10" stroke-linecap="round"/>
<path d="M46.9728 -1.03177e-05H2.06258e-05V42.9375H46.9728V-1.03177e-05Z" transform="translate(430.656 391.301)" fill="white"/>
<path d="M46.9728 -1.03177e-05H2.06258e-05V17.5807H46.9728V-1.03177e-05Z" transform="translate(430.656 416.658)" fill="#BDD8E4"/>
<path d="M46.9728 42.9375H6.08278C2.70345 42.9375 2.06258e-05 40.2328 2.06258e-05 36.8519V6.08563C2.06258e-05 2.70472 2.70345 -1.03177e-05 6.08278 -1.03177e-05H46.9728V42.9375Z" transform="translate(430.656 391.301)" stroke="#007699" stroke-width="2" stroke-miterlimit="10" stroke-linecap="round"/>
<path d="M8.11041 1.03177e-05C8.11041 1.35237 7.09662 2.36663 5.74489 2.36663H2.36556C1.01382 2.36663 -2.06258e-05 1.35237 -2.06258e-05 1.03177e-05" transform="translate(220.172 449.99)" stroke="#007699" stroke-width="2" stroke-miterlimit="10" stroke-linecap="round"/>
<path d="M6.42074 9.80463C2.36553 14.5379 2.06258e-05 20.6235 2.06258e-05 27.3853C2.06258e-05 37.528 5.40693 46.3184 13.8553 51.0517V78.0989L17.9105 85.5369H36.8348L41.5658 78.0989V51.0517C49.6762 46.3184 55.4211 37.528 55.4211 27.3853C55.4211 12.1712 43.2555 -5.15885e-06 28.0485 -5.15885e-06C24.3312 -5.15885e-06 20.9519 0.676171 17.9105 2.02853" transform="translate(197.194 361.411)" stroke="#007699" stroke-width="2" stroke-miterlimit="10" stroke-linecap="round"/>
<path d="M4.73109 -5.15885e-06C2.70349 1.35236 2.02759 1.69045 -1.03129e-05 3.3809" transform="translate(205.979 364.792)" stroke="#007699" stroke-width="2" stroke-miterlimit="10" stroke-linecap="round"/>
<path d="M-2.06258e-05 -3.05176e-06H35.821" transform="translate(206.655 420.915)" stroke="#007699" stroke-width="2" stroke-miterlimit="10" stroke-linecap="round"/>
<path d="M-2.06258e-05 0H35.821" transform="translate(206.655 427.001)" stroke="#007699" stroke-width="2" stroke-miterlimit="10" stroke-linecap="round"/>
<path d="M-2.06258e-05 -6.10352e-06H35.821" transform="translate(206.655 433.425)" stroke="#007699" stroke-width="2" stroke-miterlimit="10" stroke-linecap="round"/>
<path d="M-2.06258e-05 -3.05176e-06H35.821" transform="translate(206.655 439.511)" stroke="#007699" stroke-width="2" stroke-miterlimit="10" stroke-linecap="round"/>
<path d="M12.5035 4.05709L4.0552 12.5093L1.0138 9.46656C-0.337931 8.11419 -0.337931 5.74756 1.0138 4.3952L4.39314 1.01429C5.74487 -0.33807 8.11041 -0.33807 9.46214 1.01429L12.5035 4.05709Z" transform="translate(178.585 60.6055)" fill="#BDD8E4" stroke="#007699" stroke-width="2" stroke-linecap="round"/>
<path d="M12.5035 4.05709L4.0552 12.5093L1.0138 9.46656C-0.337931 8.11419 -0.337931 5.74756 1.0138 4.3952L4.39314 1.01429C5.74487 -0.33807 8.11041 -0.33807 9.46214 1.01429L12.5035 4.05709Z" transform="translate(178.585 60.6055)" stroke="#007699" stroke-width="2" stroke-miterlimit="10" stroke-linecap="round"/>
<path d="M8.44834 12.5093L0 4.05708L3.04141 1.01428C4.39314 -0.33808 6.75867 -0.33808 8.11041 1.01428L11.4897 4.39519C12.8415 5.74755 12.8415 8.11418 11.4897 9.46655L8.44834 12.5093Z" transform="translate(251.581 59.5918)" fill="#BDD8E4" stroke="#007699" stroke-width="2" stroke-linecap="round"/>
<path d="M8.44834 12.5093L0 4.05708L3.04141 1.01428C4.39314 -0.33808 6.75867 -0.33808 8.11041 1.01428L11.4897 4.39519C12.8415 5.74755 12.8415 8.11418 11.4897 9.46655L8.44834 12.5093Z" transform="translate(251.581 59.5918)" stroke="#007699" stroke-width="2" stroke-miterlimit="10" stroke-linecap="round"/>
<path d="M2.57823e-06 8.45228L8.44834 2.06354e-05L11.4897 3.04281C12.8415 4.39518 12.8415 6.76181 11.4897 8.11417L8.1104 11.4951C6.75866 12.8474 4.39313 12.8474 3.0414 11.4951L2.57823e-06 8.45228Z" transform="translate(252.254 132.619)" fill="#BDD8E4" stroke="#007699" stroke-width="2" stroke-linecap="round"/>
<path d="M2.57823e-06 8.45228L8.44834 2.06354e-05L11.4897 3.04281C12.8415 4.39518 12.8415 6.76181 11.4897 8.11417L8.1104 11.4951C6.75866 12.8474 4.39313 12.8474 3.0414 11.4951L2.57823e-06 8.45228Z" transform="translate(252.254 132.619)" stroke="#007699" stroke-width="2" stroke-miterlimit="10" stroke-linecap="round"/>
<path d="M4.0552 1.03177e-05L12.5035 8.45227L9.46214 11.4951C8.11041 12.8474 5.74487 12.8474 4.39314 11.4951L1.0138 8.11416C-0.337935 6.7618 -0.337935 4.39517 1.0138 3.0428L4.0552 1.03177e-05Z" transform="translate(179.262 133.295)" fill="#BDD8E4" stroke="#007699" stroke-width="2" stroke-linecap="round"/>
<path d="M4.0552 1.03177e-05L12.5035 8.45227L9.46214 11.4951C8.11041 12.8474 5.74487 12.8474 4.39314 11.4951L1.0138 8.11416C-0.337935 6.7618 -0.337935 4.39517 1.0138 3.0428L4.0552 1.03177e-05Z" transform="translate(179.262 133.295)" stroke="#007699" stroke-width="2" stroke-miterlimit="10" stroke-linecap="round"/>
<path d="M49.3383 -1.03177e-05C21.9657 -1.03177e-05 1.28911e-06 22.314 1.28911e-06 49.3612C1.28911e-06 76.7466 22.3036 98.7224 49.3383 98.7224C76.7109 98.7224 98.6766 76.4085 98.6766 49.3612C98.6766 22.314 76.373 -1.03177e-05 49.3383 -1.03177e-05ZM49.3383 78.437C33.4554 78.437 20.6139 65.5895 20.6139 49.6993C20.6139 33.809 33.4554 20.9616 49.3383 20.9616C65.2212 20.9616 78.0626 33.809 78.0626 49.6993C78.0626 65.5895 65.2212 78.437 49.3383 78.437Z" transform="translate(172.503 51.8154)" fill="white" stroke="#007699" stroke-width="2" stroke-linecap="round"/>
<path d="M49.3383 -1.03177e-05C21.9657 -1.03177e-05 1.28911e-06 22.314 1.28911e-06 49.3612C1.28911e-06 76.7466 22.3036 98.7224 49.3383 98.7224C76.7109 98.7224 98.6766 76.4085 98.6766 49.3612C98.6766 22.314 76.373 -1.03177e-05 49.3383 -1.03177e-05ZM49.3383 78.437C33.4554 78.437 20.6139 65.5895 20.6139 49.6993C20.6139 33.809 33.4554 20.9616 49.3383 20.9616C65.2212 20.9616 78.0626 33.809 78.0626 49.6993C78.0626 65.5895 65.2212 78.437 49.3383 78.437Z" transform="translate(172.503 51.8154)" stroke="#007699" stroke-width="2" stroke-miterlimit="10" stroke-linecap="round"/>
<path d="M0 22.314L18.5863 31.7805C21.2898 26.0329 25.6829 21.2997 31.0899 18.595L21.6277 0C12.1656 4.73327 4.39314 12.5094 0 22.314Z" transform="translate(177.235 57.9014)" fill="#BDD8E4" stroke="#007699" stroke-width="2" stroke-linecap="round"/>
<path d="M9.46214 -2.06354e-05L-5.15646e-06 18.595C5.40693 21.6378 9.80007 26.3711 12.5035 31.7805L31.0899 22.314C26.6967 12.8474 18.9243 5.07134 9.46214 -2.06354e-05Z" transform="translate(235.021 57.5625)" fill="#BDD8E4" stroke="#007699" stroke-width="2" stroke-linecap="round"/>
<path d="M31.0899 9.46655L12.5035 0C9.80007 5.07136 5.40694 9.12844 5.15646e-06 11.8332L9.46214 30.4281C18.5863 25.6949 26.0209 18.595 31.0899 9.46655Z" transform="translate(234.344 115.377)" fill="#BDD8E4" stroke="#007699" stroke-width="2" stroke-linecap="round"/>
<path d="M21.6277 30.4281L31.0899 11.8332C25.6829 9.12844 21.2898 5.07136 18.5863 0L-2.57823e-06 9.46655C4.73107 18.595 12.5035 26.033 21.6277 30.4281Z" transform="translate(178.249 115.377)" fill="#BDD8E4" stroke="#007699" stroke-width="2" stroke-linecap="round"/>
<path d="M0 22.314L18.5863 31.7805C21.2898 26.0329 25.6829 21.2997 31.0899 18.595L21.6277 0C12.1656 4.73327 4.39314 12.5094 0 22.314Z" transform="translate(177.235 57.9014)" stroke="#007699" stroke-width="2" stroke-miterlimit="10" stroke-linecap="round"/>
<path d="M9.46214 -2.06354e-05L-5.15646e-06 18.595C5.40693 21.6378 9.80007 26.3711 12.5035 31.7805L31.0899 22.314C26.6967 12.8474 18.9243 5.07134 9.46214 -2.06354e-05Z" transform="translate(235.021 57.5625)" stroke="#007699" stroke-width="2" stroke-miterlimit="10" stroke-linecap="round"/>
<path d="M31.0899 9.46655L12.5035 0C9.80007 5.07136 5.40694 9.12844 5.15646e-06 11.8332L9.46214 30.4281C18.5863 25.6949 26.0209 18.595 31.0899 9.46655Z" transform="translate(234.344 115.377)" stroke="#007699" stroke-width="2" stroke-miterlimit="10" stroke-linecap="round"/>
<path d="M21.6277 30.4281L31.0899 11.8332C25.6829 9.12844 21.2898 5.07136 18.5863 0L-2.57823e-06 9.46655C4.73107 18.595 12.5035 26.033 21.6277 30.4281Z" transform="translate(178.249 115.377)" stroke="#007699" stroke-width="2" stroke-miterlimit="10" stroke-linecap="round"/>
<path d="M38.1865 16.9045H34.8072C34.4692 15.2141 33.7933 13.5236 32.7795 12.1712L35.1451 9.80462C35.821 9.12843 35.821 7.77609 35.1451 6.76182L33.4554 5.07137C32.7795 4.39519 31.4278 4.39519 30.414 5.07137L28.0485 7.43799C26.6968 6.42372 25.0071 5.74752 23.3174 5.40943V2.02852C23.3174 1.01425 22.3036 1.03177e-05 21.2898 1.03177e-05H18.9243C17.9105 1.03177e-05 16.8967 1.01425 16.8967 2.02852V5.40943C15.207 5.74752 13.8553 6.42372 12.1656 7.43799L9.80007 5.07137C9.12421 4.39519 7.77247 4.39519 6.75867 5.07137L5.069 6.76182C4.39313 7.438 4.39313 8.79034 5.069 9.80462L7.43454 12.1712C6.42073 13.5236 5.74487 15.2141 5.40694 16.9045H2.0276C1.0138 16.9045 -5.15646e-06 17.9188 -5.15646e-06 18.933V21.2997C-5.15646e-06 22.314 1.0138 23.3282 2.0276 23.3282H5.40694C5.74487 25.0187 6.42073 26.7092 7.43454 28.0615L5.069 30.4282C4.39313 31.1043 4.39313 32.4567 5.069 33.471L6.75867 35.1614C7.43453 35.8376 8.78627 35.8376 9.80007 35.1614L12.1656 32.7948C13.5173 33.8091 15.207 34.4853 16.8967 34.8233V38.2043C16.8967 39.2185 17.9105 40.2328 18.9243 40.2328H21.2898C22.3036 40.2328 23.3174 39.2185 23.3174 38.2043V34.8233C25.0071 34.4853 26.6968 33.8091 28.0485 32.7948L30.414 35.1614C31.0899 35.8376 32.4416 35.8376 33.4554 35.1614L35.1451 33.471C35.821 32.7948 35.821 31.4424 35.1451 30.4282L32.7795 28.0615C33.7933 26.7092 34.4692 25.0187 34.8072 23.3282H38.1865C39.2003 23.3282 40.2141 22.314 40.2141 21.2997V18.933C40.2141 17.9188 39.2003 16.9045 38.1865 16.9045ZM20.6139 26.7091C16.8967 26.7091 13.8553 23.6663 13.8553 19.9473C13.8553 16.2283 16.8967 13.1855 20.6139 13.1855C24.3312 13.1855 27.3726 16.2283 27.3726 19.9473C27.0347 23.6663 23.9933 26.7091 20.6139 26.7091Z" transform="translate(201.227 82.582)" fill="#BDD8E4" stroke="#007699" stroke-width="2" stroke-linecap="round"/>
<path d="M38.1865 16.9045H34.8072C34.4692 15.2141 33.7933 13.5236 32.7795 12.1712L35.1451 9.80462C35.821 9.12843 35.821 7.77609 35.1451 6.76182L33.4554 5.07137C32.7796 4.39519 31.4278 4.39519 30.414 5.07137L28.0485 7.43799C26.6968 6.42372 25.0071 5.74752 23.3174 5.40943V2.02852C23.3174 1.01425 22.3036 1.03177e-05 21.2898 1.03177e-05H18.9243C17.9105 1.03177e-05 16.8967 1.01425 16.8967 2.02852V5.40943C15.207 5.74752 13.8553 6.42372 12.1656 7.43799L9.80007 5.07137C9.12421 4.39519 7.77247 4.39519 6.75867 5.07137L5.069 6.76182C4.39313 7.438 4.39313 8.79034 5.069 9.80462L7.43454 12.1712C6.42073 13.5236 5.74487 15.2141 5.40694 16.9045H2.0276C1.0138 16.9045 -5.15646e-06 17.9188 -5.15646e-06 18.933V21.2997C-5.15646e-06 22.314 1.0138 23.3282 2.0276 23.3282H5.40694C5.74487 25.0187 6.42073 26.7092 7.43454 28.0615L5.069 30.4282C4.39313 31.1043 4.39313 32.4567 5.069 33.471L6.75867 35.1614C7.43453 35.8376 8.78627 35.8376 9.80007 35.1614L12.1656 32.7948C13.5173 33.8091 15.207 34.4853 16.8967 34.8233V38.2043C16.8967 39.2185 17.9105 40.2328 18.9243 40.2328H21.2898C22.3036 40.2328 23.3174 39.2185 23.3174 38.2043V34.8233C25.0071 34.4853 26.6968 33.8091 28.0485 32.7948L30.414 35.1614C31.0899 35.8376 32.4416 35.8376 33.4554 35.1614L35.1451 33.471C35.821 32.7948 35.821 31.4424 35.1451 30.4282L32.7795 28.0615C33.7933 26.7092 34.4692 25.0187 34.8072 23.3282H38.1865C39.2003 23.3282 40.2141 22.314 40.2141 21.2997V18.933C40.2141 17.9188 39.2003 16.9045 38.1865 16.9045ZM20.6139 26.7091C16.8967 26.7091 13.8553 23.6663 13.8553 19.9473C13.8553 16.2283 16.8967 13.1855 20.6139 13.1855C24.3312 13.1855 27.3726 16.2283 27.3726 19.9473C27.0347 23.6663 23.9933 26.7091 20.6139 26.7091Z" transform="translate(201.227 82.582)" stroke="#007699" stroke-width="2" stroke-miterlimit="10" stroke-linecap="round"/>
</svg>
