<?xml version="1.0" encoding="utf-8"?>
<!-- Generator: Adobe Illustrator 16.0.0, SVG Export Plug-In . SVG Version: 6.00 Build 0)  -->
<!DOCTYPE svg PUBLIC "-//W3C//DTD SVG 1.1//EN" "http://www.w3.org/Graphics/SVG/1.1/DTD/svg11.dtd">
<svg version="1.1" id="Layer_1" xmlns="http://www.w3.org/2000/svg" xmlns:xlink="http://www.w3.org/1999/xlink" x="0px" y="0px"
	 width="841.889px" height="595.281px" viewBox="0 0 841.889 595.281" enable-background="new 0 0 841.889 595.281"
	 xml:space="preserve">
<g>
	<g>
		<rect x="411.216" y="390.971" fill="#62A3FF" width="19.458" height="204.31"/>
		<rect x="362.572" y="390.971" fill="#62A3FF" width="19.458" height="155.663"/>
		<rect x="313.925" y="478.532" fill="#62A3FF" width="19.459" height="19.458"/>
		<rect x="313.925" y="390.971" fill="#62A3FF" width="19.459" height="68.103"/>
		<rect x="459.862" y="527.178" fill="#62A3FF" width="19.458" height="19.458"/>
		<rect x="459.862" y="390.971" fill="#62A3FF" width="19.458" height="116.748"/>
		<rect x="508.505" y="390.971" fill="#62A3FF" width="19.459" height="107.019"/>
		<g>
			<path fill="#62A3FF" d="M420.945,225.305c-32.038,0-58.103-26.065-58.103-58.103s26.065-58.103,58.103-58.103
				c32.038,0,58.103,26.065,58.103,58.103S452.983,225.305,420.945,225.305z"/>
			<path fill="#101B29" d="M420.945,119.1c26.523,0,48.103,21.579,48.103,48.103s-21.579,48.103-48.103,48.103
				c-26.524,0-48.103-21.579-48.103-48.103S394.421,119.1,420.945,119.1 M420.945,99.1c-37.611,0-68.103,30.49-68.103,68.103
				s30.491,68.103,68.103,68.103c37.612,0,68.103-30.49,68.103-68.103S458.557,99.1,420.945,99.1L420.945,99.1z"/>
		</g>
		<path fill="#101B29" d="M537.694,236.735v-63.851c0-61.729-31.084-118.362-83.165-151.51L420.945,0l-33.584,21.365
			c-52.079,33.157-83.164,89.79-83.164,151.52v63.851c-50.475,9.748-87.562,53.889-87.562,106.136v116.203h19.459
			c0-32.193,26.18-58.374,58.373-58.374H547.42c32.193,0,58.373,26.181,58.373,58.374h19.459V342.871
			C625.254,290.626,588.168,246.485,537.694,236.735z M397.809,37.787l23.136-14.71l23.136,14.721
			c46.428,29.547,74.154,80.05,74.154,135.087V293.68h-194.58V172.885C323.655,117.847,351.381,67.344,397.809,37.787z
			 M294.467,381.242c-23.224,0-44.103,10.226-58.373,26.405v-64.776c0-41.553,28.613-76.821,68.103-86.199v124.57H294.467z
			 M323.655,381.242v-68.103h194.58v68.103H323.655z M605.795,407.647c-14.272-16.18-35.151-26.405-58.373-26.405h-9.729v-124.58
			c39.49,9.388,68.102,44.656,68.102,86.198V407.647L605.795,407.647z"/>
		<polygon fill="#101B29" points="167.99,79.642 148.532,79.642 148.532,99.1 129.074,99.1 129.074,118.558 148.532,118.558 
			148.532,138.015 167.99,138.015 167.99,118.558 187.448,118.558 187.448,99.1 167.99,99.1 		"/>
		<polygon fill="#101B29" points="216.635,99.1 236.094,99.1 236.094,69.913 265.281,69.913 265.281,50.454 236.094,50.454 
			236.094,21.268 216.635,21.268 216.635,50.454 187.448,50.454 187.448,69.913 216.635,69.913 		"/>
		<polygon fill="#101B29" points="255.552,186.661 255.552,167.203 275.009,167.203 275.009,147.745 255.552,147.745 
			255.552,128.286 236.094,128.286 236.094,147.745 216.635,147.745 216.635,167.203 236.094,167.203 236.094,186.661 		"/>
		<polygon fill="#101B29" points="596.067,128.286 615.525,128.286 615.525,108.83 634.984,108.83 634.984,89.371 615.525,89.371 
			615.525,69.913 596.067,69.913 596.067,89.371 576.608,89.371 576.608,108.83 596.067,108.83 		"/>
		<polygon fill="#101B29" points="712.815,157.473 683.627,157.473 683.627,128.286 664.171,128.286 664.171,157.473 
			634.984,157.473 634.984,176.932 664.171,176.932 664.171,206.12 683.627,206.12 683.627,176.932 712.815,176.932 		"/>
		<polygon fill="#101B29" points="576.608,215.849 596.067,215.849 596.067,196.39 615.525,196.39 615.525,176.932 596.067,176.932 
			596.067,157.473 576.608,157.473 576.608,176.932 557.152,176.932 557.152,196.39 576.608,196.39 		"/>
	</g>
</g>
</svg>
