<?xml version="1.0" encoding="utf-8"?>
<!-- Generator: Adobe Illustrator 23.0.0, SVG Export Plug-In . SVG Version: 6.00 Build 0)  -->
<svg version="1.1" id="iconmonstr" xmlns="http://www.w3.org/2000/svg" xmlns:xlink="http://www.w3.org/1999/xlink" x="0px" y="0px"
	 viewBox="0 0 24 24" style="enable-background:new 0 0 24 24;" xml:space="preserve">
<style type="text/css">
	.st0{fill:#2559A7;}
</style>
<path id="direction-9" class="st0" d="M24,9.84l-3.58,6.78L19.33,14c-4.05,2.28-5.11,5.96-5.33,10h-4
	c0.19-5.15,1.36-10.25,7.75-13.88L16.71,7.5L24,9.84z M10.76,13.82c-1.1-1.34-2.56-2.59-4.51-3.69L7.29,7.5L0,9.84l3.58,6.78
	L4.67,14c2.02,1.14,3.29,2.62,4.09,4.32C9.17,16.79,9.81,15.27,10.76,13.82z M12,0L7,5h3v5.27c0.76,0.62,1.43,1.27,2.01,1.94
	c0.58-0.67,1.23-1.32,1.99-1.94V5h3L12,0z"/>
</svg>
