<?xml version="1.0" encoding="utf-8"?>
<!-- Generator: Adobe Illustrator 23.0.1, SVG Export Plug-In . SVG Version: 6.00 Build 0)  -->
<svg version="1.1" id="iconmonstr" xmlns="http://www.w3.org/2000/svg" xmlns:xlink="http://www.w3.org/1999/xlink" x="0px" y="0px"
	 viewBox="0 0 24 24" style="enable-background:new 0 0 24 24;" xml:space="preserve">
<style type="text/css">
	.st0{fill:#2559A7;}
</style>
<path id="dashboard-7" class="st0" d="M20,12.6c-0.1-0.4-0.3-0.8-0.5-1.2L17,12.5c0.2,0.4,0.4,0.8,0.5,1.2L20,12.6z M7.4,11.7
	c0.3-0.4,0.6-0.7,0.9-1l-1.9-2c-0.3,0.3-0.6,0.6-0.9,1L7.4,11.7z M9.2,10.2c0.4-0.2,0.8-0.4,1.2-0.5l-1-2.6C8.9,7.2,8.5,7.4,8.1,7.6
	L9.2,10.2z M6.4,13.8c0.1-0.4,0.3-0.9,0.5-1.2l-2.5-1.1c-0.2,0.4-0.4,0.8-0.5,1.2L6.4,13.8z M15.8,7.6c-0.4-0.2-0.8-0.4-1.2-0.5
	l-1,2.6c0.4,0.1,0.8,0.3,1.2,0.5L15.8,7.6z M18.4,9.7c-0.3-0.3-0.6-0.7-0.9-1l-1.9,2c0.3,0.3,0.7,0.6,0.9,1L18.4,9.7z M12.6,6.7
	c-0.2,0-0.4,0-0.6,0s-0.4,0-0.6,0v2.8c0.2,0,0.4,0,0.6,0c0.2,0,0.4,0,0.6,0V6.7z M12,21c-1.3,0-2.3-1-2.3-2.3c0-0.9,0.5-1.6,1.2-2
	L12,11l1.1,5.6c0.7,0.4,1.2,1.2,1.2,2C14.3,20,13.3,21,12,21z M24,15c0,2.2-0.6,4.2-1.6,6l-1.7-1c0.9-1.5,1.4-3.2,1.4-5
	c0-5.5-4.5-10-10-10S2,9.5,2,15c0,1.8,0.5,3.5,1.3,5l-1.7,1c-1-1.8-1.6-3.8-1.6-6C0,8.4,5.4,3,12,3S24,8.4,24,15z"/>
</svg>
