<?xml version="1.0" encoding="utf-8"?>
<!-- Generator: Adobe Illustrator 23.0.0, SVG Export Plug-In . SVG Version: 6.00 Build 0)  -->
<svg version="1.1" id="iconmonstr" xmlns="http://www.w3.org/2000/svg" xmlns:xlink="http://www.w3.org/1999/xlink" x="0px" y="0px"
	 viewBox="0 0 24 24" style="enable-background:new 0 0 24 24;" xml:space="preserve">
<style type="text/css">
	.st0{fill:#2559A7;}
</style>
<g id="share-1_1_">
	<g>
		<path class="st0" d="M11.58,9.63l5.49-2.93C17.8,7.49,18.84,8,20,8c2.21,0,4-1.79,4-4c0-2.21-1.79-4-4-4s-4,1.79-4,4
			c0,0.32,0.05,0.63,0.12,0.94l-5.49,2.93C11.03,8.4,11.35,8.99,11.58,9.63z M20,16c-1.16,0-2.2,0.51-2.94,1.3l-5.49-2.93
			c-0.23,0.64-0.55,1.23-0.94,1.76l5.49,2.93C16.05,19.37,16,19.68,16,20c0,2.21,1.79,4,4,4s4-1.79,4-4C24,17.79,22.21,16,20,16z
			 M5,7c-2.76,0-5,2.24-5,5c0,2.76,2.24,5,5,5s5-2.24,5-5C10,9.24,7.76,7,5,7z"/>
	</g>
</g>
</svg>
