<svg id="Layer_1" data-name="Layer 1" xmlns="http://www.w3.org/2000/svg" viewBox="0 0 500 446">
  <defs>
    <style>
      .cls-1 {
        fill: #255aa8;
      }
    </style>
  </defs>
  <title>network</title>
  <path class="cls-1" d="M454.94823,177.41022a44.35563,44.35563,0,0,1-30.3471-12.17837l-59.94862,34.07268a78.71476,78.71476,0,0,1,3.80336,24.14833,77.446,77.446,0,0,1-25.34516,57.534l17.74616,38.57042a62.855,62.855,0,0,1,13.07025-1.3989c34.57,0,62.57143,28.62119,62.57143,63.94182,0,35.27088-28.00142,63.89979-62.57143,63.89979-34.55285,0-62.57915-28.62891-62.57915-63.89979a64.34071,64.34071,0,0,1,23.83686-50.15442l-16.55616-36.0085a73.63073,73.63073,0,0,1-25.69693,4.67442c-34.07582,0-62.83911-23.02561-72.26558-54.66159l-85.99732,8.54347c-3.9209,34.29054-32.45,60.94333-67.07918,60.94333C30.2553,315.43693,0,284.51283,0,246.39442c0-38.10212,30.2553-69.02622,67.58967-69.02622,30.239,0,55.8098,20.30329,64.44865,48.2289l85.64555-8.49373a77.49285,77.49285,0,0,1,30.36426-55.6325L219.8202,101.41525a46.51,46.51,0,0,1-7.91731.838c-27.6325,0-50.06229-22.9081-50.06229-51.11846C161.84061,22.89181,184.2704,0,211.9029,0c27.65738,0,50.05285,22.89181,50.05285,51.13476a51.10591,51.10591,0,0,1-16.5553,37.73417l28.23565,60.05476a73.793,73.793,0,0,1,77.20832,25.04376l59.898-34.00578a46.86672,46.86672,0,0,1-.85453-8.552c0-25.41257,20.15876-46.01691,45.06035-46.01691C479.8155,85.3927,500,105.997,500,131.40961,500,156.8136,479.8155,177.41022,454.94823,177.41022Z"/>
</svg>
