<svg width="380" height="315" viewBox="0 0 380 315" fill="none" xmlns="http://www.w3.org/2000/svg">
<path d="M241.96 175.944H1.95445C0.781778 175.944 0 175.161 0 173.985V1.95929C0 5.87111 4.12447 0 5.29714 0H239.377C240.55 0 244.165 4.89147 244.165 5.87111L244.11 173.985C243.915 174.965 243.133 175.944 241.96 175.944Z" transform="translate(68.7271 112.938)" fill="#BDD8E4"/>
<path d="M0 167.911V6.0738C0 2.74301 2.73623 0 6.05879 0H99.4813" transform="translate(68.7271 112.938)" stroke="#007699" stroke-width="2" stroke-miterlimit="10" stroke-linecap="round"/>
<path d="M0 0H138.394C141.717 0 144.453 2.74301 144.453 6.0738V169.871C144.453 173.201 141.717 175.944 138.394 175.944" transform="translate(168.188 112.938)" stroke="#007699" stroke-width="2" stroke-miterlimit="10" stroke-linecap="round"/>
<path d="M219.093 0H0V142.636H219.093V0Z" transform="translate(80.4531 126.849)" fill="white"/>
<path d="M251.537 20.1807H13.2902C7.62233 20.1807 2.73623 16.0662 1.75901 10.3842L-1.1929e-05 1.19586e-05H110.426L114.726 6.0738H145.215L149.71 1.19586e-05H266L264.436 9.01274C263.459 15.4784 257.987 20.1807 251.537 20.1807Z" transform="translate(57 278.498)" fill="white"/>
<path d="M251.537 20.1807H13.2902C7.62233 20.1807 2.73623 16.0662 1.75901 10.3842L-1.1929e-05 1.19586e-05H110.426L114.726 6.0738H145.215L149.71 1.19586e-05H266L264.436 9.01274C263.459 15.4784 257.987 20.1807 251.537 20.1807Z" transform="translate(57 278.498)" stroke="#007699" stroke-width="2" stroke-miterlimit="10" stroke-linecap="round"/>
<path d="M71.4272 31.5967H65.2519C64.4285 28.2925 63.1935 25.4012 61.5467 22.7166L65.8694 18.3798C67.5162 16.7277 67.5162 14.2495 65.8694 12.8039L62.5759 9.49967C60.9292 7.84755 58.4591 7.84755 57.0182 9.49967L52.6956 13.8365C50.0196 12.1843 46.932 10.9453 43.8443 10.1192V3.92377C43.8443 1.65212 41.9918 0 39.9333 0H35.4048C33.1406 0 31.4938 1.85863 31.4938 3.92377V10.1192C28.4062 10.7387 25.3186 12.1843 22.6426 13.8365L18.3199 9.49967C16.6732 7.84755 14.2031 7.84755 12.7622 9.49967L9.46874 12.8039C7.82201 14.456 7.82201 16.9342 9.46874 18.3798L13.7914 22.7166C12.1447 25.4012 10.7038 28.499 10.0862 31.5967H3.91098C1.64672 31.5967 0 33.4553 0 35.5205V40.0638C0 42.3354 1.85257 43.9875 3.91098 44.194H10.0862C10.9096 47.4983 12.1447 50.3895 13.7914 53.0742L9.46874 57.411C7.82201 59.0631 7.82201 61.5412 9.46874 62.9868L12.7622 66.2911C14.4089 67.9432 16.879 67.9432 18.3199 66.2911L22.6426 61.9543C25.3186 63.6064 28.4062 65.052 31.4938 65.6715V71.867C31.4938 74.1386 33.3464 75.7907 35.4048 75.7907H39.9333C42.1976 75.7907 43.8443 73.9321 43.8443 71.867V65.6715C47.1378 64.8455 50.0196 63.6064 52.6956 61.9543L57.0182 66.2911C58.665 67.9432 61.1351 67.9432 62.7818 66.2911L66.0753 62.9868C67.722 61.3347 67.722 58.8566 66.0753 57.411L61.7526 53.0742C63.3993 50.3895 64.6344 47.2918 65.4578 44.194H71.633C73.8973 44.194 75.544 42.3354 75.544 40.2703V35.5205C75.3382 33.2488 73.6914 31.5967 71.4272 31.5967ZM37.4632 50.596C30.4646 50.596 24.701 44.8136 24.701 37.7921C24.701 30.7706 30.4646 25.1947 37.4632 25.1947C44.4619 25.1947 50.2254 30.7706 50.2254 37.7921C50.0196 44.8136 44.4619 50.596 37.4632 50.596Z" transform="translate(103.816 169.379)" fill="#007699"/>
<path d="M112.948 31.2044H112.487C110.336 23.6723 103.267 18.1385 95.1222 18.1385C91.4341 18.1385 88.207 19.2145 85.2872 21.0591C83.4432 9.06927 73.1473 1.83244e-08 60.6999 1.83244e-08C49.482 1.83244e-08 40.1081 7.37839 36.881 17.5237C35.4979 17.2162 33.9612 16.9088 32.4245 16.9088C23.9726 16.9088 16.9038 23.2112 15.5207 31.3581H12.7547C5.68582 31.3581 4.68966e-06 37.0457 4.68966e-06 44.1166V44.8852C4.68966e-06 51.9561 5.68582 57.6436 12.7547 57.6436H112.794C119.863 57.6436 125.549 51.9561 125.549 44.8852V43.9629C125.703 36.8919 120.017 31.2044 112.948 31.2044Z" transform="translate(182.552 21)" fill="white" stroke="#007699" stroke-width="2" stroke-linecap="round"/>
<path d="M-4.68966e-06 -2.93191e-07C4.91746 -2.93191e-07 8.9129 3.99663 8.9129 8.91555" transform="translate(215.438 36.688)" stroke="#007699" stroke-width="2" stroke-miterlimit="10" stroke-linecap="round"/>
<path d="M41.5156 20.8215L41.7163 21.559H42.4806H46.5089C47.0156 21.559 47.4092 21.7534 47.5958 21.9613C47.6815 22.0567 47.7203 22.1482 47.7316 22.2361C47.7429 22.323 47.7351 22.4682 47.6282 22.6826L47.5231 22.8934V23.1289V26.0659C47.5231 26.9845 46.8698 27.6358 45.9596 27.6358H41.9313H41.167L40.9663 28.3733C40.4372 30.3182 39.7377 32.0669 38.6928 33.8127L38.2928 34.481L38.8429 35.0325L41.5895 37.7859C42.338 38.5363 42.2372 39.4982 41.6563 39.9835L41.6048 40.0266L41.5595 40.0761L39.5952 42.2243C38.8342 42.8221 37.8123 42.7318 37.3292 42.2475L34.5826 39.494L34.0022 38.9122L33.3189 39.3688C31.802 40.3826 29.9076 41.0825 27.9346 41.622L27.1983 41.8233V42.5866V46.6249C27.1983 47.5435 26.545 48.1948 25.6348 48.1948H22.7051C21.7949 48.1948 21.1417 47.5435 21.1417 46.6249V42.5866V41.7523L20.321 41.6028C18.4866 41.2684 16.7799 40.4255 14.9808 39.3433L14.3101 38.9399L13.7574 39.494L11.0108 42.2475C10.6219 42.6373 10.2268 42.7797 9.88771 42.7797C9.55271 42.7797 9.16304 42.6407 8.77874 42.2615L6.7805 40.0761L6.76583 40.0601L6.75049 40.0447C6.08999 39.3825 6.17676 38.3718 6.74058 37.7959L9.65703 35.0549L10.2728 34.4762L9.80487 33.7725C8.79326 32.2513 8.09492 30.3516 7.55673 28.3733L7.35609 27.6358H6.5918H2.56347C1.65327 27.6358 1 26.9845 1 26.0659V23.1289C1 22.2103 1.65327 21.559 2.56347 21.559H6.5918H7.42675L7.57575 20.7375C7.91283 18.8789 8.76518 16.9857 9.80487 15.4223L10.243 14.7635L9.70257 14.1856L6.95598 11.2485L6.94497 11.2368L6.93358 11.2254C6.27441 10.5645 6.3595 9.55655 6.92025 8.98008L9.0995 6.97745L9.1155 6.96275L9.13084 6.94736C9.87816 6.19818 10.8331 6.29951 11.316 6.88038L11.345 6.91525L11.377 6.94736L14.1236 9.7008L14.704 10.2826L15.3872 9.82599C16.9042 8.81218 18.7986 8.11229 20.7716 7.57285L21.5079 7.37155V6.60826V2.56988C21.5079 1.65131 22.1611 1 23.0713 1H26.001C26.9112 1 27.5645 1.65131 27.5645 2.56988V6.60826V7.37155L28.3008 7.57286C30.2738 8.11229 32.1682 8.81218 33.6852 9.82599L34.3684 10.2826L34.9488 9.7008L37.6954 6.94736C38.358 6.28307 39.3699 6.37427 39.9415 6.94736L42.1388 9.15011C42.8874 9.90054 42.7865 10.8624 42.2057 11.3477L42.1708 11.3768L42.1388 11.4089L39.3922 14.1624L38.8147 14.7414L39.2675 15.4223C40.2791 16.9435 40.9775 18.8433 41.5156 20.8215ZM33.9583 24.6373L33.9591 24.6173V24.5974C33.9591 19.4584 29.8516 15.3371 24.7193 15.3371C19.587 15.3371 15.4795 19.4584 15.4795 24.5974C15.4795 29.7364 19.587 33.8577 24.7193 33.8577C29.6894 33.8577 33.7554 29.7231 33.9583 24.6373Z" transform="translate(218.729 54.0918)" fill="#BDD8E4" stroke="#007699" stroke-width="2" stroke-linecap="round"/>
<path fill-rule="evenodd" clip-rule="evenodd" d="M176.624 30.9565C176.624 35.4009 175.69 39.626 174.01 43.4463L174.496 43.7666L79.2686 185.741L79.0996 185.598C71.1836 196.672 58.2432 203.887 43.624 203.887C19.5312 203.887 0 184.292 0 160.121C0 148.159 4.7832 137.317 12.5361 129.417L12.2363 129.165L120.27 13.5181C125.825 5.35693 135.174 0 145.769 0C162.81 0 176.624 13.8599 176.624 30.9565Z" transform="translate(97.4316 47.6875)" stroke="#007699" stroke-width="2" stroke-linecap="round" stroke-linejoin="round" stroke-dasharray="8 8"/>
<path d="M30.0192 70.6996H16.8332C7.57494 70.6996 8.5618e-06 63.1546 8.5618e-06 53.9329V16.7667C8.5618e-06 7.54502 7.57494 -5.32999e-07 16.8332 -5.32999e-07H30.0192C39.2774 -5.32999e-07 46.8524 7.54502 46.8524 16.7667V53.9329C46.8524 63.1546 39.2774 70.6996 30.0192 70.6996Z" transform="translate(190 222.888)" fill="#BDD8E4"/>
<path d="M30.0192 70.6996H16.8332C7.57494 70.6996 8.5618e-06 63.1546 8.5618e-06 53.9329V16.7667C8.5618e-06 7.54502 7.57494 -5.32999e-07 16.8332 -5.32999e-07H30.0192C39.2774 -5.32999e-07 46.8524 7.54502 46.8524 16.7667V53.9329C46.8524 63.1546 39.2774 70.6996 30.0192 70.6996Z" transform="translate(190 222.888)" stroke="#007699" stroke-width="2" stroke-miterlimit="10" stroke-linecap="round"/>
<path d="M46.5718 26.8267V23.1939C46.5718 10.3395 36.1914 0 23.2859 0C10.3805 0 8.5618e-06 10.3395 8.5618e-06 23.1939V26.8267H46.5718Z" transform="translate(190 281.013)" fill="#F1F4F5"/>
<path d="M8.99181 22.0762H21.0556C26.6667 22.0762 29.7528 17.8845 29.7528 11.4573V4.75056C26.3861 2.23556 22.4584 0.558891 17.9695 1.066e-06C15.164 1.066e-06 12.639 1.066e-06 12.0779 1.066e-06C12.0779 1.066e-06 11.7973 1.066e-06 11.2362 1.066e-06C7.02795 0.838336 3.10021 2.515 0.0141248 5.03001V12.2956C-0.266428 17.3256 3.66131 22.0762 8.99181 22.0762Z" transform="translate(198.122 281.292)" fill="white"/>
<path d="M8.99181 22.0762H21.0556C26.6667 22.0762 29.7528 17.8845 29.7528 11.4573V4.75056C26.3861 2.23556 22.4584 0.558891 17.9695 1.066e-06C15.164 1.066e-06 12.639 1.066e-06 12.0779 1.066e-06C12.0779 1.066e-06 11.7973 1.066e-06 11.2362 1.066e-06C7.02795 0.838336 3.10021 2.515 0.0141248 5.03001V12.2956C-0.266428 17.3256 3.66131 22.0762 8.99181 22.0762Z" transform="translate(198.122 281.292)" stroke="#007699" stroke-width="2" stroke-miterlimit="10" stroke-linecap="round"/>
<path d="M8.5618e-06 5.5889C4.2083 1.95612 9.25824 0 15.1499 0C28.0553 0 38.4358 10.3395 38.4358 23.1939V26.8267" transform="translate(198.417 281.013)" stroke="#007699" stroke-width="2" stroke-miterlimit="10" stroke-linecap="round"/>
<path d="M-1.71236e-05 3.63279C0.561089 2.23556 1.40277 1.11778 2.52499 1.066e-06" transform="translate(193.085 289.675)" stroke="#007699" stroke-width="2" stroke-miterlimit="10" stroke-linecap="round"/>
<path d="M-1.71236e-05 8.94224V5.30945C-1.71236e-05 3.35334 0.28057 1.67667 0.561123 4.26399e-06" transform="translate(190.278 298.897)" stroke="#007699" stroke-width="2" stroke-miterlimit="10" stroke-linecap="round"/>
<path d="M5.04995 20.6789C2.24442 20.6789 -8.5618e-06 18.4434 -8.5618e-06 15.6489V5.03001C-8.5618e-06 2.23556 2.24442 0 5.04995 0C7.85548 0 10.0999 2.23556 10.0999 5.03001V15.6489C10.0999 18.4434 7.85548 20.6789 5.04995 20.6789Z" transform="translate(207.956 269.833)" fill="white"/>
<path d="M-8.5618e-06 17.605V5.03001C-8.5618e-06 2.23556 2.24442 -1.066e-06 5.04995 -1.066e-06C7.85548 -1.066e-06 10.0999 2.23556 10.0999 5.03001V17.605" transform="translate(207.956 269.555)" stroke="#007699" stroke-width="2" stroke-miterlimit="10" stroke-linecap="round"/>
<path d="M26.9331 46.1084L23.5665 47.5057H13.4665L10.0999 46.1084C3.92774 43.5934 -1.71236e-05 37.4456 -1.71236e-05 31.0184V10.8984H0.84165C7.29437 10.8984 13.186 7.82446 16.8332 2.79445L18.7971 -5.32999e-07L20.4804 2.51501C24.1275 7.82446 30.2997 10.8984 36.7524 10.8984V31.0184C37.033 37.4456 33.1053 43.314 26.9331 46.1084Z" transform="translate(194.487 232.669)" fill="white"/>
<path d="M37.033 1.066e-06V3.0739V20.12C37.033 26.8267 33.1053 32.6951 26.9331 35.2101L23.5665 36.6073H13.4665L10.0999 35.2101C3.92774 32.6951 -1.71236e-05 26.5473 -1.71236e-05 20.12V3.0739V1.066e-06" transform="translate(194.487 243.567)" stroke="#007699" stroke-width="2" stroke-miterlimit="10" stroke-linecap="round"/>
<path d="M0 10.8984H3.6472C10.0999 10.8984 15.9915 7.82446 19.6387 2.79445L21.6026 -5.32999e-07L23.2859 2.51501C26.9331 7.82446 33.1053 10.8984 39.558 10.8984H42.9246" transform="translate(191.964 232.669)" stroke="#007699" stroke-width="2" stroke-miterlimit="10" stroke-linecap="round"/>
<path d="M-1.71236e-05 1.066e-06V15.9284H3.36665L4.48885 14.5311" transform="translate(211.322 247.758)" stroke="#007699" stroke-width="2" stroke-miterlimit="10" stroke-linecap="round"/>
<path d="M5.04996 2.132e-06C4.48886 0.558892 3.64717 1.11778 2.52496 1.11778C1.6833 1.11778 0.841659 0.838337 0 2.132e-06" transform="translate(201.785 250.833)" stroke="#007699" stroke-width="2" stroke-miterlimit="10" stroke-linecap="round"/>
<path d="M5.04995 2.132e-06C4.48885 0.558892 3.64721 1.11778 2.52499 1.11778C1.68334 1.11778 0.841651 0.838337 -8.5618e-06 2.132e-06" transform="translate(219.179 250.833)" stroke="#007699" stroke-width="2" stroke-miterlimit="10" stroke-linecap="round"/>
<path d="M0 2.23556H7.01382C8.69714 2.23556 10.661 1.39722 11.7832 -2.132e-06" transform="translate(207.396 269.277)" stroke="#007699" stroke-width="2" stroke-miterlimit="10" stroke-linecap="round"/>
<path d="M0 0V8.66279" transform="translate(213.005 294.986)" stroke="#007699" stroke-width="2" stroke-miterlimit="10" stroke-linecap="round"/>
<path d="M9.26457e-06 7.25719L9.71461 4.61399e-06V9.07148C9.71461 10.8858 8.19671 12.3977 6.07164 12.3977L9.26457e-06 11.7929V7.25719Z" transform="translate(279.932 240.568)" fill="#D7DFE4" stroke="#007699" stroke-width="2" stroke-linecap="round"/>
<path d="M9.41103 0V8.7691C9.41103 10.8858 7.58955 12.3977 5.76806 12.3977H2.12507L4.63229e-06 6.95481L9.41103 0Z" transform="translate(280.233 240.87)" stroke="#007699" stroke-width="2" stroke-miterlimit="10" stroke-linecap="round"/>
<path d="M4.85731 4.83813C4.85731 6.04766 3.64297 7.25718 2.42865 7.25718C1.21432 7.25718 9.26457e-06 6.04766 9.26457e-06 4.83813V2.41906C9.26457e-06 1.20953 1.21432 -9.22799e-06 2.42865 -9.22799e-06C3.64297 -9.22799e-06 4.85731 1.20953 4.85731 2.41906V4.83813Z" transform="translate(246.539 255.083)" fill="white" stroke="#007699" stroke-width="2" stroke-linecap="round"/>
<path d="M4.8573 4.83814C4.8573 6.04767 3.64296 7.25719 2.42864 7.25719C1.21431 7.25719 0 6.04767 0 4.83814V2.41907C0 1.20954 1.21431 0 2.42864 0C3.64296 0 4.8573 1.20954 4.8573 2.41907V4.83814Z" transform="translate(246.539 255.083)" stroke="#007699" stroke-width="2" stroke-miterlimit="10" stroke-linecap="round"/>
<path d="M4.85731 4.83813C4.85731 6.04766 3.64297 7.25718 2.42864 7.25718C1.21432 7.25718 4.63229e-06 6.04766 4.63229e-06 4.83813V2.41906C4.63229e-06 1.20953 1.21432 -9.22799e-06 2.42864 -9.22799e-06C3.64297 -9.22799e-06 4.85731 1.20953 4.85731 2.41906V4.83813Z" transform="translate(284.787 255.083)" fill="white" stroke="#007699" stroke-width="2" stroke-linecap="round"/>
<path d="M4.85731 4.83813C4.85731 6.04766 3.64297 7.25718 2.42864 7.25718C1.21432 7.25718 4.63229e-06 6.04766 4.63229e-06 4.83813V2.41906C4.63229e-06 1.20953 1.21432 -9.22799e-06 2.42864 -9.22799e-06C3.64297 -9.22799e-06 4.85731 1.20953 4.85731 2.41906V4.83813Z" transform="translate(284.787 255.083)" stroke="#007699" stroke-width="2" stroke-miterlimit="10" stroke-linecap="round"/>
<path d="M52.216 29.6335V22.3763C52.216 9.97864 40.3763 4.61399e-06 26.108 4.61399e-06C11.8397 4.61399e-06 -4.63229e-06 9.97864 -4.63229e-06 22.3763V29.6335H52.216Z" transform="translate(241.375 278.366)" fill="#F1F4F5"/>
<path d="M0.607172 -4.61399e-06C9.27362e-06 1.81429 -4.63229e-06 3.32622 -4.63229e-06 5.14051V12.3977" transform="translate(241.375 295.602)" stroke="#007699" stroke-width="2" stroke-miterlimit="10" stroke-linecap="round"/>
<path d="M4.85731 -9.22799e-06C3.03582 1.81429 1.21433 3.62859 4.63229e-06 5.74527" transform="translate(243.804 285.32)" stroke="#007699" stroke-width="2" stroke-miterlimit="10" stroke-linecap="round"/>
<path d="M40.9835 29.6335V22.3763C40.9835 9.97863 29.1438 0 14.8755 0C9.41101 0 4.25014 1.5119 0 3.93096" transform="translate(252.609 278.366)" stroke="#007699" stroke-width="2" stroke-miterlimit="10" stroke-linecap="round"/>
<path d="M31.2689 59.5694L20.0364 63.198C18.2149 63.8027 16.3934 63.8027 14.8755 63.198L3.64298 59.5694C1.51791 58.9646 -9.26457e-06 56.848 -9.26457e-06 54.4289V12.7001C-9.26457e-06 5.74527 5.76805 9.22799e-06 12.7504 9.22799e-06H22.1615C29.1438 9.22799e-06 34.9119 5.74527 34.9119 12.7001V54.4289C34.9119 56.848 33.394 58.9646 31.2689 59.5694Z" transform="translate(250.786 235.731)" fill="white" stroke="#007699" stroke-width="2" stroke-linecap="round"/>
<path d="M31.2689 27.5955L20.0364 31.2241C18.2149 31.8288 16.3934 31.8288 14.8755 31.2241L3.64298 27.5955C1.51791 26.9907 -9.26457e-06 24.874 -9.26457e-06 22.455V3.70725C1.21432 4.31201 2.73223 4.31201 3.94656 3.70725L11.5361 0.0786633C12.7504 -0.223719 14.2683 0.381051 15.1791 1.2882L17.3042 3.40487H17.6077L19.7328 1.2882C20.6435 0.381051 22.1615 -0.223719 23.3758 0.0786633L30.6617 3.40487C31.8761 4.00963 33.394 4.00963 34.9119 3.40487V22.1526C34.9119 24.874 33.394 26.9907 31.2689 27.5955Z" transform="translate(250.786 267.704)" fill="#BDD8E4" stroke="#007699" stroke-width="2" stroke-linecap="round"/>
<path d="M-9.26457e-06 3.70725C1.21432 4.31201 2.73223 4.31201 3.94656 3.70725L11.5361 0.0786633C12.7504 -0.223719 14.2683 0.381051 15.1791 1.2882L17.3042 3.40487H17.6077L19.7328 1.2882C20.6435 0.381051 22.1615 -0.223719 23.3758 0.0786633L30.6617 3.40487C31.8761 4.00963 33.394 4.00963 34.9119 3.40487" transform="translate(250.786 267.704)" stroke="#007699" stroke-width="2" stroke-miterlimit="10" stroke-linecap="round"/>
<path d="M31.2689 59.5694L20.0364 63.198C18.2149 63.8027 16.3934 63.8027 14.8755 63.198L3.64299 59.5694C1.51792 58.9646 0 56.8479 0 54.4289V12.7001C0 5.74526 5.76806 0 12.7504 0H22.1615C29.1438 0 34.9119 5.74526 34.9119 12.7001V54.4289C34.9119 56.8479 33.394 58.9646 31.2689 59.5694Z" transform="translate(250.786 235.731)" stroke="#007699" stroke-width="2" stroke-miterlimit="10" stroke-linecap="round"/>
<path d="M4.63229e-06 4.61399e-06H9.10745C9.10745 2.41907 6.98238 4.53575 4.55373 4.53575C1.21433 4.53575 4.63229e-06 4.61399e-06 4.63229e-06 4.61399e-06Z" transform="translate(263.537 275.341)" fill="white" stroke="#007699" stroke-width="2" stroke-linecap="round"/>
<path d="M9.10745 4.61399e-06C9.10745 2.41907 6.98238 4.53575 4.55372 4.53575C2.12507 4.53575 0 2.41907 0 4.61399e-06H9.10745Z" transform="translate(263.841 275.341)" stroke="#007699" stroke-width="2" stroke-miterlimit="10" stroke-linecap="round"/>
<path d="M4.25013 31.7502C4.25013 27.2144 6.37521 23.2835 9.71461 20.562L14.8755 16.631L36.1262 22.6787C40.6799 23.8882 45.8408 22.3763 48.2695 18.7477C51.0017 14.8168 51.0017 8.76909 41.8942 -9.22799e-06C41.8942 1.5119 43.1086 9.97863 37.0369 8.76909C37.0369 8.76909 23.6794 6.65243 13.9648 6.35005C10.3218 6.35005 7.28595 9.37387 7.28595 13.0025V13.3048H3.64298C1.82149 13.3048 9.26457e-06 14.8168 9.26457e-06 16.9334V20.562V28.424C9.26457e-06 30.5407 1.82148 32.0526 3.94656 32.0526H4.25013V31.7502Z" transform="translate(246.539 221.82)" fill="#BDD8E4" stroke="#007699" stroke-width="2" stroke-linecap="round"/>
<path d="M4.25013 31.7502C4.25013 27.2144 6.37521 23.2835 9.71461 20.562L14.8755 16.631L36.1262 22.6787C40.6799 23.8882 45.8408 22.3763 48.2695 18.7477C51.0017 14.8168 51.0017 8.76909 41.8942 -9.22799e-06C41.8942 1.5119 43.1086 9.97863 37.0369 8.76909C37.0369 8.76909 23.6794 6.65243 13.9648 6.35005C10.3218 6.35005 7.28595 9.37387 7.28595 13.0025V13.3048H3.64298C1.82149 13.3048 9.26457e-06 14.8168 9.26457e-06 16.9334V20.562V28.424C9.26457e-06 30.5407 1.82148 32.0526 3.94656 32.0526H4.25013V31.7502Z" transform="translate(246.539 221.82)" stroke="#007699" stroke-width="2" stroke-miterlimit="10" stroke-linecap="round"/>
<path d="M0 -4.61399e-06L7.28596 2.72144" transform="translate(257.77 236.637)" stroke="#007699" stroke-width="2" stroke-miterlimit="10" stroke-linecap="round"/>
<path d="M6.07163 0V13.6072H0" transform="translate(263.841 249.941)" stroke="#007699" stroke-width="2" stroke-miterlimit="10" stroke-linecap="round"/>
<path d="M-9.26457e-06 0H8.19671" transform="translate(256.857 251.453)" stroke="#007699" stroke-width="2" stroke-miterlimit="10" stroke-linecap="round"/>
<path d="M9.26457e-06 -1.52588e-06H3.64298" transform="translate(258.679 256.081)" stroke="#007699" stroke-width="2" stroke-miterlimit="10" stroke-linecap="round"/>
<path d="M9.26457e-06 -3.05176e-06H3.3394" transform="translate(273.858 256.49)" stroke="#007699" stroke-width="2" stroke-miterlimit="10" stroke-linecap="round"/>
<path d="M-4.63229e-06 0H8.19671" transform="translate(271.733 251.453)" stroke="#007699" stroke-width="2" stroke-miterlimit="10" stroke-linecap="round"/>
</svg>
