<svg width="1058" height="776" viewBox="0 0 1058 776" fill="none" xmlns="http://www.w3.org/2000/svg">
<rect width="1057" height="775" fill="black" fill-opacity="0" transform="translate(1 1)"/>
<rect width="1057" height="724" fill="black" fill-opacity="0" transform="translate(1 1)"/>
<rect width="1016.17" height="493.854" fill="black" fill-opacity="0" transform="translate(1 1)"/>
<path d="M312.727 149.336V288.129Z" fill="#BDD8E4"/>
<path d="M457.094 149.336V288.129Z" fill="#BDD8E4"/>
<path d="M663.332 149.336V187.89Z" fill="#BDD8E4"/>
<path d="M807.699 149.336V187.89Z" fill="#BDD8E4"/>
<path d="M281.791 115.923C298.876 115.923 312.727 129.956 312.727 147.267M488.029 115.923C470.944 115.923 457.094 129.956 457.094 147.267M343.662 216.664C326.577 216.664 312.727 202.63 312.727 185.319M343.662 319.473C326.577 319.473 312.727 305.44 312.727 288.129V149.336M426.158 216.664C443.243 216.664 457.094 202.63 457.094 185.319M776.763 216.664C793.849 216.664 807.699 202.63 807.699 185.319M426.158 319.473C443.243 319.473 457.094 305.44 457.094 288.129V149.336M694.268 216.664C677.182 216.664 663.332 202.63 663.332 185.319M663.332 149.336V187.89M807.699 149.336V187.89M632.452 115.923C649.537 115.923 663.332 129.956 663.332 147.267M838.69 115.923C821.605 115.923 807.699 129.956 807.699 147.267M123.238 115.75H173.571M245.476 115.75H347.94M421.044 115.75H522.31M597.21 115.75H697.278M773.377 115.75H874.643M415.846 115.75C415.846 132.784 401.995 146.593 384.91 146.593C367.825 146.593 353.974 132.784 353.974 115.75C353.974 98.7161 367.825 84.9073 384.91 84.9073C401.995 84.9073 415.846 98.7161 415.846 115.75ZM941.754 115.923C941.754 132.957 927.904 146.766 910.818 146.766C893.733 146.766 879.882 132.957 879.882 115.923C879.882 98.889 893.733 85.0802 910.818 85.0802C927.904 85.0802 941.754 98.889 941.754 115.923ZM766.451 115.75C766.451 132.784 752.601 146.593 735.516 146.593C718.43 146.593 704.58 132.784 704.58 115.75C704.58 98.7161 718.43 84.9073 735.516 84.9073C752.601 84.9073 766.451 98.7161 766.451 115.75ZM415.846 216.162C415.846 233.196 401.995 247.005 384.91 247.005C367.825 247.005 353.974 233.196 353.974 216.162C353.974 199.128 367.825 185.319 384.91 185.319C401.995 185.319 415.846 199.128 415.846 216.162ZM240.543 115.75C240.543 132.784 226.693 146.593 209.607 146.593C192.522 146.593 178.672 132.784 178.672 115.75C178.672 98.7161 192.522 84.9073 209.607 84.9073C226.693 84.9073 240.543 98.7161 240.543 115.75ZM116.8 115.75C116.8 132.784 102.95 146.593 85.8644 146.593C68.779 146.593 54.9286 132.784 54.9286 115.75C54.9286 98.7161 68.779 84.9073 85.8644 84.9073C102.95 84.9073 116.8 98.7161 116.8 115.75Z" stroke="#C5D9E5" stroke-width="2" stroke-linecap="round"/>
<rect width="140.214" height="92.298" fill="black" fill-opacity="0" transform="translate(207.127 23.7748)"/>
<path d="M347.341 115.115C347.341 76.4817 316.029 45.2989 277.234 45.2989C238.44 45.2989 207.127 76.4817 207.127 115.115H347.341Z" fill="#F5F7F8" stroke="#007699" stroke-width="2" stroke-linecap="round" stroke-linejoin="round"/>
<path d="M297.186 48.0584C290.812 46.1268 284.162 45.2989 277.234 45.2989C238.44 45.2989 207.127 76.4817 207.127 115.115" stroke="#007699" stroke-width="2" stroke-miterlimit="10" stroke-linecap="round"/>
<path d="M276.958 57.7427C309.049 57.7427 334.993 83.2543 335.527 115.073H218.389C218.922 83.2543 244.866 57.7427 276.958 57.7427Z" fill="white" stroke="#007699" stroke-width="2" stroke-linecap="round"/>
<path d="M309.378 115.115C309.378 97.1784 294.969 82.8288 276.957 82.8288C258.945 82.8288 244.536 97.1784 244.536 115.115H309.378Z" fill="white" stroke="#007699" stroke-width="2" stroke-linecap="round"/>
<path d="M284.439 115.116C284.439 110.977 281.113 107.665 276.957 107.665C272.8 107.665 269.475 110.977 269.475 115.116H284.439Z" fill="#007699"/>
<path d="M277.235 57.7166L276.958 69.0307" stroke="#007699" stroke-width="2" stroke-miterlimit="10" stroke-linecap="round"/>
<path d="M328.498 85.5888L318.246 91.3838" stroke="#007699" stroke-width="2" stroke-miterlimit="10" stroke-linecap="round"/>
<path d="M225.694 85.5888L235.946 91.6598" stroke="#007699" stroke-width="2" stroke-miterlimit="10" stroke-linecap="round"/>
<path d="M249.801 63.2367L255.343 72.8951" stroke="#007699" stroke-width="2" stroke-miterlimit="10" stroke-linecap="round"/>
<rect width="27.9874" height="27.8714" fill="black" fill-opacity="0" transform="translate(277.511 85.0364)"/>
<rect width="27.9874" height="27.8714" fill="black" fill-opacity="0" transform="translate(277.511 85.0364)"/>
<path d="M277.511 110.148L304.39 85.0364L305.498 86.1403L280.559 112.908L277.511 110.148Z" fill="#007699" stroke="#007699" stroke-width="2" stroke-linecap="round"/>
<rect width="28.5416" height="21.5247" fill="black" fill-opacity="0" transform="translate(262.548 23.7748)"/>
<path d="M277.233 32.3297V45.2995" stroke="#007699" stroke-width="2" stroke-miterlimit="10" stroke-linecap="round"/>
<path d="M288.873 37.8485H264.765C263.656 37.8485 262.548 36.7447 262.548 35.6409V25.9825C262.548 24.8787 263.656 23.7748 264.765 23.7748H288.873C289.981 23.7748 291.089 24.8787 291.089 25.9825V35.6409C291.089 36.7447 290.258 37.8485 288.873 37.8485Z" fill="#84BFD1" stroke="#007699" stroke-width="2" stroke-linecap="round"/>
<path d="M288.873 37.8485H264.765C263.656 37.8485 262.548 36.7447 262.548 35.6409V25.9825C262.548 24.8787 263.656 23.7748 264.765 23.7748H288.873C289.981 23.7748 291.089 24.8787 291.089 25.9825V35.6409C291.089 36.7447 290.258 37.8485 288.873 37.8485Z" stroke="#007699" stroke-width="2" stroke-miterlimit="10" stroke-linecap="round"/>
<rect width="22.4454" height="19.0408" fill="black" fill-opacity="0" transform="translate(309.101 35.6411)"/>
<path d="M319.907 45.8514L314.92 54.6819" stroke="#007699" stroke-width="2" stroke-miterlimit="10" stroke-linecap="round"/>
<path d="M325.173 53.8541L310.209 45.2995C309.101 44.7476 308.823 43.3678 309.378 42.264L312.426 36.7449C312.98 35.6411 314.366 35.3652 315.474 35.9171L330.438 44.4716C331.546 45.0236 331.823 46.4033 331.269 47.5072L328.221 53.0262C327.667 54.1301 326.281 54.406 325.173 53.8541Z" fill="#84BFD1" stroke="#007699" stroke-width="2" stroke-linecap="round"/>
<path d="M325.173 53.8541L310.209 45.2995C309.101 44.7476 308.823 43.3678 309.378 42.264L312.426 36.7449C312.98 35.6411 314.366 35.3652 315.474 35.9171L330.438 44.4716C331.546 45.0236 331.823 46.4033 331.269 47.5072L328.221 53.0262C327.667 54.1301 326.281 54.406 325.173 53.8541Z" stroke="#007699" stroke-width="2" stroke-miterlimit="10" stroke-linecap="round"/>
<rect width="22.4454" height="19.0408" fill="black" fill-opacity="0" transform="translate(221.537 35.6411)"/>
<path d="M233.176 45.8514L238.164 54.6819" stroke="#007699" stroke-width="2" stroke-miterlimit="10" stroke-linecap="round"/>
<path d="M227.91 53.8541L242.874 45.2995C243.982 44.7476 244.259 43.3678 243.705 42.264L240.657 36.7449C240.103 35.6411 238.717 35.3652 237.609 35.9171L222.645 44.4716C221.537 45.0236 221.26 46.4033 221.814 47.5072L224.862 53.0262C225.416 54.1301 226.802 54.406 227.91 53.8541Z" fill="#85D6E4" stroke="#007699" stroke-width="2" stroke-linecap="round"/>
<path d="M227.91 53.8541L242.874 45.2995C243.982 44.7476 244.259 43.3678 243.705 42.264L240.657 36.7449C240.103 35.6411 238.717 35.3652 237.609 35.9171L222.645 44.4716C221.537 45.0236 221.26 46.4033 221.814 47.5072L224.862 53.0262C225.416 54.1301 226.802 54.406 227.91 53.8541Z" stroke="#007699" stroke-width="2" stroke-miterlimit="10" stroke-linecap="round"/>
<g opacity="0.4">
<rect width="156.992" height="149.835" fill="black" fill-opacity="0" transform="translate(1 9.39075)"/>
<path d="M144.298 55.8913H14.6938C12.7375 55.8913 11.2703 57.3675 11.2703 59.3358V158.979H140.874C144.787 158.979 147.966 155.781 147.966 151.844V59.5818C147.966 57.6135 146.498 55.8913 144.298 55.8913Z" fill="#B9DCE3" stroke="#16B5D0" stroke-width="2" stroke-linecap="round"/>
<path d="M97.1023 55.8913H16.6501C13.7157 55.8913 11.2703 58.3516 11.2703 61.304V159.225H137.206C143.075 159.225 147.966 154.305 147.966 148.4V61.5501C147.966 58.3516 145.52 55.8913 142.341 55.8913H134.027" stroke="#16B5D0" stroke-width="2" stroke-miterlimit="10" stroke-linecap="round"/>
<rect width="96.8361" height="130.89" fill="black" fill-opacity="0" transform="translate(45.2612 9.39075)"/>
<path d="M114.954 9.39075L142.097 36.7005V132.407C142.097 136.836 138.674 140.281 134.272 140.281H53.0863C48.6847 140.281 45.2612 136.836 45.2612 132.407V17.2638C45.2612 12.8352 48.6847 9.39075 53.0863 9.39075H114.954Z" fill="#F1F2F2" stroke="#16B5D0" stroke-width="2" stroke-linecap="round"/>
<path d="M114.954 36.7005V9.39075L142.097 36.7005H114.954Z" fill="white" stroke="#16B5D0" stroke-width="2" stroke-linecap="round"/>
<path d="M142.097 36.7005H117.644C116.177 36.7005 114.954 35.4703 114.954 33.9941V9.39075" stroke="#16B5D0" stroke-width="2" stroke-miterlimit="10" stroke-linecap="round"/>
<path d="M91.723 9.39075H114.954L142.097 36.7005V132.407C142.097 136.836 138.674 140.281 134.272 140.281H130.849" stroke="#16B5D0" stroke-width="2" stroke-miterlimit="10" stroke-linecap="round"/>
<rect width="96.8362" height="130.89" fill="black" fill-opacity="0" transform="translate(61.1559 21.4464)"/>
<path d="M130.849 21.4463L157.992 48.7561V144.463C157.992 148.892 154.569 152.336 150.167 152.336H68.9811C64.5795 152.336 61.1559 148.892 61.1559 144.463V29.3194C61.1559 24.8908 64.5795 21.4463 68.9811 21.4463H130.849Z" fill="white" stroke="#16B5D0" stroke-width="2" stroke-linecap="round"/>
<path d="M130.849 48.7562V21.4465L157.992 48.7562H130.849Z" fill="#16B5D0" stroke="#16B5D0" stroke-width="2" stroke-linecap="round"/>
<path d="M157.992 48.7562H133.539C132.071 48.7562 130.849 47.526 130.849 46.0498V21.4465" stroke="#16B5D0" stroke-width="2" stroke-miterlimit="10" stroke-linecap="round"/>
<path d="M145.031 62.0422H75.5833" stroke="#16B5D0" stroke-width="2" stroke-miterlimit="10" stroke-linecap="round"/>
<path d="M145.031 77.5417H75.5833" stroke="#16B5D0" stroke-width="2" stroke-miterlimit="10" stroke-linecap="round"/>
<path d="M145.031 93.2877H75.5833" stroke="#16B5D0" stroke-width="2" stroke-miterlimit="10" stroke-linecap="round"/>
<path d="M145.031 108.788H75.5833" stroke="#16B5D0" stroke-width="2" stroke-miterlimit="10" stroke-linecap="round"/>
<path d="M84.3869 21.4465H130.849L157.992 48.7562V144.463C157.992 148.892 154.569 152.336 150.167 152.336H136.228" stroke="#16B5D0" stroke-width="2" stroke-miterlimit="10" stroke-linecap="round"/>
<path d="M136.962 159.225H6.62435C3.44539 159.225 0.999985 156.764 0.999985 153.566V71.8828C0.999985 69.1765 3.20079 67.2082 5.64615 67.2082H27.8989C29.6106 67.2082 31.0779 67.9463 31.8115 69.4225L37.6803 78.5257H120.578C123.512 78.5257 125.958 80.9861 125.958 83.9385V147.907C126.202 153.32 129.87 159.225 136.962 159.225Z" fill="#85D6E4" stroke="#16B5D0" stroke-width="2" stroke-linecap="round"/>
<path d="M126.202 148.153V138.804H0.999985V153.32C0.999985 156.518 3.44539 158.979 6.62435 158.979H136.962C129.87 159.225 126.202 153.32 126.202 148.153Z" fill="#16B5D0" stroke="#16B5D0" stroke-width="2" stroke-linecap="round"/>
<path d="M55.7759 78.7718H120.578C123.512 78.7718 125.958 81.2321 125.958 84.1845V148.153C125.958 153.32 129.626 159.225 136.962 159.225H6.62435C3.44539 159.225 0.999985 156.764 0.999985 153.566V71.8828C0.999985 69.1765 3.20079 67.2082 5.64615 67.2082H27.8989" stroke="#16B5D0" stroke-width="2" stroke-miterlimit="10" stroke-linecap="round"/>
</g>
<path d="M592.793 115.647C592.793 133.852 578.038 148.61 559.837 148.61C541.635 148.61 526.88 133.852 526.88 115.647C526.88 97.4415 541.635 82.6832 559.837 82.6832C578.038 82.6832 592.793 97.4415 592.793 115.647Z" fill="#53B756"/>
<path d="M116.8 115.75C116.8 132.784 102.95 146.593 85.8644 146.593C68.779 146.593 54.9286 132.784 54.9286 115.75C54.9286 98.7161 68.779 84.9073 85.8644 84.9073C102.95 84.9073 116.8 98.7161 116.8 115.75Z" fill="#16B5D0" stroke="#16B5D0" stroke-width="4" stroke-linecap="round"/>
<path d="M240.543 115.75C240.543 132.784 226.693 146.593 209.607 146.593C192.522 146.593 178.672 132.784 178.672 115.75C178.672 98.7161 192.522 84.9073 209.607 84.9073C226.693 84.9073 240.543 98.7161 240.543 115.75Z" fill="#16B5D0" stroke="#16B5D0" stroke-width="4" stroke-linecap="round"/>
<rect width="214.432" height="172.115" fill="black" fill-opacity="0" transform="translate(802.738 1)"/>
<path d="M994.725 54.57H994.035C990.236 41.7823 978.496 32.1052 964.339 32.1052C958.123 32.1052 952.599 33.8332 947.764 36.9438C944.657 16.5526 927.046 1 905.983 1C886.991 1 870.762 13.4421 865.583 30.7227C863.166 30.0315 860.749 29.6859 857.986 29.6859C843.484 29.6859 831.398 40.3999 829.326 54.2244H824.492C812.407 54.2244 802.738 63.9016 802.738 75.998V78.0717C802.738 90.1682 812.407 99.8453 824.492 99.8453H995.416C1007.5 99.8453 1017.17 90.1682 1017.17 78.0717V76.3436C1016.48 64.5928 1006.47 54.57 994.725 54.57Z" fill="#F5F7F8" stroke="#007699" stroke-width="2" stroke-linecap="round"/>
<path d="M974.699 61.2988H974.008C970.555 49.8936 960.196 41.5989 947.765 41.5989C942.24 41.5989 937.406 43.327 932.917 46.0919C930.155 28.12 914.616 14.2955 895.97 14.2955C879.05 14.2955 864.893 25.3551 860.059 40.5621C857.987 39.8708 855.57 39.5252 853.498 39.5252C840.722 39.5252 830.018 48.8568 828.291 61.2988H824.147C813.443 61.2988 804.811 69.9392 804.811 80.6532V82.0356C804.811 92.7496 813.443 101.39 824.147 101.39H974.699C985.403 101.39 994.035 92.7496 994.035 82.0356V80.6532C993.69 69.9392 985.058 61.2988 974.699 61.2988Z" fill="white"/>
<path d="M932.916 33.8332C926.701 24.156 915.651 17.5894 903.22 17.5894C896.66 17.5894 890.444 19.3174 885.265 22.4279" stroke="#007699" stroke-width="2" stroke-miterlimit="10" stroke-linecap="round"/>
<path d="M968.482 99.8453H994.725C1006.81 99.8453 1016.48 90.1682 1016.48 78.0717V76.3436C1016.48 64.2472 1006.81 54.57 994.725 54.57H994.035C990.236 41.7823 978.496 32.1052 964.339 32.1052C958.123 32.1052 952.599 33.8332 947.764 36.9438C944.657 16.5526 927.046 1 905.983 1C892.862 1 881.121 6.87542 873.525 16.207C871.798 18.2807 870.417 20.3543 869.036 22.7736C867.655 25.1929 866.273 27.9578 865.583 31.0683C863.166 30.3771 860.749 30.0315 857.986 30.0315C843.484 30.0315 831.398 40.7455 829.326 54.57H824.492C812.407 54.57 802.738 64.2472 802.738 76.3436V78.0717C802.738 90.1682 812.407 99.8453 824.492 99.8453H849.354" stroke="#007699" stroke-width="2" stroke-miterlimit="10" stroke-linecap="round"/>
<path d="M857.641 30.0314C865.928 30.0314 872.834 36.9437 872.834 45.2384" stroke="#007699" stroke-width="2" stroke-miterlimit="10" stroke-linecap="round"/>
<rect width="69.7499" height="57.3718" fill="black" fill-opacity="0" transform="translate(891.48 115.744)"/>
<rect width="69.7499" height="57.3718" fill="black" fill-opacity="0" transform="translate(891.48 115.744)"/>
<rect width="69.7499" height="57.3718" fill="black" fill-opacity="0" transform="translate(891.48 115.744)"/>
<path d="M961.23 115.744C961.23 122.656 959.849 129.222 957.432 135.444C955.015 141.319 951.217 146.849 946.728 151.342C942.239 155.835 936.714 159.636 930.844 162.056C924.974 164.475 918.068 165.857 911.162 165.857C905.982 165.857 900.803 165.166 895.968 163.438" stroke="#007699" stroke-width="2" stroke-miterlimit="10" stroke-linecap="round"/>
<rect width="14.5026" height="15.207" fill="black" fill-opacity="0" transform="translate(891.48 157.908)"/>
<path d="M905.983 159.982L897.005 164.129L901.149 173.115L895.624 171.042L891.48 162.056L900.458 157.908L905.983 159.982Z" fill="#007699" stroke="#007699" stroke-width="2" stroke-linecap="round"/>
<rect width="85.6349" height="72.5787" fill="black" fill-opacity="0" transform="translate(860.749 62.8647)"/>
<rect width="85.6349" height="72.5787" fill="black" fill-opacity="0" transform="translate(860.749 62.8647)"/>
<rect width="85.6349" height="72.5787" fill="black" fill-opacity="0" transform="translate(860.749 62.8647)"/>
<path d="M864.547 135.443C862.13 129.568 860.749 122.656 860.749 115.743C860.749 108.831 862.13 102.265 864.547 96.0435C866.964 90.1681 870.762 84.6383 875.251 80.1453C879.74 75.6524 885.265 71.8506 891.135 69.4313C897.005 67.012 903.911 65.6296 910.817 65.6296C917.723 65.6296 924.284 67.012 930.499 69.4313C934.643 71.1594 938.441 73.5787 941.894 76.3436" stroke="#007699" stroke-width="2" stroke-miterlimit="10" stroke-linecap="round"/>
<rect width="17.9556" height="18.3175" fill="black" fill-opacity="0" transform="translate(928.428 62.8647)"/>
<path d="M928.428 75.998L940.859 75.3068L940.168 62.8647L945.693 67.7033L946.384 80.1454L933.953 81.1822L928.428 75.998Z" fill="#007699" stroke="#007699" stroke-width="2" stroke-linecap="round"/>
<path d="M936.369 115.743C936.369 130.95 924.284 143.047 909.091 143.047C893.897 143.047 881.812 130.95 881.812 115.743C881.812 100.536 893.897 88.44 909.091 88.44C924.284 88.44 936.369 100.536 936.369 115.743Z" fill="#1099D9" stroke="#007699" stroke-width="2" stroke-linecap="round"/>
<path d="M936.369 115.743C936.369 130.95 924.284 143.047 909.091 143.047C893.897 143.047 881.812 130.95 881.812 115.743C881.812 100.536 893.897 88.44 909.091 88.44C924.284 88.44 936.369 100.536 936.369 115.743Z" stroke="#007699" stroke-width="2" stroke-miterlimit="10" stroke-linecap="round"/>
<rect width="144.335" height="161.569" fill="black" fill-opacity="0" transform="translate(470.778 162.821)"/>
<rect width="144.335" height="161.569" fill="black" fill-opacity="0" transform="translate(470.778 162.821)"/>
<path d="M495.293 226.414V291.389H503.581V302.449V323.186C503.581 324.223 504.962 324.914 505.652 323.877L532.931 291.044H615.113V226.414H495.293Z" fill="white" stroke="#007699" stroke-width="2" stroke-linecap="round"/>
<path d="M495.293 272.381V291.735H503.581V302.449V323.186C503.581 324.223 504.962 324.914 505.652 323.877L532.931 291.044H615.113V226.414H584.381" stroke="#007699" stroke-width="2" stroke-miterlimit="10" stroke-linecap="round"/>
<path d="M577.821 241.275H600.265" stroke="#007699" stroke-width="2" stroke-miterlimit="10" stroke-linecap="round"/>
<path d="M568.153 258.556H600.266" stroke="#007699" stroke-width="2" stroke-miterlimit="10" stroke-linecap="round"/>
<path d="M549.162 275.837H600.267" stroke="#007699" stroke-width="2" stroke-miterlimit="10" stroke-linecap="round"/>
<path d="M474.231 269.27L502.2 264.086C508.761 267.196 516.012 268.579 523.609 268.579C552.959 268.579 576.44 244.731 576.44 215.7C576.44 186.323 552.614 162.821 523.609 162.821C494.258 162.821 470.778 186.668 470.778 215.7C470.778 226.068 473.885 235.746 478.72 243.695L474.231 269.27Z" fill="#F5F7F8" stroke="#007699" stroke-width="2" stroke-linecap="round"/>
<path d="M474.231 269.27L502.2 264.086C508.761 267.196 516.012 268.579 523.609 268.579C552.959 268.579 576.44 244.731 576.44 215.7C576.44 186.323 552.614 162.821 523.609 162.821C494.258 162.821 470.778 186.668 470.778 215.7C470.778 226.068 473.885 235.746 478.72 243.695L474.231 269.27Z" stroke="#007699" stroke-width="2" stroke-miterlimit="10" stroke-linecap="round"/>
<path d="M523.609 257.174C501.51 257.174 483.555 238.856 483.555 216.391C483.555 193.926 501.51 175.609 523.609 175.609C545.709 175.609 563.664 193.926 563.664 216.391C563.664 238.856 545.709 257.174 523.609 257.174Z" fill="white" stroke="#007699" stroke-width="2" stroke-linecap="round"/>
<path d="M542.6 217.428C542.6 221.23 545.708 223.995 549.161 223.995C552.959 223.995 555.721 220.884 555.721 217.428C555.721 213.626 552.614 210.861 549.161 210.861C545.362 210.861 542.6 213.972 542.6 217.428Z" stroke="#007699" stroke-width="2" stroke-linecap="round"/>
<path d="M516.011 217.428C516.011 221.23 519.119 223.995 522.572 223.995C526.025 223.995 529.133 220.884 529.133 217.428C529.133 213.626 526.025 210.861 522.572 210.861C519.119 210.861 516.011 213.972 516.011 217.428Z" stroke="#007699" stroke-width="2" stroke-linecap="round"/>
<path d="M489.426 217.428C489.426 221.23 492.534 223.995 495.987 223.995C499.44 223.995 502.547 220.884 502.547 217.428C502.547 213.626 499.44 210.861 495.987 210.861C492.534 210.861 489.426 213.972 489.426 217.428Z" stroke="#007699" stroke-width="2" stroke-linecap="round"/>
<path d="M542.6 217.428C542.6 221.23 545.708 223.995 549.161 223.995C552.959 223.995 555.721 220.884 555.721 217.428C555.721 213.626 552.614 210.861 549.161 210.861C545.362 210.861 542.6 213.972 542.6 217.428Z" stroke="#007699" stroke-width="2" stroke-miterlimit="10" stroke-linecap="round"/>
<path d="M516.011 217.428C516.011 221.23 519.119 223.995 522.572 223.995C526.025 223.995 529.133 220.884 529.133 217.428C529.133 213.626 526.025 210.861 522.572 210.861C519.119 210.861 516.011 213.972 516.011 217.428Z" stroke="#007699" stroke-width="2" stroke-miterlimit="10" stroke-linecap="round"/>
<path d="M489.426 217.428C489.426 221.23 492.534 223.995 495.987 223.995C499.44 223.995 502.547 220.884 502.547 217.428C502.547 213.626 499.44 210.861 495.987 210.861C492.534 210.861 489.426 213.972 489.426 217.428Z" stroke="#007699" stroke-width="2" stroke-miterlimit="10" stroke-linecap="round"/>
<path d="M417.49 318.66C417.49 336.184 402.735 352.857 384.534 352.857C366.333 352.857 351.578 336.184 351.578 318.66C351.578 301.136 366.333 286.93 384.534 286.93C402.735 286.93 417.49 301.136 417.49 318.66Z" fill="#D43C3C"/>
<path d="M768.096 115.474C768.096 133.679 753.341 148.437 735.139 148.437C716.938 148.437 702.183 133.679 702.183 115.474C702.183 97.2682 716.938 82.5099 735.139 82.5099C753.341 82.5099 768.096 97.2682 768.096 115.474Z" fill="#53B756"/>
<path fill-rule="evenodd" clip-rule="evenodd" d="M80.0852 125.447L73.326 118.686C72.5451 117.905 72.5451 116.638 73.326 115.857C74.1069 115.076 75.3732 115.076 76.1541 115.857L81.4992 121.203L96.4317 106.268C97.2126 105.487 98.4788 105.487 99.2598 106.268C100.041 107.049 100.041 108.315 99.2598 109.097L82.9133 125.447C82.1323 126.228 80.8661 126.228 80.0852 125.447Z" fill="white"/>
<path d="M417.49 115.474C417.49 133.679 402.735 148.437 384.534 148.437C366.333 148.437 351.578 133.679 351.578 115.474C351.578 97.2682 366.333 82.5099 384.534 82.5099C402.735 82.5099 417.49 97.2682 417.49 115.474Z" fill="#53B756"/>
<path d="M943.398 115.647C943.398 133.852 928.643 148.61 910.442 148.61C892.241 148.61 877.486 133.852 877.486 115.647C877.486 97.4415 892.241 82.6832 910.442 82.6832C928.643 82.6832 943.398 97.4415 943.398 115.647Z" fill="#53B756"/>
<path fill-rule="evenodd" clip-rule="evenodd" d="M203.515 125.44C203.517 125.442 203.52 125.444 203.522 125.447C203.619 125.544 203.725 125.63 203.835 125.703C204.612 126.216 205.666 126.13 206.35 125.447C206.352 125.444 206.354 125.442 206.356 125.44L222.696 109.097C223.477 108.315 223.477 107.049 222.696 106.268C221.915 105.487 220.649 105.487 219.868 106.268L204.936 121.203L199.591 115.857C198.81 115.076 197.543 115.076 196.763 115.857C195.982 116.638 195.982 117.905 196.763 118.686L203.515 125.44Z" fill="white"/>
<path d="M416.849 216.162C416.849 234.368 402.094 249.126 383.893 249.126C365.692 249.126 350.936 234.368 350.936 216.162C350.936 197.957 365.692 183.199 383.893 183.199C402.094 183.199 416.849 197.957 416.849 216.162Z" fill="#53B756"/>
<path fill-rule="evenodd" clip-rule="evenodd" d="M378.49 125.447L371.731 118.686C370.95 117.905 370.95 116.638 371.731 115.857C372.512 115.076 373.778 115.076 374.559 115.857L379.904 121.203L394.836 106.268C395.617 105.487 396.884 105.487 397.665 106.268C398.446 107.049 398.446 108.315 397.665 109.097L381.318 125.447C380.537 126.228 379.271 126.228 378.49 125.447Z" fill="white"/>
<path fill-rule="evenodd" clip-rule="evenodd" d="M377.842 226.129C377.844 226.131 377.847 226.133 377.849 226.135C377.947 226.233 378.052 226.318 378.163 226.392C378.939 226.904 379.994 226.819 380.677 226.135C380.679 226.133 380.681 226.131 380.684 226.129L397.024 209.785C397.804 209.004 397.804 207.738 397.024 206.957C396.243 206.175 394.976 206.175 394.195 206.957L379.263 221.892L373.918 216.546C373.137 215.765 371.871 215.765 371.09 216.546C370.309 217.327 370.309 218.594 371.09 219.375L377.842 226.129Z" fill="white"/>
<path fill-rule="evenodd" clip-rule="evenodd" d="M374.048 327.591C373.267 328.372 373.267 329.639 374.048 330.42C374.829 331.201 376.095 331.201 376.876 330.42L383.851 323.444L390.826 330.42C391.607 331.201 392.873 331.201 393.654 330.42C394.435 329.639 394.435 328.372 393.654 327.591L386.679 320.615L393.223 314.07C394.004 313.289 394.004 312.022 393.223 311.241C392.442 310.46 391.175 310.46 390.395 311.241L383.851 317.786L377.308 311.241C376.527 310.46 375.26 310.46 374.479 311.241C373.698 312.022 373.698 313.289 374.479 314.07L381.023 320.615L374.048 327.591Z" fill="white"/>
<path fill-rule="evenodd" clip-rule="evenodd" d="M553.458 125.447L546.699 118.686C545.918 117.905 545.918 116.638 546.699 115.857C547.48 115.076 548.746 115.076 549.527 115.857L554.872 121.203L569.805 106.268C570.586 105.487 571.852 105.487 572.633 106.268C573.414 107.049 573.414 108.315 572.633 109.097L556.286 125.447C556.286 125.447 556.286 125.447 556.286 125.447C555.505 126.228 554.239 126.228 553.458 125.447Z" fill="white"/>
<path fill-rule="evenodd" clip-rule="evenodd" d="M729.625 125.447L722.866 118.686C722.085 117.905 722.085 116.638 722.866 115.857C723.647 115.076 724.913 115.076 725.694 115.857L731.039 121.203L745.971 106.268C746.752 105.487 748.019 105.487 748.799 106.268C749.58 107.049 749.58 108.315 748.799 109.097L732.453 125.447C732.453 125.447 732.453 125.447 732.453 125.447C731.672 126.228 730.406 126.228 729.625 125.447Z" fill="white"/>
<path fill-rule="evenodd" clip-rule="evenodd" d="M905.787 125.442C905.788 125.443 905.79 125.445 905.792 125.447C905.889 125.544 905.994 125.63 906.105 125.703C906.881 126.216 907.936 126.13 908.62 125.447L924.966 109.097C925.747 108.315 925.747 107.049 924.966 106.268C924.185 105.487 922.919 105.487 922.138 106.268L907.206 121.203L901.86 115.857C901.08 115.076 899.813 115.076 899.032 115.857C898.251 116.638 898.251 117.905 899.032 118.686L905.787 125.442Z" fill="white"/>
<rect width="90.1517" height="175.644" fill="black" fill-opacity="0" transform="translate(672.111 202.486) rotate(-34.9479)"/>
<path d="M759.385 248.69L770.132 264.071" stroke="#007699" stroke-width="2" stroke-miterlimit="10" stroke-linecap="round"/>
<path d="M709.055 176.66C688.614 190.95 683.645 218.993 697.931 239.438C712.218 259.884 740.255 264.854 760.696 250.564C781.137 236.275 786.106 208.232 771.819 187.786C757.533 167.341 729.496 162.371 709.055 176.66ZM754.535 241.748C738.97 252.629 717.624 248.845 706.745 233.277C695.867 217.708 699.65 196.357 715.215 185.476C730.78 174.595 752.127 178.379 763.005 193.948C773.884 209.517 770.101 230.867 754.535 241.748Z" fill="#F5F7F8" stroke="#007699" stroke-width="2" stroke-linecap="round"/>
<path d="M774.301 254.456L759.674 264.682L802.346 325.751L816.974 315.526L774.301 254.456Z" fill="white" stroke="#007699" stroke-width="2" stroke-linecap="round" stroke-linejoin="round"/>
<path d="M766.638 275.448L782.016 264.698" stroke="#007699" stroke-width="2" stroke-miterlimit="10" stroke-linecap="round"/>
<path d="M772.012 283.139L787.389 272.389" stroke="#007699" stroke-width="2" stroke-miterlimit="10" stroke-linecap="round"/>
<rect width="167.778" height="167.815" fill="black" fill-opacity="0" transform="translate(787.159 257.517)"/>
<rect width="167.778" height="167.815" fill="black" fill-opacity="0" transform="translate(787.159 257.517)"/>
<path d="M935.478 287.36C947.585 302.065 954.937 320.663 954.937 341.424C954.937 387.703 917.316 425.331 871.048 425.331C824.779 425.331 787.159 387.703 787.159 341.424C787.159 295.145 824.779 257.517 871.048 257.517C882.723 257.517 893.533 259.679 903.911 264.004" fill="white"/>
<path d="M935.478 287.36C947.585 302.065 954.937 320.663 954.937 341.424C954.937 387.703 917.316 425.331 871.048 425.331C824.779 425.331 787.159 387.703 787.159 341.424C787.159 295.145 824.779 257.517 871.048 257.517C882.723 257.517 893.533 259.679 903.911 264.004" stroke="#007699" stroke-width="2" stroke-miterlimit="10" stroke-linecap="round"/>
<path d="M928.126 279.575C929.424 280.872 930.721 282.17 932.018 283.467" stroke="#007699" stroke-width="2" stroke-miterlimit="10" stroke-linecap="round"/>
<path d="M910.398 266.6C914.723 268.762 918.614 271.358 922.074 273.953" stroke="#007699" stroke-width="2" stroke-miterlimit="10" stroke-linecap="round"/>
<rect width="80.43" height="129.528" fill="black" fill-opacity="0" transform="translate(830.834 276.34)"/>
<path d="M904.777 322.826C904.777 324.989 903.047 326.286 901.317 326.286C899.155 326.286 897.858 324.556 897.858 322.826V319.366C897.858 317.203 899.588 315.906 901.317 315.906C903.48 315.906 904.777 317.636 904.777 319.366V322.826Z" fill="white" stroke="#007699" stroke-width="2" stroke-linecap="round"/>
<path d="M904.777 322.826C904.777 324.989 903.047 326.286 901.317 326.286C899.155 326.286 897.858 324.556 897.858 322.826V319.366C897.858 317.203 899.588 315.906 901.317 315.906C903.48 315.906 904.777 317.636 904.777 319.366V322.826Z" stroke="#007699" stroke-width="2" stroke-miterlimit="10" stroke-linecap="round"/>
<path d="M845.968 322.826C845.968 324.989 844.238 326.286 842.508 326.286C840.346 326.286 839.049 324.556 839.049 322.826V319.366C839.049 317.203 840.779 315.906 842.508 315.906C844.67 315.906 845.968 317.636 845.968 319.366V322.826Z" fill="white" stroke="#007699" stroke-width="2" stroke-linecap="round"/>
<path d="M845.968 322.826C845.968 324.989 844.238 326.286 842.508 326.286C840.346 326.286 839.049 324.556 839.049 322.826V319.366C839.049 317.203 840.779 315.906 842.508 315.906C844.67 315.906 845.968 317.636 845.968 319.366V322.826Z" stroke="#007699" stroke-width="2" stroke-miterlimit="10" stroke-linecap="round"/>
<path d="M911.263 405.868V394.623C911.263 375.592 893.102 360.022 871.049 360.022C848.995 360.022 830.834 375.592 830.834 394.623V405.868H911.263Z" fill="#84BFD1" stroke="#007699" stroke-width="2" stroke-linecap="round"/>
<path d="M832.131 385.972C831.266 388.567 830.834 391.162 830.834 394.19V405.435" stroke="#007699" stroke-width="2" stroke-miterlimit="10" stroke-linecap="round"/>
<path d="M842.509 370.403C839.482 372.998 836.887 376.025 835.158 379.485" stroke="#007699" stroke-width="2" stroke-miterlimit="10" stroke-linecap="round"/>
<path d="M911.264 405.868V394.623C911.264 375.592 893.102 360.022 871.049 360.022C862.833 360.022 854.617 362.184 848.131 366.077" stroke="#007699" stroke-width="2" stroke-miterlimit="10" stroke-linecap="round"/>
<path d="M881.426 375.593H859.805L862.4 343.587H878.399L881.426 375.593Z" fill="white" stroke="#007699" stroke-width="2" stroke-linecap="round"/>
<path d="M881.426 375.593H859.805L862.4 343.587H878.399L881.426 375.593Z" stroke="#007699" stroke-width="2" stroke-miterlimit="10" stroke-linecap="round"/>
<path d="M895.696 355.697H848.995C846.4 355.697 844.238 353.534 844.238 350.939L845.968 310.716C846.4 296.443 858.075 285.63 872.345 285.63C886.615 285.63 897.858 296.875 898.723 310.716L900.452 350.939C900.02 353.534 898.29 355.697 895.696 355.697Z" fill="white" stroke="#007699" stroke-width="2" stroke-linecap="round"/>
<path d="M895.696 355.697H848.995C846.4 355.697 844.238 353.534 844.238 350.939L845.968 310.716C846.4 296.443 858.075 285.63 872.345 285.63C886.615 285.63 897.858 296.875 898.723 310.716L900.452 350.939C900.02 353.534 898.29 355.697 895.696 355.697Z" stroke="#007699" stroke-width="2" stroke-miterlimit="10" stroke-linecap="round"/>
<path d="M853.32 313.311H867.59" stroke="#007699" stroke-width="2" stroke-miterlimit="10" stroke-linecap="round"/>
<path d="M858.509 318.501H862.401" stroke="#007699" stroke-width="2" stroke-miterlimit="10" stroke-linecap="round"/>
<path d="M880.561 318.501H884.02" stroke="#007699" stroke-width="2" stroke-miterlimit="10" stroke-linecap="round"/>
<path d="M874.939 313.311H889.209" stroke="#007699" stroke-width="2" stroke-miterlimit="10" stroke-linecap="round"/>
<path d="M871.913 312.014V332.774H864.994" stroke="#007699" stroke-width="2" stroke-miterlimit="10" stroke-linecap="round"/>
<path d="M862.4 344.452H874.508C877.967 344.452 880.994 343.155 883.589 340.992L884.454 340.127" stroke="#007699" stroke-width="2" stroke-miterlimit="10" stroke-linecap="round"/>
<path d="M880.13 292.983C877.103 299.903 864.995 296.443 866.292 301.2C866.725 303.795 860.239 292.118 863.265 285.197C866.292 278.277 872.346 274.817 877.103 276.98C881.859 279.142 883.157 286.495 880.13 292.983Z" fill="#84BFD1" stroke="#007699" stroke-width="2" stroke-linecap="round"/>
<path d="M880.13 292.983C877.103 299.903 864.995 296.443 866.292 301.2C866.725 303.795 860.239 292.118 863.265 285.197C866.292 278.277 872.346 274.817 877.103 276.98C881.859 279.142 883.157 286.495 880.13 292.983Z" stroke="#007699" stroke-width="2" stroke-miterlimit="10" stroke-linecap="round"/>
<path d="M831.266 388.568L844.671 394.191L858.076 388.568L871.049 394.191L884.454 388.568L897.859 394.191L911.264 388.568" stroke="#007699" stroke-width="2" stroke-miterlimit="10" stroke-linecap="round"/>
<path d="M831.266 397.218L844.671 402.841L858.076 397.218L871.049 402.841L884.454 397.218L897.859 402.841L911.264 397.218" stroke="#007699" stroke-width="2" stroke-miterlimit="10" stroke-linecap="round"/>
<rect width="167.778" height="167.815" fill="black" fill-opacity="0" transform="translate(386.889 327.04)"/>
<rect width="167.778" height="167.815" fill="black" fill-opacity="0" transform="translate(386.889 327.04)"/>
<path d="M535.107 357.038C547.277 371.819 554.667 390.514 554.667 410.947C554.667 457.466 516.851 494.854 470.778 494.854C424.269 494.854 386.889 457.031 386.889 410.947C386.889 364.428 424.704 327.04 470.778 327.04C482.514 327.04 493.38 329.213 503.377 333.561" fill="white"/>
<path d="M535.107 357.038C547.277 371.819 554.667 390.514 554.667 410.947C554.667 457.466 516.851 494.854 470.778 494.854C424.269 494.854 386.889 457.031 386.889 410.947C386.889 364.428 424.704 327.04 470.778 327.04C482.514 327.04 493.38 329.213 503.377 333.561" stroke="#007699" stroke-width="2" stroke-miterlimit="10" stroke-linecap="round"/>
<path d="M527.717 349.647C529.021 350.951 530.325 352.255 531.629 353.56" stroke="#007699" stroke-width="2" stroke-miterlimit="10" stroke-linecap="round"/>
<path d="M509.898 337.039C513.809 339.213 518.156 341.822 521.633 344.43" stroke="#007699" stroke-width="2" stroke-miterlimit="10" stroke-linecap="round"/>
<rect width="70.4136" height="133.904" fill="black" fill-opacity="0" transform="translate(435.57 341.821)"/>
<path d="M504.246 377.906H438.613V460.074H504.246V377.906Z" fill="#84BFD1" stroke="#007699" stroke-width="2" stroke-linecap="round"/>
<path d="M504.246 377.906H438.613V460.074H504.246V377.906Z" stroke="#007699" stroke-width="2" stroke-miterlimit="10" stroke-linecap="round"/>
<path d="M505.551 399.209C505.551 401.382 503.812 403.121 501.639 403.121C499.466 403.121 497.727 401.382 497.727 399.209V395.731C497.727 393.557 499.466 391.818 501.639 391.818C503.812 391.818 505.551 393.557 505.551 395.731V399.209Z" fill="white" stroke="#007699" stroke-width="2" stroke-linecap="round"/>
<path d="M505.551 399.209C505.551 401.382 503.812 403.121 501.639 403.121C499.466 403.121 497.727 401.382 497.727 399.209V395.731C497.727 393.557 499.466 391.818 501.639 391.818C503.812 391.818 505.551 393.557 505.551 395.731V399.209Z" stroke="#007699" stroke-width="2" stroke-miterlimit="10" stroke-linecap="round"/>
<path d="M443.394 399.209C443.394 401.382 441.656 403.121 439.482 403.121C437.309 403.121 435.57 401.382 435.57 399.209V395.731C435.57 393.557 437.309 391.818 439.482 391.818C441.656 391.818 443.394 393.557 443.394 395.731V399.209Z" fill="white" stroke="#007699" stroke-width="2" stroke-linecap="round"/>
<path d="M443.394 399.209C443.394 401.382 441.656 403.121 439.482 403.121C437.309 403.121 435.57 401.382 435.57 399.209V395.731C435.57 393.557 437.309 391.818 439.482 391.818C441.656 391.818 443.394 393.557 443.394 395.731V399.209Z" stroke="#007699" stroke-width="2" stroke-miterlimit="10" stroke-linecap="round"/>
<path d="M505.984 475.29V469.638C505.984 450.509 490.336 434.858 471.211 434.858C452.086 434.858 436.439 450.509 436.439 469.638V475.29H505.984Z" fill="#84BFD1" stroke="#007699" stroke-width="2" stroke-linecap="round"/>
<path d="M448.175 443.553C454.26 438.336 462.084 435.293 470.777 435.293C489.902 435.293 505.55 450.944 505.55 470.073V475.725" stroke="#007699" stroke-width="2" stroke-miterlimit="10" stroke-linecap="round"/>
<path d="M440.351 453.552C441.221 451.813 442.525 449.64 443.829 447.901" stroke="#007699" stroke-width="2" stroke-miterlimit="10" stroke-linecap="round"/>
<path d="M436.439 475.291V469.639C436.439 467.03 436.873 464.422 437.308 461.813" stroke="#007699" stroke-width="2" stroke-miterlimit="10" stroke-linecap="round"/>
<path d="M470.343 448.77C465.997 448.77 462.954 445.292 462.954 441.379V425.294C462.954 420.946 466.431 417.903 470.343 417.903C474.69 417.903 477.732 421.381 477.732 425.294V441.379C478.167 445.727 474.69 448.77 470.343 448.77Z" fill="white" stroke="#007699" stroke-width="2" stroke-linecap="round"/>
<path d="M470.343 448.77C465.997 448.77 462.954 445.292 462.954 441.379V425.294C462.954 420.946 466.431 417.903 470.343 417.903C474.69 417.903 477.732 421.381 477.732 425.294V441.379C478.167 445.727 474.69 448.77 470.343 448.77Z" stroke="#007699" stroke-width="2" stroke-miterlimit="10" stroke-linecap="round"/>
<path d="M499.9 375.297V404.86C499.9 419.642 486.86 431.815 470.778 431.815C454.695 431.815 441.656 419.642 441.656 404.86V375.297H499.9Z" fill="white" stroke="#007699" stroke-width="2" stroke-linecap="round"/>
<path d="M499.9 375.297V404.86C499.9 419.642 486.86 431.815 470.778 431.815C454.695 431.815 441.656 419.642 441.656 404.86V375.297H499.9Z" stroke="#007699" stroke-width="2" stroke-miterlimit="10" stroke-linecap="round"/>
<path d="M464.693 391.818C464.693 396.6 460.781 400.513 456 400.513C451.219 400.513 447.307 396.6 447.307 391.818C447.307 387.036 451.219 383.123 456 383.123C460.781 383.123 464.693 386.601 464.693 391.818Z" stroke="#007699" stroke-width="2" stroke-miterlimit="10" stroke-linecap="round"/>
<path d="M451.218 392.688C452.522 391.383 453.826 390.949 455.999 390.949C457.738 390.949 459.476 391.818 460.78 392.688" stroke="#007699" stroke-width="2" stroke-miterlimit="10" stroke-linecap="round"/>
<path d="M479.905 392.688C481.209 391.383 482.513 390.949 484.687 390.949C486.425 390.949 488.164 391.818 489.468 392.688" stroke="#007699" stroke-width="2" stroke-miterlimit="10" stroke-linecap="round"/>
<path d="M493.381 391.818C493.381 396.6 489.469 400.513 484.688 400.513C479.906 400.513 475.994 396.6 475.994 391.818C475.994 387.036 479.906 383.123 484.688 383.123C489.469 382.688 493.381 386.601 493.381 391.818Z" stroke="#007699" stroke-width="2" stroke-miterlimit="10" stroke-linecap="round"/>
<path d="M464.692 387.905H475.559" stroke="#007699" stroke-width="2" stroke-miterlimit="10" stroke-linecap="round"/>
<path d="M468.169 391.818V409.208H473.385" stroke="#007699" stroke-width="2" stroke-miterlimit="10" stroke-linecap="round"/>
<path d="M454.26 415.294L457.738 420.511H481.209L485.121 416.163" stroke="#007699" stroke-width="2" stroke-miterlimit="10" stroke-linecap="round"/>
<path d="M440.786 375.297H501.638" stroke="#007699" stroke-width="2" stroke-miterlimit="10" stroke-linecap="round"/>
<path d="M504.247 377.906V374.862C504.247 356.603 489.468 341.821 471.213 341.821C452.957 341.821 438.179 356.603 438.179 374.862V377.906H504.247Z" fill="#84BFD1" stroke="#007699" stroke-width="2" stroke-linecap="round"/>
<path d="M504.247 377.906V374.862C504.247 356.603 489.468 341.821 471.213 341.821C452.957 341.821 438.179 356.603 438.179 374.862V377.906H504.247Z" stroke="#007699" stroke-width="2" stroke-miterlimit="10" stroke-linecap="round"/>
<path d="M451.654 369.211V377.906" stroke="#007699" stroke-width="2" stroke-miterlimit="10" stroke-linecap="round"/>
<path d="M459.477 369.211V377.906" stroke="#007699" stroke-width="2" stroke-miterlimit="10" stroke-linecap="round"/>
<path d="M467.301 369.211V377.906" stroke="#007699" stroke-width="2" stroke-miterlimit="10" stroke-linecap="round"/>
<path d="M475.559 369.211V377.906" stroke="#007699" stroke-width="2" stroke-miterlimit="10" stroke-linecap="round"/>
<path d="M483.382 369.211V377.906" stroke="#007699" stroke-width="2" stroke-miterlimit="10" stroke-linecap="round"/>
<path d="M491.207 369.211V377.906" stroke="#007699" stroke-width="2" stroke-miterlimit="10" stroke-linecap="round"/>
<rect width="167.778" height="167.815" fill="black" fill-opacity="0" transform="translate(161.587 258.715)"/>
<rect width="167.778" height="167.815" fill="black" fill-opacity="0" transform="translate(161.587 258.715)"/>
<path d="M309.969 288.786C322.091 303.336 329.365 322.252 329.365 342.623C329.365 388.699 292.027 426.53 245.476 426.53C199.41 426.53 161.587 389.184 161.587 342.623C161.587 296.546 198.925 258.715 245.476 258.715C257.114 258.715 268.267 261.14 277.965 265.505" fill="white"/>
<path d="M309.969 288.786C322.091 303.336 329.365 322.252 329.365 342.623C329.365 388.699 292.027 426.53 245.476 426.53C199.41 426.53 161.587 389.184 161.587 342.623C161.587 296.546 198.925 258.715 245.476 258.715C257.114 258.715 268.267 261.14 277.965 265.505" stroke="#007699" stroke-width="2" stroke-miterlimit="10" stroke-linecap="round"/>
<rect width="77.1433" height="119.313" fill="black" fill-opacity="0" transform="translate(207.127 286.847)"/>
<path d="M276.996 330.498C276.996 332.438 275.541 334.378 273.116 334.378C271.177 334.378 269.237 332.923 269.237 330.498V327.103C269.237 325.162 270.692 323.222 273.116 323.222C275.056 323.222 276.996 324.677 276.996 327.103V330.498Z" fill="white" stroke="#007699" stroke-width="2" stroke-linecap="round"/>
<path d="M276.996 330.498C276.996 332.438 275.541 334.378 273.116 334.378C271.177 334.378 269.237 332.923 269.237 330.498V327.103C269.237 325.162 270.692 323.222 273.116 323.222C275.056 323.222 276.996 324.677 276.996 327.103V330.498Z" stroke="#007699" stroke-width="2" stroke-miterlimit="10" stroke-linecap="round"/>
<path d="M219.291 330.498C219.291 332.438 217.836 334.378 215.412 334.378C213.472 334.378 211.532 332.923 211.532 330.498V327.103C211.532 325.162 212.987 323.222 215.412 323.222C217.351 323.222 219.291 324.677 219.291 327.103V330.498Z" fill="white" stroke="#007699" stroke-width="2" stroke-linecap="round"/>
<path d="M219.291 330.498C219.291 332.438 217.836 334.378 215.412 334.378C213.472 334.378 211.532 332.923 211.532 330.498V327.103C211.532 325.162 212.987 323.222 215.412 323.222C217.351 323.222 219.291 324.677 219.291 327.103V330.498Z" stroke="#007699" stroke-width="2" stroke-miterlimit="10" stroke-linecap="round"/>
<path d="M284.269 406.16V395.49C284.269 377.544 266.813 362.509 245.962 362.509C224.626 362.509 207.654 377.544 207.654 395.49V406.16H284.269Z" fill="#85D6E4" stroke="#007699" stroke-width="2" stroke-linecap="round"/>
<path d="M226.302 398.124V367.794H223.518C213.931 371.809 207.127 383.405 207.127 396.34V406.152H226.302V398.124Z" fill="#16B5D0" stroke="#007699" stroke-width="2" stroke-linecap="round"/>
<path d="M283.825 406.152V396.34C283.825 383.405 277.335 372.255 268.191 367.794H264.651V398.124V406.152H283.825Z" fill="#16B5D0" stroke="#007699" stroke-width="2" stroke-linecap="round"/>
<path d="M208.139 387.729C207.654 390.154 207.169 393.065 207.169 395.49V406.16" stroke="#007699" stroke-width="2" stroke-miterlimit="10" stroke-linecap="round"/>
<path d="M218.321 372.209C215.411 374.634 212.987 377.544 211.047 380.939" stroke="#007699" stroke-width="2" stroke-miterlimit="10" stroke-linecap="round"/>
<path d="M284.27 406.16V395.49C284.27 377.544 266.814 362.509 245.963 362.509C237.719 362.509 230.446 364.449 224.142 368.329" stroke="#007699" stroke-width="2" stroke-miterlimit="10" stroke-linecap="round"/>
<path d="M252.265 367.359L244.992 372.209L237.233 367.359V346.503H252.265V367.359Z" fill="white" stroke="#007699" stroke-width="2" stroke-linecap="round"/>
<path d="M252.265 367.359L244.507 372.209L237.233 367.359V346.503H252.265V367.359Z" stroke="#007699" stroke-width="2" stroke-miterlimit="10" stroke-linecap="round"/>
<path d="M257.191 357.174L248.462 361.054C246.523 362.024 244.583 362.024 242.643 361.054L232.945 357.174C227.126 354.749 222.277 349.898 219.853 343.593C218.883 340.683 217.913 337.288 217.913 334.378V313.522C217.913 298.972 230.036 286.847 244.583 286.847C259.13 286.847 271.253 298.972 271.253 313.522V334.378C271.253 337.773 270.768 340.683 269.313 343.593V344.078C267.374 349.898 263.009 354.749 257.191 357.174Z" fill="white" stroke="#007699" stroke-width="2" stroke-linecap="round"/>
<path d="M257.115 357.174L248.386 361.054C246.447 362.024 244.507 362.024 242.567 361.054L232.869 357.174C227.05 354.749 222.201 349.898 219.777 343.593C218.807 340.683 217.837 337.288 217.837 334.378V313.522C217.837 298.972 229.96 286.847 244.507 286.847C259.054 286.847 271.177 298.972 271.177 313.522V334.378C271.177 337.773 270.692 340.683 269.237 343.593V344.078C267.298 349.898 262.933 354.749 257.115 357.174Z" stroke="#007699" stroke-width="2" stroke-miterlimit="10" stroke-linecap="round"/>
<path d="M246.675 313.854V335.43H239.484" stroke="#007699" stroke-width="2" stroke-miterlimit="10" stroke-linecap="round"/>
<path d="M234.718 325.841H227.698C223.634 325.841 220.31 322.42 220.31 318.239V317.859C220.31 313.679 223.634 310.258 227.698 310.258H234.718C238.781 310.258 242.106 313.679 242.106 317.859V318.239C242.106 322.42 238.781 325.841 234.718 325.841Z" stroke="#007699" stroke-width="2" stroke-miterlimit="10" stroke-linecap="round"/>
<path d="M262.055 325.841H255.036C250.972 325.841 247.647 322.42 247.647 318.239V317.859C247.647 313.679 250.972 310.258 255.036 310.258H262.055C266.119 310.258 269.444 313.679 269.444 317.859V318.239C269.444 322.42 266.119 325.841 262.055 325.841Z" stroke="#007699" stroke-width="2" stroke-miterlimit="10" stroke-linecap="round"/>
<path d="M242.107 318.239H247.279" stroke="#007699" stroke-width="2" stroke-miterlimit="10" stroke-linecap="round"/>
<path d="M258.658 348.443H244.111C239.747 348.443 235.383 346.988 231.503 344.563L231.018 344.078" stroke="#007699" stroke-width="2" stroke-miterlimit="10" stroke-linecap="round"/>
<path d="M232.383 316.433H235.778" stroke="#007699" stroke-width="2" stroke-miterlimit="10" stroke-linecap="round"/>
<path d="M263.251 316.251H259.857" stroke="#007699" stroke-width="2" stroke-miterlimit="10" stroke-linecap="round"/>
<path d="M302.696 281.026C304.151 282.481 305.121 283.451 306.575 284.907" stroke="#007699" stroke-width="2" stroke-miterlimit="10" stroke-linecap="round"/>
<path d="M284.755 268.416C288.634 270.356 292.998 273.266 296.393 275.691" stroke="#007699" stroke-width="2" stroke-miterlimit="10" stroke-linecap="round"/>
<ellipse cx="735.028" cy="213.765" rx="32.9563" ry="32.9636" fill="#F1C248"/>
<line x1="735.032" y1="194.589" x2="735.032" y2="217.358" stroke="white" stroke-width="6" stroke-linecap="round"/>
<line x1="735.032" y1="228.152" x2="735.032" y2="231.742" stroke="white" stroke-width="6" stroke-linecap="round"/>
<rect x="452" y="457" width="564" height="318" rx="3" fill="white" stroke="#007699" stroke-width="2"/>
<rect width="537.836" height="295.455" fill="black" fill-opacity="0" transform="translate(465.536 467.818)"/>
<rect width="537.836" height="220" fill="black" fill-opacity="0" transform="translate(465.536 543.273)"/>
<g opacity="0.6">
<path d="M494.608 634.545C494.608 632.336 496.399 630.545 498.608 630.545H505.144C507.354 630.545 509.144 632.336 509.144 634.545V738.727H494.608V634.545Z" fill="#53B756"/>
<path d="M523.681 649.091C523.681 646.882 525.471 645.091 527.681 645.091H534.217C536.426 645.091 538.217 646.882 538.217 649.091V734.182H523.681V649.091Z" fill="#53B756"/>
<path d="M552.753 634.545C552.753 632.336 554.544 630.545 556.753 630.545H563.289C565.498 630.545 567.289 632.336 567.289 634.545V743.273H552.753V634.545Z" fill="#53B756"/>
<path d="M581.825 584.545C581.825 582.336 583.616 580.545 585.825 580.545H592.361C594.57 580.545 596.361 582.336 596.361 584.545V734.182H581.825V584.545Z" fill="#53B756"/>
<path d="M610.897 574.545C610.897 572.336 612.688 570.545 614.897 570.545H621.433C623.643 570.545 625.433 572.336 625.433 574.545V734.182H610.897V574.545Z" fill="#53B756"/>
<path d="M639.97 613.636C639.97 611.427 641.76 609.636 643.97 609.636H650.506C652.715 609.636 654.506 611.427 654.506 613.636V743.273H639.97V613.636Z" fill="#53B756"/>
<path d="M669.042 674.545C669.042 672.336 670.833 670.545 673.042 670.545H679.578C681.787 670.545 683.578 672.336 683.578 674.545V738.727H669.042V674.545Z" fill="#53B756"/>
<path d="M698.114 627.273C698.114 625.064 699.905 623.273 702.114 623.273H708.65C710.859 623.273 712.65 625.064 712.65 627.273V734.182H698.114V627.273Z" fill="#53B756"/>
<path d="M727.186 564.545C727.186 562.336 728.977 560.545 731.186 560.545H737.722C739.931 560.545 741.722 562.336 741.722 564.545V738.727H727.186V564.545Z" fill="#53B756"/>
<path d="M756.258 600C756.258 597.791 758.049 596 760.258 596H766.795C769.004 596 770.795 597.791 770.795 600V743.273H756.258V600Z" fill="#53B756"/>
<path d="M785.331 547.273C785.331 545.064 787.122 543.273 789.331 543.273H795.867C798.076 543.273 799.867 545.064 799.867 547.273V738.727H785.331V547.273Z" fill="#53B756"/>
<path d="M814.403 584.545C814.403 582.336 816.194 580.545 818.403 580.545H824.939C827.148 580.545 828.939 582.336 828.939 584.545V734.182H814.403V584.545Z" fill="#53B756"/>
<path d="M843.475 609.091C843.475 606.882 845.266 605.091 847.475 605.091H854.011C856.22 605.091 858.011 606.882 858.011 609.091V738.727H843.475V609.091Z" fill="#53B756"/>
<path d="M872.547 627.273C872.547 625.064 874.338 623.273 876.547 623.273H883.084C885.293 623.273 887.084 625.064 887.084 627.273V743.273H872.547V627.273Z" fill="#53B756"/>
<path d="M901.62 609.091C901.62 606.882 903.41 605.091 905.62 605.091H912.156C914.365 605.091 916.156 606.882 916.156 609.091V738.727H901.62V609.091Z" fill="#53B756"/>
<path d="M959.764 647.273C959.764 645.064 961.555 643.273 963.764 643.273H970.3C972.509 643.273 974.3 645.064 974.3 647.273V746.909H959.764V647.273Z" fill="#53B756"/>
<path d="M988.836 623.636C988.836 621.427 990.627 619.636 992.836 619.636H999.372C1001.58 619.636 1003.37 621.427 1003.37 623.636V738.727H988.836V623.636Z" fill="#53B756"/>
<path d="M465.536 641.455C465.536 639.446 467.163 637.818 469.17 637.818H476.438C478.445 637.818 480.072 639.446 480.072 641.455V746H465.536V641.455Z" fill="#53B756"/>
</g>
<path d="M930.692 600C930.692 597.791 932.483 596 934.692 596H941.228C943.437 596 945.228 597.791 945.228 600V743.273H930.692V600Z" fill="#53B756"/>
<g opacity="0.6">
<path d="M494.608 740.545H509.144V759.273C509.144 761.482 507.354 763.273 505.144 763.273H498.608C496.399 763.273 494.608 761.482 494.608 759.273V740.545Z" fill="#D43C3C"/>
<path d="M523.681 736H538.217V759.636C538.217 761.645 536.59 763.273 534.583 763.273H527.315C525.308 763.273 523.681 761.645 523.681 759.636V736Z" fill="#D43C3C"/>
<path d="M552.753 745.091H567.289V759.636C567.289 761.645 565.662 763.273 563.655 763.273H556.387C554.38 763.273 552.753 761.645 552.753 759.636V745.091Z" fill="#D43C3C"/>
<path d="M581.825 736H596.361V759.273C596.361 761.482 594.57 763.273 592.361 763.273H585.825C583.616 763.273 581.825 761.482 581.825 759.273V736Z" fill="#D43C3C"/>
<path d="M610.897 736H625.433V759.273C625.433 761.482 623.643 763.273 621.433 763.273H614.897C612.688 763.273 610.897 761.482 610.897 759.273V736Z" fill="#D43C3C"/>
<path d="M639.97 745.091H654.506V759.273C654.506 761.482 652.715 763.273 650.506 763.273H643.97C641.76 763.273 639.97 761.482 639.97 759.273V745.091Z" fill="#D43C3C"/>
<path d="M669.042 740.545H683.578V759.273C683.578 761.482 681.787 763.273 679.578 763.273H673.042C670.833 763.273 669.042 761.482 669.042 759.273V740.545Z" fill="#D43C3C"/>
<path d="M698.114 736H712.65V759.273C712.65 761.482 710.859 763.273 708.65 763.273H702.114C699.905 763.273 698.114 761.482 698.114 759.273V736Z" fill="#D43C3C"/>
<path d="M727.186 740.545H741.722V759.273C741.722 761.482 739.931 763.273 737.722 763.273H731.186C728.977 763.273 727.186 761.482 727.186 759.273V740.545Z" fill="#D43C3C"/>
<path d="M756.258 745.091H770.795V759.273C770.795 761.482 769.004 763.273 766.795 763.273H760.258C758.049 763.273 756.258 761.482 756.258 759.273V745.091Z" fill="#D43C3C"/>
<path d="M785.331 740.545H799.867V759.273C799.867 761.482 798.076 763.273 795.867 763.273H789.331C787.122 763.273 785.331 761.482 785.331 759.273V740.545Z" fill="#D43C3C"/>
<path d="M814.403 736H828.939V759.273C828.939 761.482 827.148 763.273 824.939 763.273H818.403C816.194 763.273 814.403 761.482 814.403 759.273V736Z" fill="#D43C3C"/>
<path d="M843.475 740.545H858.011V759.273C858.011 761.482 856.22 763.273 854.011 763.273H847.475C845.266 763.273 843.475 761.482 843.475 759.273V740.545Z" fill="#D43C3C"/>
<path d="M872.547 745.091H887.084V759.273C887.084 761.482 885.293 763.273 883.084 763.273H876.547C874.338 763.273 872.547 761.482 872.547 759.273V745.091Z" fill="#D43C3C"/>
<path d="M901.62 740.545H916.156V759.273C916.156 761.482 914.365 763.273 912.156 763.273H905.62C903.41 763.273 901.62 761.482 901.62 759.273V740.545Z" fill="#D43C3C"/>
<path d="M959.764 748.727H974.3V759.273C974.3 761.482 972.509 763.273 970.3 763.273H963.764C961.555 763.273 959.764 761.482 959.764 759.273V748.727Z" fill="#D43C3C"/>
<path d="M988.836 740.545H1003.37V759.273C1003.37 761.482 1001.58 763.273 999.372 763.273H992.836C990.627 763.273 988.836 761.482 988.836 759.273V740.545Z" fill="#D43C3C"/>
<path d="M465.536 747.818H480.072V759.636C480.072 761.645 478.445 763.273 476.438 763.273H469.17C467.163 763.273 465.536 761.645 465.536 759.636V747.818Z" fill="#D43C3C"/>
</g>
<path d="M930.692 745.091H945.228V759.273C945.228 761.482 943.437 763.273 941.228 763.273H934.692C932.483 763.273 930.692 761.482 930.692 759.273V745.091Z" fill="#D43C3C"/>
<path d="M940.898 619.572C940.5 618.085 941.86 616.723 943.347 617.122L965.012 622.931C966.824 623.417 967.03 625.908 965.321 626.685L955.782 631.021C955.341 631.221 954.988 631.574 954.788 632.015L950.455 641.561C949.679 643.27 947.189 643.065 946.703 641.251L940.898 619.572Z" fill="white"/>
<path d="M954.788 632.015L953.878 631.601L954.788 632.015ZM965.012 622.931L964.753 623.897L965.012 622.931ZM940.898 619.572L939.932 619.831L940.898 619.572ZM943.088 618.088L964.753 623.897L965.27 621.965L943.605 616.156L943.088 618.088ZM947.669 640.992L941.864 619.313L939.932 619.831L945.737 641.51L947.669 640.992ZM964.908 625.774L955.368 630.11L956.195 631.932L965.735 627.596L964.908 625.774ZM953.878 631.601L949.545 641.147L951.365 641.975L955.698 632.429L953.878 631.601ZM955.368 630.11C954.707 630.411 954.178 630.94 953.878 631.601L955.698 632.429C955.798 632.208 955.975 632.032 956.195 631.932L955.368 630.11ZM945.737 641.51C946.466 644.231 950.201 644.539 951.365 641.975L949.545 641.147C949.156 642.002 947.912 641.899 947.669 640.992L945.737 641.51ZM964.753 623.897C965.659 624.14 965.762 625.386 964.908 625.774L965.735 627.596C968.297 626.431 967.989 622.694 965.27 621.965L964.753 623.897ZM943.605 616.156C941.375 615.558 939.335 617.6 939.932 619.831L941.864 619.313C941.664 618.57 942.345 617.889 943.088 618.088L943.605 616.156Z" fill="#007699"/>
<rect width="129.008" height="123.636" fill="black" fill-opacity="0" transform="translate(873.456 467.818)"/>
<mask id="path-180-inside-1" fill="white">
<path fill-rule="evenodd" clip-rule="evenodd" d="M879.456 467.818C876.142 467.818 873.456 470.504 873.456 473.818V571.818C873.456 575.132 876.142 577.818 879.456 577.818H927.469L937.96 591.455L948.45 577.818H996.464C999.778 577.818 1002.46 575.132 1002.46 571.818V473.818C1002.46 470.504 999.778 467.818 996.464 467.818H879.456Z"/>
</mask>
<path fill-rule="evenodd" clip-rule="evenodd" d="M879.456 467.818C876.142 467.818 873.456 470.504 873.456 473.818V571.818C873.456 575.132 876.142 577.818 879.456 577.818H927.469L937.96 591.455L948.45 577.818H996.464C999.778 577.818 1002.46 575.132 1002.46 571.818V473.818C1002.46 470.504 999.778 467.818 996.464 467.818H879.456Z" fill="white"/>
<path d="M927.469 577.818L929.055 576.599L928.454 575.818H927.469V577.818ZM937.96 591.455L936.375 592.674L937.96 594.735L939.545 592.674L937.96 591.455ZM948.45 577.818V575.818H947.466L946.865 576.599L948.45 577.818ZM875.456 473.818C875.456 471.609 877.247 469.818 879.456 469.818V465.818C875.038 465.818 871.456 469.4 871.456 473.818H875.456ZM875.456 571.818V473.818H871.456V571.818H875.456ZM879.456 575.818C877.247 575.818 875.456 574.027 875.456 571.818H871.456C871.456 576.236 875.038 579.818 879.456 579.818V575.818ZM927.469 575.818H879.456V579.818H927.469V575.818ZM925.884 579.038L936.375 592.674L939.545 590.235L929.055 576.599L925.884 579.038ZM939.545 592.674L950.036 579.038L946.865 576.599L936.375 590.235L939.545 592.674ZM996.464 575.818H948.45V579.818H996.464V575.818ZM1000.46 571.818C1000.46 574.027 998.673 575.818 996.464 575.818V579.818C1000.88 579.818 1004.46 576.236 1004.46 571.818H1000.46ZM1000.46 473.818V571.818H1004.46V473.818H1000.46ZM996.464 469.818C998.673 469.818 1000.46 471.609 1000.46 473.818H1004.46C1004.46 469.4 1000.88 465.818 996.464 465.818V469.818ZM879.456 469.818H996.464V465.818H879.456V469.818Z" fill="#007699" mask="url(#path-180-inside-1)"/>
<path d="M916.07 521.177C916.07 521.822 916.236 522.315 916.566 522.657C916.902 522.993 917.377 523.161 917.99 523.161C918.31 523.161 918.596 523.11 918.846 523.009C919.097 522.907 919.308 522.769 919.478 522.593C919.649 522.417 919.777 522.209 919.862 521.969C919.953 521.729 919.998 521.47 919.998 521.193C919.998 520.878 919.95 520.598 919.854 520.353C919.758 520.102 919.622 519.891 919.446 519.721C919.27 519.55 919.06 519.419 918.814 519.329C918.574 519.238 918.31 519.193 918.022 519.193C917.724 519.193 917.454 519.243 917.214 519.345C916.974 519.441 916.769 519.577 916.598 519.753C916.428 519.929 916.297 520.139 916.206 520.385C916.116 520.625 916.07 520.889 916.07 521.177ZM918.694 524.785C918.785 524.673 918.87 524.563 918.95 524.457C919.03 524.35 919.108 524.243 919.182 524.137C918.916 524.307 918.622 524.438 918.302 524.529C917.982 524.614 917.646 524.657 917.294 524.657C916.894 524.657 916.502 524.587 916.118 524.449C915.734 524.31 915.393 524.102 915.094 523.825C914.796 523.542 914.553 523.195 914.366 522.785C914.185 522.369 914.094 521.883 914.094 521.329C914.094 520.811 914.19 520.326 914.382 519.873C914.574 519.419 914.844 519.022 915.19 518.681C915.537 518.339 915.953 518.07 916.438 517.873C916.924 517.675 917.46 517.577 918.046 517.577C918.638 517.577 919.169 517.67 919.638 517.857C920.113 518.043 920.516 518.305 920.846 518.641C921.182 518.977 921.438 519.379 921.614 519.849C921.796 520.318 921.886 520.833 921.886 521.393C921.886 521.75 921.854 522.089 921.79 522.409C921.732 522.729 921.646 523.038 921.534 523.337C921.422 523.63 921.286 523.918 921.126 524.201C920.966 524.483 920.788 524.763 920.59 525.041L917.942 528.817C917.852 528.945 917.716 529.054 917.534 529.145C917.353 529.23 917.148 529.273 916.918 529.273H915.102L918.694 524.785ZM930.559 527.433C930.773 527.433 930.941 527.494 931.063 527.617C931.191 527.734 931.255 527.891 931.255 528.089V529.273H923.319V528.617C923.319 528.483 923.346 528.345 923.399 528.201C923.458 528.051 923.549 527.918 923.671 527.801L927.183 524.281C927.477 523.982 927.738 523.697 927.967 523.425C928.202 523.153 928.397 522.883 928.551 522.617C928.706 522.35 928.823 522.081 928.903 521.809C928.989 521.531 929.031 521.241 929.031 520.937C929.031 520.659 928.991 520.417 928.911 520.209C928.831 519.995 928.717 519.817 928.567 519.673C928.423 519.529 928.247 519.422 928.039 519.353C927.837 519.278 927.607 519.241 927.351 519.241C927.117 519.241 926.898 519.275 926.695 519.345C926.498 519.409 926.322 519.502 926.167 519.625C926.013 519.742 925.882 519.881 925.775 520.041C925.669 520.201 925.589 520.377 925.535 520.569C925.445 520.814 925.327 520.977 925.183 521.057C925.039 521.137 924.831 521.155 924.559 521.113L923.519 520.929C923.599 520.374 923.754 519.889 923.983 519.473C924.213 519.051 924.498 518.702 924.839 518.425C925.186 518.142 925.581 517.931 926.023 517.793C926.471 517.649 926.951 517.577 927.463 517.577C927.997 517.577 928.485 517.657 928.927 517.817C929.37 517.971 929.749 518.193 930.063 518.481C930.378 518.769 930.623 519.115 930.799 519.521C930.975 519.926 931.063 520.377 931.063 520.873C931.063 521.299 930.999 521.694 930.871 522.057C930.749 522.419 930.581 522.766 930.367 523.097C930.159 523.427 929.914 523.747 929.631 524.057C929.349 524.366 929.053 524.681 928.743 525.001L926.135 527.665C926.386 527.59 926.634 527.534 926.879 527.497C927.13 527.454 927.367 527.433 927.591 527.433H930.559ZM937.953 520.505C937.953 520.942 937.878 521.337 937.729 521.689C937.585 522.041 937.39 522.342 937.145 522.593C936.899 522.838 936.614 523.027 936.289 523.161C935.963 523.294 935.625 523.361 935.273 523.361C934.889 523.361 934.534 523.294 934.209 523.161C933.883 523.027 933.601 522.838 933.361 522.593C933.126 522.342 932.942 522.041 932.809 521.689C932.675 521.337 932.609 520.942 932.609 520.505C932.609 520.057 932.675 519.651 932.809 519.289C932.942 518.926 933.126 518.619 933.361 518.369C933.601 518.118 933.883 517.926 934.209 517.793C934.534 517.654 934.889 517.585 935.273 517.585C935.657 517.585 936.011 517.654 936.337 517.793C936.667 517.926 936.953 518.118 937.193 518.369C937.433 518.619 937.619 518.926 937.753 519.289C937.886 519.651 937.953 520.057 937.953 520.505ZM936.433 520.505C936.433 520.195 936.401 519.937 936.337 519.729C936.278 519.521 936.195 519.353 936.089 519.225C935.987 519.097 935.865 519.006 935.721 518.953C935.582 518.894 935.433 518.865 935.273 518.865C935.113 518.865 934.963 518.894 934.825 518.953C934.686 519.006 934.566 519.097 934.465 519.225C934.369 519.353 934.291 519.521 934.233 519.729C934.174 519.937 934.145 520.195 934.145 520.505C934.145 520.803 934.174 521.054 934.233 521.257C934.291 521.454 934.369 521.614 934.465 521.737C934.566 521.859 934.686 521.947 934.825 522.001C934.963 522.054 935.113 522.081 935.273 522.081C935.433 522.081 935.582 522.054 935.721 522.001C935.865 521.947 935.987 521.859 936.089 521.737C936.195 521.614 936.278 521.454 936.337 521.257C936.401 521.054 936.433 520.803 936.433 520.505ZM941.801 518.017C941.87 517.937 941.95 517.865 942.041 517.801C942.137 517.737 942.27 517.705 942.441 517.705H943.881L935.289 528.977C935.219 529.062 935.137 529.134 935.041 529.193C934.945 529.246 934.827 529.273 934.689 529.273H933.217L941.801 518.017ZM944.489 526.553C944.489 526.99 944.414 527.385 944.265 527.737C944.121 528.089 943.926 528.39 943.681 528.641C943.435 528.886 943.15 529.078 942.825 529.217C942.499 529.35 942.161 529.417 941.809 529.417C941.425 529.417 941.07 529.35 940.745 529.217C940.419 529.078 940.137 528.886 939.897 528.641C939.662 528.39 939.478 528.089 939.345 527.737C939.211 527.385 939.145 526.99 939.145 526.553C939.145 526.105 939.211 525.699 939.345 525.337C939.478 524.974 939.662 524.667 939.897 524.417C940.137 524.166 940.419 523.974 940.745 523.841C941.07 523.702 941.425 523.633 941.809 523.633C942.193 523.633 942.547 523.702 942.873 523.841C943.203 523.974 943.486 524.166 943.721 524.417C943.961 524.667 944.147 524.974 944.281 525.337C944.419 525.699 944.489 526.105 944.489 526.553ZM942.961 526.553C942.961 526.243 942.931 525.985 942.873 525.777C942.814 525.569 942.731 525.401 942.625 525.273C942.523 525.145 942.401 525.054 942.257 525.001C942.118 524.942 941.969 524.913 941.809 524.913C941.649 524.913 941.499 524.942 941.361 525.001C941.222 525.054 941.102 525.145 941.001 525.273C940.899 525.401 940.819 525.569 940.761 525.777C940.707 525.985 940.681 526.243 940.681 526.553C940.681 526.851 940.707 527.102 940.761 527.305C940.819 527.507 940.899 527.67 941.001 527.793C941.102 527.915 941.222 528.003 941.361 528.057C941.499 528.11 941.649 528.137 941.809 528.137C941.969 528.137 942.118 528.11 942.257 528.057C942.401 528.003 942.523 527.915 942.625 527.793C942.731 527.67 942.814 527.507 942.873 527.305C942.931 527.102 942.961 526.851 942.961 526.553ZM951.756 527.321C952.017 527.673 952.302 527.921 952.612 528.065C952.921 528.209 953.268 528.281 953.652 528.281C954.409 528.281 954.99 528.011 955.396 527.473C955.801 526.934 956.004 526.166 956.004 525.169C956.004 524.641 955.956 524.187 955.86 523.809C955.769 523.43 955.636 523.121 955.46 522.881C955.284 522.635 955.068 522.457 954.812 522.345C954.556 522.233 954.265 522.177 953.94 522.177C953.476 522.177 953.068 522.283 952.716 522.497C952.369 522.71 952.049 523.011 951.756 523.401V527.321ZM951.684 522.425C952.025 522.003 952.42 521.665 952.868 521.409C953.316 521.153 953.828 521.025 954.404 521.025C954.873 521.025 955.297 521.115 955.676 521.297C956.054 521.473 956.377 521.737 956.644 522.089C956.91 522.435 957.116 522.867 957.26 523.385C957.404 523.902 957.476 524.497 957.476 525.169C957.476 525.766 957.396 526.323 957.236 526.841C957.076 527.353 956.844 527.798 956.54 528.177C956.241 528.55 955.873 528.846 955.436 529.065C955.004 529.278 954.516 529.385 953.972 529.385C953.476 529.385 953.049 529.302 952.692 529.137C952.34 528.966 952.028 528.731 951.756 528.433V532.017H950.324V521.169H951.18C951.382 521.169 951.508 521.267 951.556 521.465L951.684 522.425ZM963.685 525.625C963.029 525.646 962.469 525.699 962.005 525.785C961.546 525.865 961.17 525.971 960.877 526.105C960.589 526.238 960.378 526.395 960.245 526.577C960.117 526.758 960.053 526.961 960.053 527.185C960.053 527.398 960.087 527.582 960.157 527.737C960.226 527.891 960.319 528.019 960.437 528.121C960.559 528.217 960.701 528.289 960.861 528.337C961.026 528.379 961.202 528.401 961.389 528.401C961.639 528.401 961.869 528.377 962.077 528.329C962.285 528.275 962.479 528.201 962.661 528.105C962.847 528.009 963.023 527.894 963.189 527.761C963.359 527.627 963.525 527.475 963.685 527.305V525.625ZM959.085 522.313C959.533 521.881 960.015 521.558 960.533 521.345C961.05 521.131 961.623 521.025 962.253 521.025C962.706 521.025 963.109 521.099 963.461 521.249C963.813 521.398 964.109 521.606 964.349 521.873C964.589 522.139 964.77 522.462 964.893 522.841C965.015 523.219 965.077 523.635 965.077 524.089V529.273H964.445C964.306 529.273 964.199 529.251 964.125 529.209C964.05 529.161 963.991 529.07 963.949 528.937L963.789 528.169C963.575 528.366 963.367 528.542 963.165 528.697C962.962 528.846 962.749 528.974 962.525 529.081C962.301 529.182 962.061 529.259 961.805 529.313C961.554 529.371 961.274 529.401 960.965 529.401C960.65 529.401 960.354 529.358 960.077 529.273C959.799 529.182 959.557 529.049 959.349 528.873C959.146 528.697 958.983 528.475 958.861 528.209C958.743 527.937 958.685 527.617 958.685 527.249C958.685 526.929 958.773 526.622 958.949 526.329C959.125 526.03 959.41 525.766 959.805 525.537C960.199 525.307 960.714 525.121 961.349 524.977C961.983 524.827 962.762 524.742 963.685 524.721V524.089C963.685 523.459 963.549 522.985 963.277 522.665C963.005 522.339 962.607 522.177 962.085 522.177C961.733 522.177 961.437 522.222 961.197 522.313C960.962 522.398 960.757 522.497 960.581 522.609C960.41 522.715 960.261 522.814 960.133 522.905C960.01 522.99 959.887 523.033 959.765 523.033C959.669 523.033 959.586 523.009 959.517 522.961C959.447 522.907 959.389 522.843 959.341 522.769L959.085 522.313ZM971.966 522.505C971.902 522.622 971.803 522.681 971.67 522.681C971.59 522.681 971.499 522.651 971.398 522.593C971.296 522.534 971.171 522.47 971.022 522.401C970.878 522.326 970.704 522.259 970.502 522.201C970.299 522.137 970.059 522.105 969.782 522.105C969.542 522.105 969.326 522.137 969.134 522.201C968.942 522.259 968.776 522.342 968.638 522.449C968.504 522.555 968.4 522.681 968.326 522.825C968.256 522.963 968.222 523.115 968.222 523.281C968.222 523.489 968.28 523.662 968.398 523.801C968.52 523.939 968.68 524.059 968.878 524.161C969.075 524.262 969.299 524.353 969.55 524.433C969.8 524.507 970.056 524.59 970.318 524.681C970.584 524.766 970.843 524.862 971.094 524.969C971.344 525.075 971.568 525.209 971.766 525.369C971.963 525.529 972.12 525.726 972.238 525.961C972.36 526.19 972.422 526.467 972.422 526.793C972.422 527.166 972.355 527.513 972.222 527.833C972.088 528.147 971.891 528.422 971.63 528.657C971.368 528.886 971.048 529.067 970.67 529.201C970.291 529.334 969.854 529.401 969.358 529.401C968.792 529.401 968.28 529.31 967.822 529.129C967.363 528.942 966.974 528.705 966.654 528.417L966.99 527.873C967.032 527.803 967.083 527.75 967.142 527.713C967.2 527.675 967.275 527.657 967.366 527.657C967.462 527.657 967.563 527.694 967.67 527.769C967.776 527.843 967.904 527.926 968.054 528.017C968.208 528.107 968.395 528.19 968.614 528.265C968.832 528.339 969.104 528.377 969.43 528.377C969.707 528.377 969.95 528.342 970.158 528.273C970.366 528.198 970.539 528.099 970.678 527.977C970.816 527.854 970.918 527.713 970.982 527.553C971.051 527.393 971.086 527.222 971.086 527.041C971.086 526.817 971.024 526.633 970.902 526.489C970.784 526.339 970.627 526.214 970.43 526.113C970.232 526.006 970.006 525.915 969.75 525.841C969.499 525.761 969.24 525.678 968.974 525.593C968.712 525.507 968.454 525.411 968.198 525.305C967.947 525.193 967.723 525.054 967.526 524.889C967.328 524.723 967.168 524.521 967.046 524.281C966.928 524.035 966.87 523.739 966.87 523.393C966.87 523.083 966.934 522.787 967.062 522.505C967.19 522.217 967.376 521.966 967.622 521.753C967.867 521.534 968.168 521.361 968.526 521.233C968.883 521.105 969.291 521.041 969.75 521.041C970.283 521.041 970.76 521.126 971.182 521.297C971.608 521.462 971.976 521.691 972.286 521.985L971.966 522.505ZM978.888 522.505C978.824 522.622 978.725 522.681 978.592 522.681C978.512 522.681 978.421 522.651 978.32 522.593C978.218 522.534 978.093 522.47 977.944 522.401C977.8 522.326 977.626 522.259 977.424 522.201C977.221 522.137 976.981 522.105 976.704 522.105C976.464 522.105 976.248 522.137 976.056 522.201C975.864 522.259 975.698 522.342 975.56 522.449C975.426 522.555 975.322 522.681 975.248 522.825C975.178 522.963 975.144 523.115 975.144 523.281C975.144 523.489 975.202 523.662 975.32 523.801C975.442 523.939 975.602 524.059 975.8 524.161C975.997 524.262 976.221 524.353 976.472 524.433C976.722 524.507 976.978 524.59 977.24 524.681C977.506 524.766 977.765 524.862 978.016 524.969C978.266 525.075 978.49 525.209 978.688 525.369C978.885 525.529 979.042 525.726 979.16 525.961C979.282 526.19 979.344 526.467 979.344 526.793C979.344 527.166 979.277 527.513 979.144 527.833C979.01 528.147 978.813 528.422 978.552 528.657C978.29 528.886 977.97 529.067 977.592 529.201C977.213 529.334 976.776 529.401 976.28 529.401C975.714 529.401 975.202 529.31 974.744 529.129C974.285 528.942 973.896 528.705 973.576 528.417L973.912 527.873C973.954 527.803 974.005 527.75 974.064 527.713C974.122 527.675 974.197 527.657 974.288 527.657C974.384 527.657 974.485 527.694 974.592 527.769C974.698 527.843 974.826 527.926 974.976 528.017C975.13 528.107 975.317 528.19 975.536 528.265C975.754 528.339 976.026 528.377 976.352 528.377C976.629 528.377 976.872 528.342 977.08 528.273C977.288 528.198 977.461 528.099 977.6 527.977C977.738 527.854 977.84 527.713 977.904 527.553C977.973 527.393 978.008 527.222 978.008 527.041C978.008 526.817 977.946 526.633 977.824 526.489C977.706 526.339 977.549 526.214 977.352 526.113C977.154 526.006 976.928 525.915 976.672 525.841C976.421 525.761 976.162 525.678 975.896 525.593C975.634 525.507 975.376 525.411 975.12 525.305C974.869 525.193 974.645 525.054 974.448 524.889C974.25 524.723 974.09 524.521 973.968 524.281C973.85 524.035 973.792 523.739 973.792 523.393C973.792 523.083 973.856 522.787 973.984 522.505C974.112 522.217 974.298 521.966 974.544 521.753C974.789 521.534 975.09 521.361 975.448 521.233C975.805 521.105 976.213 521.041 976.672 521.041C977.205 521.041 977.682 521.126 978.104 521.297C978.53 521.462 978.898 521.691 979.208 521.985L978.888 522.505ZM986.513 524.337C986.513 524.006 986.465 523.705 986.369 523.433C986.279 523.155 986.143 522.918 985.961 522.721C985.785 522.518 985.569 522.363 985.313 522.257C985.057 522.145 984.767 522.089 984.441 522.089C983.759 522.089 983.217 522.289 982.817 522.689C982.423 523.083 982.177 523.633 982.081 524.337H986.513ZM987.665 528.137C987.489 528.35 987.279 528.537 987.033 528.697C986.788 528.851 986.524 528.979 986.241 529.081C985.964 529.182 985.676 529.257 985.377 529.305C985.079 529.358 984.783 529.385 984.489 529.385C983.929 529.385 983.412 529.291 982.937 529.105C982.468 528.913 982.06 528.635 981.713 528.273C981.372 527.905 981.105 527.451 980.913 526.913C980.721 526.374 980.625 525.755 980.625 525.057C980.625 524.491 980.711 523.963 980.881 523.473C981.057 522.982 981.308 522.558 981.633 522.201C981.959 521.838 982.356 521.555 982.825 521.353C983.295 521.145 983.823 521.041 984.409 521.041C984.895 521.041 985.343 521.123 985.753 521.289C986.169 521.449 986.527 521.683 986.825 521.993C987.129 522.297 987.367 522.675 987.537 523.129C987.708 523.577 987.793 524.089 987.793 524.665C987.793 524.889 987.769 525.038 987.721 525.113C987.673 525.187 987.583 525.225 987.449 525.225H982.033C982.049 525.737 982.119 526.182 982.241 526.561C982.369 526.939 982.545 527.257 982.769 527.513C982.993 527.763 983.26 527.953 983.569 528.081C983.879 528.203 984.225 528.265 984.609 528.265C984.967 528.265 985.273 528.225 985.529 528.145C985.791 528.059 986.015 527.969 986.201 527.873C986.388 527.777 986.543 527.689 986.665 527.609C986.793 527.523 986.903 527.481 986.993 527.481C987.111 527.481 987.201 527.526 987.265 527.617L987.665 528.137ZM994.823 523.097C994.556 522.739 994.268 522.491 993.959 522.353C993.649 522.209 993.303 522.137 992.919 522.137C992.167 522.137 991.588 522.406 991.183 522.945C990.777 523.483 990.575 524.251 990.575 525.249C990.575 525.777 990.62 526.23 990.711 526.609C990.801 526.982 990.935 527.291 991.111 527.537C991.287 527.777 991.503 527.953 991.759 528.065C992.015 528.177 992.305 528.233 992.631 528.233C993.1 528.233 993.508 528.126 993.855 527.913C994.207 527.699 994.529 527.398 994.823 527.009V523.097ZM996.247 517.489V529.273H995.399C995.196 529.273 995.068 529.174 995.015 528.977L994.887 527.993C994.54 528.409 994.145 528.745 993.703 529.001C993.26 529.257 992.748 529.385 992.167 529.385C991.703 529.385 991.281 529.297 990.903 529.121C990.524 528.939 990.201 528.675 989.935 528.329C989.668 527.982 989.463 527.55 989.319 527.033C989.175 526.515 989.103 525.921 989.103 525.249C989.103 524.651 989.183 524.097 989.343 523.585C989.503 523.067 989.732 522.619 990.031 522.241C990.329 521.862 990.695 521.566 991.127 521.353C991.564 521.134 992.055 521.025 992.599 521.025C993.095 521.025 993.519 521.11 993.871 521.281C994.228 521.446 994.545 521.678 994.823 521.977V517.489H996.247Z" fill="#007699"/>
<path d="M895.965 496.197C896.265 496.197 896.498 496.281 896.665 496.447C896.838 496.614 896.925 496.834 896.925 497.107V498.727H886.865V497.827C886.865 497.654 886.902 497.467 886.975 497.267C887.048 497.061 887.172 496.874 887.345 496.707L891.645 492.397C892.012 492.031 892.335 491.681 892.615 491.347C892.895 491.007 893.128 490.677 893.315 490.357C893.502 490.031 893.642 489.701 893.735 489.367C893.828 489.034 893.875 488.684 893.875 488.317C893.875 487.671 893.708 487.181 893.375 486.847C893.042 486.507 892.572 486.337 891.965 486.337C891.698 486.337 891.452 486.377 891.225 486.457C891.005 486.531 890.805 486.634 890.625 486.767C890.452 486.901 890.302 487.057 890.175 487.237C890.048 487.417 889.955 487.614 889.895 487.827C889.775 488.161 889.612 488.384 889.405 488.497C889.205 488.604 888.918 488.627 888.545 488.567L887.085 488.307C887.192 487.601 887.392 486.981 887.685 486.447C887.978 485.914 888.345 485.471 888.785 485.117C889.225 484.764 889.728 484.501 890.295 484.327C890.862 484.147 891.472 484.057 892.125 484.057C892.812 484.057 893.435 484.161 893.995 484.367C894.562 484.567 895.045 484.851 895.445 485.217C895.845 485.577 896.155 486.014 896.375 486.527C896.595 487.041 896.705 487.607 896.705 488.227C896.705 488.761 896.628 489.254 896.475 489.707C896.322 490.161 896.112 490.594 895.845 491.007C895.585 491.414 895.282 491.811 894.935 492.197C894.588 492.584 894.222 492.974 893.835 493.367L890.755 496.517C891.095 496.417 891.432 496.341 891.765 496.287C892.098 496.227 892.412 496.197 892.705 496.197H895.965ZM908.197 496.697V498.727H900.057V496.697H902.937V488.757C902.937 488.584 902.94 488.407 902.947 488.227C902.953 488.047 902.963 487.864 902.977 487.677L901.077 489.257C900.943 489.357 900.813 489.421 900.687 489.447C900.56 489.474 900.44 489.477 900.327 489.457C900.213 489.431 900.113 489.391 900.027 489.337C899.94 489.277 899.873 489.217 899.827 489.157L898.957 487.987L903.417 484.207H905.687V496.697H908.197ZM910.368 488.307C910.475 487.601 910.675 486.981 910.968 486.447C911.261 485.914 911.628 485.471 912.068 485.117C912.508 484.764 913.008 484.501 913.568 484.327C914.135 484.147 914.745 484.057 915.398 484.057C916.091 484.057 916.711 484.157 917.258 484.357C917.811 484.551 918.278 484.817 918.658 485.157C919.038 485.497 919.328 485.894 919.528 486.347C919.735 486.801 919.838 487.287 919.838 487.807C919.838 488.267 919.788 488.674 919.688 489.027C919.595 489.374 919.451 489.677 919.258 489.937C919.071 490.197 918.838 490.417 918.558 490.597C918.285 490.777 917.968 490.927 917.608 491.047C919.275 491.594 920.108 492.704 920.108 494.377C920.108 495.117 919.971 495.771 919.698 496.337C919.425 496.897 919.058 497.367 918.598 497.747C918.138 498.127 917.601 498.414 916.988 498.607C916.381 498.794 915.745 498.887 915.078 498.887C914.371 498.887 913.748 498.807 913.208 498.647C912.668 498.487 912.191 498.247 911.778 497.927C911.371 497.607 911.021 497.207 910.728 496.727C910.435 496.241 910.178 495.674 909.958 495.027L911.178 494.527C911.498 494.394 911.795 494.357 912.068 494.417C912.348 494.477 912.548 494.624 912.668 494.857C912.801 495.111 912.941 495.344 913.088 495.557C913.241 495.771 913.411 495.957 913.598 496.117C913.785 496.271 913.995 496.391 914.228 496.477C914.468 496.564 914.741 496.607 915.048 496.607C915.435 496.607 915.771 496.544 916.058 496.417C916.345 496.291 916.585 496.127 916.778 495.927C916.971 495.721 917.115 495.491 917.208 495.237C917.308 494.977 917.358 494.721 917.358 494.467C917.358 494.134 917.328 493.834 917.268 493.567C917.208 493.294 917.068 493.064 916.848 492.877C916.635 492.684 916.315 492.537 915.888 492.437C915.468 492.331 914.895 492.277 914.168 492.277V490.337C914.775 490.337 915.271 490.287 915.658 490.187C916.045 490.087 916.348 489.947 916.568 489.767C916.788 489.587 916.938 489.371 917.018 489.117C917.105 488.864 917.148 488.587 917.148 488.287C917.148 487.654 916.981 487.171 916.648 486.837C916.321 486.504 915.855 486.337 915.248 486.337C914.981 486.337 914.735 486.377 914.508 486.457C914.288 486.531 914.088 486.634 913.908 486.767C913.735 486.901 913.585 487.057 913.458 487.237C913.331 487.417 913.238 487.614 913.178 487.827C913.051 488.161 912.888 488.384 912.688 488.497C912.488 488.604 912.198 488.627 911.818 488.567L910.368 488.307ZM929.456 490.117C929.782 489.531 930.159 489.067 930.586 488.727C931.012 488.387 931.512 488.217 932.086 488.217C932.552 488.217 932.932 488.327 933.226 488.547L933.046 490.587C933.012 490.721 932.959 490.814 932.886 490.867C932.819 490.914 932.726 490.937 932.606 490.937C932.499 490.937 932.346 490.924 932.146 490.897C931.946 490.864 931.759 490.847 931.586 490.847C931.332 490.847 931.106 490.884 930.906 490.957C930.712 491.031 930.539 491.134 930.386 491.267C930.232 491.401 930.092 491.564 929.966 491.757C929.846 491.951 929.732 492.171 929.626 492.417V498.727H926.866V488.417H928.496C928.776 488.417 928.969 488.467 929.076 488.567C929.182 488.667 929.259 488.841 929.306 489.087L929.456 490.117ZM943.455 488.417V498.727H941.755C941.401 498.727 941.175 498.567 941.075 498.247L940.895 497.527C940.688 497.727 940.475 497.911 940.255 498.077C940.035 498.244 939.798 498.387 939.545 498.507C939.298 498.627 939.028 498.721 938.735 498.787C938.448 498.854 938.135 498.887 937.795 498.887C937.235 498.887 936.735 498.791 936.295 498.597C935.861 498.404 935.498 498.134 935.205 497.787C934.911 497.441 934.688 497.027 934.535 496.547C934.381 496.067 934.305 495.541 934.305 494.967V488.417H937.065V494.967C937.065 495.541 937.195 495.987 937.455 496.307C937.721 496.621 938.115 496.777 938.635 496.777C939.021 496.777 939.385 496.694 939.725 496.527C940.065 496.354 940.388 496.121 940.695 495.827V488.417H943.455ZM948.293 489.617C948.5 489.417 948.713 489.234 948.933 489.067C949.16 488.901 949.396 488.757 949.643 488.637C949.896 488.517 950.166 488.424 950.453 488.357C950.746 488.291 951.063 488.257 951.403 488.257C951.963 488.257 952.46 488.354 952.893 488.547C953.326 488.741 953.69 489.011 953.983 489.357C954.283 489.704 954.506 490.117 954.653 490.597C954.806 491.077 954.883 491.604 954.883 492.177V498.727H952.133V492.177C952.133 491.604 952 491.161 951.733 490.847C951.466 490.527 951.073 490.367 950.553 490.367C950.166 490.367 949.803 490.451 949.463 490.617C949.123 490.784 948.8 491.017 948.493 491.317V498.727H945.733V488.417H947.433C947.78 488.417 948.01 488.577 948.123 488.897L948.293 489.617ZM963.491 490.537C963.417 490.651 963.341 490.734 963.261 490.787C963.187 490.834 963.084 490.857 962.951 490.857C962.817 490.857 962.681 490.824 962.541 490.757C962.401 490.691 962.244 490.621 962.071 490.547C961.897 490.467 961.697 490.394 961.471 490.327C961.251 490.261 960.994 490.227 960.701 490.227C960.254 490.227 959.907 490.321 959.661 490.507C959.414 490.687 959.291 490.927 959.291 491.227C959.291 491.434 959.361 491.607 959.501 491.747C959.641 491.887 959.824 492.011 960.051 492.117C960.284 492.217 960.547 492.314 960.841 492.407C961.134 492.494 961.434 492.591 961.741 492.697C962.054 492.804 962.357 492.927 962.651 493.067C962.944 493.207 963.204 493.384 963.431 493.597C963.664 493.804 963.851 494.057 963.991 494.357C964.131 494.651 964.201 495.007 964.201 495.427C964.201 495.927 964.107 496.391 963.921 496.817C963.741 497.237 963.474 497.601 963.121 497.907C962.767 498.214 962.327 498.454 961.801 498.627C961.274 498.801 960.667 498.887 959.981 498.887C959.627 498.887 959.277 498.854 958.931 498.787C958.584 498.727 958.254 498.641 957.941 498.527C957.627 498.407 957.334 498.271 957.061 498.117C956.787 497.964 956.551 497.797 956.351 497.617L956.991 496.587C957.064 496.467 957.154 496.374 957.261 496.307C957.374 496.241 957.517 496.207 957.691 496.207C957.857 496.207 958.011 496.251 958.151 496.337C958.291 496.417 958.447 496.507 958.621 496.607C958.794 496.701 958.997 496.791 959.231 496.877C959.471 496.957 959.767 496.997 960.121 496.997C960.387 496.997 960.617 496.967 960.811 496.907C961.004 496.847 961.161 496.767 961.281 496.667C961.401 496.561 961.487 496.444 961.541 496.317C961.601 496.184 961.631 496.047 961.631 495.907C961.631 495.681 961.557 495.497 961.411 495.357C961.271 495.211 961.084 495.084 960.851 494.977C960.624 494.871 960.361 494.774 960.061 494.687C959.761 494.601 959.454 494.504 959.141 494.397C958.834 494.291 958.531 494.164 958.231 494.017C957.937 493.871 957.674 493.687 957.441 493.467C957.214 493.241 957.027 492.964 956.881 492.637C956.741 492.311 956.671 491.914 956.671 491.447C956.671 491.021 956.754 490.617 956.921 490.237C957.087 489.851 957.337 489.511 957.671 489.217C958.004 488.924 958.417 488.691 958.911 488.517C959.411 488.344 959.987 488.257 960.641 488.257C961.374 488.257 962.041 488.377 962.641 488.617C963.241 488.857 963.734 489.171 964.121 489.557L963.491 490.537Z" fill="#007699"/>
<path d="M918.07 559.675C918.396 559.675 918.681 559.63 918.926 559.539C919.172 559.443 919.377 559.312 919.542 559.147C919.713 558.982 919.841 558.784 919.926 558.555C920.012 558.326 920.054 558.078 920.054 557.811C920.054 557.176 919.878 556.696 919.526 556.371C919.174 556.046 918.689 555.883 918.07 555.883C917.452 555.883 916.966 556.046 916.614 556.371C916.262 556.696 916.086 557.176 916.086 557.811C916.086 558.078 916.129 558.326 916.214 558.555C916.3 558.784 916.425 558.982 916.59 559.147C916.761 559.312 916.969 559.443 917.214 559.539C917.46 559.63 917.745 559.675 918.07 559.675ZM918.07 550.883C917.777 550.883 917.524 550.928 917.31 551.019C917.097 551.11 916.918 551.232 916.774 551.387C916.636 551.536 916.532 551.71 916.462 551.907C916.398 552.104 916.366 552.312 916.366 552.531C916.366 552.76 916.393 552.984 916.446 553.203C916.505 553.416 916.601 553.608 916.734 553.779C916.868 553.944 917.044 554.078 917.262 554.179C917.481 554.28 917.75 554.331 918.07 554.331C918.39 554.331 918.66 554.28 918.878 554.179C919.097 554.078 919.273 553.944 919.406 553.779C919.54 553.608 919.633 553.416 919.686 553.203C919.745 552.984 919.774 552.76 919.774 552.531C919.774 552.312 919.74 552.104 919.67 551.907C919.601 551.71 919.497 551.536 919.358 551.387C919.22 551.232 919.044 551.11 918.83 551.019C918.617 550.928 918.364 550.883 918.07 550.883ZM920.022 555.059C920.726 555.288 921.246 555.64 921.582 556.115C921.918 556.584 922.086 557.16 922.086 557.843C922.086 558.355 921.988 558.819 921.79 559.235C921.598 559.651 921.326 560.006 920.974 560.299C920.622 560.592 920.198 560.819 919.702 560.979C919.212 561.139 918.668 561.219 918.07 561.219C917.473 561.219 916.926 561.139 916.43 560.979C915.94 560.819 915.518 560.592 915.166 560.299C914.814 560.006 914.54 559.651 914.342 559.235C914.15 558.819 914.054 558.355 914.054 557.843C914.054 557.16 914.222 556.584 914.558 556.115C914.894 555.64 915.414 555.288 916.118 555.059C915.558 554.824 915.137 554.491 914.854 554.059C914.577 553.627 914.438 553.107 914.438 552.499C914.438 552.062 914.526 551.654 914.702 551.275C914.884 550.896 915.134 550.568 915.454 550.291C915.774 550.008 916.156 549.79 916.598 549.635C917.046 549.475 917.537 549.395 918.07 549.395C918.604 549.395 919.092 549.475 919.534 549.635C919.982 549.79 920.366 550.008 920.686 550.291C921.006 550.568 921.254 550.896 921.43 551.275C921.612 551.654 921.702 552.062 921.702 552.499C921.702 553.107 921.561 553.627 921.278 554.059C921.001 554.491 920.582 554.824 920.022 555.059ZM928.671 552.323C928.671 552.76 928.597 553.155 928.447 553.507C928.303 553.859 928.109 554.16 927.863 554.411C927.618 554.656 927.333 554.846 927.007 554.979C926.682 555.112 926.343 555.179 925.991 555.179C925.607 555.179 925.253 555.112 924.927 554.979C924.602 554.846 924.319 554.656 924.079 554.411C923.845 554.16 923.661 553.859 923.527 553.507C923.394 553.155 923.327 552.76 923.327 552.323C923.327 551.875 923.394 551.47 923.527 551.107C923.661 550.744 923.845 550.438 924.079 550.187C924.319 549.936 924.602 549.744 924.927 549.611C925.253 549.472 925.607 549.403 925.991 549.403C926.375 549.403 926.73 549.472 927.055 549.611C927.386 549.744 927.671 549.936 927.911 550.187C928.151 550.438 928.338 550.744 928.471 551.107C928.605 551.47 928.671 551.875 928.671 552.323ZM927.151 552.323C927.151 552.014 927.119 551.755 927.055 551.547C926.997 551.339 926.914 551.171 926.807 551.043C926.706 550.915 926.583 550.824 926.439 550.771C926.301 550.712 926.151 550.683 925.991 550.683C925.831 550.683 925.682 550.712 925.543 550.771C925.405 550.824 925.285 550.915 925.183 551.043C925.087 551.171 925.01 551.339 924.951 551.547C924.893 551.755 924.863 552.014 924.863 552.323C924.863 552.622 924.893 552.872 924.951 553.075C925.01 553.272 925.087 553.432 925.183 553.555C925.285 553.678 925.405 553.766 925.543 553.819C925.682 553.872 925.831 553.899 925.991 553.899C926.151 553.899 926.301 553.872 926.439 553.819C926.583 553.766 926.706 553.678 926.807 553.555C926.914 553.432 926.997 553.272 927.055 553.075C927.119 552.872 927.151 552.622 927.151 552.323ZM932.519 549.835C932.589 549.755 932.669 549.683 932.759 549.619C932.855 549.555 932.989 549.523 933.159 549.523H934.599L926.007 560.795C925.938 560.88 925.855 560.952 925.759 561.011C925.663 561.064 925.546 561.091 925.407 561.091H923.935L932.519 549.835ZM935.207 558.371C935.207 558.808 935.133 559.203 934.983 559.555C934.839 559.907 934.645 560.208 934.399 560.459C934.154 560.704 933.869 560.896 933.543 561.035C933.218 561.168 932.879 561.235 932.527 561.235C932.143 561.235 931.789 561.168 931.463 561.035C931.138 560.896 930.855 560.704 930.615 560.459C930.381 560.208 930.197 559.907 930.063 559.555C929.93 559.203 929.863 558.808 929.863 558.371C929.863 557.923 929.93 557.518 930.063 557.155C930.197 556.792 930.381 556.486 930.615 556.235C930.855 555.984 931.138 555.792 931.463 555.659C931.789 555.52 932.143 555.451 932.527 555.451C932.911 555.451 933.266 555.52 933.591 555.659C933.922 555.792 934.205 555.984 934.439 556.235C934.679 556.486 934.866 556.792 934.999 557.155C935.138 557.518 935.207 557.923 935.207 558.371ZM933.679 558.371C933.679 558.062 933.65 557.803 933.591 557.595C933.533 557.387 933.45 557.219 933.343 557.091C933.242 556.963 933.119 556.872 932.975 556.819C932.837 556.76 932.687 556.731 932.527 556.731C932.367 556.731 932.218 556.76 932.079 556.819C931.941 556.872 931.821 556.963 931.719 557.091C931.618 557.219 931.538 557.387 931.479 557.595C931.426 557.803 931.399 558.062 931.399 558.371C931.399 558.67 931.426 558.92 931.479 559.123C931.538 559.326 931.618 559.488 931.719 559.611C931.821 559.734 931.941 559.822 932.079 559.875C932.218 559.928 932.367 559.955 932.527 559.955C932.687 559.955 932.837 559.928 932.975 559.875C933.119 559.822 933.242 559.734 933.343 559.611C933.45 559.488 933.533 559.326 933.591 559.123C933.65 558.92 933.679 558.67 933.679 558.371ZM941.571 561.091V554.203L940.675 554.099C940.563 554.072 940.469 554.032 940.395 553.979C940.325 553.92 940.291 553.838 940.291 553.731V553.147H941.571V552.363C941.571 551.899 941.635 551.488 941.763 551.131C941.896 550.768 942.083 550.464 942.323 550.219C942.568 549.968 942.861 549.779 943.203 549.651C943.544 549.523 943.928 549.459 944.355 549.459C944.717 549.459 945.051 549.512 945.355 549.619L945.323 550.331C945.312 550.459 945.24 550.528 945.107 550.539C944.979 550.55 944.805 550.555 944.587 550.555C944.341 550.555 944.117 550.587 943.915 550.651C943.717 550.715 943.547 550.819 943.403 550.963C943.259 551.107 943.147 551.296 943.067 551.531C942.992 551.766 942.955 552.056 942.955 552.403V553.147H945.291V554.179H943.003V561.091H941.571ZM950.997 557.443C950.341 557.464 949.781 557.518 949.317 557.603C948.858 557.683 948.482 557.79 948.189 557.923C947.901 558.056 947.69 558.214 947.557 558.395C947.429 558.576 947.365 558.779 947.365 559.003C947.365 559.216 947.4 559.4 947.469 559.555C947.538 559.71 947.632 559.838 947.749 559.939C947.872 560.035 948.013 560.107 948.173 560.155C948.338 560.198 948.514 560.219 948.701 560.219C948.952 560.219 949.181 560.195 949.389 560.147C949.597 560.094 949.792 560.019 949.973 559.923C950.16 559.827 950.336 559.712 950.501 559.579C950.672 559.446 950.837 559.294 950.997 559.123V557.443ZM946.397 554.131C946.845 553.699 947.328 553.376 947.845 553.163C948.362 552.95 948.936 552.843 949.565 552.843C950.018 552.843 950.421 552.918 950.773 553.067C951.125 553.216 951.421 553.424 951.661 553.691C951.901 553.958 952.082 554.28 952.205 554.659C952.328 555.038 952.389 555.454 952.389 555.907V561.091H951.757C951.618 561.091 951.512 561.07 951.437 561.027C951.362 560.979 951.304 560.888 951.261 560.755L951.101 559.987C950.888 560.184 950.68 560.36 950.477 560.515C950.274 560.664 950.061 560.792 949.837 560.899C949.613 561 949.373 561.078 949.117 561.131C948.866 561.19 948.586 561.219 948.277 561.219C947.962 561.219 947.666 561.176 947.389 561.091C947.112 561 946.869 560.867 946.661 560.691C946.458 560.515 946.296 560.294 946.173 560.027C946.056 559.755 945.997 559.435 945.997 559.067C945.997 558.747 946.085 558.44 946.261 558.147C946.437 557.848 946.722 557.584 947.117 557.355C947.512 557.126 948.026 556.939 948.661 556.795C949.296 556.646 950.074 556.56 950.997 556.539V555.907C950.997 555.278 950.861 554.803 950.589 554.483C950.317 554.158 949.92 553.995 949.397 553.995C949.045 553.995 948.749 554.04 948.509 554.131C948.274 554.216 948.069 554.315 947.893 554.427C947.722 554.534 947.573 554.632 947.445 554.723C947.322 554.808 947.2 554.851 947.077 554.851C946.981 554.851 946.898 554.827 946.829 554.779C946.76 554.726 946.701 554.662 946.653 554.587L946.397 554.131ZM956.062 552.987V561.091H954.638V552.987H956.062ZM956.366 550.443C956.366 550.582 956.337 550.712 956.278 550.835C956.225 550.952 956.15 551.059 956.054 551.155C955.964 551.246 955.854 551.318 955.726 551.371C955.604 551.424 955.473 551.451 955.334 551.451C955.196 551.451 955.065 551.424 954.942 551.371C954.825 551.318 954.721 551.246 954.63 551.155C954.54 551.059 954.468 550.952 954.414 550.835C954.361 550.712 954.334 550.582 954.334 550.443C954.334 550.304 954.361 550.174 954.414 550.051C954.468 549.923 954.54 549.814 954.63 549.723C954.721 549.627 954.825 549.552 954.942 549.499C955.065 549.446 955.196 549.419 955.334 549.419C955.473 549.419 955.604 549.446 955.726 549.499C955.854 549.552 955.964 549.627 956.054 549.723C956.15 549.814 956.225 549.923 956.278 550.051C956.337 550.174 956.366 550.304 956.366 550.443ZM959.874 549.307V561.091H958.45V549.307H959.874ZM967.607 556.155C967.607 555.824 967.559 555.523 967.463 555.251C967.373 554.974 967.237 554.736 967.055 554.539C966.879 554.336 966.663 554.182 966.407 554.075C966.151 553.963 965.861 553.907 965.535 553.907C964.853 553.907 964.311 554.107 963.911 554.507C963.517 554.902 963.271 555.451 963.175 556.155H967.607ZM968.759 559.955C968.583 560.168 968.373 560.355 968.127 560.515C967.882 560.67 967.618 560.798 967.335 560.899C967.058 561 966.77 561.075 966.471 561.123C966.173 561.176 965.877 561.203 965.583 561.203C965.023 561.203 964.506 561.11 964.031 560.923C963.562 560.731 963.154 560.454 962.807 560.091C962.466 559.723 962.199 559.27 962.007 558.731C961.815 558.192 961.719 557.574 961.719 556.875C961.719 556.31 961.805 555.782 961.975 555.291C962.151 554.8 962.402 554.376 962.727 554.019C963.053 553.656 963.45 553.374 963.919 553.171C964.389 552.963 964.917 552.859 965.503 552.859C965.989 552.859 966.437 552.942 966.847 553.107C967.263 553.267 967.621 553.502 967.919 553.811C968.223 554.115 968.461 554.494 968.631 554.947C968.802 555.395 968.887 555.907 968.887 556.483C968.887 556.707 968.863 556.856 968.815 556.931C968.767 557.006 968.677 557.043 968.543 557.043H963.127C963.143 557.555 963.213 558 963.335 558.379C963.463 558.758 963.639 559.075 963.863 559.331C964.087 559.582 964.354 559.771 964.663 559.899C964.973 560.022 965.319 560.083 965.703 560.083C966.061 560.083 966.367 560.043 966.623 559.963C966.885 559.878 967.109 559.787 967.295 559.691C967.482 559.595 967.637 559.507 967.759 559.427C967.887 559.342 967.997 559.299 968.087 559.299C968.205 559.299 968.295 559.344 968.359 559.435L968.759 559.955ZM975.916 554.915C975.65 554.558 975.362 554.31 975.052 554.171C974.743 554.027 974.396 553.955 974.012 553.955C973.26 553.955 972.682 554.224 972.276 554.763C971.871 555.302 971.668 556.07 971.668 557.067C971.668 557.595 971.714 558.048 971.804 558.427C971.895 558.8 972.028 559.11 972.204 559.355C972.38 559.595 972.596 559.771 972.852 559.883C973.108 559.995 973.399 560.051 973.724 560.051C974.194 560.051 974.602 559.944 974.948 559.731C975.3 559.518 975.623 559.216 975.916 558.827V554.915ZM977.34 549.307V561.091H976.492C976.29 561.091 976.162 560.992 976.108 560.795L975.98 559.811C975.634 560.227 975.239 560.563 974.796 560.819C974.354 561.075 973.842 561.203 973.26 561.203C972.796 561.203 972.375 561.115 971.996 560.939C971.618 560.758 971.295 560.494 971.028 560.147C970.762 559.8 970.556 559.368 970.412 558.851C970.268 558.334 970.196 557.739 970.196 557.067C970.196 556.47 970.276 555.915 970.436 555.403C970.596 554.886 970.826 554.438 971.124 554.059C971.423 553.68 971.788 553.384 972.22 553.171C972.658 552.952 973.148 552.843 973.692 552.843C974.188 552.843 974.612 552.928 974.964 553.099C975.322 553.264 975.639 553.496 975.916 553.795V549.307H977.34Z" fill="#007699"/>
<rect width="21.8042" height="21.8182" fill="black" fill-opacity="0" transform="translate(886.175 511.455)"/>
<ellipse cx="897.077" cy="522.364" rx="10.9021" ry="10.9091" fill="#53B756"/>
<path d="M902.528 518.727L895.42 526.909L891.626 523.909" stroke="white" stroke-width="2" stroke-linecap="round" stroke-linejoin="round"/>
<rect width="21.8042" height="21.8182" fill="black" fill-opacity="0" transform="translate(886.175 543.273)"/>
<ellipse cx="897.077" cy="554.182" rx="10.9021" ry="10.9091" fill="#D43C3C"/>
<path d="M891.873 557.974C891.483 558.365 891.483 558.998 891.873 559.389C892.264 559.78 892.897 559.78 893.287 559.389L891.873 557.974ZM902.281 550.389C902.671 549.999 902.671 549.365 902.281 548.975C901.89 548.584 901.258 548.584 900.867 548.975L902.281 550.389ZM893.287 548.975C892.897 548.584 892.264 548.584 891.873 548.975C891.483 549.365 891.483 549.999 891.873 550.389L893.287 548.975ZM900.867 559.389C901.258 559.78 901.89 559.78 902.281 559.389C902.671 558.998 902.671 558.365 902.281 557.974L900.867 559.389ZM896.37 553.474L891.873 557.974L893.287 559.389L897.784 554.889L896.37 553.474ZM897.784 554.889L902.281 550.389L900.867 548.975L896.37 553.474L897.784 554.889ZM897.784 553.474L893.287 548.975L891.873 550.389L896.37 554.889L897.784 553.474ZM896.37 554.889L900.867 559.389L902.281 557.974L897.784 553.474L896.37 554.889Z" fill="white"/>
</svg>
