<svg width="380" height="315" viewBox="0 0 380 315" fill="none" xmlns="http://www.w3.org/2000/svg">
<path d="M274.354 166.256H5.90285C2.82311 166.256 0 163.694 0 160.364V10.7592C0 4.86728 4.87625 0 10.7791 0H268.964C274.867 0 279.743 4.86728 279.743 10.7592V160.364C280 163.694 277.434 166.256 274.354 166.256Z" transform="translate(50 53.9341)" fill="#BDD8E4" stroke="#007699" stroke-width="2"/>
<path d="M1 1H248.973V130.416H1V1Z" transform="translate(65.3984 70.0737)" fill="white" stroke="#007699" stroke-width="2"/>
<path d="M84 12C83.8026 8.49438 83.6052 3.91012 83.4077 0H0.592243C0.394828 3.77528 0.197415 8.49438 0 12H84Z" transform="translate(148 250.44)" fill="#BDD8E4"/>
<path d="M126.287 41.6984C127.229 41.9507 128.213 42.1224 129.151 42.2863C129.406 42.3308 129.658 42.3749 129.905 42.4197C131.088 42.6349 132.202 42.8766 133.249 43.2977L133.258 43.301C134.213 43.6747 134.783 44.1817 134.948 44.5609C135.013 44.7083 135.017 44.8296 134.962 44.9702C134.897 45.1348 134.719 45.4031 134.262 45.7343C132.261 46.9699 129.501 46.9986 126.745 46.9986V47.9986C126.745 46.9986 126.745 46.9986 126.744 46.9986H126.744H126.742H126.74H126.737H126.734H126.73H126.726H126.721H126.715H126.709H126.702H126.695H126.687H126.678H126.669H126.659H126.649H126.638H126.627H126.615H126.602H126.589H126.575H126.561H126.546H126.53H126.514H126.498H126.481H126.463H126.445H126.426H126.406H126.386H126.366H126.345H126.323H126.301H126.278H126.255H126.231H126.206H126.181H126.156H126.13H126.103H126.076H126.048H126.02H125.991H125.962H125.932H125.901H125.87H125.839H125.807H125.774H125.741H125.707H125.673H125.638H125.603H125.567H125.531H125.494H125.457H125.419H125.38H125.341H125.302H125.262H125.221H125.18H125.139H125.097H125.054H125.011H124.967H124.923H124.879H124.834H124.788H124.742H124.695H124.648H124.6H124.552H124.503H124.454H124.404H124.354H124.303H124.252H124.2H124.148H124.095H124.042H123.989H123.934H123.88H123.825H123.769H123.713H123.656H123.599H123.541H123.483H123.425H123.366H123.306H123.246H123.186H123.125H123.063H123.002H122.939H122.876H122.813H122.749H122.685H122.62H122.555H122.489H122.423H122.357H122.29H122.222H122.154H122.086H122.017H121.947H121.878H121.807H121.737H121.665H121.594H121.522H121.449H121.376H121.303H121.229H121.155H121.08H121.005H120.929H120.853H120.776H120.699H120.622H120.544H120.466H120.387H120.308H120.228H120.148H120.068H119.987H119.906H119.824H119.742H119.659H119.576H119.493H119.409H119.325H119.24H119.155H119.069H118.983H118.897H118.81H118.723H118.636H118.548H118.459H118.37H118.281H118.191H118.101H118.011H117.92H117.829H117.737H117.645H117.552H117.46H117.366H117.273H117.179H117.084H116.989H116.894H116.798H116.702H116.606H116.509H116.412H116.314H116.216H116.118H116.019H115.92H115.821H115.721H115.621H115.52H115.419H115.318H115.216H115.114H115.011H114.908H114.805H114.701H114.598H114.493H114.388H114.283H114.178H114.072H113.966H113.859H113.753H113.645H113.538H113.43H113.322H113.213H113.104H112.994H112.885H112.775H112.664H112.554H112.442H112.331H112.219H112.107H111.995H111.882H111.769H111.655H111.541H111.427H111.313H111.198H111.083H110.967H110.851H110.735H110.618H110.502H110.384H110.267H110.149H110.031H109.913H109.794H109.675H109.555H109.436H109.315H109.195H109.074H108.953H108.832H108.71H108.589H108.466H108.344H108.221H108.098H107.974H107.85H107.726H107.602H107.477H107.352H107.227H107.101H106.976H106.849H106.723H106.596H106.469H106.342H106.214H106.086H105.958H105.829H105.701H105.571H105.442H105.312H105.183H105.052H104.922H104.791H104.66H104.529H104.397H104.265H104.133H104.001H103.868H103.735H103.602H103.468H103.334H103.2H103.066H102.932H102.797H102.662H102.526H102.391H102.255H102.119H101.982H101.846H101.709H101.572H101.434H101.296H101.159H101.02H100.882H100.743H100.604H100.465H100.326H100.186H100.046H99.9063H99.766H99.6254H99.4846H99.3435H99.2022H99.0607H98.9189H98.777H98.6347H98.4923H98.3496H98.2067H98.0635H97.9202H97.7766H97.6328H97.4887H97.3445H97.2H97.0553H96.9104H96.7653H96.6199H96.4744H96.3286H96.1826H96.0364H95.89H95.7434H95.5966H95.4495H95.3023H95.1549H95.0072H94.8594H94.7113H94.563H94.4146H94.2659H94.1171H93.968H93.8188H93.6693H93.5197H93.3699H93.2199H93.0697H92.9193H92.7687H92.6179H92.467H92.3158H92.1645H92.013H91.8613H91.7094H91.5574H91.4051H91.2527H91.1002H90.9474H90.7945H90.6413H90.4881H90.3346H90.181H90.0272H89.8733H89.7191H89.5648H89.4104H89.2558H89.101H88.9461H88.791H88.6357H88.4803H88.3247H88.169H88.0131H87.8571H87.7009H87.5445H87.388H87.2314H87.0746H86.9176H86.7606H86.6033H86.4459H86.2884H86.1308H85.973H85.815H85.6569H85.4987H85.3404H85.1819H85.0232H84.8645H84.7056H84.5466H84.3874H84.2281H84.0687H83.9092H83.7495H83.5897H83.4298H83.2698H83.1096H82.9493H82.7889H82.6284H82.4678H82.307H82.1461H81.9852H81.8241H81.6628H81.5015H81.3401H81.1786H81.0169H80.8552H80.6933H80.5313H80.3693H80.2071H80.0448H79.8825H79.72H79.5574H79.3947H79.232H79.0691H78.9062H78.7431H78.58H78.4168H78.2534H78.09H77.9265H77.763H77.5993H77.4355H77.2717H77.1078H76.9438H76.7797H76.6156H76.4513H76.287H76.1226H75.9582H75.7936H75.629H75.4643H75.2996H75.1348H74.9699H74.8049H74.6399H74.4748H74.3097H74.1444H73.9792H73.8138H73.6484H73.483H73.3175H73.1519H72.9863H72.8206H72.6549H72.4891H72.3232H72.3063H72.2894H72.2724H72.2555H72.2385H72.2216H72.2047H72.1877H72.1708H72.1539H72.1369H72.12H72.1031H72.0861H72.0692H72.0523H72.0353H72.0184H72.0014H71.9845H71.9676H71.9506H71.9337H71.9168H71.8998H71.8829H71.866H71.849H71.8321H71.8152H71.7982H71.7813H71.7644H71.7474H71.7305H71.7135H71.6966H71.6797H71.6628H71.6458H71.6289H71.612H71.595H71.5781H71.5611H71.5442H71.5273H71.5104H71.4934H71.4765H71.4596H71.4426H71.4257H71.4088H71.3918H71.3749H71.358H71.3411H71.3241H71.3072H71.2903H71.2733H71.2564H71.2395H71.2226H71.2056H71.1887H71.1718H71.1548H71.1379H71.121H71.1041H71.0872H71.0702H71.0533H71.0364H71.0195H71.0025H70.9856H70.9687H70.9518H70.9348H70.9179H70.901H70.8841H70.8672H70.8502H70.8333H70.8164H70.7995H70.7826H70.7656H70.7487H70.7318H70.7149H70.698H70.6811H70.6641H70.6472H70.6303H70.6134H70.5965H70.5796H70.5627H70.5457H70.5288H70.5119H70.495H70.4781H70.4612H70.4443H70.4274H70.4105H70.3936H70.3766H70.3597H70.3428H70.3259H70.309H70.2921H70.2752H70.2583H70.2414H70.2245H70.2076H70.1907H70.1738H70.1569H70.14H70.1231H70.1062H70.0893H70.0724H70.0555H70.0386H70.0217H70.0048H69.9879H69.971H69.9541H69.9372H69.9204H69.9035H69.8866H69.8697H69.8528H69.8359H69.819H69.8021H69.7852H69.7684H69.7515H69.7346H69.7177H69.7008H69.6839H69.6671H69.6502H69.6333H69.6164H69.5995H69.5827H69.5658H69.5489H69.532H69.5151H69.4983H69.4814H69.4645H69.4477H69.4308H69.4139H69.397H69.3802H69.3633H69.3464H69.3296H69.3127H69.2958H69.279H69.2621H69.2452H69.2284H69.2115H69.1947H69.1778H69.1609H69.1441H69.1272H69.1104H69.0935H69.0767H69.0598H69.0429H69.0261H69.0092H68.9924H68.9755H68.9587H68.9418H68.925H68.9081H68.8913H68.8745H68.8576H68.8408H68.8239H68.8071H68.7903H68.7734H68.7566H68.7397H68.7229H68.7061H68.6892H68.6724H68.6556H68.6387H68.6219H68.6051H68.5882H68.5714H68.5546H68.5378H68.5209H68.5041H68.4873H68.4705H68.4537H68.4368H68.42H68.4032H68.3864H68.3696H68.3528H68.3359H68.3191H68.3023H68.2855H68.2687H68.2519H68.2351H68.2183H68.2015H68.1847H68.1679H68.1511H68.1343H68.1175H68.1007H68.0839H68.0671H68.0503H68.0335H68.0167H67.9999H67.9831H67.9663H67.9495H67.9328H67.916H67.8992H67.8824H67.8656H67.8488H67.8321H67.8153H67.7985H67.7817H67.765H67.7482H67.7314H67.7146H67.6979H67.6811H67.6643H67.6476H67.6308H67.614H67.5973H67.5805H67.5638H67.547H67.5302H67.5135H67.4967H67.48H67.4632H67.4465H67.4297H67.413H67.3962H67.3795H67.3627H67.346H67.3292H67.3125H67.2958H67.279H67.2623H67.2456H67.2288H67.2121H67.1954H67.1786H67.1619H67.1452H67.1284H67.1117H67.095H67.0783H67.0616H67.0448H67.0281H67.0114H66.9947H66.978H66.9613H66.9445H66.9278H66.9111H66.8944H66.8777H66.861H66.8443H66.8276H66.8109H66.7942H66.7775H66.7608H66.7441H66.7274H66.7107H66.6941H66.6774H66.6607H66.644H66.6273H66.6106H66.594H66.5773H66.5606H66.5439H66.5273H66.5106H66.4939H66.4772H66.4606H66.4439H66.4272H66.4106H66.3939H66.3773H66.3606H66.3439H66.3273H66.3106H66.294H66.2773H66.2607H66.244H66.2274H66.2107H66.1941H66.1775H66.1608H66.1442H66.1276H66.1109H66.0943H66.0777H66.061H66.0444H66.0278H66.0111H65.9945H65.9779H65.9613H65.9447H65.9281H65.9114H65.8948H65.8782H65.8616H65.845H65.8284H65.8118H65.7952H65.7786H65.762H65.7454H65.7288H65.7122H65.6956H65.679H65.6624H65.6458H65.6293H65.6127H65.5961H65.5795H65.5629H65.5464H65.5298H65.5132H65.4967H65.4801H65.4635H65.447H65.4304H65.4138H65.3973H65.3807H65.3642H65.3476H65.331H65.3145H65.298H65.2814H65.2649H65.2483H65.2318H65.2152H65.1987H65.1822H65.1656H65.1491H65.1326H65.116H65.0995H65.083H65.0665H65.0499H65.0334H65.0169H65.0004H64.9839H64.9674H64.9509H64.9344H64.9179H64.9014H64.8849H64.8684H64.8519H64.8354H64.8189H64.8024H64.7859H64.7694H64.7529H64.7364H64.72H64.7035H64.687H64.6705H64.6541H64.6376H64.6211H64.6047H64.5882H64.5717H64.5553H64.5388H64.5224H64.5059H64.4894H64.473H64.4566H64.4401H64.4237H64.4072H64.3908H64.3743H64.3579H64.3415H64.325H64.3086H64.2922H64.2758H64.2593H64.2429H64.2265H64.2101H64.1937H64.1773H64.1609H64.1444H64.128H64.1116H64.0952H64.0788H64.0624H64.0461H64.0297H64.0133H63.9969H63.9805H63.9641H63.9477H63.9314H63.915H63.8986H63.8822H63.8659H63.8495H63.8331H63.8168H63.8004H63.784H63.7677H63.7513H63.5855H63.4197H63.254H63.0883H62.9227H62.7571H62.5916H62.4261H62.2607H62.0954H61.9301H61.7649H61.5998H61.4347H61.2697H61.1047H60.9398H60.775H60.6102H60.4456H60.2809H60.1164H59.952H59.7876H59.6232H59.459H59.2949H59.1308H58.9668H58.8029H58.639H58.4753H58.3116H58.148H57.9845H57.8211H57.6578H57.4946H57.3315H57.1684H57.0055H56.8426H56.6798H56.5172H56.3546H56.1921H56.0297H55.8675H55.7053H55.5432H55.3813H55.2194H55.0577H54.896H54.7345H54.573H54.4117H54.2505H54.0894H53.9284H53.7676H53.6068H53.4462H53.2857H53.1253H52.965H52.8048H52.6448H52.4849H52.3251H52.1654H52.0059H51.8465H51.6872H51.528H51.369H51.2101H51.0513H50.8927H50.7342H50.5759H50.4176H50.2596H50.1016H49.9438H49.7861H49.6286H49.4712H49.314H49.1569H49H48.8432H48.6865H48.5301H48.3737H48.2175H48.0615H47.9056H47.7499H47.5943H47.4389H47.2836H47.1285H46.9736H46.8188H46.6642H46.5097H46.3554H46.2013H46.0474H45.8936H45.7399H45.5865H45.4332H45.2801H45.1272H44.9744H44.8218H44.6694H44.5172H44.3652H44.2133H44.0616H43.9101H43.7588H43.6076H43.4567H43.3059H43.1553H43.0049H42.8547H42.7047H42.5549H42.4052H42.2558H42.1065H41.9575H41.8086H41.66H41.5115H41.3633H41.2152H41.0674H40.9197H40.7723H40.625H40.478H40.3312H40.1846H40.0381H39.8919H39.746H39.6002H39.4546H39.3093H39.1642H39.0192H38.8745H38.7301H38.5858H38.4418H38.298H38.1544H38.011H37.8679H37.725H37.5823H37.4398H37.2976H37.1556H37.0139H36.8723H36.731H36.59H36.4492H36.3086H36.1682H36.0281H35.8882H35.7486H35.6092H35.4701H35.3312H35.1926H35.0542H34.916H34.7781H34.6404H34.503H34.3659H34.229H34.0924H33.956H33.8198H33.684H33.5483H33.413H33.2779H33.1431H33.0085H32.8742H32.7402H32.6064H32.4729H32.3396H32.2067H32.074H31.9415H31.8094H31.6775H31.5459H31.4146H31.2835H31.1528H31.0223H30.892H30.7621H30.6325H30.5031H30.374H30.2452H30.1167H29.9885H29.8605H29.7329H29.6055H29.4785H29.3517H29.2252H29.099H28.9731H28.8476H28.7223H28.5973H28.4726H28.3482H28.2241H28.1003H27.9769H27.8537H27.7308H27.6083H27.486H27.3641H27.2424H27.1211H27.0001H26.8794H26.7591H26.639H26.5193H26.3999H26.2808H26.162H26.0435H25.9254H25.8076H25.6901H25.5729H25.4561H25.3396H25.2234H25.1076H24.9921H24.8769H24.762H24.6475H24.5333H24.4195H24.306H24.1928H24.08H23.9675H23.8554H23.7436H23.6322H23.521H23.4103H23.2999H23.1898H23.0801H22.9707H22.8617H22.7531H22.6448H22.5368H22.4292H22.322H22.2151H22.1086H22.0024H21.8966H21.7912H21.6861H21.5814H21.4771H21.3731H21.2695H21.1662H21.0634H20.9609H20.8587H20.757H20.6556H20.5546H20.454H20.3537H20.2539H20.1544H20.0553H19.9565H19.8582H19.7602H19.6626H19.5654H19.4686H19.3722H19.2762H19.1806H19.0853H18.9905H18.896H18.8019H18.7083H18.615H18.5221H18.4296H18.3376H18.2459H18.1546H18.0637H17.9733H17.8832H17.7936H17.7043H17.6155H17.5271H17.439H17.3514H17.2642H17.1774H17.0911H17.0051H16.9196H16.8345H16.7498H16.6655H16.5817H16.4982H16.4152H16.3326H16.2505H16.1687H16.0874H16.0066H15.9261H15.8461H15.7665H15.6874H15.6087H15.5304H15.4525H15.3751H15.2982H15.2216H15.1455H15.0699H14.9947H14.9199H14.8456H14.7717H14.6983H14.6253H14.5528H14.4807H14.4091H14.3379H14.2672H14.1969H14.1271H14.0578H13.9889H13.9205H13.8525H13.785H13.7179H13.6513H13.5852H13.5195H13.4543H13.3896H13.3253H13.2616H13.1982H13.1354H13.073H13.0111H12.9497H12.8887H12.8282H12.7683H12.7087H12.6497H12.5911H12.5331H12.4755H12.4184H12.3617H12.3056H12.25H12.1948H12.1401H12.086H12.0323H11.9791H11.9264H11.8742H11.8225H11.7712H11.7205H11.6703H11.6206H11.5714H11.5227H11.4745H11.4268H11.3796H11.3329H11.2867H11.241H11.1959H11.1512H11.1071H11.0635H11.0204H10.9778H10.9357H10.8941H10.8531H10.8126H10.7725H10.7331H10.6941H10.6557H10.6178H10.5804H10.5435H10.5072H10.4714H10.4361H10.4014H10.3672H10.3335H10.3004H10.2678H10.2357H10.2042H10.1732H10.1428H10.1129H10.0835H10.0547H10.0264H9.99866H9.97148H9.94484H9.91875H9.89321H9.86822H9.84379H9.8199H9.79657H9.7738H9.75158H9.72991H9.70881H9.68827H9.66828H9.64886H9.63H9.6117H9.59397H9.5768H9.5602H9.54417H9.5287H9.51381H9.49949H9.48574H9.47256H9.45995H9.44793H9.43647H9.4256H9.4153H9.40559H9.39645H9.3879H9.37992H9.37254H9.36573H9.35952H9.35389H9.34885H9.34439H9.34053H9.33726H9.33458H9.33249H9.331H9.33011C9.32991 46.9986 9.32981 46.9986 9.32981 47.9986V46.9986C9.17012 46.9986 9.01047 46.9989 8.85095 46.9992C7.63697 47.0017 6.42988 47.0041 5.26188 46.8649C3.95187 46.7088 2.78116 46.3821 1.81687 45.7377C1.31699 45.3947 1.11729 45.1146 1.04419 44.9429C0.983517 44.8003 0.986943 44.6851 1.04456 44.5478C1.19845 44.1812 1.75751 43.6763 2.71697 43.301L2.71698 43.3011L2.72551 43.2977C3.77583 42.8756 4.86672 42.634 6.03442 42.4194C6.30246 42.3702 6.57715 42.322 6.85665 42.2729C7.76708 42.1133 8.72863 41.9446 9.67812 41.7009L9.68476 41.6991C13.2146 40.7672 16.8166 39.4851 19.7007 36.6338C22.4606 33.9089 24.1348 30.3372 24.8636 26.5955L24.8654 26.5863L24.8671 26.577C25.9109 20.6224 26.2668 14.4812 26.6174 8.43036C26.7622 5.93165 26.906 3.44836 27.0971 1H108.954C109.032 2.41905 109.103 3.84777 109.174 5.28284C109.525 12.3591 109.883 19.5899 111.108 26.577L111.109 26.5863L111.111 26.5955C111.843 30.3539 113.623 33.9116 116.26 36.6199C119.054 39.4879 122.773 40.7705 126.287 41.6984ZM126.287 41.6984C126.288 41.6987 126.289 41.6989 126.29 41.6991L126.545 40.7323L126.287 41.6982C126.287 41.6983 126.287 41.6984 126.287 41.6984Z" transform="translate(122 248.44)" stroke="#007699" stroke-width="2"/>
<path d="M280 0L0 0.88141V20.3505C0 30.5974 8.21264 38.7949 18.4785 38.7949H261.522C271.787 38.7949 280 30.5974 280 20.3505V0Z" transform="translate(50 213.161)" fill="white" stroke="#007699" stroke-width="2"/>
<path d="M8.42257 2.75441C8.15087 1.65264 6.9718 0 4.39075 0C1.80969 0 0.0664662 1.98261 0.00138056 4.42631C-0.0688643 7.06373 2.55334 9.0151 5.16208 8.8141H6.249M8.69566 5.25263C8.69566 7.27253 8.69566 11.6787 8.69566 13.2212C8.69566 15.9756 10.5961 17.6282 13.3145 17.6282C16.0329 17.6282 17.6603 15.4247 17.6603 13.2212C17.6603 11.0176 15.924 8.8141 13.3145 8.8141C12.2263 8.8141 11.1395 8.8141 11.1395 8.8141" transform="translate(181 223.772)" stroke="#007699" stroke-width="2" stroke-linecap="round" stroke-linejoin="bevel"/>
<mask id="path-7-inside-1" fill="white">
<ellipse cx="1.77003" cy="1.75284" rx="1.77003" ry="1.75284"/>
</mask>
<ellipse cx="1.77003" cy="1.75284" rx="1.77003" ry="1.75284" transform="translate(76.252 75.6943)" fill="#B2C0CE"/>
<path d="M1.54007 1.75284C1.54007 1.59798 1.66148 1.50568 1.77003 1.50568V5.50568C3.83371 5.50568 5.54007 3.84384 5.54007 1.75284H1.54007ZM1.77003 1.50568C1.87859 1.50568 2 1.59798 2 1.75284H-2C-2 3.84384 -0.293648 5.50568 1.77003 5.50568V1.50568ZM2 1.75284C2 1.9077 1.87859 2 1.77003 2V-2C-0.293648 -2 -2 -0.338157 -2 1.75284H2ZM1.77003 2C1.66148 2 1.54007 1.9077 1.54007 1.75284H5.54007C5.54007 -0.338157 3.83371 -2 1.77003 -2V2Z" transform="translate(76.252 75.6943)" fill="#007699" mask="url(#path-7-inside-1)"/>
<mask id="path-9-inside-2" fill="white">
<ellipse cx="1.77003" cy="1.75284" rx="1.77003" ry="1.75284"/>
</mask>
<ellipse cx="1.77003" cy="1.75284" rx="1.77003" ry="1.75284" transform="translate(80.9702 75.6943)" fill="#B2C0CE"/>
<path d="M1.54007 1.75284C1.54007 1.59798 1.66148 1.50568 1.77003 1.50568V5.50568C3.83371 5.50568 5.54007 3.84384 5.54007 1.75284H1.54007ZM1.77003 1.50568C1.87859 1.50568 2 1.59798 2 1.75284H-2C-2 3.84384 -0.293648 5.50568 1.77003 5.50568V1.50568ZM2 1.75284C2 1.9077 1.87859 2 1.77003 2V-2C-0.293648 -2 -2 -0.338157 -2 1.75284H2ZM1.77003 2C1.66148 2 1.54007 1.9077 1.54007 1.75284H5.54007C5.54007 -0.338157 3.83371 -2 1.77003 -2V2Z" transform="translate(80.9702 75.6943)" fill="#007699" mask="url(#path-9-inside-2)"/>
<mask id="path-11-inside-3" fill="white">
<ellipse cx="1.77003" cy="1.75284" rx="1.77003" ry="1.75284"/>
</mask>
<ellipse cx="1.77003" cy="1.75284" rx="1.77003" ry="1.75284" transform="translate(85.6909 75.6943)" fill="#B2C0CE"/>
<path d="M1.54007 1.75284C1.54007 1.59798 1.66148 1.50568 1.77003 1.50568V5.50568C3.83371 5.50568 5.54007 3.84384 5.54007 1.75284H1.54007ZM1.77003 1.50568C1.87859 1.50568 2 1.59798 2 1.75284H-2C-2 3.84384 -0.293648 5.50568 1.77003 5.50568V1.50568ZM2 1.75284C2 1.9077 1.87859 2 1.77003 2V-2C-0.293648 -2 -2 -0.338157 -2 1.75284H2ZM1.77003 2C1.66148 2 1.54007 1.9077 1.54007 1.75284H5.54007C5.54007 -0.338157 3.83371 -2 1.77003 -2V2Z" transform="translate(85.6909 75.6943)" fill="#007699" mask="url(#path-11-inside-3)"/>
<line y1="-1" x2="238.414" y2="-1" transform="translate(71.5308 83.874)" stroke="#007699" stroke-width="2"/>
<rect width="103.313" height="17.6282" transform="translate(129.472 99.7676)" fill="#007699"/>
<rect width="103.313" height="17.6282" transform="translate(129.472 137.668)" fill="#007699"/>
<rect width="103.313" height="17.6282" transform="translate(129.472 175.569)" fill="#007699"/>
<rect width="28.2564" height="73.157" transform="translate(270.601 119.233)" fill="#BDD8E4"/>
<path d="M9.33877e-06 48.7938H22.492V-2.32667e-06L14.2296 11.1311C11.7815 14.3332 9.02739 17.2303 6.12027 19.9749C2.29511 23.787 9.33877e-06 28.8188 9.33877e-06 34.4606V48.7938V48.7938Z" transform="translate(244.993 72.5884)" fill="#BDD8E4" stroke="#007699" stroke-width="2" stroke-linecap="round" stroke-linejoin="round"/>
<path d="M22.492 48.7938H0V0L8.26236 11.1311C10.7105 14.3332 13.4646 17.2303 16.3717 19.9749C20.1969 23.787 22.492 28.8188 22.492 34.4606V48.7938Z" transform="translate(301.299 72.5884)" fill="white" stroke="#007699" stroke-width="2" stroke-linecap="round" stroke-linejoin="round"/>
<path d="M22.492 48.7938H-9.33877e-06V-2.32667e-06L8.26235 11.1311C10.7105 14.3332 13.4646 17.2303 16.3717 19.9749C20.1969 23.787 22.492 28.8188 22.492 34.4606V48.7938V48.7938Z" transform="translate(301.506 72.6479)" stroke="#007699" stroke-width="2" stroke-miterlimit="10" stroke-linecap="round" stroke-linejoin="round"/>
<path d="M9.33877e-06 48.7938H22.492V-2.32667e-06L14.2296 11.1311C11.7815 14.3332 9.02739 17.2303 6.12027 19.9749C2.29511 23.787 9.33877e-06 28.8188 9.33877e-06 34.4606V48.7938V48.7938Z" transform="translate(244.993 72.5884)" stroke="#007699" stroke-width="2" stroke-miterlimit="10" stroke-linecap="round" stroke-linejoin="round"/>
<path d="M37.0276 103.382H0V26.8366C0 17.8402 4.13118 9.4538 11.1695 3.9645L14.5356 1.37233C16.8307 -0.457441 20.1968 -0.457441 22.4919 1.37233L26.1641 4.11698C33.0494 9.4538 37.1806 17.6877 37.1806 26.3791V103.382H37.0276Z" transform="translate(266.261 18)" fill="white" stroke="#007699" stroke-width="2" stroke-linecap="round" stroke-linejoin="round"/>
<path d="M19.4318 3.81202L22.645 1.37232H22.492C20.1969 -0.457443 16.8307 -0.457443 14.5356 1.37232L11.1695 3.96449C4.13117 9.45379 -9.33877e-06 17.8402 -9.33877e-06 26.8366V103.382H8.10934V26.6841C8.26234 17.8402 12.3935 9.30132 19.4318 3.81202Z" transform="translate(266.186 18)" fill="#BDD8E4"/>
<path d="M34.1204 14.1807C35.9565 17.9927 37.0276 22.1097 37.0276 26.5316V103.382H0V26.8366C0 17.8402 4.13118 9.4538 11.1695 3.9645L14.5356 1.37233C16.8307 -0.457441 20.1968 -0.457441 22.4919 1.37233L26.1641 4.11698" transform="translate(266.261 18)" stroke="#007699" stroke-width="2" stroke-miterlimit="10" stroke-linecap="round" stroke-linejoin="round"/>
<path d="M13.1586 6.55667C13.1586 10.2162 10.2514 13.1133 6.57928 13.1133C2.90713 13.1133 0 10.2162 0 6.55667C0 2.89714 2.90713 0 6.57928 0C10.2514 0 13.1586 2.89714 13.1586 6.55667Z" transform="translate(278.042 40.377)" fill="#BDD8E4" stroke="#007699" stroke-width="2" stroke-linecap="round" stroke-linejoin="round"/>
<path d="M13.1586 6.55666C13.1586 10.2162 10.2514 13.1133 6.57928 13.1133C2.90712 13.1133 -4.66939e-06 10.2162 -4.66939e-06 6.55666C-4.66939e-06 2.89713 2.90712 2.32667e-06 6.57928 2.32667e-06C10.2514 2.32667e-06 13.1586 2.89713 13.1586 6.55666Z" transform="translate(278.042 62.9443)" fill="#BDD8E4" stroke="#007699" stroke-width="2" stroke-linecap="round" stroke-linejoin="round"/>
<mask id="mask0" mask-type="alpha" maskUnits="userSpaceOnUse" x="164" y="132" width="150" height="68">
<rect width="149.229" height="66.9872" transform="translate(164.48 132.454)" fill="#C4C4C4"/>
</mask>
<g mask="url(#mask0)">
<path d="M160.444 27.1229C162.36 24.515 163.58 21.3854 163.58 17.9081C163.58 9.3887 156.611 2.60797 148.249 2.60797C139.713 2.60797 132.919 9.56256 132.919 17.9081C132.919 18.2558 132.919 18.4297 132.919 18.7774C129.435 19.1251 126.474 21.2115 124.732 24.1672C122.467 22.4286 119.505 21.3854 116.544 21.3854C112.363 21.3854 108.705 23.2979 106.092 26.0798C104.175 24.515 101.736 23.4718 98.9491 23.4718C98.4265 23.4718 97.9039 23.4718 97.207 23.6456C97.3812 23.124 97.3812 22.6025 97.3812 22.0809C97.3812 16.691 93.0261 12.3444 87.6257 12.3444C82.2253 12.3444 77.8701 16.691 77.8701 22.0809C77.8701 22.6025 77.8702 22.9502 78.0444 23.4718C76.6507 22.9502 75.0829 22.6025 73.515 22.6025C68.9856 22.6025 64.9789 25.2104 62.8884 29.0355C61.4948 27.8184 59.7527 26.9491 57.6622 26.9491C55.2233 26.9491 53.1329 27.9923 51.7392 29.7309C50.8682 24.515 46.3388 20.6899 40.9385 20.6899C40.4158 20.6899 39.8932 20.6899 39.3706 20.8638C39.8932 19.299 40.2416 17.5604 40.2416 15.8217C40.2416 7.12846 33.0992 -2.65297e-06 24.3889 -2.65297e-06C15.6786 -2.65297e-06 8.5361 7.12846 8.5361 15.8217C8.5361 19.1251 9.58134 22.2547 11.3234 24.8627C4.70357 26.7752 5.31635e-06 32.6866 5.31635e-06 39.989H166.889C166.889 34.5991 164.276 30.0786 160.444 27.1229Z" transform="translate(196.48 159.387)" fill="#BDD8E4"/>
<path d="M166.889 39.8151C166.889 34.5991 164.276 30.0786 160.444 27.1229C162.36 24.515 163.58 21.3854 163.58 17.9081C163.58 9.3887 156.611 2.60797 148.249 2.60797C139.713 2.60797 132.919 9.56256 132.919 17.9081C132.919 18.2558 132.919 18.4297 132.919 18.7774C129.435 19.1251 126.474 21.2115 124.732 24.1672C122.467 22.4286 119.505 21.3854 116.544 21.3854C112.363 21.3854 108.705 23.2979 106.092 26.0798C104.175 24.515 101.736 23.4718 98.9491 23.4718C98.4265 23.4718 97.9039 23.4718 97.207 23.6456C97.3812 23.124 97.3812 22.6025 97.3812 22.0809C97.3812 16.691 93.0261 12.3444 87.6257 12.3444C82.2253 12.3444 77.8701 16.691 77.8701 22.0809C77.8701 22.6025 77.8702 22.9502 78.0444 23.4718C76.6507 22.9502 75.0829 22.6025 73.515 22.6025C68.9856 22.6025 64.9789 25.2104 62.8884 29.0355C61.4948 27.8184 59.7527 26.9491 57.6622 26.9491C55.2233 26.9491 53.1329 27.9923 51.7392 29.7309C50.8682 24.515 46.3388 20.6899 40.9385 20.6899C40.4158 20.6899 39.8932 20.6899 39.3706 20.8638C39.8932 19.299 40.2416 17.5604 40.2416 15.8217C40.2416 7.12846 33.0992 -2.65297e-06 24.3889 -2.65297e-06C15.6786 -2.65297e-06 8.5361 7.12846 8.5361 15.8217C8.5361 19.1251 9.58134 22.2547 11.3234 24.8627C4.70357 26.7752 5.31635e-06 32.6866 5.31635e-06 39.989" transform="translate(196.48 158.505)" stroke="#007699" stroke-width="2" stroke-miterlimit="10" stroke-linecap="round"/>
</g>
<path d="M20.6622 36.3974L16.0706 38.4055C15.0503 38.9075 14.0299 38.9075 13.0095 38.4055L7.90775 36.3974C4.84668 35.1423 2.29577 32.6321 1.02032 29.3689C0.510146 27.8628 -1.55694e-05 26.1057 -1.55694e-05 24.5996V13.8059C-1.55694e-05 6.27542 6.3772 3.83021e-06 14.0299 3.83021e-06C21.6825 3.83021e-06 28.0597 6.27542 28.0597 13.8059V24.5996C28.0597 26.3567 27.8047 27.8628 27.0394 29.3689V29.6199C26.019 32.6321 23.7232 35.1423 20.6622 36.3974Z" transform="translate(84.3794 98.8867)" fill="white"/>
<path d="M20.6622 36.3974L16.0706 38.4055C15.0503 38.9075 14.0299 38.9075 13.0095 38.4055L7.90775 36.3974C4.84668 35.1423 2.29577 32.6321 1.02032 29.3689C0.510146 27.8628 -1.55694e-05 26.1057 -1.55694e-05 24.5996V13.8059C-1.55694e-05 6.27542 6.3772 3.83021e-06 14.0299 3.83021e-06C21.6825 3.83021e-06 28.0597 6.27542 28.0597 13.8059V24.5996C28.0597 26.3567 27.8047 27.8628 27.0394 29.3689V29.6199C26.019 32.6321 23.7232 35.1423 20.6622 36.3974Z" transform="translate(84.3384 98.8867)" stroke="#007699" stroke-width="2" stroke-miterlimit="10" stroke-linecap="round"/>
<path d="M3.78259 3.87249e-06V11.1667H-9.23486e-06" transform="translate(95.7266 112.864)" stroke="#007699" stroke-width="2" stroke-miterlimit="10" stroke-linecap="round"/>
<path d="M7.57951 8.0648H3.88694C1.74914 8.0648 2.37239e-05 6.29448 2.37239e-05 4.13075V3.93405C2.37239e-05 1.77032 1.74914 -7.5036e-07 3.88694 -7.5036e-07H7.57951C9.71731 -7.5036e-07 11.4664 1.77032 11.4664 3.93405V4.13075C11.4664 6.29448 9.71731 8.0648 7.57951 8.0648Z" transform="translate(85.6392 111.004)" stroke="#007699" stroke-width="2" stroke-miterlimit="10" stroke-linecap="round"/>
<path d="M7.57949 8.0648H3.88693C1.74913 8.0648 1.18619e-05 6.29448 1.18619e-05 4.13075V3.93405C1.18619e-05 1.77032 1.74913 -7.5036e-07 3.88693 -7.5036e-07H7.57949C9.7173 -7.5036e-07 11.4664 1.77032 11.4664 3.93405V4.13075C11.4664 6.29448 9.7173 8.0648 7.57949 8.0648Z" transform="translate(100.021 111.004)" stroke="#007699" stroke-width="2" stroke-miterlimit="10" stroke-linecap="round"/>
<path d="M1.18619e-05 0H2.72084" transform="translate(97.106 115.133)" stroke="#007699" stroke-width="2" stroke-miterlimit="10" stroke-linecap="round"/>
<path d="M0 2.25915H7.65266C9.94845 2.25915 12.2443 1.50611 14.285 0.251024L14.5401 -7.66042e-06" transform="translate(105.814 128.506) scale(-1 1)" stroke="#007699" stroke-width="2" stroke-miterlimit="10" stroke-linecap="round"/>
<path d="M-1.55694e-05 0H1.78564" transform="translate(91.9912 114.198)" stroke="#007699" stroke-width="2" stroke-miterlimit="10" stroke-linecap="round"/>
<path d="M1.78559 0H1.55694e-05" transform="translate(106.444 114.104)" stroke="#007699" stroke-width="2" stroke-miterlimit="10" stroke-linecap="round"/>
<path d="M4.08142 5.1735C4.08142 6.5531 3.31611 7.93268 2.04067 7.93268C1.02032 7.93268 0 6.898 0 5.1735V2.7592C0 1.3796 0.765233 5.26275e-06 2.04067 5.26275e-06C3.06103 5.26275e-06 4.08142 1.0347 4.08142 2.7592V5.1735Z" transform="translate(111.378 115.633)" stroke="#007699" stroke-width="2" stroke-miterlimit="10" stroke-linecap="round"/>
<path d="M4.08144 5.1735C4.08144 6.5531 3.31613 7.93268 2.04069 7.93268C1.02034 7.93268 1.55693e-05 6.898 1.55693e-05 5.1735V2.7592C1.55693e-05 1.3796 0.765249 5.26275e-06 2.04069 5.26275e-06C3.06104 5.26275e-06 4.08144 1.0347 4.08144 2.7592V5.1735Z" transform="translate(81.0225 115.633)" stroke="#007699" stroke-width="2" stroke-miterlimit="10" stroke-linecap="round"/>
<path d="M20.6622 36.3974L16.0706 38.4055C15.0503 38.9075 14.0299 38.9075 13.0095 38.4055L7.90776 36.3974C4.8467 35.1423 2.29578 32.6321 1.02034 29.3689C0.510162 27.8628 0 26.1057 0 24.5996V13.8059C0 6.27541 6.37721 0 14.0299 0C21.6825 0 28.0597 6.27541 28.0597 13.8059V24.5996C28.0597 26.3567 27.8047 27.8628 27.0394 29.3689V29.6199C26.0191 32.6321 23.7233 35.1423 20.6622 36.3974Z" transform="translate(84.3794 98.8867)" fill="white"/>
<path d="M20.6622 36.3974L16.0706 38.4055C15.0503 38.9075 14.0299 38.9075 13.0095 38.4055L7.90775 36.3974C4.84668 35.1423 2.29577 32.6321 1.02032 29.3689C0.510146 27.8628 -1.55694e-05 26.1057 -1.55694e-05 24.5996V13.8059C-1.55694e-05 6.27542 6.3772 3.83021e-06 14.0299 3.83021e-06C21.6825 3.83021e-06 28.0597 6.27542 28.0597 13.8059V24.5996C28.0597 26.3567 27.8047 27.8628 27.0394 29.3689V29.6199C26.019 32.6321 23.7232 35.1423 20.6622 36.3974Z" transform="translate(84.3384 98.8867)" stroke="#007699" stroke-width="2" stroke-miterlimit="10" stroke-linecap="round"/>
<path d="M3.53204 3.66798e-06V10.5769H-8.62318e-06" transform="translate(96.0337 113.87)" stroke="#007699" stroke-width="2" stroke-miterlimit="10" stroke-linecap="round"/>
<path d="M7.57951 8.0648H3.88694C1.74914 8.0648 2.37239e-05 6.29448 2.37239e-05 4.13075V3.93405C2.37239e-05 1.77032 1.74914 -7.5036e-07 3.88694 -7.5036e-07H7.57951C9.71731 -7.5036e-07 11.4664 1.77032 11.4664 3.93405V4.13075C11.4664 6.29448 9.71731 8.0648 7.57951 8.0648Z" transform="translate(85.6392 112.767)" stroke="#007699" stroke-width="2" stroke-miterlimit="10" stroke-linecap="round"/>
<path d="M7.57949 8.0648H3.88693C1.74913 8.0648 1.18619e-05 6.29448 1.18619e-05 4.13075V3.93405C1.18619e-05 1.77032 1.74913 -7.5036e-07 3.88693 -7.5036e-07H7.57949C9.7173 -7.5036e-07 11.4664 1.77032 11.4664 3.93405V4.13075C11.4664 6.29448 9.7173 8.0648 7.57949 8.0648Z" transform="translate(100.021 112.767)" stroke="#007699" stroke-width="2" stroke-miterlimit="10" stroke-linecap="round"/>
<path d="M1.18619e-05 0H2.72084" transform="translate(97.106 115.133)" stroke="#007699" stroke-width="2" stroke-miterlimit="10" stroke-linecap="round"/>
<path d="M0 2.25915H7.65266C9.94845 2.25915 12.2443 1.50611 14.285 0.251024L14.5401 -7.66042e-06" transform="translate(105.814 128.506) scale(-1 1)" stroke="#007699" stroke-width="2" stroke-miterlimit="10" stroke-linecap="round"/>
<path d="M-1.55694e-05 0H1.78564" transform="translate(91.9912 115.961)" stroke="#007699" stroke-width="2" stroke-miterlimit="10" stroke-linecap="round"/>
<path d="M1.78559 0H1.55694e-05" transform="translate(106.445 115.867)" stroke="#007699" stroke-width="2" stroke-miterlimit="10" stroke-linecap="round"/>
<path d="M2.45958 28.8122H2.08117C1.13518 28.8122 0.567605 28.059 0.567605 27.3057L-2.30954e-05 10.734C-2.30954e-05 9.03914 0.756792 8.47419 2.27038 7.3443L4.16235 5.83777C-0.94599 2.63641 0.378396 0 0.378396 0C2.64877 3.38968 15.325 0.941577 22.7037 2.07147C24.4065 2.25978 25.7309 3.7663 26.1093 5.46114L26.2985 6.77935C27.8121 6.77935 28.9473 6.59103 28.9473 8.09756L28.3797 27.1174C28.3797 28.059 27.6229 28.6239 26.8661 28.6239H2.45958V28.8122Z" transform="translate(84.7422 151.771)" fill="#D7DFE4"/>
<path d="M2.64878 28.6239H2.08115C1.32436 28.6239 0.567594 27.8707 0.567594 27.1174L2.30954e-05 10.5457C2.30954e-05 8.85082 1.13521 7.15598 2.83799 6.40272L4.16234 5.64946C-0.567605 2.63641 0.378384 0.376631 0.378384 7.18366e-07C2.83796 3.38968 15.5142 0.753262 22.8929 2.07147C24.5957 2.25978 25.9201 3.76631 26.1093 5.46114L26.2985 6.77935C27.8121 6.77935 28.9473 6.59103 28.9473 8.09756L28.3797 27.1174C28.3797 27.8707 27.6229 28.6239 26.8661 28.6239H2.64878Z" transform="translate(84.5537 151.96)" stroke="#007699" stroke-width="2" stroke-miterlimit="10" stroke-linecap="round"/>
<path d="M12.6762 32.3902C5.67593 32.3902 2.30954e-05 26.7408 2.30954e-05 19.7731V11.2989C2.30954e-05 4.33125 5.67593 1.43673e-06 12.6762 1.43673e-06C19.6766 1.43673e-06 25.3525 4.33125 25.3525 11.2989V19.7731C25.3525 26.7408 19.6766 32.3902 12.6762 32.3902Z" transform="translate(86.4468 157.798)" fill="white"/>
<path d="M12.6762 32.3902C5.67593 32.3902 2.30954e-05 26.7408 2.30954e-05 19.7731V11.2989C2.30954e-05 4.33125 5.67593 1.43673e-06 12.6762 1.43673e-06C19.6766 1.43673e-06 25.3525 4.33125 25.3525 11.2989V19.7731C25.3525 26.7408 19.6766 32.3902 12.6762 32.3902Z" transform="translate(86.4468 157.798)" stroke="#007699" stroke-width="2" stroke-miterlimit="10" stroke-linecap="round"/>
<path d="M27.2445 5.18092L24.0281 3.86272C24.4065 3.48609 23.8389 3.10945 24.0281 2.54451C25.1633 -0.468536 19.109 0.661355 19.109 0.661355C19.109 0.661355 12.1087 -2.16337 3.97318 3.86272L1.15477e-05 9.70049C1.15477e-05 9.70049 11.7303 12.9018 20.8118 4.80429C21.001 7.25239 21.5686 11.0187 27.2445 12.1486V7.62902V5.18092V5.18092Z" transform="translate(85.3101 155.441)" fill="#BDD8E4"/>
<path d="M-2.30954e-05 4.51957C-2.30954e-05 4.51957 11.7303 7.90924 21.1902 7.18366e-07H21.3794C21.5686 2.4481 22.7037 6.2144 28.3797 7.3443" transform="translate(84.7422 160.435)" stroke="#007699" stroke-width="2" stroke-miterlimit="10" stroke-linecap="round"/>
<path d="M7.37873 7.72093H3.78398C1.7028 7.72093 2.30954e-05 6.02609 2.30954e-05 3.95462V3.7663C2.30954e-05 1.69484 1.7028 -7.18366e-07 3.78398 -7.18366e-07H7.37873C9.45991 -7.18366e-07 11.1627 1.69484 11.1627 3.7663V3.95462C11.1627 6.02609 9.45991 7.72093 7.37873 7.72093Z" transform="translate(86.4468 168.532)" stroke="#007699" stroke-width="2" stroke-miterlimit="10" stroke-linecap="round"/>
<path d="M7.37872 7.72093H3.78397C1.70279 7.72093 1.15477e-05 6.02609 1.15477e-05 3.95462V3.7663C1.15477e-05 1.69484 1.70279 -7.18366e-07 3.78397 -7.18366e-07H7.37872C9.45989 -7.18366e-07 11.1627 1.69484 11.1627 3.7663V3.95462C11.1627 6.02609 9.45989 7.72093 7.37872 7.72093Z" transform="translate(100.446 168.532)" stroke="#007699" stroke-width="2" stroke-miterlimit="10" stroke-linecap="round"/>
<path d="M1.15477e-05 0H2.64877" transform="translate(97.6089 172.486)" stroke="#007699" stroke-width="2" stroke-miterlimit="10" stroke-linecap="round"/>
<path d="M0 0H2.64876" transform="translate(90.7969 172.486)" stroke="#007699" stroke-width="2" stroke-miterlimit="10" stroke-linecap="round"/>
<path d="M-1.15477e-05 0H2.4596" transform="translate(104.798 172.486)" stroke="#007699" stroke-width="2" stroke-miterlimit="10" stroke-linecap="round"/>
<path d="M0 0V7.72093H2.83797" transform="translate(99.311 173.428)" stroke="#007699" stroke-width="2" stroke-miterlimit="10" stroke-linecap="round"/>
<path d="M0 1.69484H7.1895L9.27069 2.87346e-06" transform="translate(95.5273 183.597)" stroke="#007699" stroke-width="2" stroke-miterlimit="10" stroke-linecap="round"/>
</svg>
