<?xml version="1.0" encoding="utf-8"?>
<!-- Generator: Adobe Illustrator 23.0.0, SVG Export Plug-In . SVG Version: 6.00 Build 0)  -->
<svg version="1.1" id="iconmonstr" xmlns="http://www.w3.org/2000/svg" xmlns:xlink="http://www.w3.org/1999/xlink" x="0px" y="0px"
	 viewBox="0 0 27.52 27.52" style="enable-background:new 0 0 27.52 27.52;" xml:space="preserve">
<style type="text/css">
	.st0{fill:#2559A7;}
</style>
<g>
	<rect x="11.76" y="7.76" class="st0" width="4" height="12"/>
	<path class="st0" d="M25.94,10.71c-0.72-2.69-2.41-5.05-4.6-6.67c-2.16-1.64-4.86-2.41-7.5-2.38L14,3.87
		c1.44,0.07,2.86,0.41,4.13,1.09c1.99,1.03,3.63,2.74,4.5,4.8c0.88,2.04,1.06,4.38,0.43,6.5c-0.6,2.12-1.94,4.02-3.74,5.25
		c-1.79,1.24-4,1.87-6.16,1.69c-2.16-0.14-4.25-1.06-5.8-2.56c-1.56-1.48-2.62-3.49-2.86-5.62c-0.26-1.82,0.08-3.7,0.91-5.33
		l1.51,1.53l0.95,0.97l0.27-1.34l1.41-7l0.23-1.13L8.62,2.93L1.6,4.21L0.02,4.5l1.13,1.16l1.52,1.55c-1.35,2.23-2.03,4.88-1.84,7.49
		c0.16,2.86,1.34,5.66,3.27,7.79C6,24.66,8.7,26.1,11.53,26.57c2.83,0.51,5.82-0.02,8.32-1.4c2.48-1.4,4.53-3.59,5.59-6.23
		C26.52,16.33,26.71,13.38,25.94,10.71z"/>
</g>
</svg>
