<svg width="270" height="230" viewBox="0 0 270 230" fill="none" xmlns="http://www.w3.org/2000/svg">
<rect width="241.722" height="212.407" fill="black" fill-opacity="0" transform="translate(20 6.59277)"/>
<path d="M180.5 25.9271C166.851 18.9411 151.386 15 135 15C103.651 15 75.6714 29.4252 57.3364 52M219.5 61.5C229.316 76.971 235 95.3217 235 115C235 118.889 234.778 122.727 234.346 126.5M90.0001 204.327C103.526 211.154 118.814 215 135 215C151.186 215 166.474 211.154 180 204.327M215.381 174.5C218.2 170.698 220.755 166.689 223.021 162.5" stroke="#007699" stroke-width="2" stroke-linecap="round" stroke-linejoin="round"/>
<rect width="196" height="135" fill="black" fill-opacity="0" transform="translate(20 62)"/>
<rect width="196" height="135" fill="black" fill-opacity="0" transform="translate(20 62)"/>
<g opacity="0.3">
<rect width="0.689333" height="0.919932" fill="black" fill-opacity="0" transform="translate(215.311 195.39)"/>
<g opacity="0.3">
<mask id="path-2-inside-1" fill="white">
<path d="M216 195.39H215.311V196.31C215.54 195.85 215.77 195.62 216 195.39Z"/>
</mask>
<path d="M216 195.39H215.311V196.31C215.54 195.85 215.77 195.62 216 195.39Z" fill="#0565A2"/>
<path d="M216 195.39L217.415 196.804L220.825 193.39H216V195.39ZM215.311 195.39V193.39H213.311V195.39H215.311ZM215.311 196.31H213.311L217.1 197.204L215.311 196.31ZM216 193.39H215.311V197.39H216V193.39ZM213.311 195.39V196.31H217.311V195.39H213.311ZM217.1 197.204C217.152 197.1 217.19 197.047 217.217 197.013C217.254 196.967 217.294 196.925 217.415 196.804L214.585 193.977C214.314 194.248 213.898 194.662 213.521 195.416L217.1 197.204Z" fill="#007699" mask="url(#path-2-inside-1)"/>
</g>
</g>
<path d="M204.052 189.871H30.7995C29.6506 189.871 28.5017 188.951 28.5017 187.571V64.2998C28.5017 63.1499 29.6506 62 30.7995 62H204.052C205.201 62 206.35 63.1499 206.35 64.2998V187.801C206.35 188.951 205.431 189.871 204.052 189.871Z" fill="#BDD8E4"/>
<path d="M48.9519 62H59.0621" stroke="#007699" stroke-width="2" stroke-miterlimit="10" stroke-linecap="round"/>
<path d="M63.8875 62H201.984C204.511 62 206.35 64.0698 206.35 66.3697V185.501C206.35 188.031 204.282 189.871 201.984 189.871H32.8675C30.3399 189.871 28.5017 187.801 28.5017 185.501V66.3697C28.5017 63.8399 30.5697 62 32.8675 62H43.4373" stroke="#007699" stroke-width="2" stroke-miterlimit="10" stroke-linecap="round"/>
<path d="M38.2332 73.1196H195.929V175.072H38.2332V73.1196Z" fill="white" stroke="#007699" stroke-width="2"/>
<path d="M203.363 197H29.6507C25.5147 197 21.8382 194.01 21.1489 189.871L20 182.281H100.422L103.409 186.651H125.698L128.915 182.281H213.703L212.554 188.951C212.094 193.55 208.188 197 203.363 197Z" fill="white"/>
<path d="M203.363 197H29.6507C25.5147 197 21.8382 194.01 21.1489 189.871L20.6961 186.88C20.3298 184.46 22.2034 182.281 24.6511 182.281H98.3113C99.6322 182.281 100.868 182.933 101.613 184.024L102.218 184.908C102.963 185.999 104.199 186.651 105.52 186.651H123.675C124.947 186.651 126.143 186.046 126.897 185.022L127.716 183.91C128.47 182.886 129.665 182.281 130.937 182.281H208.955C211.435 182.281 213.318 184.516 212.897 186.96L212.554 188.951C212.094 193.55 208.188 197 203.363 197Z" stroke="#007699" stroke-width="2" stroke-miterlimit="10" stroke-linecap="round"/>
<rect width="151.5" height="96" fill="black" fill-opacity="0" transform="translate(41.5 76)"/>
<path d="M178.855 109.335L173.049 117.189L167.244 135.868H161.438L155.633 149.57L149.828 155.821H144.022L138.217 162.613H132.411L126.606 157.802L120.8 161.162L114.995 164.523L109.19 161.162L103.384 164.704L97.5787 162.613L91.7732 157.506H85.9678L80.1623 154.123L74.3569 157.802L68.5 157.506L62.746 164.704L56.9406 168.557L51.1352 166.01L45.3297 168.557L41.5 172H193V76H188.5L184.66 93.415L178.855 109.335Z" fill="#F1F4F5"/>
<path d="M45.3296 168.557L51.135 166.01L56.9405 168.557L62.7459 164.704L68.5513 157.519L74.3568 157.802L80.1622 154.123L85.9677 157.506H91.7731L97.5785 162.613L103.384 164.704L109.189 161.162L114.995 164.523L120.8 161.162L126.606 157.802L132.411 162.613H138.217L144.022 155.821H149.827L155.633 149.57L161.438 135.868H167.244L173.049 117.189L178.855 109.335L184.66 93.415" stroke="#007699" stroke-width="2" stroke-miterlimit="10" stroke-linecap="round"/>
<rect width="65.9075" height="28.4881" fill="black" fill-opacity="0" transform="translate(44.5073 80.5854)"/>
<rect x="45.5073" y="81.5869" width="26.5006" height="26.4868" stroke="#007699" stroke-width="2"/>
<rect x="82.9143" y="81.5854" width="26.5006" height="26.4868" stroke="#007699" stroke-width="2"/>
<rect width="116.696" height="161.867" fill="black" fill-opacity="0" transform="translate(104.228 39.3979) rotate(-16.3269)"/>
<path d="M198.906 127.528L213.232 135.354" stroke="#007699" stroke-width="2" stroke-miterlimit="10" stroke-linecap="round"/>
<path d="M132.298 91.3577L132.298 91.3577L132.303 91.349C142.266 72.7157 165.859 65.7941 184.607 76.0348C203.35 86.2724 210.17 109.557 199.914 128.289C189.657 147.022 166.348 153.85 147.605 143.612C128.862 133.374 122.041 110.09 132.298 91.3577Z" fill="white" stroke="#007699" stroke-width="2"/>
<path d="M142.08 96.8025L142.08 96.8025L142.085 96.7938C149.051 83.7496 165.559 78.9035 178.682 86.0806C191.801 93.255 196.579 109.564 189.404 122.683C182.23 135.802 165.921 140.579 152.802 133.405C139.683 126.231 134.906 109.921 142.08 96.8025Z" fill="white" stroke="#007699" stroke-width="2"/>
<path d="M142.08 96.802L142.08 96.802L142.085 96.7933C149.051 83.7491 165.559 78.9031 178.682 86.0801C191.801 93.2545 196.579 109.564 189.404 122.683C182.23 135.801 165.921 140.579 152.802 133.404C139.683 126.23 134.906 109.921 142.08 96.802Z" fill="white" stroke="#007699" stroke-width="2"/>
<path d="M181.306 91.5007C189.839 98.7081 192.391 111.082 186.813 121.282C181.621 130.776 171.044 135.355 161 133.288L161 129.001L167.5 123.001L175 104.501L181.306 91.5007Z" fill="#F1F4F5"/>
<path d="M161.109 126.453V124.453H159.839L159.299 125.602L161.109 126.453ZM172.72 107.774L171.111 106.585L170.91 106.857L170.81 107.18L172.72 107.774ZM203.5 23.5L205.355 22.7516C205.135 22.2082 204.689 21.7883 204.133 21.6028C203.577 21.4173 202.968 21.485 202.466 21.7879L203.5 23.5ZM178.525 99.9199L180.133 101.109L180.326 100.849L180.426 100.541L178.525 99.9199ZM166.914 126.453V128.453H168.387L168.824 127.047L166.914 126.453ZM156.69 131.15C156.22 132.15 156.649 133.341 157.649 133.811C158.649 134.281 159.84 133.852 160.31 132.852L156.69 131.15ZM175.966 37.7879C175.021 38.3588 174.717 39.5882 175.288 40.5337C175.859 41.4793 177.088 41.783 178.034 41.2121L175.966 37.7879ZM213.145 52.7493C213.559 53.7737 214.724 54.269 215.748 53.8557C216.773 53.4424 217.268 52.2769 216.855 51.2526L213.145 52.7493ZM174.328 108.962L180.133 101.109L176.917 98.731L171.111 106.585L174.328 108.962ZM180.426 100.541L205.401 24.1213L201.599 22.8787L176.624 99.2986L180.426 100.541ZM161.109 128.453H166.914V124.453H161.109V128.453ZM168.824 127.047L174.63 108.367L170.81 107.18L165.004 125.859L168.824 127.047ZM160.31 132.852L162.919 127.304L159.299 125.602L156.69 131.15L160.31 132.852ZM202.466 21.7879L175.966 37.7879L178.034 41.2121L204.534 25.2121L202.466 21.7879ZM201.645 24.2484L213.145 52.7493L216.855 51.2526L205.355 22.7516L201.645 24.2484Z" fill="#007699"/>
<path d="M212.791 126.379L205.351 139.968L251.204 165.014L258.644 151.425L212.791 126.379Z" fill="#F1F4F5"/>
<path d="M235.334 138.369L212.713 126.013L205.286 139.578L247.889 162.849C249.774 163.878 252.107 163.195 253.43 161.225L257.144 154.443C258.175 152.559 257.493 150.228 255.522 148.907L252.506 147.259L249.113 145.406" stroke="#007699" stroke-width="2" stroke-miterlimit="10" stroke-linecap="round"/>
<path d="M244.78 143.773L240.201 141.271" stroke="#007699" stroke-width="2" stroke-miterlimit="10" stroke-linecap="round"/>
</svg>
