<?xml version="1.0" encoding="utf-8"?>
<!-- Generator: Adobe Illustrator 23.0.1, SVG Export Plug-In . SVG Version: 6.00 Build 0)  -->
<svg version="1.1" id="iconmonstr" xmlns="http://www.w3.org/2000/svg" xmlns:xlink="http://www.w3.org/1999/xlink" x="0px" y="0px"
	 viewBox="0 0 24 24" style="enable-background:new 0 0 24 24;" xml:space="preserve">
<style type="text/css">
	.st0{fill:#2559A7;}
</style>
<path id="time-19" class="st0" d="M15.9,13.3l2.6-4l-0.5-0.4L14.4,12c-0.7-0.1-1.4,0.1-1.9,0.6c-0.7,0.8-0.7,2.1,0.2,2.8
	c0.8,0.7,2.1,0.7,2.8-0.2C16,14.7,16.1,14,15.9,13.3z M12,2.7V0h4v2.7C14.6,2.5,13.4,2.5,12,2.7z M20.9,4.8l1.4-1.4l1.4,1.4
	l-1.3,1.3C21.9,5.6,21.4,5.2,20.9,4.8z M2,9h8v2H2V9z M0,13h8v2H0V13z M3,17h7v2H3V17z M24,14c0,5.5-4.5,10-10,10
	c-2.8,0-5.3-1.1-7.1-3h3.3c1.1,0.6,2.4,1,3.8,1c4.4,0,8-3.6,8-8s-3.6-8-8-8c-1.4,0-2.7,0.4-3.8,1H6.9c1.8-1.8,4.3-3,7.1-3
	C19.5,4,24,8.5,24,14z"/>
</svg>
