<?xml version="1.0" encoding="utf-8"?>
<!-- Generator: Adobe Illustrator 23.0.1, SVG Export Plug-In . SVG Version: 6.00 Build 0)  -->
<svg version="1.1" id="iconmonstr" xmlns="http://www.w3.org/2000/svg" xmlns:xlink="http://www.w3.org/1999/xlink" x="0px" y="0px"
	 viewBox="0 0 24 24" style="enable-background:new 0 0 24 24;" xml:space="preserve">
<style type="text/css">
	.st0{fill:#2559A7;}
</style>
<path id="weather-64" class="st0" d="M11,10H0V8h11c0.6,0,1-0.4,1-1s-0.4-1-1-1c-0.4,0-0.8,0.2-0.9,0.6l-1.7-1C8.8,4.7,9.8,4,11,4
	C15,4,15,10,11,10z M18,17c0-1.7-1.3-3-3-3H0v2h15c0.6,0,1,0.5,1,1s-0.4,1-1,1c-0.4,0-0.8-0.2-0.9-0.6l-1.8,1c0.5,1,1.5,1.6,2.7,1.6
	C16.7,20,18,18.7,18,17z M19,9.3C19.1,8.6,19.7,8,20.5,8C21.3,8,22,8.7,22,9.5S21.3,11,20.5,11H0v2h20.5c1.9,0,3.5-1.6,3.5-3.5
	S22.4,6,20.5,6c-1.6,0-3,1.1-3.4,2.6L19,9.3z"/>
</svg>
